<?xml version="1.0" standalone="yes"?>

<svg version="1.1" viewBox="0.0 0.0 960.0 540.0" fill="none" stroke="none" stroke-linecap="square" stroke-miterlimit="10" xmlns="http://www.w3.org/2000/svg" xmlns:xlink="http://www.w3.org/1999/xlink"><clipPath id="p.0"><path d="m0 0l960.0 0l0 540.0l-960.0 0l0 -540.0z" clip-rule="nonzero"></path></clipPath><g clip-path="url(#p.0)"><path fill="#000000" fill-opacity="0.0" d="m0 0l960.0 0l0 540.0l-960.0 0z" fill-rule="nonzero"></path><path fill="#efefef" fill-opacity="0.2038" d="m53.0 188.50394l0 0c0 -67.65706 54.846878 -122.50394 122.50394 -122.50394l0 0c32.490067 0 63.649414 12.906631 86.62335 35.88057c22.973969 22.973946 35.880585 54.1333 35.880585 86.62337l0 0c0 67.65704 -54.846878 122.50394 -122.50394 122.50394l0 0c-67.65706 0 -122.50394 -54.846893 -122.50394 -122.50394z" fill-rule="nonzero"></path><path stroke="#cccccc" stroke-width="4.0" stroke-linejoin="round" stroke-linecap="butt" d="m53.0 188.50394l0 0c0 -67.65706 54.846878 -122.50394 122.50394 -122.50394l0 0c32.490067 0 63.649414 12.906631 86.62335 35.88057c22.973969 22.973946 35.880585 54.1333 35.880585 86.62337l0 0c0 67.65704 -54.846878 122.50394 -122.50394 122.50394l0 0c-67.65706 0 -122.50394 -54.846893 -122.50394 -122.50394z" fill-rule="nonzero"></path><path fill="#000000" d="m102.19307 184.34581l-1.34375 0l-2.140625 -2.59375l2.234375 0l1.25 2.59375z" fill-rule="nonzero"></path><path fill="#efefef" fill-opacity="0.2038" d="m229.0 188.50394l0 0c0 -67.65706 54.846893 -122.50394 122.50394 -122.50394l0 0c32.49005 0 63.649414 12.906624 86.62335 35.88057c22.973938 22.973946 35.880585 54.1333 35.880585 86.62337l0 0c0 67.65704 -54.846893 122.50394 -122.50394 122.50394l0 0c-67.65704 0 -122.50394 -54.846893 -122.50394 -122.50394z" fill-rule="nonzero"></path><path stroke="#cccccc" stroke-width="4.0" stroke-linejoin="round" stroke-linecap="butt" d="m229.0 188.50394l0 0c0 -67.65706 54.846893 -122.50394 122.50394 -122.50394l0 0c32.49005 0 63.649414 12.906624 86.62335 35.88057c22.973938 22.973946 35.880585 54.1333 35.880585 86.62337l0 0c0 67.65704 -54.846893 122.50394 -122.50394 122.50394l0 0c-67.65704 0 -122.50394 -54.846893 -122.50394 -122.50394z" fill-rule="nonzero"></path><path fill="#efefef" fill-opacity="0.2038" d="m141.49606 339.50394l0 0c0 -67.65704 54.846878 -122.50394 122.50394 -122.50394l0 0c32.49005 0 63.649414 12.906631 86.62335 35.88057c22.973938 22.973953 35.880585 54.133316 35.880585 86.62337l0 0c0 67.65704 -54.846893 122.50394 -122.50394 122.50394l0 0c-67.65706 0 -122.50394 -54.846893 -122.50394 -122.50394z" fill-rule="nonzero"></path><path stroke="#cccccc" stroke-width="4.0" stroke-linejoin="round" stroke-linecap="butt" d="m141.49606 339.50394l0 0c0 -67.65704 54.846878 -122.50394 122.50394 -122.50394l0 0c32.49005 0 63.649414 12.906631 86.62335 35.88057c22.973938 22.973953 35.880585 54.133316 35.880585 86.62337l0 0c0 67.65704 -54.846893 122.50394 -122.50394 122.50394l0 0c-67.65706 0 -122.50394 -54.846893 -122.50394 -122.50394z" fill-rule="nonzero"></path><path fill="#000000" fill-opacity="0.0" d="m58.0 156.51181l193.98425 0l0 49.984253l-193.98425 0z" fill-rule="nonzero"></path><path fill="#cccccc" d="m134.1 171.84393q2.359375 1.53125 3.796875 4.09375q1.453125 2.5625 1.453125 6.265625q0 3.25 -1.296875 5.65625q-1.296875 2.40625 -3.421875 3.953125q-2.171875 1.53125 -4.921875 2.28125q-2.7500076 0.75 -5.7656326 0.75l-12.921875 0l0 -1.40625q0.578125 -0.015625 1.4375 -0.109375q0.875 -0.09375 1.15625 -0.21875q0.65625 -0.265625 0.90625 -0.71875q0.25 -0.46875 0.25 -1.125l0 -18.171875q0 -0.609375 -0.234375 -1.109375q-0.234375 -0.5 -0.921875 -0.8125q-0.6875 -0.296875 -1.453125 -0.40625q-0.765625 -0.109375 -1.1875 -0.15625l0 -1.40625l13.640625 0q2.1875 0 4.6718826 0.5625q2.5 0.5625 4.8125 2.078125zm-3.671875 18.375q0.875 -1.453125 1.28125 -3.4375q0.40625 -2.0 0.40625 -4.609375q0 -2.546875 -0.546875 -4.640625q-0.53125 -2.09375 -1.578125 -3.578125q-1.046875 -1.46875 -2.6093826 -2.28125q-1.5625 -0.828125 -3.546875 -0.828125q-0.640625 0 -1.453125 0.03125q-0.796875 0.03125 -1.1875 0.046875l0 19.453125q0 0.65625 0.171875 1.15625q0.171875 0.5 0.578125 0.875q0.421875 0.375 1.015625 0.59375q0.609375 0.203125 1.59375 0.203125q2.03125 0 3.5000076 -0.75q1.46875 -0.765625 2.375 -2.234375zm32.177948 4.25q-0.796875 0.34375 -1.890625 0.625q-1.078125 0.296875 -2.28125 0.296875q-2.234375 0 -3.28125 -0.65625q-1.046875 -0.671875 -1.421875 -1.890625l-0.109375 0q-0.609375 0.609375 -1.1875 1.046875q-0.5625 0.421875 -1.21875 0.734375q-0.84375 0.40625 -1.640625 0.59375q-0.78125 0.1875 -2.1875 0.1875q-2.09375 0 -3.578125 -1.234375q-1.484375 -1.25 -1.484375 -3.28125q0 -1.171875 0.328125 -2.0q0.328125 -0.828125 0.921875 -1.453125q0.546875 -0.578125 1.25 -0.953125q0.71875 -0.390625 1.578125 -0.703125q1.625 -0.609375 3.890625 -1.25q2.28125 -0.640625 3.328125 -1.140625l0 -1.734375q0 -0.453125 -0.078125 -1.1875q-0.0625 -0.75 -0.296875 -1.25q-0.25 -0.578125 -0.796875 -0.96875q-0.546875 -0.40625 -1.421875 -0.40625q-0.796875 0 -1.34375 0.234375q-0.53125 0.21875 -0.84375 0.453125q0.046875 0.359375 0.296875 1.109375q0.25 0.734375 0.25 1.421875q0 0.296875 -0.15625 0.765625q-0.15625 0.453125 -0.46875 0.734375q-0.421875 0.359375 -0.9375 0.5625q-0.515625 0.1875 -1.578125 0.1875q-1.515625 0 -2.296875 -0.71875q-0.765625 -0.734375 -0.765625 -1.921875q0 -1.0 0.796875 -1.796875q0.8125 -0.8125 1.96875 -1.34375q1.125 -0.53125 2.609375 -0.828125q1.484375 -0.3125 2.75 -0.3125q1.75 0 3.203125 0.21875q1.46875 0.203125 2.65625 0.859375q1.109375 0.625 1.765625 1.828125q0.671875 1.203125 0.671875 3.140625q0 2.03125 -0.09375 4.84375q-0.078125 2.796875 -0.078125 3.671875q0 0.8125 0.25 1.296875q0.25 0.46875 0.75 0.703125q0.3125 0.140625 0.96875 0.171875q0.65625 0.015625 1.203125 0.015625l0 1.328125zm-8.984375 -9.421875q-1.015625 0.34375 -2.015625 0.796875q-0.984375 0.4375 -1.609375 0.921875q-0.671875 0.515625 -1.0625 1.296875q-0.375 0.78125 -0.375 1.84375q0 1.421875 0.640625 2.046875q0.640625 0.625 1.578125 0.625q1.0 0 1.640625 -0.40625q0.640625 -0.40625 1.125 -1.0l0.078125 -6.125zm24.002106 8.96875q-1.15625 0.5 -2.46875 0.90625q-1.3125 0.40625 -3.21875 0.40625q-2.8125 0 -4.1875 -1.375q-1.359375 -1.375 -1.359375 -3.921875l0 -11.09375l-3.25 0l0 -1.9375l3.328125 0l0 -5.484375l5.875 0l0 5.484375l5.046875 0l0 1.9375l-5.015625 0l0 9.90625q0 2.109375 0.578125 3.0q0.59375 0.890625 2.109375 0.890625q0.484375 0 1.34375 -0.078125q0.875 -0.078125 1.21875 -0.15625l0 1.515625zm22.055206 0.453125q-0.796875 0.34375 -1.890625 0.625q-1.078125 0.296875 -2.28125 0.296875q-2.234375 0 -3.28125 -0.65625q-1.046875 -0.671875 -1.421875 -1.890625l-0.109375 0q-0.609375 0.609375 -1.1875 1.046875q-0.5625 0.421875 -1.21875 0.734375q-0.84375 0.40625 -1.640625 0.59375q-0.78125 0.1875 -2.1875 0.1875q-2.09375 0 -3.578125 -1.234375q-1.484375 -1.25 -1.484375 -3.28125q0 -1.171875 0.328125 -2.0q0.328125 -0.828125 0.921875 -1.453125q0.546875 -0.578125 1.25 -0.953125q0.71875 -0.390625 1.578125 -0.703125q1.625 -0.609375 3.890625 -1.25q2.28125 -0.640625 3.328125 -1.140625l0 -1.734375q0 -0.453125 -0.078125 -1.1875q-0.0625 -0.75 -0.296875 -1.25q-0.25 -0.578125 -0.796875 -0.96875q-0.546875 -0.40625 -1.421875 -0.40625q-0.796875 0 -1.34375 0.234375q-0.53125 0.21875 -0.84375 0.453125q0.046875 0.359375 0.296875 1.109375q0.25 0.734375 0.25 1.421875q0 0.296875 -0.15625 0.765625q-0.15625 0.453125 -0.46875 0.734375q-0.421875 0.359375 -0.9375 0.5625q-0.515625 0.1875 -1.578125 0.1875q-1.515625 0 -2.296875 -0.71875q-0.765625 -0.734375 -0.765625 -1.921875q0 -1.0 0.796875 -1.796875q0.8125 -0.8125 1.96875 -1.34375q1.125 -0.53125 2.609375 -0.828125q1.484375 -0.3125 2.75 -0.3125q1.75 0 3.203125 0.21875q1.46875 0.203125 2.65625 0.859375q1.109375 0.625 1.765625 1.828125q0.671875 1.203125 0.671875 3.140625q0 2.03125 -0.09375 4.84375q-0.078125 2.796875 -0.078125 3.671875q0 0.8125 0.25 1.296875q0.25 0.46875 0.75 0.703125q0.3125 0.140625 0.96875 0.171875q0.65625 0.015625 1.203125 0.015625l0 1.328125zm-8.984375 -9.421875q-1.015625 0.34375 -2.015625 0.796875q-0.984375 0.4375 -1.609375 0.921875q-0.671875 0.515625 -1.0625 1.296875q-0.375 0.78125 -0.375 1.84375q0 1.421875 0.640625 2.046875q0.640625 0.625 1.578125 0.625q1.0 0 1.640625 -0.40625q0.640625 -0.40625 1.125 -1.0l0.078125 -6.125z" fill-rule="nonzero"></path><path fill="#000000" fill-opacity="0.0" d="m167.00787 339.5118l193.98425 0l0 49.984253l-193.98425 0z" fill-rule="nonzero"></path><path fill="#cccccc" d="m232.37042 353.65643q-0.59375 0.046875 -1.140625 0.21875q-0.53125 0.15625 -1.109375 0.5q-0.78125 0.453125 -1.203125 0.96875q-0.421875 0.515625 -0.84375 1.421875q-0.5625 1.234375 -1.578125 3.640625q-1.0 2.390625 -2.296875 5.4375q-1.15625 2.75 -2.515625 6.03125q-1.34375 3.265625 -2.5625 6.265625l-3.640625 0q-2.53125 -6.203125 -5.15625 -12.59375q-2.609375 -6.40625 -3.671875 -8.890625q-0.421875 -0.90625 -0.8125 -1.359375q-0.375 -0.46875 -1.234375 -0.953125q-0.609375 -0.34375 -1.078125 -0.484375q-0.46875 -0.140625 -1.25 -0.25l0 -1.40625l13.890625 0l0 1.375q-1.953125 0.234375 -2.65625 0.5q-0.6875 0.265625 -0.6875 0.65625q0 0.203125 0.0625 0.4375q0.0625 0.21875 0.1875 0.59375q0.578125 1.59375 2.09375 5.203125q1.53125 3.59375 4.5 10.984375q1.828125 -4.5 3.03125 -7.609375q1.21875 -3.109375 2.140625 -5.484375q0.453125 -1.15625 0.75 -2.15625q0.296875 -1.015625 0.296875 -1.515625q0 -0.578125 -0.828125 -0.96875q-0.828125 -0.390625 -3.078125 -0.5625l0 -1.453125l10.390625 0l0 1.453125zm11.983017 24.1875l-11.421875 0l0 -1.3125q0.46875 -0.046875 0.921875 -0.09375q0.453125 -0.0625 0.78125 -0.1875q0.578125 -0.21875 0.8125 -0.625q0.234375 -0.40625 0.234375 -1.0625l0 -10.515625q0 -0.640625 -0.296875 -1.109375q-0.28125 -0.484375 -0.71875 -0.78125q-0.328125 -0.21875 -0.984375 -0.40625q-0.65625 -0.203125 -1.203125 -0.25l0 -1.328125l8.859375 -0.46875l0.265625 0.265625l0 14.359375q0 0.625 0.265625 1.078125q0.28125 0.4375 0.78125 0.65625q0.359375 0.15625 0.796875 0.28125q0.4375 0.125 0.90625 0.1875l0 1.3125zm-2.640625 -24.640625q0 1.375 -1.0625 2.34375q-1.046875 0.953125 -2.5 0.953125q-1.453125 0 -2.515625 -0.953125q-1.0625 -0.96875 -1.0625 -2.34375q0 -1.375 1.0625 -2.34375q1.0625 -0.984375 2.515625 -0.984375q1.46875 0 2.515625 0.984375q1.046875 0.96875 1.046875 2.34375zm12.7742 25.25q-1.75 0 -3.421875 -0.515625q-1.671875 -0.515625 -2.59375 -1.09375l-0.53125 1.234375l-1.40625 0l-0.25 -6.734375l1.328125 0q0.265625 0.8125 0.890625 1.828125q0.640625 1.015625 1.453125 1.828125q0.859375 0.8125 1.9375 1.375q1.09375 0.5625 2.34375 0.5625q1.640625 0 2.4375153 -0.640625q0.8125 -0.640625 0.8125 -1.96875q0 -0.734375 -0.359375 -1.203125q-0.359375 -0.46875 -0.984375 -0.8125q-0.70314026 -0.359375 -1.5468903 -0.609375q-0.84375 -0.25 -2.078125 -0.609375q-1.21875 -0.375 -2.09375 -0.734375q-0.875 -0.375 -1.828125 -1.171875q-0.8125 -0.703125 -1.296875 -1.6875q-0.484375 -1.0 -0.484375 -2.375q0 -2.546875 2.140625 -4.109375q2.140625 -1.578125 5.609375 -1.578125q1.6406403 0 3.0156403 0.34375q1.390625 0.328125 2.328125 0.71875l0.390625 -1.0625l1.359375 0l0.296875 6.15625l-1.28125 0q-0.640625 -1.875 -2.171875 -3.234375q-1.53125 -1.375 -3.2968903 -1.375q-1.40625 0 -2.203125 0.578125q-0.78125 0.578125 -0.78125 1.609375q0 1.375 1.15625 2.0q1.171875 0.609375 3.2656403 1.140625q3.234375 0.828125 4.734375 2.265625q1.5 1.4375 1.5 3.671875q0 2.953125 -2.328125 4.578125q-2.3125 1.625 -6.0625153 1.625zm34.356705 -0.984375l-8.625 0.515625l-0.265625 -0.25l0 -2.359375l-0.109375 0q-0.609375 0.546875 -1.203125 1.09375q-0.578125 0.53125 -1.390625 0.953125q-0.921875 0.5 -1.75 0.734375q-0.828125 0.234375 -2.390625 0.234375q-2.734375 0 -4.1875 -1.640625q-1.453125 -1.65625 -1.453125 -4.65625l0 -8.125q0 -0.703125 -0.28125 -1.140625q-0.265625 -0.453125 -0.703125 -0.796875q-0.375 -0.265625 -0.953125 -0.375q-0.578125 -0.125 -1.046875 -0.15625l0 -1.328125l8.765625 -0.46875l0.203125 0.265625l0 12.015625q0 1.859375 0.703125 2.75q0.71875 0.890625 1.96875 0.890625q1.28125 0 2.296875 -0.671875q1.03125 -0.671875 1.5 -1.421875l0 -9.75q0 -0.609375 -0.234375 -1.09375q-0.234375 -0.484375 -0.6875 -0.796875q-0.328125 -0.21875 -0.9375 -0.28125q-0.59375 -0.078125 -1.234375 -0.109375l0 -1.328125l8.765625 -0.46875l0.265625 0.265625l0 13.953125q0 0.640625 0.25 1.078125q0.265625 0.4375 0.75 0.75q0.34375 0.21875 0.890625 0.296875q0.546875 0.078125 1.09375 0.09375l0 1.328125zm22.34024 0q-0.796875 0.34375 -1.890625 0.625q-1.078125 0.296875 -2.28125 0.296875q-2.234375 0 -3.28125 -0.65625q-1.046875 -0.671875 -1.421875 -1.890625l-0.109375 0q-0.609375 0.609375 -1.1875 1.046875q-0.5625 0.421875 -1.21875 0.734375q-0.84375 0.40625 -1.640625 0.59375q-0.78125 0.1875 -2.1875 0.1875q-2.09375 0 -3.578125 -1.234375q-1.484375 -1.25 -1.484375 -3.28125q0 -1.171875 0.328125 -2.0q0.328125 -0.828125 0.921875 -1.453125q0.546875 -0.578125 1.25 -0.953125q0.71875 -0.390625 1.578125 -0.703125q1.625 -0.609375 3.890625 -1.25q2.28125 -0.640625 3.328125 -1.140625l0 -1.734375q0 -0.453125 -0.078125 -1.1875q-0.0625 -0.75 -0.296875 -1.25q-0.25 -0.578125 -0.796875 -0.96875q-0.546875 -0.40625 -1.421875 -0.40625q-0.796875 0 -1.34375 0.234375q-0.53125 0.21875 -0.84375 0.453125q0.046875 0.359375 0.296875 1.109375q0.25 0.734375 0.25 1.421875q0 0.296875 -0.15625 0.765625q-0.15625 0.453125 -0.46875 0.734375q-0.421875 0.359375 -0.9375 0.5625q-0.515625 0.1875 -1.578125 0.1875q-1.515625 0 -2.296875 -0.71875q-0.765625 -0.734375 -0.765625 -1.921875q0 -1.0 0.796875 -1.796875q0.8125 -0.8125 1.96875 -1.34375q1.125 -0.53125 2.609375 -0.828125q1.484375 -0.3125 2.75 -0.3125q1.75 0 3.203125 0.21875q1.46875 0.203125 2.65625 0.859375q1.109375 0.625 1.765625 1.828125q0.671875 1.203125 0.671875 3.140625q0 2.03125 -0.09375 4.84375q-0.078125 2.796875 -0.078125 3.671875q0 0.8125 0.25 1.296875q0.25 0.46875 0.75 0.703125q0.3125 0.140625 0.96875 0.171875q0.65625 0.015625 1.203125 0.015625l0 1.328125zm-8.984375 -9.421875q-1.015625 0.34375 -2.015625 0.796875q-0.984375 0.4375 -1.609375 0.921875q-0.671875 0.515625 -1.0625 1.296875q-0.375 0.78125 -0.375 1.84375q0 1.421875 0.640625 2.046875q0.640625 0.625 1.578125 0.625q1.0 0 1.640625 -0.40625q0.640625 -0.40625 1.125 -1.0l0.078125 -6.125zm21.564606 9.796875l-11.328125 0l0 -1.3125q0.46875 -0.046875 0.90625 -0.09375q0.453125 -0.0625 0.796875 -0.1875q0.578125 -0.21875 0.78125 -0.625q0.21875 -0.40625 0.21875 -1.0625l0 -20.03125q0 -0.6875 -0.28125 -1.265625q-0.28125 -0.59375 -0.75 -0.890625q-0.359375 -0.234375 -1.09375 -0.453125q-0.734375 -0.21875 -1.296875 -0.25l0 -1.328125l9.09375 -0.46875l0.265625 0.296875l0 24.15625q0 0.65625 0.234375 1.078125q0.234375 0.40625 0.765625 0.65625q0.359375 0.15625 0.75 0.28125q0.40625 0.125 0.9375 0.1875l0 1.3125z" fill-rule="nonzero"></path><path fill="#000000" fill-opacity="0.0" d="m277.02362 156.51181l193.98425 0l0 49.984253l-193.98425 0z" fill-rule="nonzero"></path><path fill="#cccccc" d="m334.4253 195.53143q-2.359375 0 -4.390625 -0.578125q-2.03125 -0.578125 -3.4375 -1.375l-1.25 1.265625l-1.53125 0l-0.234375 -9.265625l1.546875 0q0.53125 1.3125 1.34375 2.78125q0.8125 1.46875 1.875 2.625q1.109375 1.203125 2.46875 1.96875q1.359375 0.75 3.1875 0.75q2.453125 0 3.765625 -1.203125q1.3125 -1.203125 1.3125 -3.015625q0 -1.5 -1.109375 -2.515625q-1.109375 -1.03125 -3.4375 -1.765625q-1.515625 -0.5 -2.796875 -0.90625q-1.265625 -0.421875 -2.390625 -0.859375q-2.578125 -1.03125 -3.84375 -2.9375q-1.25 -1.921875 -1.25 -4.28125q0 -1.5 0.640625 -2.875q0.65625 -1.390625 1.90625 -2.5q1.1875 -1.015625 3.046875 -1.671875q1.859375 -0.65625 4.046875 -0.65625q2.140625 0 4.0 0.59375q1.859375 0.578125 2.921875 1.1875l1.109375 -1.09375l1.5625 0l0.140625 8.75l-1.546875 0q-0.546875 -1.40625 -1.28125 -2.875q-0.71875 -1.484375 -1.53125 -2.453125q-0.890625 -1.046875 -2.046875 -1.671875q-1.15625 -0.625 -2.703125 -0.625q-1.953125 0 -3.203125 1.109375q-1.234375 1.09375 -1.234375 2.71875q0 1.53125 1.078125 2.515625q1.078125 0.96875 3.359375 1.71875q1.328125 0.453125 2.71875 0.90625q1.390625 0.4375 2.484375 0.859375q2.609375 1.015625 3.96875 2.796875q1.375 1.765625 1.375 4.40625q0 1.671875 -0.78125 3.234375q-0.78125 1.546875 -2.09375 2.5625q-1.453125 1.140625 -3.34375 1.75q-1.890625 0.625 -4.421875 0.625zm26.70755 -1.515625q-1.15625 0.5 -2.46875 0.90625q-1.3125 0.40625 -3.21875 0.40625q-2.8125 0 -4.1875 -1.375q-1.359375 -1.375 -1.359375 -3.921875l0 -11.09375l-3.25 0l0 -1.9375l3.328125 0l0 -5.484375l5.875 0l0 5.484375l5.046875 0l0 1.9375l-5.015625 0l0 9.90625q0 2.109375 0.578125 3.0q0.59375 0.890625 2.109375 0.890625q0.484375 0 1.34375 -0.078125q0.875 -0.078125 1.21875 -0.15625l0 1.515625zm19.852112 -14.96875q1.328125 1.25 2.03125 2.984375q0.703125 1.734375 0.703125 3.765625q0 2.0 -0.703125 3.78125q-0.6875 1.78125 -2.015625 3.046875q-1.4375 1.34375 -3.421875 2.078125q-1.96875 0.71875 -4.515625 0.71875q-2.203125 0 -4.0625 -0.625q-1.84375 -0.640625 -3.265625 -1.90625q-1.375 -1.203125 -2.171875 -2.984375q-0.796875 -1.78125 -0.796875 -3.984375q0 -2.171875 0.6875 -3.859375q0.703125 -1.6875 2.09375 -3.015625q1.34375 -1.265625 3.296875 -1.953125q1.96875 -0.703125 4.390625 -0.703125q2.515625 0 4.4375 0.703125q1.9375 0.6875 3.3125 1.953125zm-4.625 12.53125q0.390625 -1.015625 0.578125 -2.453125q0.1875 -1.453125 0.1875 -3.375q0 -1.265625 -0.1875 -2.890625q-0.171875 -1.625 -0.53125 -2.5625q-0.4375 -1.140625 -1.203125 -1.78125q-0.765625 -0.65625 -1.9375 -0.65625q-1.28125 0 -2.046875 0.703125q-0.765625 0.703125 -1.1875 1.828125q-0.375 1.03125 -0.53125 2.421875q-0.140625 1.375 -0.140625 2.875q0 1.96875 0.125 3.265625q0.125 1.28125 0.625 2.578125q0.40625 1.125 1.1875 1.78125q0.78125 0.640625 1.96875 0.640625q1.078125 0 1.859375 -0.59375q0.78125 -0.609375 1.234375 -1.78125zm27.902924 -11.34375q0 1.359375 -0.859375 2.40625q-0.84375 1.03125 -2.234375 1.03125q-1.3125 0 -2.234375 -0.65625q-0.90625 -0.671875 -0.90625 -1.96875q0 -0.640625 0.078125 -0.984375q0.09375 -0.359375 0.171875 -0.671875q-0.828125 0.046875 -1.75 0.59375q-0.921875 0.53125 -1.625 1.4375l0 9.921875q0 0.625 0.1875 1.046875q0.203125 0.40625 0.671875 0.640625q0.40625 0.203125 1.296875 0.34375q0.890625 0.125 1.296875 0.15625l0 1.3125l-12.09375 0l0 -1.3125q0.453125 -0.046875 0.90625 -0.109375q0.46875 -0.0625 0.796875 -0.171875q0.578125 -0.1875 0.796875 -0.609375q0.21875 -0.421875 0.21875 -1.078125l0 -10.515625q0 -0.65625 -0.3125 -1.171875q-0.3125 -0.515625 -0.75 -0.828125q-0.3125 -0.203125 -0.8125 -0.34375q-0.5 -0.15625 -1.09375 -0.203125l0 -1.328125l8.609375 -0.46875l0.28125 0.265625l0 2.625l0.0625 0q1.25 -1.4375 2.640625 -2.265625q1.40625 -0.828125 2.9375 -0.828125q1.671875 0 2.6875 1.046875q1.03125 1.03125 1.03125 2.6875zm21.833252 -2.0q-0.8125 0.125 -1.59375 0.625q-0.765625 0.484375 -1.265625 1.515625q-1.546875 3.28125 -3.203125 7.0q-1.640625 3.703125 -3.640625 8.03125q-1.125 2.421875 -2.171875 3.859375q-1.046875 1.453125 -1.96875 2.234375q-0.875 0.71875 -1.71875 1.03125q-0.84375 0.328125 -1.71875 0.328125q-1.71875 0 -2.78125 -0.953125q-1.046875 -0.953125 -1.046875 -2.140625q0 -0.515625 0.109375 -0.953125q0.125 -0.421875 0.5 -0.890625q0.296875 -0.40625 0.890625 -0.6875q0.609375 -0.28125 1.375 -0.28125q1.015625 0 1.9375 0.703125q0.921875 0.703125 1.90625 1.953125q0.59375 -0.59375 1.46875 -1.78125q0.890625 -1.171875 1.296875 -2.421875q-2.140625 -4.515625 -3.8125 -7.828125q-1.65625 -3.328125 -3.71875 -7.40625q-0.453125 -0.859375 -1.21875 -1.34375q-0.75 -0.484375 -1.59375 -0.59375l0 -1.3125l11.046875 0l0 1.3125q-0.609375 0.03125 -1.421875 0.28125q-0.796875 0.25 -0.796875 0.640625q0 0.15625 0.046875 0.328125q0.0625 0.171875 0.203125 0.484375q0.625 1.265625 1.75 3.515625q1.125 2.25 2.625 5.265625q1.125 -2.5625 1.90625 -4.40625q0.78125 -1.859375 1.53125 -3.640625q0.171875 -0.453125 0.203125 -0.71875q0.03125 -0.265625 0.03125 -0.359375q0 -0.3125 -0.328125 -0.5625q-0.3125 -0.25 -0.734375 -0.421875q-0.453125 -0.1875 -0.875 -0.265625q-0.421875 -0.09375 -0.6875 -0.140625l0 -1.3125l7.46875 0l0 1.3125z" fill-rule="nonzero"></path><path fill="#000000" fill-opacity="0.0" d="m448.99213 327.0l148.0 0l0 88.97638l-148.0 0z" fill-rule="nonzero"></path><path fill="#cccccc" d="m482.0937 367.31375q-1.84375 0 -3.71875 -0.453125q-1.859375 -0.453125 -3.265625 -1.234375l-1.34375 1.09375l-1.328125 0l1.65625 -8.015625l1.34375 0q0.1875 1.171875 0.6875 2.4375q0.5 1.25 1.296875 2.234375q0.78125 1.015625 1.984375 1.6875q1.203125 0.671875 2.75 0.671875q2.265625 0 3.625 -1.09375q1.359375 -1.109375 1.359375 -2.90625q0 -1.15625 -0.78125 -2.03125q-0.765625 -0.875 -2.484375 -1.5q-1.09375 -0.390625 -2.125 -0.75q-1.015625 -0.375 -1.9375 -0.765625q-1.828125 -0.765625 -2.75 -2.171875q-0.921875 -1.421875 -0.921875 -3.015625q0 -1.46875 0.671875 -2.8125q0.671875 -1.359375 1.9375 -2.421875q1.234375 -1.046875 3.046875 -1.671875q1.828125 -0.640625 4.0 -0.640625q1.8125 0 3.59375 0.53125q1.78125 0.515625 2.625 1.0l1.171875 -0.9375l1.359375 0l-1.625 7.5625l-1.34375 0q-0.203125 -1.328125 -0.59375 -2.5q-0.375 -1.171875 -1.046875 -2.109375q-0.65625 -0.90625 -1.640625 -1.4375q-0.96875 -0.546875 -2.34375 -0.546875q-1.90625 0 -3.1875 1.0625q-1.265625 1.0625 -1.265625 2.671875q0 1.125 0.765625 1.96875q0.765625 0.84375 2.421875 1.46875q0.96875 0.359375 2.03125 0.75q1.0625 0.375 2.03125 0.78125q1.8125 0.75 2.859375 2.046875q1.046875 1.28125 1.046875 3.046875q0 1.671875 -0.765625 3.140625q-0.765625 1.46875 -2.140625 2.53125q-1.453125 1.125 -3.390625 1.734375q-1.9375 0.59375 -4.265625 0.59375zm41.078125 -12.5625q0 2.28125 -0.75 4.53125q-0.75 2.234375 -2.09375 3.953125q-1.390625 1.78125 -3.3125 2.890625q-1.921875 1.09375 -4.390625 1.09375q-2.28125 0 -3.703125 -0.890625q-1.40625 -0.890625 -1.921875 -2.5625q-1.671875 1.828125 -3.28125 2.625q-1.609375 0.78125 -3.53125 0.78125q-1.8125 0 -2.859375 -1.125q-1.046875 -1.125 -1.046875 -2.828125q0 -0.625 0.125 -1.171875q0.125 -0.5625 0.296875 -1.21875l1.0625 -3.703125q0.109375 -0.4375 0.25 -1.1875q0.15625 -0.765625 0.15625 -1.125q0 -0.828125 -0.359375 -1.1875q-0.34375 -0.375 -1.359375 -0.375q-0.5 0 -1.03125 0.15625q-0.515625 0.15625 -0.890625 0.296875l0.34375 -1.40625q1.265625 -0.515625 2.421875 -0.875q1.15625 -0.375 2.1875 -0.375q1.859375 0 2.859375 0.9375q1.015625 0.921875 1.015625 2.34375q0 0.515625 -0.15625 1.484375q-0.15625 0.953125 -0.34375 1.546875l-0.90625 3.03125q-0.15625 0.484375 -0.28125 1.21875q-0.109375 0.71875 -0.109375 1.03125q0 0.890625 0.484375 1.40625q0.5 0.5 1.15625 0.5q0.203125 0 0.59375 -0.046875q0.390625 -0.0625 0.8125 -0.265625q0.4375 -0.203125 1.0625 -0.640625q0.640625 -0.453125 1.234375 -1.125q0 -0.28125 0.0625 -0.8125q0.078125 -0.546875 0.21875 -1.296875l2.0625 -9.046875l4.984375 -0.21875l0.1875 0.21875l-2.0625 8.953125q-0.046875 0.1875 -0.140625 0.796875q-0.078125 0.59375 -0.078125 1.234375q0 1.34375 0.640625 1.984375q0.65625 0.640625 1.921875 0.640625q2.125 0 3.65625 -1.578125q1.546875 -1.59375 1.546875 -4.25q0 -0.265625 -0.03125 -0.578125q-0.03125 -0.3125 -0.125 -0.703125q-0.171875 -0.359375 -0.640625 -0.734375q-0.46875 -0.375 -0.875 -0.765625q-0.453125 -0.453125 -0.796875 -1.09375q-0.34375 -0.65625 -0.34375 -1.59375q0 -0.78125 0.296875 -1.3125q0.3125 -0.53125 0.796875 -0.875q0.359375 -0.265625 0.90625 -0.421875q0.546875 -0.15625 0.96875 -0.15625q1.5 0 2.296875 1.0625q0.8125 1.0625 0.8125 2.828125zm9.234375 12.484375q-1.875 0 -3.296875 -0.515625q-1.40625 -0.5 -2.328125 -1.40625q-0.90625 -0.90625 -1.359375 -2.109375q-0.453125 -1.203125 -0.453125 -2.65625q0 -1.84375 0.6875 -3.578125q0.6875 -1.734375 2.046875 -3.125q1.28125 -1.328125 3.25 -2.15625q1.96875 -0.828125 4.34375 -0.828125q2.796875 0 4.25 0.890625q1.46875 0.890625 1.46875 2.671875q0 1.703125 -1.265625 2.9375q-1.265625 1.21875 -3.4375 1.8125q-1.71875 0.515625 -2.9375 0.734375q-1.203125 0.21875 -2.953125 0.40625q0.03125 0.6875 0.1875 1.546875q0.15625 0.859375 0.46875 1.46875q0.375 0.703125 1.0625 1.125q0.6875 0.40625 1.75 0.40625q1.84375 0 3.125 -0.703125q1.296875 -0.71875 2.46875 -2.265625l1.140625 0.953125q-1.40625 2.0 -3.609375 3.203125q-2.1875 1.1875 -4.609375 1.1875zm3.53125 -12.375q0 -1.328125 -0.484375 -2.03125q-0.484375 -0.71875 -1.34375 -0.71875q-1.203125 0 -2.28125 1.96875q-1.0625 1.953125 -1.359375 4.953125q0.921875 -0.109375 1.828125 -0.28125q0.90625 -0.171875 1.4375 -0.40625q1.171875 -0.515625 1.6875 -1.328125q0.515625 -0.8125 0.515625 -2.15625zm14.296875 12.375q-1.875 0 -3.296875 -0.515625q-1.40625 -0.5 -2.328125 -1.40625q-0.90625 -0.90625 -1.359375 -2.109375q-0.453125 -1.203125 -0.453125 -2.65625q0 -1.84375 0.6875 -3.578125q0.6875 -1.734375 2.046875 -3.125q1.28125 -1.328125 3.25 -2.15625q1.96875 -0.828125 4.34375 -0.828125q2.796875 0 4.25 0.890625q1.46875 0.890625 1.46875 2.671875q0 1.703125 -1.265625 2.9375q-1.265625 1.21875 -3.4375 1.8125q-1.71875 0.515625 -2.9375 0.734375q-1.203125 0.21875 -2.953125 0.40625q0.03125 0.6875 0.1875 1.546875q0.15625 0.859375 0.46875 1.46875q0.375 0.703125 1.0625 1.125q0.6875 0.40625 1.75 0.40625q1.84375 0 3.125 -0.703125q1.296875 -0.71875 2.46875 -2.265625l1.140625 0.953125q-1.40625 2.0 -3.609375 3.203125q-2.1875 1.1875 -4.609375 1.1875zm3.53125 -12.375q0 -1.328125 -0.484375 -2.03125q-0.484375 -0.71875 -1.34375 -0.71875q-1.203125 0 -2.28125 1.96875q-1.0625 1.953125 -1.359375 4.953125q0.921875 -0.109375 1.828125 -0.28125q0.90625 -0.171875 1.4375 -0.40625q1.171875 -0.515625 1.6875 -1.328125q0.515625 -0.8125 0.515625 -2.15625zm12.140625 12.265625q-1.875 0 -3.0 -0.90625q-1.125 -0.921875 -1.125 -2.328125q0 -0.578125 0.078125 -1.09375q0.078125 -0.515625 0.25 -1.328125l1.9375 -8.3125l-2.859375 0l0.375 -1.609375l2.921875 0l1.125 -4.734375l5.0625 0l-1.09375 4.734375l4.234375 0l-0.375 1.609375l-4.21875 0l-1.90625 8.3125q-0.109375 0.4375 -0.21875 1.0625q-0.09375 0.625 -0.09375 0.8125q0 0.890625 0.484375 1.234375q0.5 0.34375 1.515625 0.34375q0.484375 0 1.328125 -0.1875q0.859375 -0.1875 1.203125 -0.3125l-0.34375 1.40625q-1.375 0.609375 -2.765625 0.953125q-1.375 0.34375 -2.515625 0.34375z" fill-rule="nonzero"></path><path fill="#cccccc" d="m494.08588 405.31375q-1.84375 0 -3.71875 -0.453125q-1.859375 -0.453125 -3.265625 -1.234375l-1.34375 1.09375l-1.328125 0l1.65625 -8.015625l1.34375 0q0.1875 1.171875 0.6875 2.4375q0.5 1.25 1.296875 2.234375q0.78125 1.015625 1.984375 1.6875q1.203125 0.671875 2.75 0.671875q2.265625 0 3.625 -1.09375q1.359375 -1.109375 1.359375 -2.90625q0 -1.15625 -0.78125 -2.03125q-0.765625 -0.875 -2.484375 -1.5q-1.09375 -0.390625 -2.125 -0.75q-1.015625 -0.375 -1.9375 -0.765625q-1.828125 -0.765625 -2.75 -2.171875q-0.921875 -1.421875 -0.921875 -3.015625q0 -1.46875 0.671875 -2.8125q0.671875 -1.359375 1.9375 -2.421875q1.234375 -1.046875 3.046875 -1.671875q1.828125 -0.640625 4.0 -0.640625q1.8125 0 3.59375 0.53125q1.78125 0.515625 2.625 1.0l1.171875 -0.9375l1.359375 0l-1.625 7.5625l-1.34375 0q-0.203125 -1.328125 -0.59375 -2.5q-0.375 -1.171875 -1.046875 -2.109375q-0.65625 -0.90625 -1.640625 -1.4375q-0.96875 -0.546875 -2.34375 -0.546875q-1.90625 0 -3.1875 1.0625q-1.265625 1.0625 -1.265625 2.671875q0 1.125 0.765625 1.96875q0.765625 0.84375 2.421875 1.46875q0.96875 0.359375 2.03125 0.75q1.0625 0.375 2.03125 0.78125q1.8125 0.75 2.859375 2.046875q1.046875 1.28125 1.046875 3.046875q0 1.671875 -0.765625 3.140625q-0.765625 1.46875 -2.140625 2.53125q-1.453125 1.125 -3.390625 1.734375q-1.9375 0.59375 -4.265625 0.59375zm32.09375 -10.46875q0 2.09375 -0.75 4.0q-0.734375 1.890625 -2.015625 3.28125q-1.328125 1.4375 -2.984375 2.21875q-1.65625 0.78125 -3.65625 0.78125q-1.5 0 -2.421875 -0.296875q-0.90625 -0.28125 -1.578125 -0.8125l-0.953125 4.15625q-0.046875 0.1875 -0.09375 0.4375q-0.046875 0.265625 -0.046875 0.375q0 0.359375 0.15625 0.65625q0.15625 0.296875 0.46875 0.4375q0.34375 0.15625 1.109375 0.296875q0.765625 0.15625 1.265625 0.1875l-0.25 1.09375l-11.28125 0l0.25 -1.09375q0.40625 -0.03125 1.015625 -0.125q0.609375 -0.078125 0.921875 -0.171875q0.53125 -0.171875 0.8125 -0.546875q0.28125 -0.359375 0.40625 -0.984375l3.09375 -13.625q0.09375 -0.453125 0.234375 -1.15625q0.15625 -0.703125 0.15625 -1.15625q0 -0.828125 -0.34375 -1.1875q-0.34375 -0.375 -1.359375 -0.375q-0.46875 0 -1.015625 0.15625q-0.546875 0.15625 -0.90625 0.296875l0.34375 -1.40625q1.265625 -0.515625 2.421875 -0.875q1.15625 -0.375 2.1875 -0.375q0.859375 0 1.515625 0.171875q0.65625 0.15625 1.15625 0.515625q0.421875 0.296875 0.6875 0.71875q0.28125 0.421875 0.46875 0.859375l0.125 0q1.4375 -1.25 2.796875 -1.84375q1.359375 -0.59375 2.609375 -0.59375q2.71875 0 4.078125 1.609375q1.375 1.59375 1.375 4.375zm-6.953125 6.15625q0.671875 -1.359375 1.015625 -2.859375q0.34375 -1.5 0.34375 -3.359375q0 -0.765625 -0.109375 -1.40625q-0.109375 -0.65625 -0.390625 -1.125q-0.28125 -0.484375 -0.765625 -0.75q-0.46875 -0.265625 -1.1875 -0.265625q-0.828125 0 -1.625 0.515625q-0.796875 0.515625 -1.171875 0.96875l-1.9375 8.578125q0 1.078125 0.625 1.796875q0.625 0.703125 1.796875 0.703125q0.96875 0 1.859375 -0.75q0.90625 -0.75 1.546875 -2.046875zm27.265625 -5.640625q0 1.96875 -0.75 3.765625q-0.75 1.796875 -2.125 3.125q-1.484375 1.421875 -3.484375 2.203125q-1.984375 0.765625 -4.46875 0.765625q-3.328125 0 -5.375 -1.765625q-2.046875 -1.78125 -2.046875 -4.84375q0 -2.078125 0.765625 -3.859375q0.78125 -1.78125 2.171875 -3.109375q1.375 -1.296875 3.375 -2.046875q2.0 -0.765625 4.328125 -0.765625q3.53125 0 5.5625 1.734375q2.046875 1.71875 2.046875 4.796875zm-5.5 -1.765625q0 -1.828125 -0.625 -2.6875q-0.609375 -0.859375 -1.78125 -0.859375q-1.203125 0 -2.203125 0.96875q-1.0 0.953125 -1.625 2.8125q-0.546875 1.546875 -0.78125 3.359375q-0.234375 1.796875 -0.234375 3.21875q0 1.890625 0.625 2.75q0.625 0.84375 1.8125 0.84375q1.28125 0 2.21875 -1.046875q0.9375 -1.046875 1.484375 -2.578125q0.546875 -1.5 0.828125 -3.3125q0.28125 -1.828125 0.28125 -3.46875zm12.921875 11.53125q-1.875 0 -3.0 -0.90625q-1.125 -0.921875 -1.125 -2.328125q0 -0.578125 0.078125 -1.09375q0.078125 -0.515625 0.25 -1.328125l1.9375 -8.3125l-2.859375 0l0.375 -1.609375l2.921875 0l1.125 -4.734375l5.0625 0l-1.09375 4.734375l4.234375 0l-0.375 1.609375l-4.21875 0l-1.90625 8.3125q-0.109375 0.4375 -0.21875 1.0625q-0.09375 0.625 -0.09375 0.8125q0 0.890625 0.484375 1.234375q0.5 0.34375 1.515625 0.34375q0.484375 0 1.328125 -0.1875q0.859375 -0.1875 1.203125 -0.3125l-0.34375 1.40625q-1.375 0.609375 -2.765625 0.953125q-1.375 0.34375 -2.515625 0.34375z" fill-rule="nonzero"></path><path fill="#000000" fill-opacity="0.0" d="m448.99213 371.4882c-43.62204 0 -65.433075 -30.874023 -87.24411 -61.748047c-21.811005 -30.873993 -43.62204 -61.748016 -87.24408 -61.748016" fill-rule="nonzero"></path><path stroke="#cccccc" stroke-width="3.0" stroke-linejoin="round" stroke-linecap="butt" d="m438.72852 370.88577l-0.51330566 -0.062042236c-0.31277466 -0.039642334 -0.6243286 -0.081085205 -0.93466187 -0.124176025c-1.241394 -0.1723938 -2.46344 -0.37216187 -3.6669006 -0.5982971c-4.8137817 -0.90448 -9.329315 -2.2311096 -13.589294 -3.9195251c-8.519928 -3.3768616 -16.017456 -8.200928 -22.833405 -13.989807c-13.631897 -11.577759 -24.537415 -27.01477 -35.442932 -42.451782c-21.811005 -30.873993 -43.62204 -61.748016 -87.24408 -61.748016" fill-rule="evenodd"></path><path fill="#cccccc" stroke="#cccccc" stroke-width="3.0" stroke-linecap="butt" d="m438.72852 370.88577l-3.5656128 3.170288l9.45105 -2.824829l-9.055695 -3.9110718z" fill-rule="evenodd"></path><path fill="#000000" fill-opacity="0.0" d="m241.49606 227.0l33.007874 0l0 41.984253l-33.007874 0z" fill-rule="nonzero"></path><path fill="#cccccc" d="m267.69922 239.6815q0 1.0625 -0.609375 1.546875q-0.59375 0.46875 -1.5 0.46875q-0.59375 0 -2.4375 -0.515625q-1.828125 -0.515625 -3.890625 -0.765625q1.359375 1.78125 3.0 3.359375q1.640625 1.5625 1.640625 2.65625q0 0.78125 -0.6875 1.359375q-0.671875 0.5625 -1.421875 0.5625q-0.515625 0 -0.96875 -0.28125q-0.4375 -0.296875 -0.765625 -0.84375q-0.28125 -0.515625 -0.765625 -2.34375q-0.484375 -1.828125 -1.28125 -3.75q-0.765625 1.828125 -1.28125 3.765625q-0.515625 1.9375 -0.75 2.328125q-0.375 0.59375 -0.765625 0.859375q-0.390625 0.265625 -0.96875 0.265625q-0.78125 0 -1.453125 -0.546875q-0.65625 -0.546875 -0.65625 -1.375q0 -1.09375 1.640625 -2.65625q1.640625 -1.578125 3.0 -3.359375q-1.96875 0.234375 -3.875 0.765625q-1.890625 0.515625 -2.453125 0.515625q-0.921875 0 -1.515625 -0.46875q-0.59375 -0.484375 -0.59375 -1.546875q0 -0.953125 0.59375 -1.484375q0.59375 -0.53125 1.515625 -0.53125q0.71875 0 2.328125 0.484375q1.609375 0.484375 4.0 0.765625q-1.546875 -1.96875 -3.09375 -3.453125q-1.546875 -1.5 -1.546875 -2.578125q0 -0.765625 0.671875 -1.34375q0.6875 -0.578125 1.4375 -0.578125q0.53125 0 0.96875 0.28125q0.4375 0.28125 0.765625 0.828125q0.28125 0.515625 0.765625 2.375q0.5 1.84375 1.265625 3.734375q0.78125 -1.921875 1.28125 -3.765625q0.5 -1.859375 0.765625 -2.34375q0.28125 -0.5 0.734375 -0.796875q0.453125 -0.3125 1.0 -0.3125q0.765625 0 1.4375 0.5625q0.671875 0.546875 0.671875 1.359375q0 1.078125 -1.46875 2.53125q-1.46875 1.4375 -3.15625 3.5q2.34375 -0.3125 4.015625 -0.78125q1.6875 -0.46875 2.296875 -0.46875q0.90625 0 1.5 0.53125q0.609375 0.53125 0.609375 1.484375z" fill-rule="nonzero"></path><path fill="#000000" fill-opacity="0.0" d="m624.0 103.0l280.0315 0l0 354.99213l-280.0315 0z" fill-rule="nonzero"></path><path fill="#cccccc" d="m663.7117 139.62125l-0.5 8.21875l-23.609375 0l0 -1.40625q0.625 -0.0625 1.46875 -0.171875q0.859375 -0.125 1.125 -0.234375q0.65625 -0.25 0.90625 -0.703125q0.25 -0.453125 0.25 -1.15625l0 -18.078125q0 -0.65625 -0.203125 -1.078125q-0.1875 -0.421875 -0.953125 -0.765625q-0.5625 -0.25 -1.34375 -0.40625q-0.78125 -0.15625 -1.25 -0.234375l0 -1.40625l14.078125 0l0 1.40625q-0.578125 0.0625 -1.375 0.171875q-0.78125 0.09375 -1.359375 0.265625q-0.703125 0.234375 -0.9375 0.734375q-0.234375 0.5 -0.234375 1.125l0 16.859375q0 1.1875 0.15625 1.875q0.171875 0.6875 0.640625 1.015625q0.46875 0.34375 1.296875 0.453125q0.84375 0.09375 2.328125 0.09375q1.453125 0 2.8125 -0.171875q1.359375 -0.171875 1.953125 -0.75q0.921875 -0.921875 1.890625 -2.59375q0.96875 -1.671875 1.546875 -3.0625l1.3125 0zm20.699524 3.90625q-0.625 1.03125 -1.53125 1.9375q-0.890625 0.90625 -2.03125 1.5625q-1.203125 0.6875 -2.453125 1.03125q-1.234375 0.359375 -2.84375 0.359375q-2.671875 0 -4.609375 -0.75q-1.9375 -0.765625 -3.203125 -2.046875q-1.265625 -1.28125 -1.890625 -3.015625q-0.625 -1.75 -0.625 -3.796875q0 -1.84375 0.671875 -3.53125q0.6875 -1.6875 1.9375 -3.015625q1.21875 -1.28125 3.09375 -2.078125q1.875 -0.796875 4.1875 -0.796875q2.515625 0 4.140625 0.625q1.640625 0.609375 2.703125 1.6875q1.03125 1.03125 1.5 2.4375q0.46875 1.40625 0.46875 2.9375l0 1.171875l-12.21875 0q0 3.703125 1.421875 5.640625q1.4375 1.921875 4.546875 1.921875q1.6875 0 3.046875 -0.921875q1.359375 -0.9375 2.3125 -2.359375l1.375 1.0zm-6.90625 -6.875q0 -1.078125 -0.109375 -2.21875q-0.109375 -1.140625 -0.375 -1.859375q-0.3125 -0.84375 -0.84375 -1.28125q-0.53125 -0.4375 -1.34375 -0.4375q-1.390625 0 -2.21875 1.40625q-0.828125 1.40625 -0.90625 4.46875l5.796875 -0.078125zm29.484009 10.8125q-0.796875 0.34375 -1.890625 0.625q-1.078125 0.296875 -2.28125 0.296875q-2.234375 0 -3.28125 -0.65625q-1.046875 -0.671875 -1.421875 -1.890625l-0.109375 0q-0.609375 0.609375 -1.1875 1.046875q-0.5625 0.421875 -1.21875 0.734375q-0.84375 0.40625 -1.640625 0.59375q-0.78125 0.1875 -2.1875 0.1875q-2.09375 0 -3.578125 -1.234375q-1.484375 -1.25 -1.484375 -3.28125q0 -1.171875 0.328125 -2.0q0.328125 -0.828125 0.921875 -1.453125q0.546875 -0.578125 1.25 -0.953125q0.71875 -0.390625 1.578125 -0.703125q1.625 -0.609375 3.890625 -1.25q2.28125 -0.640625 3.328125 -1.140625l0 -1.734375q0 -0.453125 -0.078125 -1.1875q-0.0625 -0.75 -0.296875 -1.25q-0.25 -0.578125 -0.796875 -0.96875q-0.546875 -0.40625 -1.421875 -0.40625q-0.796875 0 -1.34375 0.234375q-0.53125 0.21875 -0.84375 0.453125q0.046875 0.359375 0.296875 1.109375q0.25 0.734375 0.25 1.421875q0 0.296875 -0.15625 0.765625q-0.15625 0.453125 -0.46875 0.734375q-0.421875 0.359375 -0.9375 0.5625q-0.515625 0.1875 -1.578125 0.1875q-1.515625 0 -2.296875 -0.71875q-0.765625 -0.734375 -0.765625 -1.921875q0 -1.0 0.796875 -1.796875q0.8125 -0.8125 1.96875 -1.34375q1.125 -0.53125 2.609375 -0.828125q1.484375 -0.3125 2.75 -0.3125q1.75 0 3.203125 0.21875q1.46875 0.203125 2.65625 0.859375q1.109375 0.625 1.765625 1.828125q0.671875 1.203125 0.671875 3.140625q0 2.03125 -0.09375 4.84375q-0.078125 2.796875 -0.078125 3.671875q0 0.8125 0.25 1.296875q0.25 0.46875 0.75 0.703125q0.3125 0.140625 0.96875 0.171875q0.65625 0.015625 1.203125 0.015625l0 1.328125zm-8.984375 -9.421875q-1.015625 0.34375 -2.015625 0.796875q-0.984375 0.4375 -1.609375 0.921875q-0.671875 0.515625 -1.0625 1.296875q-0.375 0.78125 -0.375 1.84375q0 1.421875 0.640625 2.046875q0.640625 0.625 1.578125 0.625q1.0 0 1.640625 -0.40625q0.640625 -0.40625 1.125 -1.0l0.078125 -6.125zm28.564636 -4.8125q0 1.359375 -0.859375 2.40625q-0.84375 1.03125 -2.234375 1.03125q-1.3125 0 -2.234375 -0.65625q-0.90625 -0.671875 -0.90625 -1.96875q0 -0.640625 0.078125 -0.984375q0.09375 -0.359375 0.171875 -0.671875q-0.828125 0.046875 -1.75 0.59375q-0.921875 0.53125 -1.625 1.4375l0 9.921875q0 0.625 0.1875 1.046875q0.203125 0.40625 0.671875 0.640625q0.40625 0.203125 1.296875 0.34375q0.890625 0.125 1.296875 0.15625l0 1.3125l-12.09375 0l0 -1.3125q0.453125 -0.046875 0.90625 -0.109375q0.46875 -0.0625 0.796875 -0.171875q0.578125 -0.1875 0.796875 -0.609375q0.21875 -0.421875 0.21875 -1.078125l0 -10.515625q0 -0.65625 -0.3125 -1.171875q-0.3125 -0.515625 -0.75 -0.828125q-0.3125 -0.203125 -0.8125 -0.34375q-0.5 -0.15625 -1.09375 -0.203125l0 -1.328125l8.609375 -0.46875l0.28125 0.265625l0 2.625l0.0625 0q1.25 -1.4375 2.640625 -2.265625q1.40625 -0.828125 2.9375 -0.828125q1.671875 0 2.6875 1.046875q1.03125 1.03125 1.03125 2.6875zm25.255066 14.609375l-10.875 0l0 -1.3125q0.34375 -0.046875 0.828125 -0.09375q0.5 -0.0625 0.75 -0.1875q0.375 -0.1875 0.53125 -0.5625q0.171875 -0.390625 0.171875 -1.125l0 -8.46875q0 -1.84375 -0.6875 -2.765625q-0.671875 -0.9375 -1.984375 -0.9375q-0.71875 0 -1.34375 0.21875q-0.625 0.21875 -1.21875 0.640625q-0.53125 0.359375 -0.84375 0.734375q-0.3125 0.375 -0.53125 0.671875l0 9.703125q0 0.625 0.171875 1.0625q0.1875 0.421875 0.59375 0.640625q0.296875 0.15625 0.71875 0.28125q0.4375 0.125 0.859375 0.1875l0 1.3125l-10.984375 0l0 -1.3125q0.453125 -0.046875 0.90625 -0.109375q0.46875 -0.0625 0.796875 -0.171875q0.578125 -0.1875 0.796875 -0.609375q0.21875 -0.421875 0.21875 -1.078125l0 -10.515625q0 -0.5625 -0.296875 -1.109375q-0.28125 -0.546875 -0.765625 -0.890625q-0.3125 -0.203125 -0.8125 -0.34375q-0.5 -0.15625 -1.09375 -0.203125l0 -1.328125l8.609375 -0.46875l0.28125 0.265625l0 2.625l0.0625 0q0.515625 -0.453125 1.234375 -1.078125q0.71875 -0.640625 1.34375 -1.03125q0.65625 -0.4375 1.734375 -0.734375q1.09375 -0.3125 2.328125 -0.3125q2.9375 0 4.40625 1.671875q1.484375 1.671875 1.484375 4.4375l0 8.84375q0 0.671875 0.1875 1.078125q0.203125 0.390625 0.75 0.625q0.28125 0.125 0.703125 0.25q0.4375 0.125 0.96875 0.1875l0 1.3125zm24.825867 -0.828125q-1.15625 0.5 -2.46875 0.90625q-1.3125 0.40625 -3.21875 0.40625q-2.8125 0 -4.1875 -1.375q-1.359375 -1.375 -1.359375 -3.921875l0 -11.09375l-3.25 0l0 -1.9375l3.328125 0l0 -5.484375l5.875 0l0 5.484375l5.046875 0l0 1.9375l-5.015625 0l0 9.90625q0 2.109375 0.578125 3.0q0.59375 0.890625 2.109375 0.890625q0.484375 0 1.34375 -0.078125q0.875 -0.078125 1.21875 -0.15625l0 1.515625zm24.8833 0.828125l-10.875 0l0 -1.3125q0.359375 -0.046875 0.84375 -0.09375q0.5 -0.0625 0.734375 -0.1875q0.375 -0.1875 0.53125 -0.5625q0.15625 -0.390625 0.15625 -1.125l0 -8.46875q0 -1.859375 -0.703125 -2.78125q-0.6875 -0.921875 -1.96875 -0.921875q-0.734375 0 -1.359375 0.21875q-0.609375 0.21875 -1.21875 0.640625q-0.515625 0.359375 -0.84375 0.734375q-0.3125 0.375 -0.53125 0.671875l0 9.703125q0 0.671875 0.15625 1.0625q0.171875 0.375 0.625 0.640625q0.28125 0.15625 0.71875 0.28125q0.4375 0.125 0.859375 0.1875l0 1.3125l-10.984375 0l0 -1.3125q0.46875 -0.046875 0.90625 -0.09375q0.453125 -0.0625 0.78125 -0.1875q0.578125 -0.21875 0.78125 -0.625q0.21875 -0.40625 0.21875 -1.0625l0 -20.15625q0 -0.578125 -0.28125 -1.21875q-0.265625 -0.65625 -0.75 -0.984375q-0.359375 -0.234375 -1.046875 -0.359375q-0.6875 -0.140625 -1.234375 -0.171875l0 -1.328125l8.984375 -0.46875l0.265625 0.296875l0 12.421875l0.078125 0q0.6875 -0.609375 1.234375 -1.109375q0.5625 -0.5 1.34375 -1.0q0.671875 -0.4375 1.75 -0.734375q1.078125 -0.3125 2.328125 -0.3125q2.921875 0 4.390625 1.6875q1.46875 1.671875 1.46875 4.421875l0 8.84375q0 0.671875 0.203125 1.078125q0.203125 0.390625 0.75 0.625q0.3125 0.140625 0.703125 0.25q0.40625 0.109375 0.984375 0.1875l0 1.3125zm21.30896 -4.3125q-0.625 1.03125 -1.53125 1.9375q-0.890625 0.90625 -2.03125 1.5625q-1.203125 0.6875 -2.453125 1.03125q-1.234375 0.359375 -2.84375 0.359375q-2.671875 0 -4.609375 -0.75q-1.9375 -0.765625 -3.203125 -2.046875q-1.265625 -1.28125 -1.890625 -3.015625q-0.625 -1.75 -0.625 -3.796875q0 -1.84375 0.671875 -3.53125q0.6875 -1.6875 1.9375 -3.015625q1.21875 -1.28125 3.09375 -2.078125q1.875 -0.796875 4.1875 -0.796875q2.515625 0 4.140625 0.625q1.640625 0.609375 2.703125 1.6875q1.03125 1.03125 1.5 2.4375q0.46875 1.40625 0.46875 2.9375l0 1.171875l-12.21875 0q0 3.703125 1.421875 5.640625q1.4375 1.921875 4.546875 1.921875q1.6875 0 3.046875 -0.921875q1.359375 -0.9375 2.3125 -2.359375l1.375 1.0zm-6.90625 -6.875q0 -1.078125 -0.109375 -2.21875q-0.109375 -1.140625 -0.375 -1.859375q-0.3125 -0.84375 -0.84375 -1.28125q-0.53125 -0.4375 -1.34375 -0.4375q-1.390625 0 -2.21875 1.40625q-0.828125 1.40625 -0.90625 4.46875l5.796875 -0.078125zm38.961914 10.8125q-0.796875 0.34375 -1.890625 0.625q-1.078125 0.296875 -2.28125 0.296875q-2.234375 0 -3.28125 -0.65625q-1.046875 -0.671875 -1.421875 -1.890625l-0.109375 0q-0.609375 0.609375 -1.1875 1.046875q-0.5625 0.421875 -1.21875 0.734375q-0.84375 0.40625 -1.640625 0.59375q-0.78125 0.1875 -2.1875 0.1875q-2.09375 0 -3.578125 -1.234375q-1.484375 -1.25 -1.484375 -3.28125q0 -1.171875 0.328125 -2.0q0.328125 -0.828125 0.921875 -1.453125q0.546875 -0.578125 1.25 -0.953125q0.71875 -0.390625 1.578125 -0.703125q1.625 -0.609375 3.890625 -1.25q2.28125 -0.640625 3.328125 -1.140625l0 -1.734375q0 -0.453125 -0.078125 -1.1875q-0.0625 -0.75 -0.296875 -1.25q-0.25 -0.578125 -0.796875 -0.96875q-0.546875 -0.40625 -1.421875 -0.40625q-0.796875 0 -1.34375 0.234375q-0.53125 0.21875 -0.84375 0.453125q0.046875 0.359375 0.296875 1.109375q0.25 0.734375 0.25 1.421875q0 0.296875 -0.15625 0.765625q-0.15625 0.453125 -0.46875 0.734375q-0.421875 0.359375 -0.9375 0.5625q-0.515625 0.1875 -1.578125 0.1875q-1.515625 0 -2.296875 -0.71875q-0.765625 -0.734375 -0.765625 -1.921875q0 -1.0 0.796875 -1.796875q0.8125 -0.8125 1.96875 -1.34375q1.125 -0.53125 2.609375 -0.828125q1.484375 -0.3125 2.75 -0.3125q1.75 0 3.203125 0.21875q1.46875 0.203125 2.65625 0.859375q1.109375 0.625 1.765625 1.828125q0.671875 1.203125 0.671875 3.140625q0 2.03125 -0.09375 4.84375q-0.078125 2.796875 -0.078125 3.671875q0 0.8125 0.25 1.296875q0.25 0.46875 0.75 0.703125q0.3125 0.140625 0.96875 0.171875q0.65625 0.015625 1.203125 0.015625l0 1.328125zm-8.984375 -9.421875q-1.015625 0.34375 -2.015625 0.796875q-0.984375 0.4375 -1.609375 0.921875q-0.671875 0.515625 -1.0625 1.296875q-0.375 0.78125 -0.375 1.84375q0 1.421875 0.640625 2.046875q0.640625 0.625 1.578125 0.625q1.0 0 1.640625 -0.40625q0.640625 -0.40625 1.125 -1.0l0.078125 -6.125zm28.564575 -4.8125q0 1.359375 -0.859375 2.40625q-0.84375 1.03125 -2.234375 1.03125q-1.3125 0 -2.234375 -0.65625q-0.90625 -0.671875 -0.90625 -1.96875q0 -0.640625 0.078125 -0.984375q0.09375 -0.359375 0.171875 -0.671875q-0.828125 0.046875 -1.75 0.59375q-0.921875 0.53125 -1.625 1.4375l0 9.921875q0 0.625 0.1875 1.046875q0.203125 0.40625 0.671875 0.640625q0.40625 0.203125 1.296875 0.34375q0.890625 0.125 1.296875 0.15625l0 1.3125l-12.09375 0l0 -1.3125q0.453125 -0.046875 0.90625 -0.109375q0.46875 -0.0625 0.796875 -0.171875q0.578125 -0.1875 0.796875 -0.609375q0.21875 -0.421875 0.21875 -1.078125l0 -10.515625q0 -0.65625 -0.3125 -1.171875q-0.3125 -0.515625 -0.75 -0.828125q-0.3125 -0.203125 -0.8125 -0.34375q-0.5 -0.15625 -1.09375 -0.203125l0 -1.328125l8.609375 -0.46875l0.28125 0.265625l0 2.625l0.0625 0q1.25 -1.4375 2.640625 -2.265625q1.40625 -0.828125 2.9375 -0.828125q1.671875 0 2.6875 1.046875q1.03125 1.03125 1.03125 2.6875zm14.848877 13.78125q-1.15625 0.5 -2.46875 0.90625q-1.3125 0.40625 -3.21875 0.40625q-2.8125 0 -4.1875 -1.375q-1.359375 -1.375 -1.359375 -3.921875l0 -11.09375l-3.25 0l0 -1.9375l3.328125 0l0 -5.484375l5.875 0l0 5.484375l5.046875 0l0 1.9375l-5.015625 0l0 9.90625q0 2.109375 0.578125 3.0q0.59375 0.890625 2.109375 0.890625q0.484375 0 1.34375 -0.078125q0.875 -0.078125 1.21875 -0.15625l0 1.515625z" fill-rule="nonzero"></path><path fill="#cccccc" d="m674.3906 192.465q-0.796875 0.34375 -1.890625 0.625q-1.078125 0.296875 -2.28125 0.296875q-2.234375 0 -3.28125 -0.65625q-1.046875 -0.671875 -1.421875 -1.890625l-0.109375 0q-0.609375 0.609375 -1.1875 1.046875q-0.5625 0.421875 -1.21875 0.734375q-0.84375 0.40625 -1.640625 0.59375q-0.78125 0.1875 -2.1875 0.1875q-2.09375 0 -3.578125 -1.234375q-1.484375 -1.25 -1.484375 -3.28125q0 -1.171875 0.328125 -2.0q0.328125 -0.828125 0.921875 -1.453125q0.546875 -0.578125 1.25 -0.953125q0.71875 -0.390625 1.578125 -0.703125q1.625 -0.609375 3.890625 -1.25q2.28125 -0.640625 3.328125 -1.140625l0 -1.734375q0 -0.453125 -0.078125 -1.1875q-0.0625 -0.75 -0.296875 -1.25q-0.25 -0.578125 -0.796875 -0.96875q-0.546875 -0.40625 -1.421875 -0.40625q-0.796875 0 -1.34375 0.234375q-0.53125 0.21875 -0.84375 0.453125q0.046875 0.359375 0.296875 1.109375q0.25 0.734375 0.25 1.421875q0 0.296875 -0.15625 0.765625q-0.15625 0.453125 -0.46875 0.734375q-0.421875 0.359375 -0.9375 0.5625q-0.515625 0.1875 -1.578125 0.1875q-1.515625 0 -2.296875 -0.71875q-0.765625 -0.734375 -0.765625 -1.921875q0 -1.0 0.796875 -1.796875q0.8125 -0.8125 1.96875 -1.34375q1.125 -0.53125 2.609375 -0.828125q1.484375 -0.3125 2.75 -0.3125q1.75 0 3.203125 0.21875q1.46875 0.203125 2.65625 0.859375q1.109375 0.625 1.765625 1.828125q0.671875 1.203125 0.671875 3.140625q0 2.03125 -0.09375 4.84375q-0.078125 2.796875 -0.078125 3.671875q0 0.8125 0.25 1.296875q0.25 0.46875 0.75 0.703125q0.3125 0.140625 0.96875 0.171875q0.65625 0.015625 1.203125 0.015625l0 1.328125zm-8.984375 -9.421875q-1.015625 0.34375 -2.015625 0.796875q-0.984375 0.4375 -1.609375 0.921875q-0.671875 0.515625 -1.0625 1.296875q-0.375 0.78125 -0.375 1.84375q0 1.421875 0.640625 2.046875q0.640625 0.625 1.578125 0.625q1.0 0 1.640625 -0.40625q0.640625 -0.40625 1.125 -1.0l0.078125 -6.125zm34.408386 9.796875l-10.875 0l0 -1.3125q0.34375 -0.046875 0.828125 -0.09375q0.5 -0.0625 0.75 -0.1875q0.375 -0.1875 0.53125 -0.5625q0.171875 -0.390625 0.171875 -1.125l0 -8.46875q0 -1.84375 -0.6875 -2.765625q-0.671875 -0.9375 -1.984375 -0.9375q-0.71875 0 -1.34375 0.21875q-0.625 0.21875 -1.21875 0.640625q-0.53125 0.359375 -0.84375 0.734375q-0.3125 0.375 -0.53125 0.671875l0 9.703125q0 0.625 0.171875 1.0625q0.1875 0.421875 0.59375 0.640625q0.296875 0.15625 0.71875 0.28125q0.4375 0.125 0.859375 0.1875l0 1.3125l-10.984375 0l0 -1.3125q0.453125 -0.046875 0.90625 -0.109375q0.46875 -0.0625 0.796875 -0.171875q0.578125 -0.1875 0.796875 -0.609375q0.21875 -0.421875 0.21875 -1.078125l0 -10.515625q0 -0.5625 -0.296875 -1.109375q-0.28125 -0.546875 -0.765625 -0.890625q-0.3125 -0.203125 -0.8125 -0.34375q-0.5 -0.15625 -1.09375 -0.203125l0 -1.328125l8.609375 -0.46875l0.28125 0.265625l0 2.625l0.0625 0q0.515625 -0.453125 1.234375 -1.078125q0.71875 -0.640625 1.34375 -1.03125q0.65625 -0.4375 1.734375 -0.734375q1.09375 -0.3125 2.328125 -0.3125q2.9375 0 4.40625 1.671875q1.484375 1.671875 1.484375 4.4375l0 8.84375q0 0.671875 0.1875 1.078125q0.203125 0.390625 0.75 0.625q0.28125 0.125 0.703125 0.25q0.4375 0.125 0.96875 0.1875l0 1.3125zm25.269836 -0.375l-8.90625 0.515625l-0.265625 -0.25l0 -1.65625l-0.125 -0.046875q-0.890625 0.96875 -2.40625 1.6875q-1.5 0.703125 -3.03125 0.703125q-3.65625 0 -6.03125 -2.703125q-2.359375 -2.71875 -2.359375 -7.015625q0 -3.8125 2.640625 -6.53125q2.65625 -2.734375 6.40625 -2.734375q1.484375 0 2.78125 0.34375q1.3125 0.328125 2.078125 0.765625l0 -5.90625q0 -0.65625 -0.265625 -1.25q-0.265625 -0.59375 -0.71875 -0.90625q-0.5625 -0.40625 -1.40625 -0.578125q-0.84375 -0.171875 -1.6875 -0.234375l0 -1.328125l9.75 -0.46875l0.28125 0.296875l0 23.671875q0 0.6875 0.21875 1.171875q0.234375 0.46875 0.734375 0.734375q0.375 0.203125 1.109375 0.296875q0.734375 0.078125 1.203125 0.09375l0 1.328125zm-9.21875 -3.21875l0 -10.203125q-0.125 -0.421875 -0.359375 -0.921875q-0.21875 -0.515625 -0.609375 -0.96875q-0.359375 -0.375 -0.96875 -0.65625q-0.609375 -0.296875 -1.359375 -0.296875q-1.8125 0 -2.96875 2.046875q-1.15625 2.03125 -1.15625 5.765625q0 1.453125 0.203125 2.625q0.21875 1.15625 0.734375 2.125q0.53125 0.953125 1.34375 1.5q0.828125 0.53125 1.984375 0.53125q1.109375 0 1.828125 -0.421875q0.71875 -0.421875 1.328125 -1.125zm28.448364 4.203125q-1.75 0 -3.421875 -0.515625q-1.671875 -0.515625 -2.59375 -1.09375l-0.53125 1.234375l-1.40625 0l-0.25 -6.734375l1.328125 0q0.265625 0.8125 0.890625 1.828125q0.640625 1.015625 1.453125 1.828125q0.859375 0.8125 1.9375 1.375q1.09375 0.5625 2.34375 0.5625q1.640625 0 2.4375 -0.640625q0.8125 -0.640625 0.8125 -1.96875q0 -0.734375 -0.359375 -1.203125q-0.359375 -0.46875 -0.984375 -0.8125q-0.703125 -0.359375 -1.546875 -0.609375q-0.84375 -0.25 -2.078125 -0.609375q-1.21875 -0.375 -2.09375 -0.734375q-0.875 -0.375 -1.828125 -1.171875q-0.8125 -0.703125 -1.296875 -1.6875q-0.484375 -1.0 -0.484375 -2.375q0 -2.546875 2.140625 -4.109375q2.140625 -1.578125 5.609375 -1.578125q1.640625 0 3.015625 0.34375q1.390625 0.328125 2.328125 0.71875l0.390625 -1.0625l1.359375 0l0.296875 6.15625l-1.28125 0q-0.640625 -1.875 -2.171875 -3.234375q-1.53125 -1.375 -3.296875 -1.375q-1.40625 0 -2.203125 0.578125q-0.78125 0.578125 -0.78125 1.609375q0 1.375 1.15625 2.0q1.171875 0.609375 3.265625 1.140625q3.234375 0.828125 4.734375 2.265625q1.5 1.4375 1.5 3.671875q0 2.953125 -2.328125 4.578125q-2.3125 1.625 -6.0625 1.625zm21.091064 -0.03125q-2.5 0 -4.4375 -0.734375q-1.921875 -0.734375 -3.15625 -2.0q-1.25 -1.28125 -1.875 -3.03125q-0.609375 -1.75 -0.609375 -3.8125q0 -1.875 0.75 -3.5625q0.75 -1.703125 2.03125 -3.0q1.328125 -1.3125 3.28125 -2.09375q1.953125 -0.796875 4.328125 -0.796875q3.328125 0 5.25 1.265625q1.9375 1.25 1.9375 3.390625q0 1.296875 -0.6875 2.09375q-0.6875 0.796875 -2.359375 0.796875q-1.359375 0 -2.28125 -0.65625q-0.90625 -0.65625 -0.90625 -1.703125q0 -0.875 0.28125 -1.734375q0.296875 -0.875 0.359375 -1.328125q-0.203125 -0.328125 -0.515625 -0.5q-0.296875 -0.171875 -0.953125 -0.171875q-0.8125 0 -1.484375 0.390625q-0.671875 0.375 -1.25 1.328125q-0.546875 0.90625 -0.890625 2.421875q-0.328125 1.515625 -0.328125 3.640625q0 3.21875 1.5 5.1875q1.515625 1.96875 3.609375 1.96875q2.0 0 3.1875 -0.890625q1.1875 -0.890625 2.109375 -2.546875l1.359375 0.953125q-0.5625 1.09375 -1.34375 2.015625q-0.78125 0.90625 -1.859375 1.609375q-1.140625 0.734375 -2.3125 1.109375q-1.171875 0.390625 -2.734375 0.390625zm20.939941 -0.578125l-11.421875 0l0 -1.3125q0.46875 -0.046875 0.921875 -0.09375q0.453125 -0.0625 0.78125 -0.1875q0.578125 -0.21875 0.8125 -0.625q0.234375 -0.40625 0.234375 -1.0625l0 -10.515625q0 -0.640625 -0.296875 -1.109375q-0.28125 -0.484375 -0.71875 -0.78125q-0.328125 -0.21875 -0.984375 -0.40625q-0.65625 -0.203125 -1.203125 -0.25l0 -1.328125l8.859375 -0.46875l0.265625 0.265625l0 14.359375q0 0.625 0.265625 1.078125q0.28125 0.4375 0.78125 0.65625q0.359375 0.15625 0.796875 0.28125q0.4375 0.125 0.90625 0.1875l0 1.3125zm-2.640625 -24.640625q0 1.375 -1.0625 2.34375q-1.046875 0.953125 -2.5 0.953125q-1.453125 0 -2.515625 -0.953125q-1.0625 -0.96875 -1.0625 -2.34375q0 -1.375 1.0625 -2.34375q1.0625 -0.984375 2.515625 -0.984375q1.46875 0 2.515625 0.984375q1.046875 0.96875 1.046875 2.34375zm23.83667 20.328125q-0.625 1.03125 -1.53125 1.9375q-0.890625 0.90625 -2.03125 1.5625q-1.203125 0.6875 -2.453125 1.03125q-1.234375 0.359375 -2.84375 0.359375q-2.671875 0 -4.609375 -0.75q-1.9375 -0.765625 -3.203125 -2.046875q-1.265625 -1.28125 -1.890625 -3.015625q-0.625 -1.75 -0.625 -3.796875q0 -1.84375 0.671875 -3.53125q0.6875 -1.6875 1.9375 -3.015625q1.21875 -1.28125 3.09375 -2.078125q1.875 -0.796875 4.1875 -0.796875q2.515625 0 4.140625 0.625q1.640625 0.609375 2.703125 1.6875q1.03125 1.03125 1.5 2.4375q0.46875 1.40625 0.46875 2.9375l0 1.171875l-12.21875 0q0 3.703125 1.421875 5.640625q1.4375 1.921875 4.546875 1.921875q1.6875 0 3.046875 -0.921875q1.359375 -0.9375 2.3125 -2.359375l1.375 1.0zm-6.90625 -6.875q0 -1.078125 -0.109375 -2.21875q-0.109375 -1.140625 -0.375 -1.859375q-0.3125 -0.84375 -0.84375 -1.28125q-0.53125 -0.4375 -1.34375 -0.4375q-1.390625 0 -2.21875 1.40625q-0.828125 1.40625 -0.90625 4.46875l5.796875 -0.078125zm32.67151 11.1875l-10.875 0l0 -1.3125q0.34375 -0.046875 0.828125 -0.09375q0.5 -0.0625 0.75 -0.1875q0.375 -0.1875 0.53125 -0.5625q0.171875 -0.390625 0.171875 -1.125l0 -8.46875q0 -1.84375 -0.6875 -2.765625q-0.671875 -0.9375 -1.984375 -0.9375q-0.71875 0 -1.34375 0.21875q-0.625 0.21875 -1.21875 0.640625q-0.53125 0.359375 -0.84375 0.734375q-0.3125 0.375 -0.53125 0.671875l0 9.703125q0 0.625 0.171875 1.0625q0.1875 0.421875 0.59375 0.640625q0.296875 0.15625 0.71875 0.28125q0.4375 0.125 0.859375 0.1875l0 1.3125l-10.984375 0l0 -1.3125q0.453125 -0.046875 0.90625 -0.109375q0.46875 -0.0625 0.796875 -0.171875q0.578125 -0.1875 0.796875 -0.609375q0.21875 -0.421875 0.21875 -1.078125l0 -10.515625q0 -0.5625 -0.296875 -1.109375q-0.28125 -0.546875 -0.765625 -0.890625q-0.3125 -0.203125 -0.8125 -0.34375q-0.5 -0.15625 -1.09375 -0.203125l0 -1.328125l8.609375 -0.46875l0.28125 0.265625l0 2.625l0.0625 0q0.515625 -0.453125 1.234375 -1.078125q0.71875 -0.640625 1.34375 -1.03125q0.65625 -0.4375 1.734375 -0.734375q1.09375 -0.3125 2.328125 -0.3125q2.9375 0 4.40625 1.671875q1.484375 1.671875 1.484375 4.4375l0 8.84375q0 0.671875 0.1875 1.078125q0.203125 0.390625 0.75 0.625q0.28125 0.125 0.703125 0.25q0.4375 0.125 0.96875 0.1875l0 1.3125zm12.223022 0.578125q-2.5 0 -4.4375 -0.734375q-1.921875 -0.734375 -3.15625 -2.0q-1.25 -1.28125 -1.875 -3.03125q-0.609375 -1.75 -0.609375 -3.8125q0 -1.875 0.75 -3.5625q0.75 -1.703125 2.03125 -3.0q1.328125 -1.3125 3.28125 -2.09375q1.953125 -0.796875 4.328125 -0.796875q3.328125 0 5.25 1.265625q1.9375 1.25 1.9375 3.390625q0 1.296875 -0.6875 2.09375q-0.6875 0.796875 -2.359375 0.796875q-1.359375 0 -2.28125 -0.65625q-0.90625 -0.65625 -0.90625 -1.703125q0 -0.875 0.28125 -1.734375q0.296875 -0.875 0.359375 -1.328125q-0.203125 -0.328125 -0.515625 -0.5q-0.296875 -0.171875 -0.953125 -0.171875q-0.8125 0 -1.484375 0.390625q-0.671875 0.375 -1.25 1.328125q-0.546875 0.90625 -0.890625 2.421875q-0.328125 1.515625 -0.328125 3.640625q0 3.21875 1.5 5.1875q1.515625 1.96875 3.609375 1.96875q2.0 0 3.1875 -0.890625q1.1875 -0.890625 2.109375 -2.546875l1.359375 0.953125q-0.5625 1.09375 -1.34375 2.015625q-0.78125 0.90625 -1.859375 1.609375q-1.140625 0.734375 -2.3125 1.109375q-1.171875 0.390625 -2.734375 0.390625zm28.939941 -4.890625q-0.625 1.03125 -1.53125 1.9375q-0.890625 0.90625 -2.03125 1.5625q-1.203125 0.6875 -2.453125 1.03125q-1.234375 0.359375 -2.84375 0.359375q-2.671875 0 -4.609375 -0.75q-1.9375 -0.765625 -3.203125 -2.046875q-1.265625 -1.28125 -1.890625 -3.015625q-0.625 -1.75 -0.625 -3.796875q0 -1.84375 0.671875 -3.53125q0.6875 -1.6875 1.9375 -3.015625q1.21875 -1.28125 3.09375 -2.078125q1.875 -0.796875 4.1875 -0.796875q2.515625 0 4.140625 0.625q1.640625 0.609375 2.703125 1.6875q1.03125 1.03125 1.5 2.4375q0.46875 1.40625 0.46875 2.9375l0 1.171875l-12.21875 0q0 3.703125 1.421875 5.640625q1.4375 1.921875 4.546875 1.921875q1.6875 0 3.046875 -0.921875q1.359375 -0.9375 2.3125 -2.359375l1.375 1.0zm-6.90625 -6.875q0 -1.078125 -0.109375 -2.21875q-0.109375 -1.140625 -0.375 -1.859375q-0.3125 -0.84375 -0.84375 -1.28125q-0.53125 -0.4375 -1.34375 -0.4375q-1.390625 0 -2.21875 1.40625q-0.828125 1.40625 -0.90625 4.46875l5.796875 -0.078125z" fill-rule="nonzero"></path><path fill="#cccccc" d="m717.5445 222.04312q1.328125 1.25 2.03125 2.984375q0.703125 1.734375 0.703125 3.765625q0 2.0 -0.703125 3.78125q-0.6875 1.78125 -2.015625 3.046875q-1.4375 1.34375 -3.421875 2.078125q-1.96875 0.71875 -4.515625 0.71875q-2.203125 0 -4.0625 -0.625q-1.84375 -0.640625 -3.265625 -1.90625q-1.375 -1.203125 -2.171875 -2.984375q-0.796875 -1.78125 -0.796875 -3.984375q0 -2.171875 0.6875 -3.859375q0.703125 -1.6875 2.09375 -3.015625q1.34375 -1.265625 3.296875 -1.953125q1.96875 -0.703125 4.390625 -0.703125q2.515625 0 4.4375 0.703125q1.9375 0.6875 3.3125 1.953125zm-4.625 12.53125q0.390625 -1.015625 0.578125 -2.453125q0.1875 -1.453125 0.1875 -3.375q0 -1.265625 -0.1875 -2.890625q-0.171875 -1.625 -0.53125 -2.5625q-0.4375 -1.140625 -1.203125 -1.78125q-0.765625 -0.65625 -1.9375 -0.65625q-1.28125 0 -2.046875 0.703125q-0.765625 0.703125 -1.1875 1.828125q-0.375 1.03125 -0.53125 2.421875q-0.140625 1.375 -0.140625 2.875q0 1.96875 0.125 3.265625q0.125 1.28125 0.625 2.578125q0.40625 1.125 1.1875 1.78125q0.78125 0.640625 1.96875 0.640625q1.078125 0 1.859375 -0.59375q0.78125 -0.609375 1.234375 -1.78125zm26.996643 -21.640625q0 0.4375 -0.15625 0.984375q-0.140625 0.546875 -0.453125 0.921875q-0.390625 0.453125 -0.859375 0.6875q-0.46875 0.234375 -1.40625 0.234375q-1.421875 0 -2.234375 -0.984375q-0.8125 -1.0 -1.734375 -3.3125q-0.734375 0.3125 -1.1875 1.59375q-0.4375 1.28125 -0.4375 5.5l0 1.4375l4.984375 0l0 1.9375l-4.953125 0l0 12.453125q0 0.703125 0.328125 1.09375q0.328125 0.390625 0.84375 0.578125q0.4375 0.140625 1.140625 0.28125q0.703125 0.125 1.265625 0.1875l0 1.3125l-12.203125 0l0 -1.3125q0.46875 -0.046875 0.90625 -0.09375q0.453125 -0.0625 0.796875 -0.1875q0.578125 -0.21875 0.78125 -0.625q0.21875 -0.40625 0.21875 -1.0625l0 -12.625l-3.671875 0l0 -1.9375l3.671875 0q0 -1.9375 0.546875 -3.75q0.5625 -1.828125 1.75 -3.25q1.125 -1.40625 2.984375 -2.265625q1.875 -0.875 4.375 -0.875q2.25 0 3.46875 0.859375q1.234375 0.84375 1.234375 2.21875zm30.415955 24.53125l-8.90625 0.515625l-0.265625 -0.25l0 -1.65625l-0.125 -0.046875q-0.890625 0.96875 -2.40625 1.6875q-1.5 0.703125 -3.03125 0.703125q-3.65625 0 -6.03125 -2.703125q-2.359375 -2.71875 -2.359375 -7.015625q0 -3.8125 2.640625 -6.53125q2.65625 -2.734375 6.40625 -2.734375q1.484375 0 2.78125 0.34375q1.3125 0.328125 2.078125 0.765625l0 -5.90625q0 -0.65625 -0.265625 -1.25q-0.265625 -0.59375 -0.71875 -0.90625q-0.5625 -0.40625 -1.40625 -0.578125q-0.84375 -0.171875 -1.6875 -0.234375l0 -1.328125l9.75 -0.46875l0.28125 0.296875l0 23.671875q0 0.6875 0.21875 1.171875q0.234375 0.46875 0.734375 0.734375q0.375 0.203125 1.109375 0.296875q0.734375 0.078125 1.203125 0.09375l0 1.328125zm-9.21875 -3.21875l0 -10.203125q-0.125 -0.421875 -0.359375 -0.921875q-0.21875 -0.515625 -0.609375 -0.96875q-0.359375 -0.375 -0.96875 -0.65625q-0.609375 -0.296875 -1.359375 -0.296875q-1.8125 0 -2.96875 2.046875q-1.15625 2.03125 -1.15625 5.765625q0 1.453125 0.203125 2.625q0.21875 1.15625 0.734375 2.125q0.53125 0.953125 1.34375 1.5q0.828125 0.53125 1.984375 0.53125q1.109375 0 1.828125 -0.421875q0.71875 -0.421875 1.328125 -1.125zm31.267395 3.21875q-0.796875 0.34375 -1.890625 0.625q-1.078125 0.296875 -2.28125 0.296875q-2.234375 0 -3.28125 -0.65625q-1.046875 -0.671875 -1.421875 -1.890625l-0.109375 0q-0.609375 0.609375 -1.1875 1.046875q-0.5625 0.421875 -1.21875 0.734375q-0.84375 0.40625 -1.640625 0.59375q-0.78125 0.1875 -2.1875 0.1875q-2.09375 0 -3.578125 -1.234375q-1.484375 -1.25 -1.484375 -3.28125q0 -1.171875 0.328125 -2.0q0.328125 -0.828125 0.921875 -1.453125q0.546875 -0.578125 1.25 -0.953125q0.71875 -0.390625 1.578125 -0.703125q1.625 -0.609375 3.890625 -1.25q2.28125 -0.640625 3.328125 -1.140625l0 -1.734375q0 -0.453125 -0.078125 -1.1875q-0.0625 -0.75 -0.296875 -1.25q-0.25 -0.578125 -0.796875 -0.96875q-0.546875 -0.40625 -1.421875 -0.40625q-0.796875 0 -1.34375 0.234375q-0.53125 0.21875 -0.84375 0.453125q0.046875 0.359375 0.296875 1.109375q0.25 0.734375 0.25 1.421875q0 0.296875 -0.15625 0.765625q-0.15625 0.453125 -0.46875 0.734375q-0.421875 0.359375 -0.9375 0.5625q-0.515625 0.1875 -1.578125 0.1875q-1.515625 0 -2.296875 -0.71875q-0.765625 -0.734375 -0.765625 -1.921875q0 -1.0 0.796875 -1.796875q0.8125 -0.8125 1.96875 -1.34375q1.125 -0.53125 2.609375 -0.828125q1.484375 -0.3125 2.75 -0.3125q1.75 0 3.203125 0.21875q1.46875 0.203125 2.65625 0.859375q1.109375 0.625 1.765625 1.828125q0.671875 1.203125 0.671875 3.140625q0 2.03125 -0.09375 4.84375q-0.078125 2.796875 -0.078125 3.671875q0 0.8125 0.25 1.296875q0.25 0.46875 0.75 0.703125q0.3125 0.140625 0.96875 0.171875q0.65625 0.015625 1.203125 0.015625l0 1.328125zm-8.984375 -9.421875q-1.015625 0.34375 -2.015625 0.796875q-0.984375 0.4375 -1.609375 0.921875q-0.671875 0.515625 -1.0625 1.296875q-0.375 0.78125 -0.375 1.84375q0 1.421875 0.640625 2.046875q0.640625 0.625 1.578125 0.625q1.0 0 1.640625 -0.40625q0.640625 -0.40625 1.125 -1.0l0.078125 -6.125zm24.002075 8.96875q-1.15625 0.5 -2.46875 0.90625q-1.3125 0.40625 -3.21875 0.40625q-2.8125 0 -4.1875 -1.375q-1.359375 -1.375 -1.359375 -3.921875l0 -11.09375l-3.25 0l0 -1.9375l3.328125 0l0 -5.484375l5.875 0l0 5.484375l5.046875 0l0 1.9375l-5.015625 0l0 9.90625q0 2.109375 0.578125 3.0q0.59375 0.890625 2.109375 0.890625q0.484375 0 1.34375 -0.078125q0.875 -0.078125 1.21875 -0.15625l0 1.515625zm22.055237 0.453125q-0.796875 0.34375 -1.890625 0.625q-1.078125 0.296875 -2.28125 0.296875q-2.234375 0 -3.28125 -0.65625q-1.046875 -0.671875 -1.421875 -1.890625l-0.109375 0q-0.609375 0.609375 -1.1875 1.046875q-0.5625 0.421875 -1.21875 0.734375q-0.84375 0.40625 -1.640625 0.59375q-0.78125 0.1875 -2.1875 0.1875q-2.09375 0 -3.578125 -1.234375q-1.484375 -1.25 -1.484375 -3.28125q0 -1.171875 0.328125 -2.0q0.328125 -0.828125 0.921875 -1.453125q0.546875 -0.578125 1.25 -0.953125q0.71875 -0.390625 1.578125 -0.703125q1.625 -0.609375 3.890625 -1.25q2.28125 -0.640625 3.328125 -1.140625l0 -1.734375q0 -0.453125 -0.078125 -1.1875q-0.0625 -0.75 -0.296875 -1.25q-0.25 -0.578125 -0.796875 -0.96875q-0.546875 -0.40625 -1.421875 -0.40625q-0.796875 0 -1.34375 0.234375q-0.53125 0.21875 -0.84375 0.453125q0.046875 0.359375 0.296875 1.109375q0.25 0.734375 0.25 1.421875q0 0.296875 -0.15625 0.765625q-0.15625 0.453125 -0.46875 0.734375q-0.421875 0.359375 -0.9375 0.5625q-0.515625 0.1875 -1.578125 0.1875q-1.515625 0 -2.296875 -0.71875q-0.765625 -0.734375 -0.765625 -1.921875q0 -1.0 0.796875 -1.796875q0.8125 -0.8125 1.96875 -1.34375q1.125 -0.53125 2.609375 -0.828125q1.484375 -0.3125 2.75 -0.3125q1.75 0 3.203125 0.21875q1.46875 0.203125 2.65625 0.859375q1.109375 0.625 1.765625 1.828125q0.671875 1.203125 0.671875 3.140625q0 2.03125 -0.09375 4.84375q-0.078125 2.796875 -0.078125 3.671875q0 0.8125 0.25 1.296875q0.25 0.46875 0.75 0.703125q0.3125 0.140625 0.96875 0.171875q0.65625 0.015625 1.203125 0.015625l0 1.328125zm-8.984375 -9.421875q-1.015625 0.34375 -2.015625 0.796875q-0.984375 0.4375 -1.609375 0.921875q-0.671875 0.515625 -1.0625 1.296875q-0.375 0.78125 -0.375 1.84375q0 1.421875 0.640625 2.046875q0.640625 0.625 1.578125 0.625q1.0 0 1.640625 -0.40625q0.640625 -0.40625 1.125 -1.0l0.078125 -6.125z" fill-rule="nonzero"></path><path fill="#cccccc" d="m662.6904 266.23062q-0.8125 0.125 -1.578125 0.625q-0.765625 0.484375 -1.265625 1.515625q-1.265625 2.640625 -2.5 5.328125q-1.21875 2.671875 -2.390625 5.1875q-0.359375 0.75 -0.828125 1.953125q-0.453125 1.1875 -0.75 2.15625l-3.328125 0q-2.078125 -4.8125 -3.5625 -7.984375q-1.46875 -3.1875 -3.109375 -6.84375q-0.375 -0.84375 -1.1875 -1.328125q-0.796875 -0.5 -1.625 -0.609375l0 -1.3125l11.125 0l0 1.3125q-0.609375 0.03125 -1.453125 0.28125q-0.828125 0.25 -0.828125 0.640625q0 0.109375 0.078125 0.328125q0.078125 0.21875 0.1875 0.484375q0.578125 1.375 1.734375 3.96875q1.171875 2.578125 2.46875 5.4375q0.90625 -1.96875 1.71875 -3.859375q0.828125 -1.890625 2.03125 -4.8125q0.171875 -0.4375 0.1875 -0.703125q0.03125 -0.28125 0.03125 -0.375q0 -0.3125 -0.3125 -0.5625q-0.3125 -0.25 -0.75 -0.421875q-0.453125 -0.1875 -0.875 -0.265625q-0.40625 -0.09375 -0.671875 -0.140625l0 -1.3125l7.453125 0l0 1.3125zm11.989258 16.609375l-11.421875 0l0 -1.3125q0.46875 -0.046875 0.921875 -0.09375q0.453125 -0.0625 0.78125 -0.1875q0.578125 -0.21875 0.8125 -0.625q0.234375 -0.40625 0.234375 -1.0625l0 -10.515625q0 -0.640625 -0.296875 -1.109375q-0.28125 -0.484375 -0.71875 -0.78125q-0.328125 -0.21875 -0.984375 -0.40625q-0.65625 -0.203125 -1.203125 -0.25l0 -1.328125l8.859375 -0.46875l0.265625 0.265625l0 14.359375q0 0.625 0.265625 1.078125q0.28125 0.4375 0.78125 0.65625q0.359375 0.15625 0.796875 0.28125q0.4375 0.125 0.90625 0.1875l0 1.3125zm-2.640625 -24.640625q0 1.375 -1.0625 2.34375q-1.046875 0.953125 -2.5 0.953125q-1.453125 0 -2.515625 -0.953125q-1.0625 -0.96875 -1.0625 -2.34375q0 -1.375 1.0625 -2.34375q1.0625 -0.984375 2.515625 -0.984375q1.46875 0 2.515625 0.984375q1.046875 0.96875 1.046875 2.34375zm12.77417 25.25q-1.75 0 -3.421875 -0.515625q-1.671875 -0.515625 -2.59375 -1.09375l-0.53125 1.234375l-1.40625 0l-0.25 -6.734375l1.328125 0q0.265625 0.8125 0.890625 1.828125q0.640625 1.015625 1.453125 1.828125q0.859375 0.8125 1.9375 1.375q1.09375 0.5625 2.34375 0.5625q1.640625 0 2.4375 -0.640625q0.8125 -0.640625 0.8125 -1.96875q0 -0.734375 -0.359375 -1.203125q-0.359375 -0.46875 -0.984375 -0.8125q-0.703125 -0.359375 -1.546875 -0.609375q-0.84375 -0.25 -2.078125 -0.609375q-1.21875 -0.375 -2.09375 -0.734375q-0.875 -0.375 -1.828125 -1.171875q-0.8125 -0.703125 -1.296875 -1.6875q-0.484375 -1.0 -0.484375 -2.375q0 -2.546875 2.140625 -4.109375q2.140625 -1.578125 5.609375 -1.578125q1.640625 0 3.015625 0.34375q1.390625 0.328125 2.328125 0.71875l0.390625 -1.0625l1.359375 0l0.296875 6.15625l-1.28125 0q-0.640625 -1.875 -2.171875 -3.234375q-1.53125 -1.375 -3.296875 -1.375q-1.40625 0 -2.203125 0.578125q-0.78125 0.578125 -0.78125 1.609375q0 1.375 1.15625 2.0q1.171875 0.609375 3.265625 1.140625q3.234375 0.828125 4.734375 2.265625q1.5 1.4375 1.5 3.671875q0 2.953125 -2.328125 4.578125q-2.3125 1.625 -6.0625 1.625zm34.35675 -0.984375l-8.625 0.515625l-0.265625 -0.25l0 -2.359375l-0.109375 0q-0.609375 0.546875 -1.203125 1.09375q-0.578125 0.53125 -1.390625 0.953125q-0.921875 0.5 -1.75 0.734375q-0.828125 0.234375 -2.390625 0.234375q-2.734375 0 -4.1875 -1.640625q-1.453125 -1.65625 -1.453125 -4.65625l0 -8.125q0 -0.703125 -0.28125 -1.140625q-0.265625 -0.453125 -0.703125 -0.796875q-0.375 -0.265625 -0.953125 -0.375q-0.578125 -0.125 -1.046875 -0.15625l0 -1.328125l8.765625 -0.46875l0.203125 0.265625l0 12.015625q0 1.859375 0.703125 2.75q0.71875 0.890625 1.96875 0.890625q1.28125 0 2.296875 -0.671875q1.03125 -0.671875 1.5 -1.421875l0 -9.75q0 -0.609375 -0.234375 -1.09375q-0.234375 -0.484375 -0.6875 -0.796875q-0.328125 -0.21875 -0.9375 -0.28125q-0.59375 -0.078125 -1.234375 -0.109375l0 -1.328125l8.765625 -0.46875l0.265625 0.265625l0 13.953125q0 0.640625 0.25 1.078125q0.265625 0.4375 0.75 0.75q0.34375 0.21875 0.890625 0.296875q0.546875 0.078125 1.09375 0.09375l0 1.328125zm22.34021 0q-0.796875 0.34375 -1.890625 0.625q-1.078125 0.296875 -2.28125 0.296875q-2.234375 0 -3.28125 -0.65625q-1.046875 -0.671875 -1.421875 -1.890625l-0.109375 0q-0.609375 0.609375 -1.1875 1.046875q-0.5625 0.421875 -1.21875 0.734375q-0.84375 0.40625 -1.640625 0.59375q-0.78125 0.1875 -2.1875 0.1875q-2.09375 0 -3.578125 -1.234375q-1.484375 -1.25 -1.484375 -3.28125q0 -1.171875 0.328125 -2.0q0.328125 -0.828125 0.921875 -1.453125q0.546875 -0.578125 1.25 -0.953125q0.71875 -0.390625 1.578125 -0.703125q1.625 -0.609375 3.890625 -1.25q2.28125 -0.640625 3.328125 -1.140625l0 -1.734375q0 -0.453125 -0.078125 -1.1875q-0.0625 -0.75 -0.296875 -1.25q-0.25 -0.578125 -0.796875 -0.96875q-0.546875 -0.40625 -1.421875 -0.40625q-0.796875 0 -1.34375 0.234375q-0.53125 0.21875 -0.84375 0.453125q0.046875 0.359375 0.296875 1.109375q0.25 0.734375 0.25 1.421875q0 0.296875 -0.15625 0.765625q-0.15625 0.453125 -0.46875 0.734375q-0.421875 0.359375 -0.9375 0.5625q-0.515625 0.1875 -1.578125 0.1875q-1.515625 0 -2.296875 -0.71875q-0.765625 -0.734375 -0.765625 -1.921875q0 -1.0 0.796875 -1.796875q0.8125 -0.8125 1.96875 -1.34375q1.125 -0.53125 2.609375 -0.828125q1.484375 -0.3125 2.75 -0.3125q1.75 0 3.203125 0.21875q1.46875 0.203125 2.65625 0.859375q1.109375 0.625 1.765625 1.828125q0.671875 1.203125 0.671875 3.140625q0 2.03125 -0.09375 4.84375q-0.078125 2.796875 -0.078125 3.671875q0 0.8125 0.25 1.296875q0.25 0.46875 0.75 0.703125q0.3125 0.140625 0.96875 0.171875q0.65625 0.015625 1.203125 0.015625l0 1.328125zm-8.984375 -9.421875q-1.015625 0.34375 -2.015625 0.796875q-0.984375 0.4375 -1.609375 0.921875q-0.671875 0.515625 -1.0625 1.296875q-0.375 0.78125 -0.375 1.84375q0 1.421875 0.640625 2.046875q0.640625 0.625 1.578125 0.625q1.0 0 1.640625 -0.40625q0.640625 -0.40625 1.125 -1.0l0.078125 -6.125zm21.564636 9.796875l-11.328125 0l0 -1.3125q0.46875 -0.046875 0.90625 -0.09375q0.453125 -0.0625 0.796875 -0.1875q0.578125 -0.21875 0.78125 -0.625q0.21875 -0.40625 0.21875 -1.0625l0 -20.03125q0 -0.6875 -0.28125 -1.265625q-0.28125 -0.59375 -0.75 -0.890625q-0.359375 -0.234375 -1.09375 -0.453125q-0.734375 -0.21875 -1.296875 -0.25l0 -1.328125l9.09375 -0.46875l0.265625 0.296875l0 24.15625q0 0.65625 0.234375 1.078125q0.234375 0.40625 0.765625 0.65625q0.359375 0.15625 0.75 0.28125q0.40625 0.125 0.9375 0.1875l0 1.3125zm13.271606 0l-11.421875 0l0 -1.3125q0.46875 -0.046875 0.921875 -0.09375q0.453125 -0.0625 0.78125 -0.1875q0.578125 -0.21875 0.8125 -0.625q0.234375 -0.40625 0.234375 -1.0625l0 -10.515625q0 -0.640625 -0.296875 -1.109375q-0.28125 -0.484375 -0.71875 -0.78125q-0.328125 -0.21875 -0.984375 -0.40625q-0.65625 -0.203125 -1.203125 -0.25l0 -1.328125l8.859375 -0.46875l0.265625 0.265625l0 14.359375q0 0.625 0.265625 1.078125q0.28125 0.4375 0.78125 0.65625q0.359375 0.15625 0.796875 0.28125q0.4375 0.125 0.90625 0.1875l0 1.3125zm-2.640625 -24.640625q0 1.375 -1.0625 2.34375q-1.046875 0.953125 -2.5 0.953125q-1.453125 0 -2.515625 -0.953125q-1.0625 -0.96875 -1.0625 -2.34375q0 -1.375 1.0625 -2.34375q1.0625 -0.984375 2.515625 -0.984375q1.46875 0 2.515625 0.984375q1.046875 0.96875 1.046875 2.34375zm12.774231 25.25q-1.75 0 -3.421875 -0.515625q-1.671875 -0.515625 -2.59375 -1.09375l-0.53125 1.234375l-1.40625 0l-0.25 -6.734375l1.328125 0q0.265625 0.8125 0.890625 1.828125q0.640625 1.015625 1.453125 1.828125q0.859375 0.8125 1.9375 1.375q1.09375 0.5625 2.34375 0.5625q1.640625 0 2.4375 -0.640625q0.8125 -0.640625 0.8125 -1.96875q0 -0.734375 -0.359375 -1.203125q-0.359375 -0.46875 -0.984375 -0.8125q-0.703125 -0.359375 -1.546875 -0.609375q-0.84375 -0.25 -2.078125 -0.609375q-1.21875 -0.375 -2.09375 -0.734375q-0.875 -0.375 -1.828125 -1.171875q-0.8125 -0.703125 -1.296875 -1.6875q-0.484375 -1.0 -0.484375 -2.375q0 -2.546875 2.140625 -4.109375q2.140625 -1.578125 5.609375 -1.578125q1.640625 0 3.015625 0.34375q1.390625 0.328125 2.328125 0.71875l0.390625 -1.0625l1.359375 0l0.296875 6.15625l-1.28125 0q-0.640625 -1.875 -2.171875 -3.234375q-1.53125 -1.375 -3.296875 -1.375q-1.40625 0 -2.203125 0.578125q-0.78125 0.578125 -0.78125 1.609375q0 1.375 1.15625 2.0q1.171875 0.609375 3.265625 1.140625q3.234375 0.828125 4.734375 2.265625q1.5 1.4375 1.5 3.671875q0 2.953125 -2.328125 4.578125q-2.3125 1.625 -6.0625 1.625zm31.434814 -0.984375q-0.796875 0.34375 -1.890625 0.625q-1.078125 0.296875 -2.28125 0.296875q-2.234375 0 -3.28125 -0.65625q-1.046875 -0.671875 -1.421875 -1.890625l-0.109375 0q-0.609375 0.609375 -1.1875 1.046875q-0.5625 0.421875 -1.21875 0.734375q-0.84375 0.40625 -1.640625 0.59375q-0.78125 0.1875 -2.1875 0.1875q-2.09375 0 -3.578125 -1.234375q-1.484375 -1.25 -1.484375 -3.28125q0 -1.171875 0.328125 -2.0q0.328125 -0.828125 0.921875 -1.453125q0.546875 -0.578125 1.25 -0.953125q0.71875 -0.390625 1.578125 -0.703125q1.625 -0.609375 3.890625 -1.25q2.28125 -0.640625 3.328125 -1.140625l0 -1.734375q0 -0.453125 -0.078125 -1.1875q-0.0625 -0.75 -0.296875 -1.25q-0.25 -0.578125 -0.796875 -0.96875q-0.546875 -0.40625 -1.421875 -0.40625q-0.796875 0 -1.34375 0.234375q-0.53125 0.21875 -0.84375 0.453125q0.046875 0.359375 0.296875 1.109375q0.25 0.734375 0.25 1.421875q0 0.296875 -0.15625 0.765625q-0.15625 0.453125 -0.46875 0.734375q-0.421875 0.359375 -0.9375 0.5625q-0.515625 0.1875 -1.578125 0.1875q-1.515625 0 -2.296875 -0.71875q-0.765625 -0.734375 -0.765625 -1.921875q0 -1.0 0.796875 -1.796875q0.8125 -0.8125 1.96875 -1.34375q1.125 -0.53125 2.609375 -0.828125q1.484375 -0.3125 2.75 -0.3125q1.75 0 3.203125 0.21875q1.46875 0.203125 2.65625 0.859375q1.109375 0.625 1.765625 1.828125q0.671875 1.203125 0.671875 3.140625q0 2.03125 -0.09375 4.84375q-0.078125 2.796875 -0.078125 3.671875q0 0.8125 0.25 1.296875q0.25 0.46875 0.75 0.703125q0.3125 0.140625 0.96875 0.171875q0.65625 0.015625 1.203125 0.015625l0 1.328125zm-8.984375 -9.421875q-1.015625 0.34375 -2.015625 0.796875q-0.984375 0.4375 -1.609375 0.921875q-0.671875 0.515625 -1.0625 1.296875q-0.375 0.78125 -0.375 1.84375q0 1.421875 0.640625 2.046875q0.640625 0.625 1.578125 0.625q1.0 0 1.640625 -0.40625q0.640625 -0.40625 1.125 -1.0l0.078125 -6.125zm24.002136 8.96875q-1.15625 0.5 -2.46875 0.90625q-1.3125 0.40625 -3.21875 0.40625q-2.8125 0 -4.1875 -1.375q-1.359375 -1.375 -1.359375 -3.921875l0 -11.09375l-3.25 0l0 -1.9375l3.328125 0l0 -5.484375l5.875 0l0 5.484375l5.046875 0l0 1.9375l-5.015625 0l0 9.90625q0 2.109375 0.578125 3.0q0.59375 0.890625 2.109375 0.890625q0.484375 0 1.34375 -0.078125q0.875 -0.078125 1.21875 -0.15625l0 1.515625zm12.820801 0.828125l-11.421875 0l0 -1.3125q0.46875 -0.046875 0.921875 -0.09375q0.453125 -0.0625 0.78125 -0.1875q0.578125 -0.21875 0.8125 -0.625q0.234375 -0.40625 0.234375 -1.0625l0 -10.515625q0 -0.640625 -0.296875 -1.109375q-0.28125 -0.484375 -0.71875 -0.78125q-0.328125 -0.21875 -0.984375 -0.40625q-0.65625 -0.203125 -1.203125 -0.25l0 -1.328125l8.859375 -0.46875l0.265625 0.265625l0 14.359375q0 0.625 0.265625 1.078125q0.28125 0.4375 0.78125 0.65625q0.359375 0.15625 0.796875 0.28125q0.4375 0.125 0.90625 0.1875l0 1.3125zm-2.640625 -24.640625q0 1.375 -1.0625 2.34375q-1.046875 0.953125 -2.5 0.953125q-1.453125 0 -2.515625 -0.953125q-1.0625 -0.96875 -1.0625 -2.34375q0 -1.375 1.0625 -2.34375q1.0625 -0.984375 2.515625 -0.984375q1.46875 0 2.515625 0.984375q1.046875 0.96875 1.046875 2.34375zm22.867981 8.84375q1.328125 1.25 2.03125 2.984375q0.703125 1.734375 0.703125 3.765625q0 2.0 -0.703125 3.78125q-0.6875 1.78125 -2.015625 3.046875q-1.4375 1.34375 -3.421875 2.078125q-1.96875 0.71875 -4.515625 0.71875q-2.203125 0 -4.0625 -0.625q-1.84375 -0.640625 -3.265625 -1.90625q-1.375 -1.203125 -2.171875 -2.984375q-0.796875 -1.78125 -0.796875 -3.984375q0 -2.171875 0.6875 -3.859375q0.703125 -1.6875 2.09375 -3.015625q1.34375 -1.265625 3.296875 -1.953125q1.96875 -0.703125 4.390625 -0.703125q2.515625 0 4.4375 0.703125q1.9375 0.6875 3.3125 1.953125zm-4.625 12.53125q0.390625 -1.015625 0.578125 -2.453125q0.1875 -1.453125 0.1875 -3.375q0 -1.265625 -0.1875 -2.890625q-0.171875 -1.625 -0.53125 -2.5625q-0.4375 -1.140625 -1.203125 -1.78125q-0.765625 -0.65625 -1.9375 -0.65625q-1.28125 0 -2.046875 0.703125q-0.765625 0.703125 -1.1875 1.828125q-0.375 1.03125 -0.53125 2.421875q-0.140625 1.375 -0.140625 2.875q0 1.96875 0.125 3.265625q0.125 1.28125 0.625 2.578125q0.40625 1.125 1.1875 1.78125q0.78125 0.640625 1.96875 0.640625q1.078125 0 1.859375 -0.59375q0.78125 -0.609375 1.234375 -1.78125zm33.746643 3.265625l-10.875 0l0 -1.3125q0.34375 -0.046875 0.828125 -0.09375q0.5 -0.0625 0.75 -0.1875q0.375 -0.1875 0.53125 -0.5625q0.171875 -0.390625 0.171875 -1.125l0 -8.46875q0 -1.84375 -0.6875 -2.765625q-0.671875 -0.9375 -1.984375 -0.9375q-0.71875 0 -1.34375 0.21875q-0.625 0.21875 -1.21875 0.640625q-0.53125 0.359375 -0.84375 0.734375q-0.3125 0.375 -0.53125 0.671875l0 9.703125q0 0.625 0.171875 1.0625q0.1875 0.421875 0.59375 0.640625q0.296875 0.15625 0.71875 0.28125q0.4375 0.125 0.859375 0.1875l0 1.3125l-10.984375 0l0 -1.3125q0.453125 -0.046875 0.90625 -0.109375q0.46875 -0.0625 0.796875 -0.171875q0.578125 -0.1875 0.796875 -0.609375q0.21875 -0.421875 0.21875 -1.078125l0 -10.515625q0 -0.5625 -0.296875 -1.109375q-0.28125 -0.546875 -0.765625 -0.890625q-0.3125 -0.203125 -0.8125 -0.34375q-0.5 -0.15625 -1.09375 -0.203125l0 -1.328125l8.609375 -0.46875l0.28125 0.265625l0 2.625l0.0625 0q0.515625 -0.453125 1.234375 -1.078125q0.71875 -0.640625 1.34375 -1.03125q0.65625 -0.4375 1.734375 -0.734375q1.09375 -0.3125 2.328125 -0.3125q2.9375 0 4.40625 1.671875q1.484375 1.671875 1.484375 4.4375l0 8.84375q0 0.671875 0.1875 1.078125q0.203125 0.390625 0.75 0.625q0.28125 0.125 0.703125 0.25q0.4375 0.125 0.96875 0.1875l0 1.3125z" fill-rule="nonzero"></path><path fill="#cccccc" d="m749.34766 327.465q-0.796875 0.34375 -1.890625 0.625q-1.078125 0.296875 -2.28125 0.296875q-2.234375 0 -3.28125 -0.65625q-1.046875 -0.671875 -1.421875 -1.890625l-0.109375 0q-0.609375 0.609375 -1.1875 1.046875q-0.5625 0.421875 -1.21875 0.734375q-0.84375 0.40625 -1.640625 0.59375q-0.78125 0.1875 -2.1875 0.1875q-2.09375 0 -3.578125 -1.234375q-1.484375 -1.25 -1.484375 -3.28125q0 -1.171875 0.328125 -2.0q0.328125 -0.828125 0.921875 -1.453125q0.546875 -0.578125 1.25 -0.953125q0.71875 -0.390625 1.578125 -0.703125q1.625 -0.609375 3.890625 -1.25q2.28125 -0.640625 3.328125 -1.140625l0 -1.734375q0 -0.453125 -0.078125 -1.1875q-0.0625 -0.75 -0.296875 -1.25q-0.25 -0.578125 -0.796875 -0.96875q-0.546875 -0.40625 -1.421875 -0.40625q-0.796875 0 -1.34375 0.234375q-0.53125 0.21875 -0.84375 0.453125q0.046875 0.359375 0.296875 1.109375q0.25 0.734375 0.25 1.421875q0 0.296875 -0.15625 0.765625q-0.15625 0.453125 -0.46875 0.734375q-0.421875 0.359375 -0.9375 0.5625q-0.515625 0.1875 -1.578125 0.1875q-1.515625 0 -2.296875 -0.71875q-0.765625 -0.734375 -0.765625 -1.921875q0 -1.0 0.796875 -1.796875q0.8125 -0.8125 1.96875 -1.34375q1.125 -0.53125 2.609375 -0.828125q1.484375 -0.3125 2.75 -0.3125q1.75 0 3.203125 0.21875q1.46875 0.203125 2.65625 0.859375q1.109375 0.625 1.765625 1.828125q0.671875 1.203125 0.671875 3.140625q0 2.03125 -0.09375 4.84375q-0.078125 2.796875 -0.078125 3.671875q0 0.8125 0.25 1.296875q0.25 0.46875 0.75 0.703125q0.3125 0.140625 0.96875 0.171875q0.65625 0.015625 1.203125 0.015625l0 1.328125zm-8.984375 -9.421875q-1.015625 0.34375 -2.015625 0.796875q-0.984375 0.4375 -1.609375 0.921875q-0.671875 0.515625 -1.0625 1.296875q-0.375 0.78125 -0.375 1.84375q0 1.421875 0.640625 2.046875q0.640625 0.625 1.578125 0.625q1.0 0 1.640625 -0.40625q0.640625 -0.40625 1.125 -1.0l0.078125 -6.125zm34.408325 9.796875l-10.875 0l0 -1.3125q0.34375 -0.046875 0.828125 -0.09375q0.5 -0.0625 0.75 -0.1875q0.375 -0.1875 0.53125 -0.5625q0.171875 -0.390625 0.171875 -1.125l0 -8.46875q0 -1.84375 -0.6875 -2.765625q-0.671875 -0.9375 -1.984375 -0.9375q-0.71875 0 -1.34375 0.21875q-0.625 0.21875 -1.21875 0.640625q-0.53125 0.359375 -0.84375 0.734375q-0.3125 0.375 -0.53125 0.671875l0 9.703125q0 0.625 0.171875 1.0625q0.1875 0.421875 0.59375 0.640625q0.296875 0.15625 0.71875 0.28125q0.4375 0.125 0.859375 0.1875l0 1.3125l-10.984375 0l0 -1.3125q0.453125 -0.046875 0.90625 -0.109375q0.46875 -0.0625 0.796875 -0.171875q0.578125 -0.1875 0.796875 -0.609375q0.21875 -0.421875 0.21875 -1.078125l0 -10.515625q0 -0.5625 -0.296875 -1.109375q-0.28125 -0.546875 -0.765625 -0.890625q-0.3125 -0.203125 -0.8125 -0.34375q-0.5 -0.15625 -1.09375 -0.203125l0 -1.328125l8.609375 -0.46875l0.28125 0.265625l0 2.625l0.0625 0q0.515625 -0.453125 1.234375 -1.078125q0.71875 -0.640625 1.34375 -1.03125q0.65625 -0.4375 1.734375 -0.734375q1.09375 -0.3125 2.328125 -0.3125q2.9375 0 4.40625 1.671875q1.484375 1.671875 1.484375 4.4375l0 8.84375q0 0.671875 0.1875 1.078125q0.203125 0.390625 0.75 0.625q0.28125 0.125 0.703125 0.25q0.4375 0.125 0.96875 0.1875l0 1.3125zm25.269897 -0.375l-8.90625 0.515625l-0.265625 -0.25l0 -1.65625l-0.125 -0.046875q-0.890625 0.96875 -2.40625 1.6875q-1.5 0.703125 -3.03125 0.703125q-3.65625 0 -6.03125 -2.703125q-2.359375 -2.71875 -2.359375 -7.015625q0 -3.8125 2.640625 -6.53125q2.65625 -2.734375 6.40625 -2.734375q1.484375 0 2.78125 0.34375q1.3125 0.328125 2.078125 0.765625l0 -5.90625q0 -0.65625 -0.265625 -1.25q-0.265625 -0.59375 -0.71875 -0.90625q-0.5625 -0.40625 -1.40625 -0.578125q-0.84375 -0.171875 -1.6875 -0.234375l0 -1.328125l9.75 -0.46875l0.28125 0.296875l0 23.671875q0 0.6875 0.21875 1.171875q0.234375 0.46875 0.734375 0.734375q0.375 0.203125 1.109375 0.296875q0.734375 0.078125 1.203125 0.09375l0 1.328125zm-9.21875 -3.21875l0 -10.203125q-0.125 -0.421875 -0.359375 -0.921875q-0.21875 -0.515625 -0.609375 -0.96875q-0.359375 -0.375 -0.96875 -0.65625q-0.609375 -0.296875 -1.359375 -0.296875q-1.8125 0 -2.96875 2.046875q-1.15625 2.03125 -1.15625 5.765625q0 1.453125 0.203125 2.625q0.21875 1.15625 0.734375 2.125q0.53125 0.953125 1.34375 1.5q0.828125 0.53125 1.984375 0.53125q1.109375 0 1.828125 -0.421875q0.71875 -0.421875 1.328125 -1.125z" fill-rule="nonzero"></path><path fill="#cccccc" d="m663.1965 373.44937q-1.75 0 -3.421875 -0.515625q-1.671875 -0.515625 -2.59375 -1.09375l-0.53125 1.234375l-1.40625 0l-0.25 -6.734375l1.328125 0q0.265625 0.8125 0.890625 1.828125q0.640625 1.015625 1.453125 1.828125q0.859375 0.8125 1.9375 1.375q1.09375 0.5625 2.34375 0.5625q1.640625 0 2.4375 -0.640625q0.8125 -0.640625 0.8125 -1.96875q0 -0.734375 -0.359375 -1.203125q-0.359375 -0.46875 -0.984375 -0.8125q-0.703125 -0.359375 -1.546875 -0.609375q-0.84375 -0.25 -2.078125 -0.609375q-1.21875 -0.375 -2.09375 -0.734375q-0.875 -0.375 -1.828125 -1.171875q-0.8125 -0.703125 -1.296875 -1.6875q-0.484375 -1.0 -0.484375 -2.375q0 -2.546875 2.140625 -4.109375q2.140625 -1.578125 5.609375 -1.578125q1.640625 0 3.015625 0.34375q1.390625 0.328125 2.328125 0.71875l0.390625 -1.0625l1.359375 0l0.296875 6.15625l-1.28125 0q-0.640625 -1.875 -2.171875 -3.234375q-1.53125 -1.375 -3.296875 -1.375q-1.40625 0 -2.203125 0.578125q-0.78125 0.578125 -0.78125 1.609375q0 1.375 1.15625 2.0q1.171875 0.609375 3.265625 1.140625q3.234375 0.828125 4.734375 2.265625q1.5 1.4375 1.5 3.671875q0 2.953125 -2.328125 4.578125q-2.3125 1.625 -6.0625 1.625zm24.216064 -1.4375q-1.15625 0.5 -2.46875 0.90625q-1.3125 0.40625 -3.21875 0.40625q-2.8125 0 -4.1875 -1.375q-1.359375 -1.375 -1.359375 -3.921875l0 -11.09375l-3.25 0l0 -1.9375l3.328125 0l0 -5.484375l5.875 0l0 5.484375l5.046875 0l0 1.9375l-5.015625 0l0 9.90625q0 2.109375 0.578125 3.0q0.59375 0.890625 2.109375 0.890625q0.484375 0 1.34375 -0.078125q0.875 -0.078125 1.21875 -0.15625l0 1.515625zm19.852112 -14.96875q1.328125 1.25 2.03125 2.984375q0.703125 1.734375 0.703125 3.765625q0 2.0 -0.703125 3.78125q-0.6875 1.78125 -2.015625 3.046875q-1.4375 1.34375 -3.421875 2.078125q-1.96875 0.71875 -4.515625 0.71875q-2.203125 0 -4.0625 -0.625q-1.84375 -0.640625 -3.265625 -1.90625q-1.375 -1.203125 -2.171875 -2.984375q-0.796875 -1.78125 -0.796875 -3.984375q0 -2.171875 0.6875 -3.859375q0.703125 -1.6875 2.09375 -3.015625q1.34375 -1.265625 3.296875 -1.953125q1.96875 -0.703125 4.390625 -0.703125q2.515625 0 4.4375 0.703125q1.9375 0.6875 3.3125 1.953125zm-4.625 12.53125q0.390625 -1.015625 0.578125 -2.453125q0.1875 -1.453125 0.1875 -3.375q0 -1.265625 -0.1875 -2.890625q-0.171875 -1.625 -0.53125 -2.5625q-0.4375 -1.140625 -1.203125 -1.78125q-0.765625 -0.65625 -1.9375 -0.65625q-1.28125 0 -2.046875 0.703125q-0.765625 0.703125 -1.1875 1.828125q-0.375 1.03125 -0.53125 2.421875q-0.140625 1.375 -0.140625 2.875q0 1.96875 0.125 3.265625q0.125 1.28125 0.625 2.578125q0.40625 1.125 1.1875 1.78125q0.78125 0.640625 1.96875 0.640625q1.078125 0 1.859375 -0.59375q0.78125 -0.609375 1.234375 -1.78125zm27.902954 -11.34375q0 1.359375 -0.859375 2.40625q-0.84375 1.03125 -2.234375 1.03125q-1.3125 0 -2.234375 -0.65625q-0.90625 -0.671875 -0.90625 -1.96875q0 -0.640625 0.078125 -0.984375q0.09375 -0.359375 0.171875 -0.671875q-0.828125 0.046875 -1.75 0.59375q-0.921875 0.53125 -1.625 1.4375l0 9.921875q0 0.625 0.1875 1.046875q0.203125 0.40625 0.671875 0.640625q0.40625 0.203125 1.296875 0.34375q0.890625 0.125 1.296875 0.15625l0 1.3125l-12.09375 0l0 -1.3125q0.453125 -0.046875 0.90625 -0.109375q0.46875 -0.0625 0.796875 -0.171875q0.578125 -0.1875 0.796875 -0.609375q0.21875 -0.421875 0.21875 -1.078125l0 -10.515625q0 -0.65625 -0.3125 -1.171875q-0.3125 -0.515625 -0.75 -0.828125q-0.3125 -0.203125 -0.8125 -0.34375q-0.5 -0.15625 -1.09375 -0.203125l0 -1.328125l8.609375 -0.46875l0.28125 0.265625l0 2.625l0.0625 0q1.25 -1.4375 2.640625 -2.265625q1.40625 -0.828125 2.9375 -0.828125q1.671875 0 2.6875 1.046875q1.03125 1.03125 1.03125 2.6875zm21.833252 -2.0q-0.81256104 0.125 -1.593811 0.625q-0.765625 0.484375 -1.265625 1.515625q-1.546875 3.28125 -3.203125 7.0q-1.640625 3.703125 -3.640625 8.03125q-1.125 2.421875 -2.171875 3.859375q-1.046875 1.453125 -1.96875 2.234375q-0.875 0.71875 -1.71875 1.03125q-0.84375 0.328125 -1.71875 0.328125q-1.71875 0 -2.78125 -0.953125q-1.046875 -0.953125 -1.046875 -2.140625q0 -0.515625 0.109375 -0.953125q0.125 -0.421875 0.5 -0.890625q0.296875 -0.40625 0.890625 -0.6875q0.609375 -0.28125 1.375 -0.28125q1.015625 0 1.9375 0.703125q0.921875 0.703125 1.90625 1.953125q0.59375 -0.59375 1.46875 -1.78125q0.890625 -1.171875 1.296875 -2.421875q-2.140625 -4.515625 -3.8125 -7.828125q-1.65625 -3.328125 -3.71875 -7.40625q-0.453125 -0.859375 -1.21875 -1.34375q-0.75 -0.484375 -1.59375 -0.59375l0 -1.3125l11.046875 0l0 1.3125q-0.609375 0.03125 -1.421875 0.28125q-0.796875 0.25 -0.796875 0.640625q0 0.15625 0.046875 0.328125q0.0625 0.171875 0.203125 0.484375q0.625 1.265625 1.75 3.515625q1.125 2.25 2.625 5.265625q1.125 -2.5625 1.90625 -4.40625q0.78125 -1.859375 1.53125 -3.640625q0.171875 -0.453125 0.203125 -0.71875q0.03125 -0.265625 0.03125 -0.359375q0 -0.3125 -0.328125 -0.5625q-0.3125 -0.25 -0.734375 -0.421875q-0.453125 -0.1875 -0.875 -0.265625q-0.421875 -0.09375 -0.6875 -0.140625l0 -1.3125l7.468811 0l0 1.3125zm13.994446 15.78125q-1.15625 0.5 -2.46875 0.90625q-1.3125 0.40625 -3.21875 0.40625q-2.8125 0 -4.1875 -1.375q-1.359375 -1.375 -1.359375 -3.921875l0 -11.09375l-3.25 0l0 -1.9375l3.328125 0l0 -5.484375l5.875 0l0 5.484375l5.046875 0l0 1.9375l-5.015625 0l0 9.90625q0 2.109375 0.578125 3.0q0.59375 0.890625 2.109375 0.890625q0.484375 0 1.34375 -0.078125q0.875 -0.078125 1.21875 -0.15625l0 1.515625zm20.820862 -3.484375q-0.625 1.03125 -1.53125 1.9375q-0.890625 0.90625 -2.03125 1.5625q-1.203125 0.6875 -2.453125 1.03125q-1.234375 0.359375 -2.84375 0.359375q-2.671875 0 -4.609375 -0.75q-1.9375 -0.765625 -3.203125 -2.046875q-1.265625 -1.28125 -1.890625 -3.015625q-0.625 -1.75 -0.625 -3.796875q0 -1.84375 0.671875 -3.53125q0.6875 -1.6875 1.9375 -3.015625q1.21875 -1.28125 3.09375 -2.078125q1.875 -0.796875 4.1875 -0.796875q2.515625 0 4.140625 0.625q1.640625 0.609375 2.703125 1.6875q1.03125 1.03125 1.5 2.4375q0.46875 1.40625 0.46875 2.9375l0 1.171875l-12.21875 0q0 3.703125 1.421875 5.640625q1.4375 1.921875 4.546875 1.921875q1.6875 0 3.046875 -0.921875q1.359375 -0.9375 2.3125 -2.359375l1.375 1.0zm-6.90625 -6.875q0 -1.078125 -0.109375 -2.21875q-0.109375 -1.140625 -0.375 -1.859375q-0.3125 -0.84375 -0.84375 -1.28125q-0.53125 -0.4375 -1.34375 -0.4375q-1.390625 0 -2.21875 1.40625q-0.828125 1.40625 -0.90625 4.46875l5.796875 -0.078125zm19.827759 11.1875l-11.328125 0l0 -1.3125q0.46875 -0.046875 0.90625 -0.09375q0.453125 -0.0625 0.796875 -0.1875q0.578125 -0.21875 0.78125 -0.625q0.21875 -0.40625 0.21875 -1.0625l0 -20.03125q0 -0.6875 -0.28125 -1.265625q-0.28125 -0.59375 -0.75 -0.890625q-0.359375 -0.234375 -1.09375 -0.453125q-0.734375 -0.21875 -1.296875 -0.25l0 -1.328125l9.09375 -0.46875l0.265625 0.296875l0 24.15625q0 0.65625 0.234375 1.078125q0.234375 0.40625 0.765625 0.65625q0.359375 0.15625 0.75 0.28125q0.40625 0.125 0.9375 0.1875l0 1.3125zm12.849731 0l-11.328125 0l0 -1.3125q0.46875 -0.046875 0.90625 -0.09375q0.453125 -0.0625 0.796875 -0.1875q0.578125 -0.21875 0.78125 -0.625q0.21875 -0.40625 0.21875 -1.0625l0 -20.03125q0 -0.6875 -0.28125 -1.265625q-0.28125 -0.59375 -0.75 -0.890625q-0.359375 -0.234375 -1.09375 -0.453125q-0.734375 -0.21875 -1.296875 -0.25l0 -1.328125l9.09375 -0.46875l0.265625 0.296875l0 24.15625q0 0.65625 0.234375 1.078125q0.234375 0.40625 0.765625 0.65625q0.359375 0.15625 0.75 0.28125q0.40625 0.125 0.9375 0.1875l0 1.3125zm13.2716675 0l-11.421875 0l0 -1.3125q0.46875 -0.046875 0.921875 -0.09375q0.453125 -0.0625 0.78125 -0.1875q0.578125 -0.21875 0.8125 -0.625q0.234375 -0.40625 0.234375 -1.0625l0 -10.515625q0 -0.640625 -0.296875 -1.109375q-0.28125 -0.484375 -0.71875 -0.78125q-0.328125 -0.21875 -0.984375 -0.40625q-0.65625 -0.203125 -1.203125 -0.25l0 -1.328125l8.859375 -0.46875l0.265625 0.265625l0 14.359375q0 0.625 0.265625 1.078125q0.28125 0.4375 0.78125 0.65625q0.359375 0.15625 0.796875 0.28125q0.4375 0.125 0.90625 0.1875l0 1.3125zm-2.640625 -24.640625q0 1.375 -1.0625 2.34375q-1.046875 0.953125 -2.5 0.953125q-1.453125 0 -2.515625 -0.953125q-1.0625 -0.96875 -1.0625 -2.34375q0 -1.375 1.0625 -2.34375q1.0625 -0.984375 2.515625 -0.984375q1.46875 0 2.515625 0.984375q1.046875 0.96875 1.046875 2.34375zm28.258606 24.640625l-10.875 0l0 -1.3125q0.34375 -0.046875 0.828125 -0.09375q0.5 -0.0625 0.75 -0.1875q0.375 -0.1875 0.53125 -0.5625q0.171875 -0.390625 0.171875 -1.125l0 -8.46875q0 -1.84375 -0.6875 -2.765625q-0.671875 -0.9375 -1.984375 -0.9375q-0.71875 0 -1.34375 0.21875q-0.625 0.21875 -1.21875 0.640625q-0.53125 0.359375 -0.84375 0.734375q-0.3125 0.375 -0.53125 0.671875l0 9.703125q0 0.625 0.171875 1.0625q0.1875 0.421875 0.59375 0.640625q0.296875 0.15625 0.71875 0.28125q0.4375 0.125 0.859375 0.1875l0 1.3125l-10.984375 0l0 -1.3125q0.453125 -0.046875 0.90625 -0.109375q0.46875 -0.0625 0.796875 -0.171875q0.578125 -0.1875 0.796875 -0.609375q0.21875 -0.421875 0.21875 -1.078125l0 -10.515625q0 -0.5625 -0.296875 -1.109375q-0.28125 -0.546875 -0.765625 -0.890625q-0.3125 -0.203125 -0.8125 -0.34375q-0.5 -0.15625 -1.09375 -0.203125l0 -1.328125l8.609375 -0.46875l0.28125 0.265625l0 2.625l0.0625 0q0.515625 -0.453125 1.234375 -1.078125q0.71875 -0.640625 1.34375 -1.03125q0.65625 -0.4375 1.734375 -0.734375q1.09375 -0.3125 2.328125 -0.3125q2.9375 0 4.40625 1.671875q1.484375 1.671875 1.484375 4.4375l0 8.84375q0 0.671875 0.1875 1.078125q0.203125 0.390625 0.75 0.625q0.28125 0.125 0.703125 0.25q0.4375 0.125 0.96875 0.1875l0 1.3125zm22.144836 -15.90625l-3.96875 0q0.703125 0.796875 1.046875 1.6875q0.359375 0.890625 0.359375 1.84375q0 1.25 -0.671875 2.34375q-0.671875 1.09375 -1.75 1.78125q-1.109375 0.703125 -2.59375 1.109375q-1.46875 0.390625 -3.203125 0.390625l-2.953125 0q-0.21875 0.15625 -0.484375 0.515625q-0.25 0.34375 -0.25 0.671875q0 0.796875 0.625 1.109375q0.640625 0.296875 2.296875 0.328125q1.640625 0.046875 3.328125 0.140625q1.6875 0.09375 2.40625 0.125q1.046875 0.046875 2.078125 0.421875q1.03125 0.359375 1.78125 0.96875q0.828125 0.625 1.375 1.609375q0.546875 0.984375 0.546875 2.265625q0 1.375 -0.671875 2.578125q-0.65625 1.21875 -2.0 2.109375q-1.4375 0.921875 -3.4375 1.421875q-1.984375 0.5 -4.9375 0.5q-4.75 0 -7.234375 -1.15625q-2.46875 -1.15625 -2.46875 -3.46875q0 -1.421875 1.34375 -2.34375q1.34375 -0.921875 4.15625 -1.015625l0 -0.21875q-1.65625 -0.546875 -2.59375 -1.484375q-0.9375 -0.9375 -0.9375 -2.15625q0 -0.765625 0.375 -1.28125q0.375 -0.53125 0.953125 -0.921875q0.5 -0.34375 1.21875 -0.578125q0.734375 -0.25 1.21875 -0.40625l0 -0.1875q-2.4375 -0.90625 -3.59375 -2.203125q-1.140625 -1.3125 -1.140625 -3.1875q0 -2.65625 2.4375 -4.234375q2.453125 -1.59375 6.21875 -1.59375q1.21875 0 2.359375 0.203125q1.15625 0.203125 1.75 0.375l7.015625 0l0 1.9375zm-8.46875 3.453125q0 -2.109375 -0.671875 -3.328125q-0.671875 -1.234375 -2.0625 -1.234375q-0.703125 0 -1.234375 0.34375q-0.515625 0.328125 -0.84375 0.953125q-0.296875 0.609375 -0.40625 1.4375q-0.109375 0.828125 -0.109375 1.6875q0 1.96875 0.6875 3.234375q0.6875 1.265625 1.953125 1.265625q1.296875 0 1.984375 -1.140625q0.703125 -1.140625 0.703125 -3.21875zm3.03125 15.1875q0 -0.625 -0.34375 -1.234375q-0.34375 -0.59375 -1.53125 -0.96875q-0.65625 -0.109375 -2.15625 -0.15625q-1.484375 -0.03125 -4.078125 -0.03125q-0.640625 0.546875 -1.0625 1.28125q-0.421875 0.734375 -0.421875 1.796875q0 0.4375 0.25 0.984375q0.25 0.546875 0.796875 1.015625q0.640625 0.515625 1.40625 0.8125q0.78125 0.3125 2.359375 0.3125q2.328125 0 3.546875 -0.90625q1.234375 -0.90625 1.234375 -2.90625z" fill-rule="nonzero"></path><path fill="#cccccc" d="m706.6194 401.23062q-0.828125 0.125 -1.53125 0.5625q-0.703125 0.421875 -1.1875 1.578125q-1.265625 3.09375 -2.03125 4.984375q-0.75 1.890625 -2.125 5.46875q-0.296875 0.75 -0.703125 2.046875q-0.40625 1.296875 -0.640625 2.125l-3.515625 0l-4.546875 -12.28125l-4.265625 12.28125l-3.5 0q-1.8125 -4.921875 -2.859375 -7.640625q-1.046875 -2.71875 -2.8125 -7.1875q-0.3125 -0.84375 -1.109375 -1.328125q-0.78125 -0.5 -1.609375 -0.609375l0 -1.3125l11.09375 0l0 1.3125q-0.625 0.0625 -1.46875 0.296875q-0.84375 0.234375 -0.84375 0.625q0 0.1875 0.046875 0.328125q0.046875 0.125 0.140625 0.484375q0.5 1.421875 1.34375 3.65625q0.84375 2.21875 1.984375 5.1875l4.015625 -11.890625l3.578125 0l4.5625 12.28125q1.046875 -2.78125 1.609375 -4.375q0.578125 -1.59375 1.453125 -4.125q0.125 -0.390625 0.140625 -0.6875q0.03125 -0.296875 0.015625 -0.390625q0 -0.3125 -0.328125 -0.578125q-0.3125 -0.265625 -0.765625 -0.421875q-0.453125 -0.171875 -0.890625 -0.25q-0.421875 -0.09375 -0.703125 -0.140625l0 -1.3125l7.453125 0l0 1.3125zm12.50592 16.609375l-11.421875 0l0 -1.3125q0.46875 -0.046875 0.921875 -0.09375q0.453125 -0.0625 0.78125 -0.1875q0.578125 -0.21875 0.8125 -0.625q0.234375 -0.40625 0.234375 -1.0625l0 -10.515625q0 -0.640625 -0.296875 -1.109375q-0.28125 -0.484375 -0.71875 -0.78125q-0.328125 -0.21875 -0.984375 -0.40625q-0.65625 -0.203125 -1.203125 -0.25l0 -1.328125l8.859375 -0.46875l0.265625 0.265625l0 14.359375q0 0.625 0.265625 1.078125q0.28125 0.4375 0.78125 0.65625q0.359375 0.15625 0.796875 0.28125q0.4375 0.125 0.90625 0.1875l0 1.3125zm-2.640625 -24.640625q0 1.375 -1.0625 2.34375q-1.046875 0.953125 -2.5 0.953125q-1.453125 0 -2.515625 -0.953125q-1.0625 -0.96875 -1.0625 -2.34375q0 -1.375 1.0625 -2.34375q1.0625 -0.984375 2.515625 -0.984375q1.46875 0 2.515625 0.984375q1.046875 0.96875 1.046875 2.34375zm17.852356 23.8125q-1.15625 0.5 -2.46875 0.90625q-1.3125 0.40625 -3.21875 0.40625q-2.8125 0 -4.1875 -1.375q-1.359375 -1.375 -1.359375 -3.921875l0 -11.09375l-3.25 0l0 -1.9375l3.328125 0l0 -5.484375l5.875 0l0 5.484375l5.046875 0l0 1.9375l-5.015625 0l0 9.90625q0 2.109375 0.578125 3.0q0.59375 0.890625 2.109375 0.890625q0.484375 0 1.34375 -0.078125q0.875 -0.078125 1.21875 -0.15625l0 1.515625zm24.8833 0.828125l-10.875 0l0 -1.3125q0.359375 -0.046875 0.84375 -0.09375q0.5 -0.0625 0.734375 -0.1875q0.375 -0.1875 0.53125 -0.5625q0.15625 -0.390625 0.15625 -1.125l0 -8.46875q0 -1.859375 -0.703125 -2.78125q-0.6875 -0.921875 -1.96875 -0.921875q-0.734375 0 -1.359375 0.21875q-0.609375 0.21875 -1.21875 0.640625q-0.515625 0.359375 -0.84375 0.734375q-0.3125 0.375 -0.53125 0.671875l0 9.703125q0 0.671875 0.15625 1.0625q0.171875 0.375 0.625 0.640625q0.28125 0.15625 0.71875 0.28125q0.4375 0.125 0.859375 0.1875l0 1.3125l-10.984375 0l0 -1.3125q0.46875 -0.046875 0.90625 -0.09375q0.453125 -0.0625 0.78125 -0.1875q0.578125 -0.21875 0.78125 -0.625q0.21875 -0.40625 0.21875 -1.0625l0 -20.15625q0 -0.578125 -0.28125 -1.21875q-0.265625 -0.65625 -0.75 -0.984375q-0.359375 -0.234375 -1.046875 -0.359375q-0.6875 -0.140625 -1.234375 -0.171875l0 -1.328125l8.984375 -0.46875l0.265625 0.296875l0 12.421875l0.078125 0q0.6875 -0.609375 1.234375 -1.109375q0.5625 -0.5 1.34375 -1.0q0.671875 -0.4375 1.75 -0.734375q1.078125 -0.3125 2.328125 -0.3125q2.921875 0 4.390625 1.6875q1.46875 1.671875 1.46875 4.421875l0 8.84375q0 0.671875 0.203125 1.078125q0.203125 0.390625 0.75 0.625q0.3125 0.140625 0.703125 0.25q0.40625 0.109375 0.984375 0.1875l0 1.3125zm34.724365 -0.375l-8.90625 0.515625l-0.265625 -0.25l0 -1.65625l-0.125 -0.046875q-0.890625 0.96875 -2.40625 1.6875q-1.5 0.703125 -3.03125 0.703125q-3.65625 0 -6.03125 -2.703125q-2.359375 -2.71875 -2.359375 -7.015625q0 -3.8125 2.640625 -6.53125q2.65625 -2.734375 6.40625 -2.734375q1.484375 0 2.78125 0.34375q1.3125 0.328125 2.078125 0.765625l0 -5.90625q0 -0.65625 -0.265625 -1.25q-0.265625 -0.59375 -0.71875 -0.90625q-0.5625 -0.40625 -1.40625 -0.578125q-0.84375 -0.171875 -1.6875 -0.234375l0 -1.328125l9.75 -0.46875l0.28125 0.296875l0 23.671875q0 0.6875 0.21875 1.171875q0.234375 0.46875 0.734375 0.734375q0.375 0.203125 1.109375 0.296875q0.734375 0.078125 1.203125 0.09375l0 1.328125zm-9.21875 -3.21875l0 -10.203125q-0.125 -0.421875 -0.359375 -0.921875q-0.21875 -0.515625 -0.609375 -0.96875q-0.359375 -0.375 -0.96875 -0.65625q-0.609375 -0.296875 -1.359375 -0.296875q-1.8125 0 -2.96875 2.046875q-1.15625 2.03125 -1.15625 5.765625q0 1.453125 0.203125 2.625q0.21875 1.15625 0.734375 2.125q0.53125 0.953125 1.34375 1.5q0.828125 0.53125 1.984375 0.53125q1.109375 0 1.828125 -0.421875q0.71875 -0.421875 1.328125 -1.125zm31.267334 3.21875q-0.796875 0.34375 -1.890625 0.625q-1.078125 0.296875 -2.28125 0.296875q-2.234375 0 -3.28125 -0.65625q-1.046875 -0.671875 -1.421875 -1.890625l-0.109375 0q-0.609375 0.609375 -1.1875 1.046875q-0.5625 0.421875 -1.21875 0.734375q-0.84375 0.40625 -1.640625 0.59375q-0.78125 0.1875 -2.1875 0.1875q-2.09375 0 -3.578125 -1.234375q-1.484375 -1.25 -1.484375 -3.28125q0 -1.171875 0.328125 -2.0q0.328125 -0.828125 0.921875 -1.453125q0.546875 -0.578125 1.25 -0.953125q0.71875 -0.390625 1.578125 -0.703125q1.625 -0.609375 3.890625 -1.25q2.28125 -0.640625 3.328125 -1.140625l0 -1.734375q0 -0.453125 -0.078125 -1.1875q-0.0625 -0.75 -0.296875 -1.25q-0.25 -0.578125 -0.796875 -0.96875q-0.546875 -0.40625 -1.421875 -0.40625q-0.796875 0 -1.34375 0.234375q-0.53125 0.21875 -0.84375 0.453125q0.046875 0.359375 0.296875 1.109375q0.25 0.734375 0.25 1.421875q0 0.296875 -0.15625 0.765625q-0.15625 0.453125 -0.46875 0.734375q-0.421875 0.359375 -0.9375 0.5625q-0.515625 0.1875 -1.578125 0.1875q-1.515625 0 -2.296875 -0.71875q-0.765625 -0.734375 -0.765625 -1.921875q0 -1.0 0.796875 -1.796875q0.8125 -0.8125 1.96875 -1.34375q1.125 -0.53125 2.609375 -0.828125q1.484375 -0.3125 2.75 -0.3125q1.75 0 3.203125 0.21875q1.46875 0.203125 2.65625 0.859375q1.109375 0.625 1.765625 1.828125q0.671875 1.203125 0.671875 3.140625q0 2.03125 -0.09375 4.84375q-0.078125 2.796875 -0.078125 3.671875q0 0.8125 0.25 1.296875q0.25 0.46875 0.75 0.703125q0.3125 0.140625 0.96875 0.171875q0.65625 0.015625 1.203125 0.015625l0 1.328125zm-8.984375 -9.421875q-1.015625 0.34375 -2.015625 0.796875q-0.984375 0.4375 -1.609375 0.921875q-0.671875 0.515625 -1.0625 1.296875q-0.375 0.78125 -0.375 1.84375q0 1.421875 0.640625 2.046875q0.640625 0.625 1.578125 0.625q1.0 0 1.640625 -0.40625q0.640625 -0.40625 1.125 -1.0l0.078125 -6.125zm24.002075 8.96875q-1.15625 0.5 -2.46875 0.90625q-1.3125 0.40625 -3.21875 0.40625q-2.8125 0 -4.1875 -1.375q-1.359375 -1.375 -1.359375 -3.921875l0 -11.09375l-3.25 0l0 -1.9375l3.328125 0l0 -5.484375l5.875 0l0 5.484375l5.046875 0l0 1.9375l-5.015625 0l0 9.90625q0 2.109375 0.578125 3.0q0.59375 0.890625 2.109375 0.890625q0.484375 0 1.34375 -0.078125q0.875 -0.078125 1.21875 -0.15625l0 1.515625zm22.055298 0.453125q-0.796875 0.34375 -1.890625 0.625q-1.078125 0.296875 -2.28125 0.296875q-2.234375 0 -3.28125 -0.65625q-1.046875 -0.671875 -1.421875 -1.890625l-0.109375 0q-0.609375 0.609375 -1.1875 1.046875q-0.5625 0.421875 -1.21875 0.734375q-0.84375 0.40625 -1.640625 0.59375q-0.78125 0.1875 -2.1875 0.1875q-2.09375 0 -3.578125 -1.234375q-1.484375 -1.25 -1.484375 -3.28125q0 -1.171875 0.328125 -2.0q0.328125 -0.828125 0.921875 -1.453125q0.546875 -0.578125 1.25 -0.953125q0.71875 -0.390625 1.578125 -0.703125q1.625 -0.609375 3.890625 -1.25q2.28125 -0.640625 3.328125 -1.140625l0 -1.734375q0 -0.453125 -0.078125 -1.1875q-0.0625 -0.75 -0.296875 -1.25q-0.25 -0.578125 -0.796875 -0.96875q-0.546875 -0.40625 -1.421875 -0.40625q-0.796875 0 -1.34375 0.234375q-0.53125 0.21875 -0.84375 0.453125q0.046875 0.359375 0.296875 1.109375q0.25 0.734375 0.25 1.421875q0 0.296875 -0.15625 0.765625q-0.15625 0.453125 -0.46875 0.734375q-0.421875 0.359375 -0.9375 0.5625q-0.515625 0.1875 -1.578125 0.1875q-1.515625 0 -2.296875 -0.71875q-0.765625 -0.734375 -0.765625 -1.921875q0 -1.0 0.796875 -1.796875q0.8125 -0.8125 1.96875 -1.34375q1.125 -0.53125 2.609375 -0.828125q1.484375 -0.3125 2.75 -0.3125q1.75 0 3.203125 0.21875q1.46875 0.203125 2.65625 0.859375q1.109375 0.625 1.765625 1.828125q0.671875 1.203125 0.671875 3.140625q0 2.03125 -0.09375 4.84375q-0.078125 2.796875 -0.078125 3.671875q0 0.8125 0.25 1.296875q0.25 0.46875 0.75 0.703125q0.3125 0.140625 0.96875 0.171875q0.65625 0.015625 1.203125 0.015625l0 1.328125zm-8.984375 -9.421875q-1.015625 0.34375 -2.015625 0.796875q-0.984375 0.4375 -1.609375 0.921875q-0.671875 0.515625 -1.0625 1.296875q-0.375 0.78125 -0.375 1.84375q0 1.421875 0.640625 2.046875q0.640625 0.625 1.578125 0.625q1.0 0 1.640625 -0.40625q0.640625 -0.40625 1.125 -1.0l0.078125 -6.125z" fill-rule="nonzero"></path></g></svg>

