<?xml version="1.0" standalone="yes"?>

<svg version="1.1" viewBox="0.0 0.0 960.0 540.0" fill="none" stroke="none" stroke-linecap="square" stroke-miterlimit="10" xmlns="http://www.w3.org/2000/svg" xmlns:xlink="http://www.w3.org/1999/xlink"><clipPath id="p.0"><path d="m0 0l960.0 0l0 540.0l-960.0 0l0 -540.0z" clip-rule="nonzero"></path></clipPath><g clip-path="url(#p.0)"><path fill="#000000" fill-opacity="0.0" d="m0 0l960.0 0l0 540.0l-960.0 0z" fill-rule="nonzero"></path><path fill="#efefef" d="m238.84776 168.35039l0 0c0 -13.254822 10.745178 -24.0 24.000015 -24.0l0 0c6.3651733 0 12.469696 2.5285645 16.97055 7.0294495c4.500885 4.5008698 7.0294495 10.605362 7.0294495 16.97055l0 0c0 13.254837 -10.745178 24.0 -24.0 24.0l0 0c-13.254837 0 -24.000015 -10.745163 -24.000015 -24.0z" fill-rule="nonzero"></path><path stroke="#cccccc" stroke-width="2.0" stroke-linejoin="round" stroke-linecap="butt" d="m238.84776 168.35039l0 0c0 -13.254822 10.745178 -24.0 24.000015 -24.0l0 0c6.3651733 0 12.469696 2.5285645 16.97055 7.0294495c4.500885 4.5008698 7.0294495 10.605362 7.0294495 16.97055l0 0c0 13.254837 -10.745178 24.0 -24.0 24.0l0 0c-13.254837 0 -24.000015 -10.745163 -24.000015 -24.0z" fill-rule="nonzero"></path><path fill="#efefef" d="m194.8924 184.53674l0 0c0 -8.836548 7.163437 -16.0 16.0 -16.0l0 0c4.243454 0 8.313126 1.6857147 11.313705 4.6862946c3.0005798 3.0005798 4.6862946 7.070236 4.6862946 11.313705l0 0c0 8.836563 -7.163452 16.0 -16.0 16.0l0 0c-8.836563 0 -16.0 -7.163437 -16.0 -16.0z" fill-rule="nonzero"></path><path stroke="#cccccc" stroke-width="2.0" stroke-linejoin="round" stroke-linecap="butt" d="m194.8924 184.53674l0 0c0 -8.836548 7.163437 -16.0 16.0 -16.0l0 0c4.243454 0 8.313126 1.6857147 11.313705 4.6862946c3.0005798 3.0005798 4.6862946 7.070236 4.6862946 11.313705l0 0c0 8.836563 -7.163452 16.0 -16.0 16.0l0 0c-8.836563 0 -16.0 -7.163437 -16.0 -16.0z" fill-rule="nonzero"></path><path fill="#efefef" d="m214.84776 222.26509l0 0c0 -8.836548 7.163452 -16.0 16.0 -16.0l0 0c4.243469 0 8.313126 1.6857147 11.313721 4.6862946c3.0005798 3.0005798 4.6862793 7.070236 4.6862793 11.313705l0 0c0 8.836563 -7.163437 16.0 -16.0 16.0l0 0c-8.836548 0 -16.0 -7.163437 -16.0 -16.0z" fill-rule="nonzero"></path><path stroke="#cccccc" stroke-width="2.0" stroke-linejoin="round" stroke-linecap="butt" d="m214.84776 222.26509l0 0c0 -8.836548 7.163452 -16.0 16.0 -16.0l0 0c4.243469 0 8.313126 1.6857147 11.313721 4.6862946c3.0005798 3.0005798 4.6862793 7.070236 4.6862793 11.313705l0 0c0 8.836563 -7.163437 16.0 -16.0 16.0l0 0c-8.836548 0 -16.0 -7.163437 -16.0 -16.0z" fill-rule="nonzero"></path><path fill="#efefef" d="m256.41208 212.34743l0 0c0 -6.523056 5.287964 -11.811035 11.811005 -11.811035l0 0c3.1325073 0 6.1366577 1.2443695 8.351685 3.4593658c2.2149963 2.2150116 3.4593506 5.2191772 3.4593506 8.351669l0 0c0 6.523041 -5.287964 11.81102 -11.811035 11.81102l0 0c-6.523041 0 -11.811005 -5.287979 -11.811005 -11.81102z" fill-rule="nonzero"></path><path stroke="#cccccc" stroke-width="2.0" stroke-linejoin="round" stroke-linecap="butt" d="m256.41208 212.34743l0 0c0 -6.523056 5.287964 -11.811035 11.811005 -11.811035l0 0c3.1325073 0 6.1366577 1.2443695 8.351685 3.4593658c2.2149963 2.2150116 3.4593506 5.2191772 3.4593506 8.351669l0 0c0 6.523041 -5.287964 11.81102 -11.811035 11.81102l0 0c-6.523041 0 -11.811005 -5.287979 -11.811005 -11.81102z" fill-rule="nonzero"></path><path fill="#efefef" d="m137.28609 226.65749l32.0 0l0 31.999985l-32.0 0z" fill-rule="nonzero"></path><path stroke="#cccccc" stroke-width="2.0" stroke-linejoin="round" stroke-linecap="butt" d="m137.28609 226.65749l32.0 0l0 31.999985l-32.0 0z" fill-rule="nonzero"></path><path fill="#efefef" d="m121.284775 267.65222l48.0 0l0 48.0l-48.0 0z" fill-rule="nonzero"></path><path stroke="#cccccc" stroke-width="2.0" stroke-linejoin="round" stroke-linecap="butt" d="m121.284775 267.65222l48.0 0l0 48.0l-48.0 0z" fill-rule="nonzero"></path><path fill="#efefef" d="m178.13387 252.7874l32.0 0l0 32.000015l-32.0 0z" fill-rule="nonzero"></path><path stroke="#cccccc" stroke-width="2.0" stroke-linejoin="round" stroke-linecap="butt" d="m178.13387 252.7874l32.0 0l0 32.000015l-32.0 0z" fill-rule="nonzero"></path><path fill="#efefef" d="m185.88977 294.64172l23.62204 0l0 23.62207l-23.62204 0z" fill-rule="nonzero"></path><path stroke="#cccccc" stroke-width="2.0" stroke-linejoin="round" stroke-linecap="butt" d="m185.88977 294.64172l23.62204 0l0 23.62207l-23.62204 0z" fill-rule="nonzero"></path><path fill="#000000" fill-opacity="0.0" d="m402.01443 326.1331l47.326263 -82.621124l32.221954 31.924316l36.2507 -75.1084l30.206604 16.898926l45.312866 -80.743866" fill-rule="nonzero"></path><path stroke="#cccccc" stroke-width="4.0" stroke-linejoin="round" stroke-linecap="butt" d="m402.01443 326.1331l47.326233 -82.62111l32.221985 31.924301l36.2507 -75.1084l30.206604 16.898926l33.567383 -59.814377" fill-rule="evenodd"></path><path fill="#cccccc" stroke="#cccccc" stroke-width="4.0" stroke-linecap="butt" d="m587.349 160.64583l3.1220703 -19.063416l-14.645386 12.596619z" fill-rule="evenodd"></path><path fill="#efefef" d="m708.4974 296.9987l0 0c0 -3.687683 2.989441 -6.6771545 6.677185 -6.6771545l0 0c1.770874 0 3.4692383 0.7034607 4.7214355 1.9556885c1.2521973 1.2521973 1.9556885 2.9505615 1.9556885 4.721466l0 0c0 3.687683 -2.989441 6.6771545 -6.677124 6.6771545l0 0c-3.6877441 0 -6.677185 -2.9894714 -6.677185 -6.6771545z" fill-rule="nonzero"></path><path stroke="#cccccc" stroke-width="2.0" stroke-linejoin="round" stroke-linecap="butt" d="m708.4974 296.9987l0 0c0 -3.687683 2.989441 -6.6771545 6.677185 -6.6771545l0 0c1.770874 0 3.4692383 0.7034607 4.7214355 1.9556885c1.2521973 1.2521973 1.9556885 2.9505615 1.9556885 4.721466l0 0c0 3.687683 -2.989441 6.6771545 -6.677124 6.6771545l0 0c-3.6877441 0 -6.677185 -2.9894714 -6.677185 -6.6771545z" fill-rule="nonzero"></path><path fill="#efefef" d="m737.68506 288.3189l0 0c0 -3.6877136 2.989441 -6.677185 6.677124 -6.677185l0 0c1.770935 0 3.4692993 0.7034912 4.7214966 1.955719c1.2521973 1.2521973 1.9556885 2.9505615 1.9556885 4.721466l0 0c0 3.687683 -2.989441 6.6771545 -6.677185 6.6771545l0 0c-3.687683 0 -6.677124 -2.9894714 -6.677124 -6.6771545z" fill-rule="nonzero"></path><path stroke="#cccccc" stroke-width="2.0" stroke-linejoin="round" stroke-linecap="butt" d="m737.68506 288.3189l0 0c0 -3.6877136 2.989441 -6.677185 6.677124 -6.677185l0 0c1.770935 0 3.4692993 0.7034912 4.7214966 1.955719c1.2521973 1.2521973 1.9556885 2.9505615 1.9556885 4.721466l0 0c0 3.687683 -2.989441 6.6771545 -6.677185 6.6771545l0 0c-3.687683 0 -6.677124 -2.9894714 -6.677124 -6.6771545z" fill-rule="nonzero"></path><path fill="#efefef" d="m765.05774 291.64435l0 0c0 -3.687683 2.989502 -6.6771545 6.677185 -6.6771545l0 0c1.770874 0 3.4692383 0.7034912 4.7214355 1.9556885c1.2522583 1.2522278 1.9556885 2.950592 1.9556885 4.721466l0 0c0 3.6877136 -2.989441 6.677185 -6.677124 6.677185l0 0c-3.687683 0 -6.677185 -2.9894714 -6.677185 -6.677185z" fill-rule="nonzero"></path><path stroke="#cccccc" stroke-width="2.0" stroke-linejoin="round" stroke-linecap="butt" d="m765.05774 291.64435l0 0c0 -3.687683 2.989502 -6.6771545 6.677185 -6.6771545l0 0c1.770874 0 3.4692383 0.7034912 4.7214355 1.9556885c1.2522583 1.2522278 1.9556885 2.950592 1.9556885 4.721466l0 0c0 3.6877136 -2.989441 6.677185 -6.677124 6.677185l0 0c-3.687683 0 -6.677185 -2.9894714 -6.677185 -6.677185z" fill-rule="nonzero"></path><path fill="#efefef" d="m757.5381 254.67323l0 0c0 -3.6876984 2.989441 -6.67717 6.677124 -6.67717l0 0c1.770935 0 3.4692993 0.7034912 4.7214966 1.9557037c1.2521973 1.2521973 1.9556885 2.9505615 1.9556885 4.721466l0 0c0 3.6876984 -2.989502 6.67717 -6.677185 6.67717l0 0c-3.687683 0 -6.677124 -2.9894714 -6.677124 -6.67717z" fill-rule="nonzero"></path><path stroke="#cccccc" stroke-width="2.0" stroke-linejoin="round" stroke-linecap="butt" d="m757.5381 254.67323l0 0c0 -3.6876984 2.989441 -6.67717 6.677124 -6.67717l0 0c1.770935 0 3.4692993 0.7034912 4.7214966 1.9557037c1.2521973 1.2521973 1.9556885 2.9505615 1.9556885 4.721466l0 0c0 3.6876984 -2.989502 6.67717 -6.677185 6.67717l0 0c-3.687683 0 -6.677124 -2.9894714 -6.677124 -6.67717z" fill-rule="nonzero"></path><path fill="#efefef" d="m798.9974 277.34515l0 0c0 -3.6877136 2.989441 -6.677185 6.677185 -6.677185l0 0c1.770874 0 3.4692383 0.7034912 4.7214355 1.955719c1.2521973 1.2521973 1.9556885 2.9505615 1.9556885 4.721466l0 0c0 3.687683 -2.989441 6.6771545 -6.677124 6.6771545l0 0c-3.6877441 0 -6.677185 -2.9894714 -6.677185 -6.6771545z" fill-rule="nonzero"></path><path stroke="#cccccc" stroke-width="2.0" stroke-linejoin="round" stroke-linecap="butt" d="m798.9974 277.34515l0 0c0 -3.6877136 2.989441 -6.677185 6.677185 -6.677185l0 0c1.770874 0 3.4692383 0.7034912 4.7214355 1.955719c1.2521973 1.2521973 1.9556885 2.9505615 1.9556885 4.721466l0 0c0 3.687683 -2.989441 6.6771545 -6.677124 6.6771545l0 0c-3.6877441 0 -6.677185 -2.9894714 -6.677185 -6.6771545z" fill-rule="nonzero"></path><path fill="#efefef" d="m835.90814 265.9147l0 0c0 -3.6877136 2.989441 -6.677185 6.677185 -6.677185l0 0c1.770874 0 3.4692383 0.7034912 4.7214355 1.955719c1.2521973 1.2521973 1.9556885 2.9505615 1.9556885 4.721466l0 0c0 3.687683 -2.989441 6.6771545 -6.677124 6.6771545l0 0c-3.6877441 0 -6.677185 -2.9894714 -6.677185 -6.6771545z" fill-rule="nonzero"></path><path stroke="#cccccc" stroke-width="2.0" stroke-linejoin="round" stroke-linecap="butt" d="m835.90814 265.9147l0 0c0 -3.6877136 2.989441 -6.677185 6.677185 -6.677185l0 0c1.770874 0 3.4692383 0.7034912 4.7214355 1.955719c1.2521973 1.2521973 1.9556885 2.9505615 1.9556885 4.721466l0 0c0 3.687683 -2.989441 6.6771545 -6.677124 6.6771545l0 0c-3.6877441 0 -6.677185 -2.9894714 -6.677185 -6.6771545z" fill-rule="nonzero"></path><path fill="#efefef" d="m814.55383 265.9147l0 0c0 -3.6877136 2.989441 -6.677185 6.677124 -6.677185l0 0c1.770935 0 3.4692993 0.7034912 4.7214966 1.955719c1.2521973 1.2521973 1.9556885 2.9505615 1.9556885 4.721466l0 0c0 3.687683 -2.989502 6.6771545 -6.677185 6.6771545l0 0c-3.687683 0 -6.677124 -2.9894714 -6.677124 -6.6771545z" fill-rule="nonzero"></path><path stroke="#cccccc" stroke-width="2.0" stroke-linejoin="round" stroke-linecap="butt" d="m814.55383 265.9147l0 0c0 -3.6877136 2.989441 -6.677185 6.677124 -6.677185l0 0c1.770935 0 3.4692993 0.7034912 4.7214966 1.955719c1.2521973 1.2521973 1.9556885 2.9505615 1.9556885 4.721466l0 0c0 3.687683 -2.989502 6.6771545 -6.677185 6.6771545l0 0c-3.687683 0 -6.677124 -2.9894714 -6.677124 -6.6771545z" fill-rule="nonzero"></path><path fill="#efefef" d="m827.90814 241.69423l0 0c0 -3.6876984 2.989441 -6.67717 6.677185 -6.67717l0 0c1.770874 0 3.4692383 0.7034912 4.7214355 1.9557037c1.2521973 1.2522125 1.9556885 2.9505615 1.9556885 4.721466l0 0c0 3.6876984 -2.989441 6.6771545 -6.677124 6.6771545l0 0c-3.6877441 0 -6.677185 -2.9894562 -6.677185 -6.6771545z" fill-rule="nonzero"></path><path stroke="#cccccc" stroke-width="2.0" stroke-linejoin="round" stroke-linecap="butt" d="m827.90814 241.69423l0 0c0 -3.6876984 2.989441 -6.67717 6.677185 -6.67717l0 0c1.770874 0 3.4692383 0.7034912 4.7214355 1.9557037c1.2521973 1.2522125 1.9556885 2.9505615 1.9556885 4.721466l0 0c0 3.6876984 -2.989441 6.6771545 -6.677124 6.6771545l0 0c-3.6877441 0 -6.677185 -2.9894562 -6.677185 -6.6771545z" fill-rule="nonzero"></path><path fill="#efefef" d="m812.3517 228.3412l0 0c0 -3.6876984 2.989502 -6.6771545 6.677185 -6.6771545l0 0c1.770874 0 3.4692383 0.70347595 4.7214966 1.9556885c1.2521973 1.2522125 1.9556885 2.9505768 1.9556885 4.721466l0 0c0 3.6876984 -2.989502 6.67717 -6.677185 6.67717l0 0c-3.687683 0 -6.677185 -2.9894714 -6.677185 -6.67717z" fill-rule="nonzero"></path><path stroke="#cccccc" stroke-width="2.0" stroke-linejoin="round" stroke-linecap="butt" d="m812.3517 228.3412l0 0c0 -3.6876984 2.989502 -6.6771545 6.677185 -6.6771545l0 0c1.770874 0 3.4692383 0.70347595 4.7214966 1.9556885c1.2521973 1.2522125 1.9556885 2.9505768 1.9556885 4.721466l0 0c0 3.6876984 -2.989502 6.67717 -6.677185 6.67717l0 0c-3.687683 0 -6.677185 -2.9894714 -6.677185 -6.67717z" fill-rule="nonzero"></path><path fill="#efefef" d="m736.1837 315.64435l0 0c0 -3.687683 2.989502 -6.6771545 6.677185 -6.6771545l0 0c1.770874 0 3.4692383 0.7034912 4.7214355 1.9556885c1.2522583 1.2522278 1.9557495 2.950592 1.9557495 4.721466l0 0c0 3.6877136 -2.989502 6.677185 -6.677185 6.677185l0 0c-3.687683 0 -6.677185 -2.9894714 -6.677185 -6.677185z" fill-rule="nonzero"></path><path stroke="#cccccc" stroke-width="2.0" stroke-linejoin="round" stroke-linecap="butt" d="m736.1837 315.64435l0 0c0 -3.687683 2.989502 -6.6771545 6.677185 -6.6771545l0 0c1.770874 0 3.4692383 0.7034912 4.7214355 1.9556885c1.2522583 1.2522278 1.9557495 2.950592 1.9557495 4.721466l0 0c0 3.6877136 -2.989502 6.677185 -6.677185 6.677185l0 0c-3.687683 0 -6.677185 -2.9894714 -6.677185 -6.677185z" fill-rule="nonzero"></path><path fill="#efefef" d="m790.9974 252.56036l0 0c0 -3.6876984 2.989441 -6.6771545 6.677185 -6.6771545l0 0c1.770874 0 3.4692383 0.70347595 4.7214355 1.9556885c1.2521973 1.2522125 1.9556885 2.9505768 1.9556885 4.721466l0 0c0 3.6877136 -2.989441 6.6771545 -6.677124 6.6771545l0 0c-3.6877441 0 -6.677185 -2.989441 -6.677185 -6.6771545z" fill-rule="nonzero"></path><path stroke="#cccccc" stroke-width="2.0" stroke-linejoin="round" stroke-linecap="butt" d="m790.9974 252.56036l0 0c0 -3.6876984 2.989441 -6.6771545 6.677185 -6.6771545l0 0c1.770874 0 3.4692383 0.70347595 4.7214355 1.9556885c1.2521973 1.2522125 1.9556885 2.9505768 1.9556885 4.721466l0 0c0 3.6877136 -2.989441 6.6771545 -6.677124 6.6771545l0 0c-3.6877441 0 -6.677185 -2.989441 -6.677185 -6.6771545z" fill-rule="nonzero"></path><path fill="#efefef" d="m773.5381 270.67322l0 0c0 -3.687683 2.989441 -6.6771545 6.677124 -6.6771545l0 0c1.770935 0 3.4692993 0.7034912 4.7214966 1.9556885c1.2521973 1.2522278 1.9556885 2.950592 1.9556885 4.721466l0 0c0 3.6877136 -2.989502 6.677185 -6.677185 6.677185l0 0c-3.687683 0 -6.677124 -2.9894714 -6.677124 -6.677185z" fill-rule="nonzero"></path><path stroke="#cccccc" stroke-width="2.0" stroke-linejoin="round" stroke-linecap="butt" d="m773.5381 270.67322l0 0c0 -3.687683 2.989441 -6.6771545 6.677124 -6.6771545l0 0c1.770935 0 3.4692993 0.7034912 4.7214966 1.9556885c1.2521973 1.2522278 1.9556885 2.950592 1.9556885 4.721466l0 0c0 3.6877136 -2.989502 6.677185 -6.677185 6.677185l0 0c-3.687683 0 -6.677124 -2.9894714 -6.677124 -6.677185z" fill-rule="nonzero"></path><path fill="#efefef" d="m852.02625 145.80183l0 0c0 -3.6876984 2.989441 -6.67717 6.677185 -6.67717l0 0c1.770874 0 3.4692383 0.7034912 4.7214355 1.9557037c1.2521973 1.2522125 1.9556885 2.9505768 1.9556885 4.721466l0 0c0 3.6876984 -2.989441 6.67717 -6.677124 6.67717l0 0c-3.6877441 0 -6.677185 -2.9894714 -6.677185 -6.67717z" fill-rule="nonzero"></path><path stroke="#cccccc" stroke-width="2.0" stroke-linejoin="round" stroke-linecap="butt" d="m852.02625 145.80183l0 0c0 -3.6876984 2.989441 -6.67717 6.677185 -6.67717l0 0c1.770874 0 3.4692383 0.7034912 4.7214355 1.9557037c1.2521973 1.2522125 1.9556885 2.9505768 1.9556885 4.721466l0 0c0 3.6876984 -2.989441 6.67717 -6.677124 6.67717l0 0c-3.6877441 0 -6.677185 -2.9894714 -6.677185 -6.67717z" fill-rule="nonzero"></path><path fill="#000000" fill-opacity="0.0" d="m51.6128 350.24146l250.70868 0l0 48.00003l-250.70868 0z" fill-rule="nonzero"></path><path fill="#d9d9d9" d="m136.84995 369.33646q0 1.875 -0.78125 3.234375q-0.765625 1.34375 -2.125 2.1875q-1.40625 0.875 -3.21875 1.265625q-1.796875 0.390625 -4.046875 0.390625l-1.8125 0l0 6.234375q0 0.5625 0.203125 0.984375q0.21875 0.40625 0.8125 0.65625q0.3125 0.125 1.015625 0.265625q0.703125 0.140625 1.1875 0.1875l0 1.21875l-12.015625 0l0 -1.21875q0.453125 -0.046875 1.203125 -0.125q0.75 -0.09375 1.046875 -0.21875q0.609375 -0.25 0.796875 -0.609375q0.203125 -0.359375 0.203125 -1.0l0 -15.640625q0 -0.546875 -0.1875 -0.9375q-0.1875 -0.40625 -0.8125 -0.671875q-0.4375 -0.1875 -1.171875 -0.328125q-0.71875 -0.15625 -1.078125 -0.203125l0 -1.21875l12.234375 0q4.296875 0 6.421875 1.375q2.125 1.359375 2.125 4.171875zm-6.09375 0.796875q0 -2.5 -1.015625 -3.703125q-1.0 -1.21875 -3.578125 -1.21875l-1.296875 0l0 9.734375l0.65625 0q2.5625 0 3.890625 -1.171875q1.34375 -1.1875 1.34375 -3.640625zm25.4375 15.5q-0.6875 0.296875 -1.625 0.546875q-0.9375 0.25 -1.984375 0.25q-1.921875 0 -2.828125 -0.5625q-0.90625 -0.578125 -1.234375 -1.640625l-0.09375 0q-0.53125 0.53125 -1.03125 0.90625q-0.484375 0.375 -1.046875 0.640625q-0.734375 0.34375 -1.421875 0.5q-0.671875 0.171875 -1.890625 0.171875q-1.8125 0 -3.09375 -1.0625q-1.28125 -1.078125 -1.28125 -2.84375q0 -1.015625 0.28125 -1.71875q0.28125 -0.71875 0.796875 -1.265625q0.46875 -0.5 1.078125 -0.828125q0.625 -0.328125 1.359375 -0.609375q1.40625 -0.515625 3.375 -1.0625q1.96875 -0.5625 2.875 -1.0l0 -1.5q0 -0.390625 -0.0625 -1.03125q-0.0625 -0.640625 -0.265625 -1.078125q-0.21875 -0.5 -0.6875 -0.84375q-0.46875 -0.34375 -1.234375 -0.34375q-0.6875 0 -1.15625 0.203125q-0.453125 0.1875 -0.734375 0.390625q0.046875 0.3125 0.265625 0.953125q0.21875 0.640625 0.21875 1.234375q0 0.265625 -0.140625 0.671875q-0.140625 0.390625 -0.40625 0.625q-0.359375 0.3125 -0.8125 0.484375q-0.4375 0.171875 -1.359375 0.171875q-1.3125 0 -1.984375 -0.625q-0.671875 -0.640625 -0.671875 -1.65625q0 -0.875 0.6875 -1.5625q0.703125 -0.703125 1.703125 -1.15625q0.984375 -0.46875 2.265625 -0.71875q1.28125 -0.265625 2.375 -0.265625q1.515625 0 2.78125 0.1875q1.265625 0.171875 2.28125 0.734375q0.96875 0.546875 1.53125 1.59375q0.578125 1.03125 0.578125 2.703125q0 1.765625 -0.078125 4.1875q-0.0625 2.421875 -0.0625 3.1875q0 0.703125 0.203125 1.109375q0.21875 0.40625 0.65625 0.609375q0.265625 0.125 0.828125 0.15625q0.578125 0.015625 1.046875 0.015625l0 1.140625zm-7.765625 -8.140625q-0.875 0.296875 -1.734375 0.6875q-0.859375 0.375 -1.40625 0.796875q-0.578125 0.4375 -0.90625 1.125q-0.328125 0.671875 -0.328125 1.59375q0 1.21875 0.546875 1.765625q0.5625 0.546875 1.375 0.546875q0.859375 0 1.40625 -0.34375q0.5625 -0.359375 0.984375 -0.875l0.0625 -5.296875zm20.59375 7.75q-1.0 0.4375 -2.140625 0.78125q-1.140625 0.359375 -2.78125 0.359375q-2.4375 0 -3.625 -1.1875q-1.171875 -1.1875 -1.171875 -3.390625l0 -9.59375l-2.8125 0l0 -1.6875l2.875 0l0 -4.734375l5.078125 0l0 4.734375l4.375 0l0 1.6875l-4.34375 0l0 8.5625q0 1.828125 0.5 2.59375q0.515625 0.765625 1.828125 0.765625q0.421875 0 1.171875 -0.0625q0.75 -0.0625 1.046875 -0.140625l0 1.3125zm12.71875 0q-1.0 0.4375 -2.140625 0.78125q-1.140625 0.359375 -2.78125 0.359375q-2.4375 0 -3.625 -1.1875q-1.171875 -1.1875 -1.171875 -3.390625l0 -9.59375l-2.8125 0l0 -1.6875l2.875 0l0 -4.734375l5.078125 0l0 4.734375l4.375 0l0 1.6875l-4.34375 0l0 8.5625q0 1.828125 0.5 2.59375q0.515625 0.765625 1.828125 0.765625q0.421875 0 1.171875 -0.0625q0.75 -0.0625 1.046875 -0.140625l0 1.3125zm17.890625 -3.015625q-0.546875 0.890625 -1.328125 1.6875q-0.765625 0.78125 -1.75 1.34375q-1.046875 0.59375 -2.125 0.890625q-1.0625 0.3125 -2.453125 0.3125q-2.3125 0 -4.0 -0.65625q-1.671875 -0.65625 -2.765625 -1.765625q-1.09375 -1.109375 -1.640625 -2.609375q-0.53125 -1.515625 -0.53125 -3.28125q0 -1.59375 0.578125 -3.046875q0.59375 -1.46875 1.671875 -2.609375q1.0625 -1.109375 2.671875 -1.796875q1.625 -0.6875 3.625 -0.6875q2.1875 0 3.59375 0.53125q1.40625 0.53125 2.328125 1.46875q0.890625 0.890625 1.296875 2.109375q0.40625 1.203125 0.40625 2.53125l0 1.015625l-10.5625 0q0 3.203125 1.234375 4.875q1.234375 1.671875 3.921875 1.671875q1.46875 0 2.640625 -0.796875q1.171875 -0.8125 2.0 -2.046875l1.1875 0.859375zm-5.96875 -5.9375q0 -0.9375 -0.09375 -1.921875q-0.09375 -0.984375 -0.328125 -1.609375q-0.265625 -0.734375 -0.734375 -1.109375q-0.453125 -0.375 -1.15625 -0.375q-1.203125 0 -1.921875 1.21875q-0.71875 1.21875 -0.78125 3.859375l5.015625 -0.0625zm23.03125 -2.96875q0 1.1875 -0.734375 2.09375q-0.734375 0.890625 -1.9375 0.890625q-1.140625 0 -1.9375 -0.578125q-0.78125 -0.578125 -0.78125 -1.703125q0 -0.546875 0.078125 -0.84375q0.078125 -0.3125 0.140625 -0.578125q-0.71875 0.03125 -1.515625 0.5q-0.796875 0.46875 -1.40625 1.25l0 8.578125q0 0.546875 0.171875 0.90625q0.171875 0.359375 0.578125 0.5625q0.34375 0.171875 1.109375 0.296875q0.78125 0.109375 1.125 0.125l0 1.140625l-10.453125 0l0 -1.140625q0.390625 -0.03125 0.78125 -0.078125q0.40625 -0.0625 0.6875 -0.15625q0.5 -0.171875 0.6875 -0.53125q0.1875 -0.359375 0.1875 -0.9375l0 -9.09375q0 -0.5625 -0.265625 -1.0q-0.265625 -0.453125 -0.640625 -0.71875q-0.28125 -0.1875 -0.71875 -0.3125q-0.421875 -0.125 -0.9375 -0.171875l0 -1.140625l7.453125 -0.40625l0.234375 0.234375l0 2.265625l0.0625 0q1.078125 -1.25 2.28125 -1.953125q1.21875 -0.71875 2.53125 -0.71875q1.453125 0 2.328125 0.90625q0.890625 0.890625 0.890625 2.3125zm21.703125 12.640625l-9.40625 0l0 -1.140625q0.296875 -0.03125 0.71875 -0.078125q0.421875 -0.046875 0.640625 -0.15625q0.328125 -0.171875 0.46875 -0.5q0.140625 -0.328125 0.140625 -0.96875l0 -7.3125q0 -1.59375 -0.59375 -2.390625q-0.578125 -0.8125 -1.71875 -0.8125q-0.625 0 -1.171875 0.1875q-0.53125 0.1875 -1.046875 0.546875q-0.453125 0.3125 -0.734375 0.640625q-0.265625 0.328125 -0.453125 0.578125l0 8.390625q0 0.546875 0.15625 0.921875q0.15625 0.359375 0.515625 0.546875q0.25 0.140625 0.625 0.25q0.375 0.109375 0.734375 0.15625l0 1.140625l-9.5 0l0 -1.140625q0.390625 -0.03125 0.78125 -0.078125q0.40625 -0.0625 0.6875 -0.15625q0.5 -0.171875 0.6875 -0.53125q0.1875 -0.359375 0.1875 -0.9375l0 -9.09375q0 -0.484375 -0.25 -0.953125q-0.25 -0.46875 -0.65625 -0.765625q-0.28125 -0.1875 -0.71875 -0.3125q-0.421875 -0.125 -0.9375 -0.171875l0 -1.140625l7.453125 -0.40625l0.234375 0.234375l0 2.265625l0.0625 0q0.4375 -0.390625 1.0625 -0.9375q0.625 -0.546875 1.15625 -0.890625q0.578125 -0.375 1.515625 -0.640625q0.9375 -0.265625 2.0 -0.265625q2.546875 0 3.8125 1.453125q1.28125 1.4375 1.28125 3.828125l0 7.65625q0 0.578125 0.171875 0.921875q0.171875 0.34375 0.640625 0.546875q0.25 0.109375 0.609375 0.21875q0.375 0.109375 0.84375 0.15625l0 1.140625z" fill-rule="nonzero"></path><path fill="#000000" fill-opacity="0.0" d="m708.4992 350.24146l196.09448 0l0 48.00003l-196.09448 0z" fill-rule="nonzero"></path><path fill="#d9d9d9" d="m769.17145 366.25833q1.640625 1.5 2.59375 3.625q0.96875 2.125 0.96875 4.84375q0 2.421875 -0.8125 4.609375q-0.8125 2.1875 -2.34375 3.765625q-1.609375 1.640625 -3.78125 2.5625q-2.171875 0.90625 -5.171875 0.90625q-2.421875 0 -4.578125 -0.796875q-2.15625 -0.796875 -3.796875 -2.3125q-1.625 -1.484375 -2.578125 -3.609375q-0.953125 -2.125 -0.953125 -4.734375q0 -2.71875 0.921875 -4.921875q0.9375 -2.21875 2.5625 -3.796875q1.609375 -1.546875 3.8125 -2.375q2.21875 -0.84375 4.71875 -0.84375q2.484375 0 4.65625 0.8125q2.1875 0.8125 3.78125 2.265625zm-4.015625 15.859375q0.703125 -1.421875 1.015625 -3.21875q0.3125 -1.796875 0.3125 -4.0625q0 -1.921875 -0.28125 -3.734375q-0.265625 -1.828125 -0.921875 -3.25q-0.671875 -1.421875 -1.78125 -2.28125q-1.109375 -0.859375 -2.765625 -0.859375q-2.828125 0 -4.296875 2.6875q-1.46875 2.671875 -1.46875 7.5625q0 2.078125 0.3125 3.921875q0.328125 1.84375 1.015625 3.21875q0.703125 1.390625 1.78125 2.171875q1.078125 0.765625 2.65625 0.765625q1.546875 0 2.65625 -0.78125q1.109375 -0.78125 1.765625 -2.140625zm29.984375 3.515625l-7.453125 0.453125l-0.234375 -0.21875l0 -2.046875l-0.09375 0q-0.53125 0.484375 -1.046875 0.953125q-0.5 0.453125 -1.203125 0.828125q-0.796875 0.421875 -1.515625 0.625q-0.703125 0.203125 -2.0625 0.203125q-2.359375 0 -3.625 -1.421875q-1.25 -1.421875 -1.25 -4.015625l0 -7.03125q0 -0.609375 -0.234375 -0.984375q-0.234375 -0.390625 -0.625 -0.6875q-0.3125 -0.234375 -0.8125 -0.328125q-0.5 -0.109375 -0.90625 -0.140625l0 -1.140625l7.578125 -0.40625l0.171875 0.234375l0 10.390625q0 1.609375 0.609375 2.375q0.625 0.765625 1.703125 0.765625q1.109375 0 1.984375 -0.578125q0.890625 -0.578125 1.296875 -1.234375l0 -8.421875q0 -0.53125 -0.203125 -0.953125q-0.203125 -0.421875 -0.59375 -0.6875q-0.28125 -0.1875 -0.8125 -0.25q-0.515625 -0.0625 -1.0625 -0.09375l0 -1.140625l7.578125 -0.40625l0.234375 0.234375l0 12.0625q0 0.546875 0.21875 0.9375q0.21875 0.375 0.640625 0.640625q0.296875 0.1875 0.765625 0.265625q0.484375 0.0625 0.953125 0.078125l0 1.140625zm12.890625 -0.390625q-1.0 0.4375 -2.140625 0.78125q-1.140625 0.359375 -2.78125 0.359375q-2.4375 0 -3.625 -1.1875q-1.171875 -1.1875 -1.171875 -3.390625l0 -9.59375l-2.8125 0l0 -1.6875l2.875 0l0 -4.734375l5.078125 0l0 4.734375l4.375 0l0 1.6875l-4.34375 0l0 8.5625q0 1.828125 0.5 2.59375q0.515625 0.765625 1.828125 0.765625q0.421875 0 1.171875 -0.0625q0.75 -0.0625 1.046875 -0.140625l0 1.3125zm10.609375 0.71875l-9.796875 0l0 -1.140625q0.40625 -0.03125 0.78125 -0.078125q0.390625 -0.046875 0.6875 -0.15625q0.5 -0.1875 0.671875 -0.53125q0.1875 -0.359375 0.1875 -0.9375l0 -17.3125q0 -0.59375 -0.25 -1.09375q-0.234375 -0.515625 -0.640625 -0.78125q-0.3125 -0.203125 -0.953125 -0.390625q-0.625 -0.1875 -1.109375 -0.21875l0 -1.140625l7.859375 -0.40625l0.234375 0.25l0 20.890625q0 0.578125 0.203125 0.9375q0.203125 0.359375 0.65625 0.5625q0.3125 0.140625 0.65625 0.25q0.34375 0.109375 0.8125 0.15625l0 1.140625zm11.375 0l-9.875 0l0 -1.140625q0.40625 -0.03125 0.796875 -0.078125q0.390625 -0.046875 0.671875 -0.15625q0.5 -0.1875 0.703125 -0.53125q0.203125 -0.359375 0.203125 -0.9375l0 -9.09375q0 -0.546875 -0.25 -0.953125q-0.25 -0.421875 -0.625 -0.671875q-0.28125 -0.1875 -0.859375 -0.359375q-0.5625 -0.171875 -1.03125 -0.21875l0 -1.140625l7.65625 -0.40625l0.234375 0.234375l0 12.40625q0 0.546875 0.234375 0.9375q0.234375 0.375 0.671875 0.5625q0.3125 0.140625 0.6875 0.25q0.375 0.109375 0.78125 0.15625l0 1.140625zm-2.28125 -21.3125q0 1.1875 -0.921875 2.03125q-0.90625 0.828125 -2.15625 0.828125q-1.265625 0 -2.1875 -0.828125q-0.90625 -0.84375 -0.90625 -2.03125q0 -1.1875 0.90625 -2.03125q0.921875 -0.84375 2.1875 -0.84375q1.265625 0 2.171875 0.84375q0.90625 0.84375 0.90625 2.03125zm20.515625 17.578125q-0.546875 0.890625 -1.328125 1.6875q-0.765625 0.78125 -1.75 1.34375q-1.046875 0.59375 -2.125 0.890625q-1.0625 0.3125 -2.453125 0.3125q-2.3125 0 -4.0 -0.65625q-1.671875 -0.65625 -2.765625 -1.765625q-1.09375 -1.109375 -1.640625 -2.609375q-0.53125 -1.515625 -0.53125 -3.28125q0 -1.59375 0.578125 -3.046875q0.59375 -1.46875 1.671875 -2.609375q1.0625 -1.109375 2.671875 -1.796875q1.625 -0.6875 3.625 -0.6875q2.1875 0 3.59375 0.53125q1.40625 0.53125 2.328125 1.46875q0.890625 0.890625 1.296875 2.109375q0.40625 1.203125 0.40625 2.53125l0 1.015625l-10.5625 0q0 3.203125 1.234375 4.875q1.234375 1.671875 3.921875 1.671875q1.46875 0 2.640625 -0.796875q1.171875 -0.8125 2.0 -2.046875l1.1875 0.859375zm-5.96875 -5.9375q0 -0.9375 -0.09375 -1.921875q-0.09375 -0.984375 -0.328125 -1.609375q-0.265625 -0.734375 -0.734375 -1.109375q-0.453125 -0.375 -1.15625 -0.375q-1.203125 0 -1.921875 1.21875q-0.71875 1.21875 -0.78125 3.859375l5.015625 -0.0625zm23.03125 -2.96875q0 1.1875 -0.734375 2.09375q-0.734375 0.890625 -1.9375 0.890625q-1.140625 0 -1.9375 -0.578125q-0.78125 -0.578125 -0.78125 -1.703125q0 -0.546875 0.078125 -0.84375q0.078125 -0.3125 0.140625 -0.578125q-0.71875 0.03125 -1.515625 0.5q-0.796875 0.46875 -1.40625 1.25l0 8.578125q0 0.546875 0.171875 0.90625q0.171875 0.359375 0.578125 0.5625q0.34375 0.171875 1.109375 0.296875q0.78125 0.109375 1.125 0.125l0 1.140625l-10.453125 0l0 -1.140625q0.390625 -0.03125 0.78125 -0.078125q0.40625 -0.0625 0.6875 -0.15625q0.5 -0.171875 0.6875 -0.53125q0.1875 -0.359375 0.1875 -0.9375l0 -9.09375q0 -0.5625 -0.265625 -1.0q-0.265625 -0.453125 -0.640625 -0.71875q-0.28125 -0.1875 -0.71875 -0.3125q-0.421875 -0.125 -0.9375 -0.171875l0 -1.140625l7.453125 -0.40625l0.234375 0.234375l0 2.265625l0.0625 0q1.078125 -1.25 2.28125 -1.953125q1.21875 -0.71875 2.53125 -0.71875q1.453125 0 2.328125 0.90625q0.890625 0.890625 0.890625 2.3125z" fill-rule="nonzero"></path><path fill="#000000" fill-opacity="0.0" d="m393.063 350.24146l224.69293 0l0 48.00003l-224.69293 0z" fill-rule="nonzero"></path><path fill="#d9d9d9" d="m477.03445 370.13333l-1.203125 0q-0.484375 -1.421875 -1.5625 -3.046875q-1.0625 -1.625 -1.96875 -1.75q-0.5 -0.0625 -1.234375 -0.109375q-0.734375 -0.046875 -1.265625 -0.046875l-0.734375 0l0 17.390625q0 0.5625 0.203125 1.0q0.203125 0.421875 0.796875 0.671875q0.359375 0.140625 1.109375 0.296875q0.765625 0.140625 1.296875 0.203125l0 1.21875l-12.359375 0l0 -1.21875q0.453125 -0.046875 1.265625 -0.125q0.828125 -0.09375 1.125 -0.21875q0.609375 -0.25 0.8125 -0.671875q0.203125 -0.421875 0.203125 -1.0l0 -17.546875l-0.734375 0q-0.53125 0 -1.265625 0.046875q-0.734375 0.046875 -1.234375 0.109375q-0.90625 0.125 -1.984375 1.75q-1.0625 1.625 -1.546875 3.046875l-1.203125 0l0 -6.34375l21.484375 0l0 6.34375zm16.671875 3.1875q0 1.1875 -0.734375 2.09375q-0.734375 0.890625 -1.9375 0.890625q-1.140625 0 -1.9375 -0.578125q-0.78125 -0.578125 -0.78125 -1.703125q0 -0.546875 0.078125 -0.84375q0.078125 -0.3125 0.140625 -0.578125q-0.71875 0.03125 -1.515625 0.5q-0.796875 0.46875 -1.40625 1.25l0 8.578125q0 0.546875 0.171875 0.90625q0.171875 0.359375 0.578125 0.5625q0.34375 0.171875 1.109375 0.296875q0.78125 0.109375 1.125 0.125l0 1.140625l-10.453125 0l0 -1.140625q0.390625 -0.03125 0.78125 -0.078125q0.40625 -0.0625 0.6875 -0.15625q0.5 -0.171875 0.6875 -0.53125q0.1875 -0.359375 0.1875 -0.9375l0 -9.09375q0 -0.5625 -0.265625 -1.0q-0.265625 -0.453125 -0.640625 -0.71875q-0.28125 -0.1875 -0.71875 -0.3125q-0.421875 -0.125 -0.9375 -0.171875l0 -1.140625l7.453125 -0.40625l0.234375 0.234375l0 2.265625l0.0625 0q1.078125 -1.25 2.28125 -1.953125q1.21875 -0.71875 2.53125 -0.71875q1.453125 0 2.328125 0.90625q0.890625 0.890625 0.890625 2.3125zm17.875 8.90625q-0.546875 0.890625 -1.328125 1.6875q-0.765625 0.78125 -1.75 1.34375q-1.046875 0.59375 -2.125 0.890625q-1.0625 0.3125 -2.453125 0.3125q-2.3125 0 -4.0 -0.65625q-1.671875 -0.65625 -2.765625 -1.765625q-1.09375 -1.109375 -1.640625 -2.609375q-0.53125 -1.515625 -0.53125 -3.28125q0 -1.59375 0.578125 -3.046875q0.59375 -1.46875 1.671875 -2.609375q1.0625 -1.109375 2.671875 -1.796875q1.625 -0.6875 3.625 -0.6875q2.1875 0 3.59375 0.53125q1.40625 0.53125 2.328125 1.46875q0.890625 0.890625 1.296875 2.109375q0.40625 1.203125 0.40625 2.53125l0 1.015625l-10.5625 0q0 3.203125 1.234375 4.875q1.234375 1.671875 3.921875 1.671875q1.46875 0 2.640625 -0.796875q1.171875 -0.8125 2.0 -2.046875l1.1875 0.859375zm-5.96875 -5.9375q0 -0.9375 -0.09375 -1.921875q-0.09375 -0.984375 -0.328125 -1.609375q-0.265625 -0.734375 -0.734375 -1.109375q-0.453125 -0.375 -1.15625 -0.375q-1.203125 0 -1.921875 1.21875q-0.71875 1.21875 -0.78125 3.859375l5.015625 -0.0625zm28.09378 9.671875l-9.40625 0l0 -1.140625q0.296875 -0.03125 0.71875 -0.078125q0.421875 -0.046875 0.640625 -0.15625q0.328125 -0.171875 0.46875 -0.5q0.140625 -0.328125 0.140625 -0.96875l0 -7.3125q0 -1.59375 -0.59375 -2.390625q-0.578125 -0.8125 -1.71875 -0.8125q-0.625 0 -1.171875 0.1875q-0.53125 0.1875 -1.046875 0.546875q-0.453125 0.3125 -0.73443604 0.640625q-0.265625 0.328125 -0.453125 0.578125l0 8.390625q0 0.546875 0.15625 0.921875q0.15625 0.359375 0.51568604 0.546875q0.25 0.140625 0.625 0.25q0.375 0.109375 0.734375 0.15625l0 1.140625l-9.500061 0l0 -1.140625q0.390625 -0.03125 0.78125 -0.078125q0.40625 -0.0625 0.6875 -0.15625q0.5 -0.171875 0.6875 -0.53125q0.1875 -0.359375 0.1875 -0.9375l0 -9.09375q0 -0.484375 -0.25 -0.953125q-0.25 -0.46875 -0.65625 -0.765625q-0.28125 -0.1875 -0.71875 -0.3125q-0.421875 -0.125 -0.9375 -0.171875l0 -1.140625l7.453125 -0.40625l0.234375 0.234375l0 2.265625l0.0625 0q0.4375 -0.390625 1.062561 -0.9375q0.625 -0.546875 1.15625 -0.890625q0.578125 -0.375 1.515625 -0.640625q0.9375 -0.265625 2.0 -0.265625q2.546875 0 3.8125 1.453125q1.28125 1.4375 1.28125 3.828125l0 7.65625q0 0.578125 0.171875 0.921875q0.171875 0.34375 0.640625 0.546875q0.25 0.109375 0.609375 0.21875q0.375 0.109375 0.84375 0.15625l0 1.140625zm21.65625 -0.328125l-7.703125 0.453125l-0.234375 -0.21875l0 -1.4375l-0.109375 -0.03125q-0.765625 0.828125 -2.078125 1.453125q-1.296875 0.609375 -2.625 0.609375q-3.15625 0 -5.203125 -2.34375q-2.046875 -2.34375 -2.046875 -6.0625q0 -3.296875 2.28125 -5.65625q2.296875 -2.359375 5.546875 -2.359375q1.28125 0 2.40625 0.296875q1.125 0.28125 1.796875 0.671875l0 -5.109375q0 -0.578125 -0.234375 -1.078125q-0.234375 -0.515625 -0.625 -0.796875q-0.484375 -0.34375 -1.21875 -0.484375q-0.71875 -0.15625 -1.453125 -0.21875l0 -1.140625l8.4375 -0.40625l0.234375 0.25l0 20.484375q0 0.59375 0.1875 1.0q0.203125 0.40625 0.640625 0.640625q0.328125 0.171875 0.953125 0.25q0.640625 0.078125 1.046875 0.09375l0 1.140625zm-7.96875 -2.78125l0 -8.828125q-0.109375 -0.359375 -0.3125 -0.796875q-0.1875 -0.4375 -0.53125 -0.828125q-0.3125 -0.328125 -0.84375 -0.578125q-0.515625 -0.25 -1.171875 -0.25q-1.5625 0 -2.5625 1.765625q-1.0 1.765625 -1.0 4.984375q0 1.265625 0.171875 2.28125q0.1875 1.0 0.640625 1.828125q0.453125 0.828125 1.15625 1.296875q0.71875 0.46875 1.71875 0.46875q0.953125 0 1.578125 -0.359375q0.625 -0.375 1.15625 -0.984375z" fill-rule="nonzero"></path></g></svg>

