<?xml version="1.0" standalone="yes"?>

<svg version="1.1" viewBox="0.0 0.0 960.0 540.0" fill="none" stroke="none" stroke-linecap="square" stroke-miterlimit="10" xmlns="http://www.w3.org/2000/svg" xmlns:xlink="http://www.w3.org/1999/xlink"><clipPath id="p.0"><path d="m0 0l960.0 0l0 540.0l-960.0 0l0 -540.0z" clip-rule="nonzero"></path></clipPath><g clip-path="url(#p.0)"><path fill="#000000" fill-opacity="0.0" d="m0 0l960.0 0l0 540.0l-960.0 0z" fill-rule="nonzero"></path><path fill="#000000" fill-opacity="0.0" d="m587.6063 363.95172l-215.21262 0" fill-rule="nonzero"></path><path stroke="#cccccc" stroke-width="4.0" stroke-linejoin="round" stroke-linecap="butt" d="m563.6063 363.95172l-176.05264 0" fill-rule="evenodd"></path><path fill="#cccccc" stroke="#cccccc" stroke-width="4.0" stroke-linecap="butt" d="m563.6063 370.55865l18.152344 -6.6069336l-18.152344 -6.6069336z" fill-rule="evenodd"></path><path fill="#cccccc" stroke="#cccccc" stroke-width="4.0" stroke-linecap="butt" d="m374.3937 363.95172c0 -3.6340332 2.9459534 -6.5799866 6.5799866 -6.5799866c3.6340332 0 6.580017 2.9459534 6.580017 6.5799866c0 3.6340332 -2.945984 6.580017 -6.580017 6.580017c-3.6340332 0 -6.5799866 -2.945984 -6.5799866 -6.580017z" fill-rule="nonzero"></path><path fill="#000000" fill-opacity="0.0" d="m380.3937 159.31131l0 215.21259" fill-rule="nonzero"></path><path stroke="#cccccc" stroke-width="4.0" stroke-linejoin="round" stroke-linecap="butt" d="m380.3937 183.31131l0 176.05261" fill-rule="evenodd"></path><path fill="#cccccc" stroke="#cccccc" stroke-width="4.0" stroke-linecap="butt" d="m387.00064 183.31131l-6.6069336 -18.15239l-6.6069336 18.15239z" fill-rule="evenodd"></path><path fill="#cccccc" stroke="#cccccc" stroke-width="4.0" stroke-linecap="butt" d="m380.3937 372.5239c-3.6340332 0 -6.580017 -2.9459534 -6.580017 -6.5799866c0 -3.6340332 2.945984 -6.5799866 6.580017 -6.5799866c3.6340332 0 6.5799866 2.9459534 6.5799866 6.5799866c0 3.6340332 -2.9459534 6.5799866 -6.5799866 6.5799866z" fill-rule="nonzero"></path><path fill="#000000" fill-opacity="0.0" d="m490.83154 245.75726l189.16534 0l0 48.0l-189.16534 0z" fill-rule="nonzero"></path><path fill="#d9d9d9" d="m500.31592 281.47726l9.5 -22.71875l1.828125 0l9.5 22.71875l-2.40625 0l-2.9375 -7.109375l-10.203125 0l-2.921875 7.109375l-2.359375 0zm10.421875 -20.09375l-4.671875 11.234375l9.21875 0l-4.546875 -11.234375zm21.321777 20.40625q-1.953125 0 -3.625 -0.984375q-1.65625 -0.984375 -2.59375 -2.5625l0 3.234375l-1.9375 0l0 -23.359375l2.171875 0l0 10.171875q1.109375 -1.6875 2.671875 -2.71875q1.578125 -1.046875 3.6875 -1.046875q1.734375 0 3.140625 0.734375q1.40625 0.734375 2.375 1.96875q0.984375 1.21875 1.515625 2.78125q0.53125 1.546875 0.53125 3.1875q0 1.75 -0.609375 3.328125q-0.609375 1.5625 -1.6875 2.734375q-1.0625 1.15625 -2.53125 1.84375q-1.453125 0.6875 -3.109375 0.6875zm-0.515625 -1.90625q1.375 0 2.5 -0.5625q1.140625 -0.5625 1.953125 -1.5q0.828125 -0.953125 1.28125 -2.15625q0.46875 -1.203125 0.46875 -2.46875q0 -1.3125 -0.4375 -2.53125q-0.421875 -1.21875 -1.203125 -2.15625q-0.78125 -0.953125 -1.875 -1.515625q-1.09375 -0.5625 -2.40625 -0.5625q-0.984375 0 -1.859375 0.34375q-0.859375 0.328125 -1.59375 0.90625q-0.734375 0.578125 -1.328125 1.328125q-0.59375 0.75 -0.96875 1.59375l0 5.171875q0.125 0.875 0.6875 1.625q0.5625 0.75 1.359375 1.296875q0.796875 0.546875 1.6875 0.875q0.90625 0.3125 1.734375 0.3125zm17.665161 1.90625q-1.953125 0 -3.8125 -0.625q-1.859375 -0.640625 -3.203125 -1.859375l1.0 -1.46875q1.40625 1.140625 2.859375 1.71875q1.453125 0.578125 3.125 0.578125q2.015625 0 3.203125 -0.8125q1.203125 -0.8125 1.203125 -2.328125q0 -0.703125 -0.3125 -1.15625q-0.3125 -0.46875 -0.9375 -0.8125q-0.625 -0.359375 -1.578125 -0.625q-0.9375 -0.28125 -2.1875 -0.5625q-1.4375 -0.359375 -2.5 -0.703125q-1.046875 -0.359375 -1.734375 -0.796875q-0.6875 -0.453125 -1.03125 -1.109375q-0.328125 -0.65625 -0.328125 -1.65625q0 -1.25 0.484375 -2.203125q0.5 -0.96875 1.34375 -1.578125q0.859375 -0.625 1.984375 -0.9375q1.140625 -0.328125 2.421875 -0.328125q1.921875 0 3.484375 0.625q1.5625 0.609375 2.53125 1.640625l-1.0625 1.28125q-0.921875 -0.96875 -2.25 -1.4375q-1.328125 -0.484375 -2.765625 -0.484375q-0.859375 0 -1.609375 0.1875q-0.734375 0.171875 -1.296875 0.5625q-0.546875 0.375 -0.875 0.96875q-0.3125 0.578125 -0.3125 1.390625q0 0.671875 0.21875 1.09375q0.21875 0.40625 0.734375 0.71875q0.515625 0.296875 1.296875 0.546875q0.78125 0.234375 1.90625 0.484375q1.59375 0.390625 2.8125 0.78125q1.21875 0.375 2.03125 0.890625q0.8125 0.5 1.234375 1.234375q0.421875 0.734375 0.421875 1.796875q0 2.296875 -1.765625 3.640625q-1.765625 1.34375 -4.734375 1.34375zm18.052795 -1.109375q-0.203125 0.09375 -0.578125 0.25q-0.359375 0.15625 -0.84375 0.328125q-0.46875 0.15625 -1.078125 0.28125q-0.609375 0.125 -1.28125 0.125q-0.703125 0 -1.34375 -0.1875q-0.640625 -0.1875 -1.125 -0.578125q-0.46875 -0.40625 -0.765625 -1.015625q-0.28125 -0.609375 -0.28125 -1.421875l0 -11.921875l-2.3125 0l0 -1.734375l2.3125 0l0 -5.625l2.171875 0l0 5.625l3.84375 0l0 1.734375l-3.84375 0l0 11.328125q0.0625 0.921875 0.640625 1.359375q0.578125 0.421875 1.375 0.421875q0.921875 0 1.625 -0.296875q0.703125 -0.3125 0.90625 -0.4375l0.578125 1.765625zm10.874023 -13.953125q-2.203125 0.0625 -3.84375 1.21875q-1.625 1.140625 -2.296875 3.15625l0 10.375l-2.171875 0l0 -16.671875l2.046875 0l0 4.0q0.859375 -1.765625 2.265625 -2.921875q1.40625 -1.171875 3.046875 -1.171875q0.28125 0 0.53125 0q0.265625 0 0.421875 0.03125l0 1.984375zm7.3257446 15.0625q-1.28125 0 -2.34375 -0.390625q-1.046875 -0.40625 -1.796875 -1.109375q-0.75 -0.703125 -1.171875 -1.625q-0.40625 -0.9375 -0.40625 -1.953125q0 -1.15625 0.5 -2.09375q0.515625 -0.953125 1.4375 -1.625q0.9375 -0.671875 2.234375 -1.03125q1.296875 -0.375 2.859375 -0.375q1.25 0 2.5625 0.234375q1.3125 0.21875 2.328125 0.625l0 -1.5q0 -2.203125 -1.265625 -3.5q-1.25 -1.296875 -3.40625 -1.296875q-1.34375 0 -2.671875 0.515625q-1.328125 0.515625 -2.703125 1.46875l-0.765625 -1.4375q1.640625 -1.09375 3.171875 -1.625q1.53125 -0.546875 3.203125 -0.546875q3.03125 0 4.828125 1.765625q1.796875 1.75 1.796875 4.84375l0 7.53125q0 0.890625 0.765625 0.890625l0 1.921875q-0.265625 0.03125 -0.484375 0.046875q-0.21875 0.015625 -0.375 0.015625q-0.640625 0 -1.171875 -0.375q-0.53125 -0.390625 -0.59375 -1.15625l-0.0625 -1.3125q-1.09375 1.46875 -2.875 2.28125q-1.765625 0.8125 -3.59375 0.8125zm0.546875 -1.65625q1.4375 0 2.859375 -0.625q1.421875 -0.625 2.265625 -1.71875q0.21875 -0.28125 0.375 -0.609375q0.15625 -0.34375 0.15625 -0.625l0 -2.71875q-1.078125 -0.421875 -2.265625 -0.640625q-1.1875 -0.234375 -2.296875 -0.234375q-2.34375 0 -3.796875 0.953125q-1.453125 0.9375 -1.453125 2.609375q0 0.671875 0.25 1.3125q0.25 0.625 0.78125 1.140625q0.53125 0.515625 1.296875 0.84375q0.765625 0.3125 1.828125 0.3125zm11.489197 -7.046875q0 -1.75 0.609375 -3.3125q0.609375 -1.578125 1.703125 -2.734375q1.109375 -1.171875 2.640625 -1.84375q1.546875 -0.671875 3.390625 -0.671875q2.375 0 4.125 1.078125q1.765625 1.0625 2.671875 2.890625l-2.125 0.671875q-0.703125 -1.28125 -1.953125 -2.0q-1.234375 -0.734375 -2.78125 -0.734375q-1.28125 0 -2.390625 0.515625q-1.09375 0.515625 -1.90625 1.40625q-0.8125 0.875 -1.28125 2.09375q-0.46875 1.203125 -0.46875 2.640625q0 1.421875 0.484375 2.671875q0.484375 1.234375 1.3125 2.15625q0.828125 0.90625 1.921875 1.4375q1.109375 0.53125 2.359375 0.53125q0.8125 0 1.59375 -0.21875q0.78125 -0.234375 1.453125 -0.625q0.671875 -0.40625 1.140625 -0.921875q0.484375 -0.515625 0.6875 -1.09375l2.109375 0.640625q-0.359375 0.90625 -1.03125 1.65625q-0.671875 0.75 -1.578125 1.3125q-0.90625 0.5625 -2.015625 0.859375q-1.109375 0.296875 -2.296875 0.296875q-1.8125 0 -3.359375 -0.6875q-1.53125 -0.6875 -2.65625 -1.875q-1.109375 -1.203125 -1.734375 -2.765625q-0.625 -1.578125 -0.625 -3.375zm26.756287 7.59375q-0.203125 0.09375 -0.578125 0.25q-0.359375 0.15625 -0.84375 0.328125q-0.46875 0.15625 -1.078125 0.28125q-0.609375 0.125 -1.28125 0.125q-0.703125 0 -1.34375 -0.1875q-0.640625 -0.1875 -1.125 -0.578125q-0.46875 -0.40625 -0.765625 -1.015625q-0.28125 -0.609375 -0.28125 -1.421875l0 -11.921875l-2.3125 0l0 -1.734375l2.3125 0l0 -5.625l2.171875 0l0 5.625l3.84375 0l0 1.734375l-3.84375 0l0 11.328125q0.0625 0.921875 0.640625 1.359375q0.578125 0.421875 1.375 0.421875q0.921875 0 1.625 -0.296875q0.703125 -0.3125 0.90625 -0.4375l0.578125 1.765625zm2.5615234 0.796875l0 -16.671875l2.171875 0l0 16.671875l-2.171875 0zm0 -20.15625l0 -3.203125l2.171875 0l0 3.203125l-2.171875 0zm14.035522 20.46875q-1.8125 0 -3.34375 -0.6875q-1.515625 -0.6875 -2.625 -1.859375q-1.09375 -1.1875 -1.703125 -2.75q-0.609375 -1.578125 -0.609375 -3.296875q0 -1.765625 0.625 -3.328125q0.625 -1.578125 1.71875 -2.75q1.109375 -1.1875 2.625 -1.890625q1.53125 -0.703125 3.3125 -0.703125q1.796875 0 3.3125 0.703125q1.53125 0.703125 2.625 1.890625q1.109375 1.171875 1.734375 2.75q0.625 1.5625 0.625 3.328125q0 1.71875 -0.625 3.296875q-0.625 1.5625 -1.734375 2.75q-1.09375 1.171875 -2.625 1.859375q-1.515625 0.6875 -3.3125 0.6875zm-6.046875 -8.5625q0 1.40625 0.46875 2.609375q0.46875 1.1875 1.28125 2.109375q0.8125 0.90625 1.90625 1.421875q1.109375 0.515625 2.359375 0.515625q1.25 0 2.34375 -0.53125q1.109375 -0.53125 1.9375 -1.4375q0.84375 -0.921875 1.3125 -2.125q0.484375 -1.21875 0.484375 -2.625q0 -1.390625 -0.484375 -2.609375q-0.46875 -1.234375 -1.3125 -2.140625q-0.828125 -0.921875 -1.921875 -1.453125q-1.078125 -0.53125 -2.328125 -0.53125q-1.25 0 -2.359375 0.53125q-1.09375 0.53125 -1.90625 1.46875q-0.8125 0.921875 -1.296875 2.15625q-0.484375 1.234375 -0.484375 2.640625zm31.91504 8.25l-2.1875 0l0 -9.3125q0 -2.96875 -0.859375 -4.3125q-0.859375 -1.34375 -2.6875 -1.34375q-0.96875 0 -1.921875 0.359375q-0.953125 0.34375 -1.796875 0.984375q-0.828125 0.640625 -1.453125 1.515625q-0.625 0.875 -0.9375 1.90625l0 10.203125l-2.171875 0l0 -16.671875l1.96875 0l0 3.78125q0.515625 -0.90625 1.265625 -1.65625q0.765625 -0.75 1.6875 -1.296875q0.921875 -0.546875 1.953125 -0.828125q1.046875 -0.28125 2.171875 -0.28125q1.40625 0 2.34375 0.515625q0.953125 0.5 1.53125 1.4375q0.578125 0.921875 0.828125 2.265625q0.265625 1.34375 0.265625 2.96875l0 9.765625z" fill-rule="nonzero"></path><path fill="#efefef" d="m203.50131 206.80052l0 0c0 -13.254837 10.745163 -24.0 24.0 -24.0l0 0c6.3651886 0 12.469696 2.5285645 16.970566 7.029434c4.5008698 4.500885 7.029434 10.605377 7.029434 16.970566l0 0c0 13.254837 -10.745163 24.0 -24.0 24.0l0 0c-13.254837 0 -24.0 -10.745163 -24.0 -24.0z" fill-rule="nonzero"></path><path stroke="#cccccc" stroke-width="2.0" stroke-linejoin="round" stroke-linecap="butt" d="m203.50131 206.80052l0 0c0 -13.254837 10.745163 -24.0 24.0 -24.0l0 0c6.3651886 0 12.469696 2.5285645 16.970566 7.029434c4.5008698 4.500885 7.029434 10.605377 7.029434 16.970566l0 0c0 13.254837 -10.745163 24.0 -24.0 24.0l0 0c-13.254837 0 -24.0 -10.745163 -24.0 -24.0z" fill-rule="nonzero"></path><path fill="#efefef" d="m159.54593 222.98688l0 0c0 -8.836563 7.163452 -16.0 16.0 -16.0l0 0c4.243469 0 8.313126 1.6857147 11.313705 4.6862946c3.000595 3.0005798 4.6862946 7.070236 4.6862946 11.313705l0 0c0 8.836548 -7.163437 16.0 -16.0 16.0l0 0c-8.836548 0 -16.0 -7.163452 -16.0 -16.0z" fill-rule="nonzero"></path><path stroke="#cccccc" stroke-width="2.0" stroke-linejoin="round" stroke-linecap="butt" d="m159.54593 222.98688l0 0c0 -8.836563 7.163452 -16.0 16.0 -16.0l0 0c4.243469 0 8.313126 1.6857147 11.313705 4.6862946c3.000595 3.0005798 4.6862946 7.070236 4.6862946 11.313705l0 0c0 8.836548 -7.163437 16.0 -16.0 16.0l0 0c-8.836548 0 -16.0 -7.163452 -16.0 -16.0z" fill-rule="nonzero"></path><path fill="#efefef" d="m179.50131 260.7152l0 0c0 -8.836548 7.163437 -15.999985 16.0 -15.999985l0 0c4.243469 0 8.313126 1.6857147 11.313705 4.6862946c3.0005798 3.0005798 4.6862946 7.0702515 4.6862946 11.31369l0 0c0 8.836578 -7.163437 16.0 -16.0 16.0l0 0c-8.836563 0 -16.0 -7.1634216 -16.0 -16.0z" fill-rule="nonzero"></path><path stroke="#cccccc" stroke-width="2.0" stroke-linejoin="round" stroke-linecap="butt" d="m179.50131 260.7152l0 0c0 -8.836548 7.163437 -15.999985 16.0 -15.999985l0 0c4.243469 0 8.313126 1.6857147 11.313705 4.6862946c3.0005798 3.0005798 4.6862946 7.0702515 4.6862946 11.31369l0 0c0 8.836578 -7.163437 16.0 -16.0 16.0l0 0c-8.836563 0 -16.0 -7.1634216 -16.0 -16.0z" fill-rule="nonzero"></path><path fill="#efefef" d="m221.06561 250.79755l0 0c0 -6.523041 5.287979 -11.81102 11.811035 -11.81102l0 0c3.1324768 0 6.1366577 1.2443695 8.351654 3.4593658c2.2149963 2.2149963 3.4593658 5.2191772 3.4593658 8.351654l0 0c0 6.523041 -5.287979 11.811035 -11.81102 11.811035l0 0c-6.523056 0 -11.811035 -5.2879944 -11.811035 -11.811035z" fill-rule="nonzero"></path><path stroke="#cccccc" stroke-width="2.0" stroke-linejoin="round" stroke-linecap="butt" d="m221.06561 250.79755l0 0c0 -6.523041 5.287979 -11.81102 11.811035 -11.81102l0 0c3.1324768 0 6.1366577 1.2443695 8.351654 3.4593658c2.2149963 2.2149963 3.4593658 5.2191772 3.4593658 8.351654l0 0c0 6.523041 -5.287979 11.811035 -11.81102 11.811035l0 0c-6.523056 0 -11.811035 -5.2879944 -11.811035 -11.811035z" fill-rule="nonzero"></path><path fill="#efefef" d="m101.93964 265.1076l32.0 0l0 32.0l-32.0 0z" fill-rule="nonzero"></path><path stroke="#cccccc" stroke-width="2.0" stroke-linejoin="round" stroke-linecap="butt" d="m101.93964 265.1076l32.0 0l0 32.0l-32.0 0z" fill-rule="nonzero"></path><path fill="#efefef" d="m85.938324 306.10236l48.0 0l0 48.0l-48.0 0z" fill-rule="nonzero"></path><path stroke="#cccccc" stroke-width="2.0" stroke-linejoin="round" stroke-linecap="butt" d="m85.938324 306.10236l48.0 0l0 48.0l-48.0 0z" fill-rule="nonzero"></path><path fill="#efefef" d="m142.7874 291.23752l32.0 0l0 32.0l-32.0 0z" fill-rule="nonzero"></path><path stroke="#cccccc" stroke-width="2.0" stroke-linejoin="round" stroke-linecap="butt" d="m142.7874 291.23752l32.0 0l0 32.0l-32.0 0z" fill-rule="nonzero"></path><path fill="#efefef" d="m150.5433 333.09186l23.622055 0l0 23.62204l-23.622055 0z" fill-rule="nonzero"></path><path stroke="#cccccc" stroke-width="2.0" stroke-linejoin="round" stroke-linecap="butt" d="m150.5433 333.09186l23.622055 0l0 23.62204l-23.622055 0z" fill-rule="nonzero"></path><path fill="#000000" fill-opacity="0.0" d="m386.01443 358.1331l47.326263 -82.621124l32.221954 31.924347l36.2507 -75.10843l30.206604 16.898926l45.312866 -80.743866" fill-rule="nonzero"></path><path stroke="#cccccc" stroke-width="4.0" stroke-linejoin="round" stroke-linecap="butt" d="m386.01443 358.1331l47.326233 -82.621124l32.221985 31.924316l36.2507 -75.1084l30.206604 16.898926l33.567383 -59.81436" fill-rule="evenodd"></path><path fill="#cccccc" stroke="#cccccc" stroke-width="4.0" stroke-linecap="butt" d="m571.349 192.64583l3.1220703 -19.063416l-14.645386 12.596619z" fill-rule="evenodd"></path><path fill="#efefef" d="m716.4974 329.97165l0 0c0 -3.687683 2.989441 -6.6771545 6.677185 -6.6771545l0 0c1.770874 0 3.4692383 0.7034912 4.7214355 1.9556885c1.2521973 1.2522278 1.9556885 2.950592 1.9556885 4.721466l0 0c0 3.6877136 -2.989441 6.677185 -6.677124 6.677185l0 0c-3.6877441 0 -6.677185 -2.9894714 -6.677185 -6.677185z" fill-rule="nonzero"></path><path stroke="#cccccc" stroke-width="2.0" stroke-linejoin="round" stroke-linecap="butt" d="m716.4974 329.97165l0 0c0 -3.687683 2.989441 -6.6771545 6.677185 -6.6771545l0 0c1.770874 0 3.4692383 0.7034912 4.7214355 1.9556885c1.2521973 1.2522278 1.9556885 2.950592 1.9556885 4.721466l0 0c0 3.6877136 -2.989441 6.677185 -6.677124 6.677185l0 0c-3.6877441 0 -6.677185 -2.9894714 -6.677185 -6.677185z" fill-rule="nonzero"></path><path fill="#efefef" d="m745.68506 321.29187l0 0c0 -3.687683 2.989441 -6.6771545 6.677124 -6.6771545l0 0c1.770935 0 3.4692993 0.7034607 4.7214966 1.9556885c1.2521973 1.2521973 1.9556885 2.9505615 1.9556885 4.721466l0 0c0 3.687683 -2.989441 6.6771545 -6.677185 6.6771545l0 0c-3.687683 0 -6.677124 -2.9894714 -6.677124 -6.6771545z" fill-rule="nonzero"></path><path stroke="#cccccc" stroke-width="2.0" stroke-linejoin="round" stroke-linecap="butt" d="m745.68506 321.29187l0 0c0 -3.687683 2.989441 -6.6771545 6.677124 -6.6771545l0 0c1.770935 0 3.4692993 0.7034607 4.7214966 1.9556885c1.2521973 1.2521973 1.9556885 2.9505615 1.9556885 4.721466l0 0c0 3.687683 -2.989441 6.6771545 -6.677185 6.6771545l0 0c-3.687683 0 -6.677124 -2.9894714 -6.677124 -6.6771545z" fill-rule="nonzero"></path><path fill="#efefef" d="m773.05774 324.61734l0 0c0 -3.6877136 2.989502 -6.677185 6.677185 -6.677185l0 0c1.770874 0 3.4692383 0.7034912 4.7214355 1.955719c1.2522583 1.2521973 1.9556885 2.9505615 1.9556885 4.721466l0 0c0 3.687683 -2.989441 6.6771545 -6.677124 6.6771545l0 0c-3.687683 0 -6.677185 -2.9894714 -6.677185 -6.6771545z" fill-rule="nonzero"></path><path stroke="#cccccc" stroke-width="2.0" stroke-linejoin="round" stroke-linecap="butt" d="m773.05774 324.61734l0 0c0 -3.6877136 2.989502 -6.677185 6.677185 -6.677185l0 0c1.770874 0 3.4692383 0.7034912 4.7214355 1.955719c1.2522583 1.2521973 1.9556885 2.9505615 1.9556885 4.721466l0 0c0 3.687683 -2.989441 6.6771545 -6.677124 6.6771545l0 0c-3.687683 0 -6.677185 -2.9894714 -6.677185 -6.6771545z" fill-rule="nonzero"></path><path fill="#efefef" d="m765.5381 287.6462l0 0c0 -3.6877136 2.989441 -6.677185 6.677124 -6.677185l0 0c1.770935 0 3.4692993 0.7034912 4.7214966 1.955719c1.2521973 1.2521973 1.9556885 2.9505615 1.9556885 4.721466l0 0c0 3.687683 -2.989502 6.6771545 -6.677185 6.6771545l0 0c-3.687683 0 -6.677124 -2.9894714 -6.677124 -6.6771545z" fill-rule="nonzero"></path><path stroke="#cccccc" stroke-width="2.0" stroke-linejoin="round" stroke-linecap="butt" d="m765.5381 287.6462l0 0c0 -3.6877136 2.989441 -6.677185 6.677124 -6.677185l0 0c1.770935 0 3.4692993 0.7034912 4.7214966 1.955719c1.2521973 1.2521973 1.9556885 2.9505615 1.9556885 4.721466l0 0c0 3.687683 -2.989502 6.6771545 -6.677185 6.6771545l0 0c-3.687683 0 -6.677124 -2.9894714 -6.677124 -6.6771545z" fill-rule="nonzero"></path><path fill="#efefef" d="m806.9974 310.3181l0 0c0 -3.687683 2.989441 -6.6771545 6.677185 -6.6771545l0 0c1.770874 0 3.4692383 0.7034912 4.7214355 1.9556885c1.2521973 1.2521973 1.9556885 2.9505615 1.9556885 4.721466l0 0c0 3.6877136 -2.989441 6.6771545 -6.677124 6.6771545l0 0c-3.6877441 0 -6.677185 -2.989441 -6.677185 -6.6771545z" fill-rule="nonzero"></path><path stroke="#cccccc" stroke-width="2.0" stroke-linejoin="round" stroke-linecap="butt" d="m806.9974 310.3181l0 0c0 -3.687683 2.989441 -6.6771545 6.677185 -6.6771545l0 0c1.770874 0 3.4692383 0.7034912 4.7214355 1.9556885c1.2521973 1.2521973 1.9556885 2.9505615 1.9556885 4.721466l0 0c0 3.6877136 -2.989441 6.6771545 -6.677124 6.6771545l0 0c-3.6877441 0 -6.677185 -2.989441 -6.677185 -6.6771545z" fill-rule="nonzero"></path><path fill="#efefef" d="m843.90814 298.88766l0 0c0 -3.687683 2.989441 -6.6771545 6.677185 -6.6771545l0 0c1.770874 0 3.4692383 0.7034912 4.7214355 1.9556885c1.2521973 1.2522278 1.9556885 2.950592 1.9556885 4.721466l0 0c0 3.6877136 -2.989441 6.677185 -6.677124 6.677185l0 0c-3.6877441 0 -6.677185 -2.9894714 -6.677185 -6.677185z" fill-rule="nonzero"></path><path stroke="#cccccc" stroke-width="2.0" stroke-linejoin="round" stroke-linecap="butt" d="m843.90814 298.88766l0 0c0 -3.687683 2.989441 -6.6771545 6.677185 -6.6771545l0 0c1.770874 0 3.4692383 0.7034912 4.7214355 1.9556885c1.2521973 1.2522278 1.9556885 2.950592 1.9556885 4.721466l0 0c0 3.6877136 -2.989441 6.677185 -6.677124 6.677185l0 0c-3.6877441 0 -6.677185 -2.9894714 -6.677185 -6.677185z" fill-rule="nonzero"></path><path fill="#efefef" d="m822.55383 298.88766l0 0c0 -3.687683 2.989441 -6.6771545 6.677124 -6.6771545l0 0c1.770935 0 3.4692993 0.7034912 4.7214966 1.9556885c1.2521973 1.2522278 1.9556885 2.950592 1.9556885 4.721466l0 0c0 3.6877136 -2.989502 6.677185 -6.677185 6.677185l0 0c-3.687683 0 -6.677124 -2.9894714 -6.677124 -6.677185z" fill-rule="nonzero"></path><path stroke="#cccccc" stroke-width="2.0" stroke-linejoin="round" stroke-linecap="butt" d="m822.55383 298.88766l0 0c0 -3.687683 2.989441 -6.6771545 6.677124 -6.6771545l0 0c1.770935 0 3.4692993 0.7034912 4.7214966 1.9556885c1.2521973 1.2522278 1.9556885 2.950592 1.9556885 4.721466l0 0c0 3.6877136 -2.989502 6.677185 -6.677185 6.677185l0 0c-3.687683 0 -6.677124 -2.9894714 -6.677124 -6.677185z" fill-rule="nonzero"></path><path fill="#efefef" d="m835.90814 274.6672l0 0c0 -3.6877136 2.989441 -6.677185 6.677185 -6.677185l0 0c1.770874 0 3.4692383 0.7034912 4.7214355 1.955719c1.2521973 1.2521973 1.9556885 2.9505615 1.9556885 4.721466l0 0c0 3.687683 -2.989441 6.6771545 -6.677124 6.6771545l0 0c-3.6877441 0 -6.677185 -2.9894714 -6.677185 -6.6771545z" fill-rule="nonzero"></path><path stroke="#cccccc" stroke-width="2.0" stroke-linejoin="round" stroke-linecap="butt" d="m835.90814 274.6672l0 0c0 -3.6877136 2.989441 -6.677185 6.677185 -6.677185l0 0c1.770874 0 3.4692383 0.7034912 4.7214355 1.955719c1.2521973 1.2521973 1.9556885 2.9505615 1.9556885 4.721466l0 0c0 3.687683 -2.989441 6.6771545 -6.677124 6.6771545l0 0c-3.6877441 0 -6.677185 -2.9894714 -6.677185 -6.6771545z" fill-rule="nonzero"></path><path fill="#efefef" d="m820.3517 261.31418l0 0c0 -3.687683 2.989502 -6.67717 6.677185 -6.67717l0 0c1.770874 0 3.4692383 0.7034912 4.7214966 1.9557037c1.2521973 1.2521973 1.9556885 2.9505615 1.9556885 4.721466l0 0c0 3.6877136 -2.989502 6.6771545 -6.677185 6.6771545l0 0c-3.687683 0 -6.677185 -2.989441 -6.677185 -6.6771545z" fill-rule="nonzero"></path><path stroke="#cccccc" stroke-width="2.0" stroke-linejoin="round" stroke-linecap="butt" d="m820.3517 261.31418l0 0c0 -3.687683 2.989502 -6.67717 6.677185 -6.67717l0 0c1.770874 0 3.4692383 0.7034912 4.7214966 1.9557037c1.2521973 1.2521973 1.9556885 2.9505615 1.9556885 4.721466l0 0c0 3.6877136 -2.989502 6.6771545 -6.677185 6.6771545l0 0c-3.687683 0 -6.677185 -2.989441 -6.677185 -6.6771545z" fill-rule="nonzero"></path><path fill="#efefef" d="m744.1837 348.61734l0 0c0 -3.6877136 2.989502 -6.677185 6.677185 -6.677185l0 0c1.770874 0 3.4692383 0.7034912 4.7214355 1.955719c1.2522583 1.2521973 1.9557495 2.9505615 1.9557495 4.721466l0 0c0 3.687683 -2.989502 6.6771545 -6.677185 6.6771545l0 0c-3.687683 0 -6.677185 -2.9894714 -6.677185 -6.6771545z" fill-rule="nonzero"></path><path stroke="#cccccc" stroke-width="2.0" stroke-linejoin="round" stroke-linecap="butt" d="m744.1837 348.61734l0 0c0 -3.6877136 2.989502 -6.677185 6.677185 -6.677185l0 0c1.770874 0 3.4692383 0.7034912 4.7214355 1.955719c1.2522583 1.2521973 1.9557495 2.9505615 1.9557495 4.721466l0 0c0 3.687683 -2.989502 6.6771545 -6.677185 6.6771545l0 0c-3.687683 0 -6.677185 -2.9894714 -6.677185 -6.6771545z" fill-rule="nonzero"></path><path fill="#efefef" d="m798.9974 285.53333l0 0c0 -3.687683 2.989441 -6.6771545 6.677185 -6.6771545l0 0c1.770874 0 3.4692383 0.7034912 4.7214355 1.9556885c1.2521973 1.2522278 1.9556885 2.950592 1.9556885 4.721466l0 0c0 3.6877136 -2.989441 6.677185 -6.677124 6.677185l0 0c-3.6877441 0 -6.677185 -2.9894714 -6.677185 -6.677185z" fill-rule="nonzero"></path><path stroke="#cccccc" stroke-width="2.0" stroke-linejoin="round" stroke-linecap="butt" d="m798.9974 285.53333l0 0c0 -3.687683 2.989441 -6.6771545 6.677185 -6.6771545l0 0c1.770874 0 3.4692383 0.7034912 4.7214355 1.9556885c1.2521973 1.2522278 1.9556885 2.950592 1.9556885 4.721466l0 0c0 3.6877136 -2.989441 6.677185 -6.677124 6.677185l0 0c-3.6877441 0 -6.677185 -2.9894714 -6.677185 -6.677185z" fill-rule="nonzero"></path><path fill="#efefef" d="m781.5381 303.6462l0 0c0 -3.6877136 2.989441 -6.677185 6.677124 -6.677185l0 0c1.770935 0 3.4692993 0.7034912 4.7214966 1.955719c1.2521973 1.2521973 1.9556885 2.9505615 1.9556885 4.721466l0 0c0 3.687683 -2.989502 6.6771545 -6.677185 6.6771545l0 0c-3.687683 0 -6.677124 -2.9894714 -6.677124 -6.6771545z" fill-rule="nonzero"></path><path stroke="#cccccc" stroke-width="2.0" stroke-linejoin="round" stroke-linecap="butt" d="m781.5381 303.6462l0 0c0 -3.6877136 2.989441 -6.677185 6.677124 -6.677185l0 0c1.770935 0 3.4692993 0.7034912 4.7214966 1.955719c1.2521973 1.2521973 1.9556885 2.9505615 1.9556885 4.721466l0 0c0 3.687683 -2.989502 6.6771545 -6.677185 6.6771545l0 0c-3.687683 0 -6.677124 -2.9894714 -6.677124 -6.6771545z" fill-rule="nonzero"></path><path fill="#efefef" d="m860.02625 178.77481l0 0c0 -3.6876984 2.989441 -6.67717 6.677185 -6.67717l0 0c1.770874 0 3.4692383 0.7034912 4.7214355 1.9557037c1.2521973 1.2522125 1.9556885 2.9505768 1.9556885 4.721466l0 0c0 3.6876984 -2.989441 6.67717 -6.677124 6.67717l0 0c-3.6877441 0 -6.677185 -2.9894714 -6.677185 -6.67717z" fill-rule="nonzero"></path><path stroke="#cccccc" stroke-width="2.0" stroke-linejoin="round" stroke-linecap="butt" d="m860.02625 178.77481l0 0c0 -3.6876984 2.989441 -6.67717 6.677185 -6.67717l0 0c1.770874 0 3.4692383 0.7034912 4.7214355 1.9557037c1.2521973 1.2522125 1.9556885 2.9505768 1.9556885 4.721466l0 0c0 3.6876984 -2.989441 6.67717 -6.677124 6.67717l0 0c-3.6877441 0 -6.677185 -2.9894714 -6.677185 -6.67717z" fill-rule="nonzero"></path><path fill="#000000" fill-opacity="0.0" d="m912.8189 369.0328l-215.21259 0" fill-rule="nonzero"></path><path stroke="#cccccc" stroke-width="4.0" stroke-linejoin="round" stroke-linecap="butt" d="m888.8189 369.0328l-176.05261 0" fill-rule="evenodd"></path><path fill="#cccccc" stroke="#cccccc" stroke-width="4.0" stroke-linecap="butt" d="m888.8189 375.63974l18.152405 -6.6069336l-18.152405 -6.6069336z" fill-rule="evenodd"></path><path fill="#cccccc" stroke="#cccccc" stroke-width="4.0" stroke-linecap="butt" d="m699.6063 369.0328c0 -3.6340332 2.9459229 -6.5799866 6.579956 -6.5799866c3.6340332 0 6.580017 2.9459534 6.580017 6.5799866c0 3.6340332 -2.945984 6.5799866 -6.580017 6.5799866c-3.6340332 0 -6.579956 -2.9459534 -6.579956 -6.5799866z" fill-rule="nonzero"></path><path fill="#000000" fill-opacity="0.0" d="m705.6063 164.3924l0 215.21259" fill-rule="nonzero"></path><path stroke="#cccccc" stroke-width="4.0" stroke-linejoin="round" stroke-linecap="butt" d="m705.6063 188.3924l0 176.05261" fill-rule="evenodd"></path><path fill="#cccccc" stroke="#cccccc" stroke-width="4.0" stroke-linecap="butt" d="m712.21326 188.3924l-6.6069336 -18.152405l-6.6069336 18.152405z" fill-rule="evenodd"></path><path fill="#cccccc" stroke="#cccccc" stroke-width="4.0" stroke-linecap="butt" d="m705.6063 377.60498c-3.6340332 0 -6.580017 -2.9459534 -6.580017 -6.5799866c0 -3.6340332 2.945984 -6.580017 6.580017 -6.580017c3.6340332 0 6.579956 2.945984 6.579956 6.580017c0 3.6340332 -2.9459229 6.5799866 -6.579956 6.5799866z" fill-rule="nonzero"></path><path fill="#000000" fill-opacity="0.0" d="m275.6063 369.0328l-215.21259 0" fill-rule="nonzero"></path><path stroke="#cccccc" stroke-width="4.0" stroke-linejoin="round" stroke-linecap="butt" d="m251.6063 369.0328l-176.0526 0" fill-rule="evenodd"></path><path fill="#cccccc" stroke="#cccccc" stroke-width="4.0" stroke-linecap="butt" d="m251.6063 375.63974l18.152405 -6.6069336l-18.152405 -6.6069336z" fill-rule="evenodd"></path><path fill="#cccccc" stroke="#cccccc" stroke-width="4.0" stroke-linecap="butt" d="m62.3937 369.0328c0 -3.6340332 2.9459686 -6.5799866 6.580002 -6.5799866c3.6340332 0 6.580002 2.9459534 6.580002 6.5799866c0 3.6340332 -2.9459686 6.5799866 -6.580002 6.5799866c-3.6340332 0 -6.580002 -2.9459534 -6.580002 -6.5799866z" fill-rule="nonzero"></path><path fill="#000000" fill-opacity="0.0" d="m68.3937 164.3924l0 215.21259" fill-rule="nonzero"></path><path stroke="#cccccc" stroke-width="4.0" stroke-linejoin="round" stroke-linecap="butt" d="m68.3937 188.3924l0 176.05261" fill-rule="evenodd"></path><path fill="#cccccc" stroke="#cccccc" stroke-width="4.0" stroke-linecap="butt" d="m75.00063 188.3924l-6.6069336 -18.152405l-6.60693 18.152405z" fill-rule="evenodd"></path><path fill="#cccccc" stroke="#cccccc" stroke-width="4.0" stroke-linecap="butt" d="m68.3937 377.60498c-3.6340332 0 -6.579998 -2.9459534 -6.579998 -6.5799866c0 -3.6340332 2.9459648 -6.580017 6.579998 -6.580017c3.6340332 0 6.580002 2.945984 6.580002 6.580017c0 3.6340332 -2.9459686 6.5799866 -6.580002 6.5799866z" fill-rule="nonzero"></path><path fill="#000000" fill-opacity="0.0" d="m490.83154 245.75726l189.16534 0l0 48.0l-189.16534 0z" fill-rule="nonzero"></path><path fill="#d9d9d9" d="m500.31592 281.47726l9.5 -22.71875l1.828125 0l9.5 22.71875l-2.40625 0l-2.9375 -7.109375l-10.203125 0l-2.921875 7.109375l-2.359375 0zm10.421875 -20.09375l-4.671875 11.234375l9.21875 0l-4.546875 -11.234375zm21.321777 20.40625q-1.953125 0 -3.625 -0.984375q-1.65625 -0.984375 -2.59375 -2.5625l0 3.234375l-1.9375 0l0 -23.359375l2.171875 0l0 10.171875q1.109375 -1.6875 2.671875 -2.71875q1.578125 -1.046875 3.6875 -1.046875q1.734375 0 3.140625 0.734375q1.40625 0.734375 2.375 1.96875q0.984375 1.21875 1.515625 2.78125q0.53125 1.546875 0.53125 3.1875q0 1.75 -0.609375 3.328125q-0.609375 1.5625 -1.6875 2.734375q-1.0625 1.15625 -2.53125 1.84375q-1.453125 0.6875 -3.109375 0.6875zm-0.515625 -1.90625q1.375 0 2.5 -0.5625q1.140625 -0.5625 1.953125 -1.5q0.828125 -0.953125 1.28125 -2.15625q0.46875 -1.203125 0.46875 -2.46875q0 -1.3125 -0.4375 -2.53125q-0.421875 -1.21875 -1.203125 -2.15625q-0.78125 -0.953125 -1.875 -1.515625q-1.09375 -0.5625 -2.40625 -0.5625q-0.984375 0 -1.859375 0.34375q-0.859375 0.328125 -1.59375 0.90625q-0.734375 0.578125 -1.328125 1.328125q-0.59375 0.75 -0.96875 1.59375l0 5.171875q0.125 0.875 0.6875 1.625q0.5625 0.75 1.359375 1.296875q0.796875 0.546875 1.6875 0.875q0.90625 0.3125 1.734375 0.3125zm17.665161 1.90625q-1.953125 0 -3.8125 -0.625q-1.859375 -0.640625 -3.203125 -1.859375l1.0 -1.46875q1.40625 1.140625 2.859375 1.71875q1.453125 0.578125 3.125 0.578125q2.015625 0 3.203125 -0.8125q1.203125 -0.8125 1.203125 -2.328125q0 -0.703125 -0.3125 -1.15625q-0.3125 -0.46875 -0.9375 -0.8125q-0.625 -0.359375 -1.578125 -0.625q-0.9375 -0.28125 -2.1875 -0.5625q-1.4375 -0.359375 -2.5 -0.703125q-1.046875 -0.359375 -1.734375 -0.796875q-0.6875 -0.453125 -1.03125 -1.109375q-0.328125 -0.65625 -0.328125 -1.65625q0 -1.25 0.484375 -2.203125q0.5 -0.96875 1.34375 -1.578125q0.859375 -0.625 1.984375 -0.9375q1.140625 -0.328125 2.421875 -0.328125q1.921875 0 3.484375 0.625q1.5625 0.609375 2.53125 1.640625l-1.0625 1.28125q-0.921875 -0.96875 -2.25 -1.4375q-1.328125 -0.484375 -2.765625 -0.484375q-0.859375 0 -1.609375 0.1875q-0.734375 0.171875 -1.296875 0.5625q-0.546875 0.375 -0.875 0.96875q-0.3125 0.578125 -0.3125 1.390625q0 0.671875 0.21875 1.09375q0.21875 0.40625 0.734375 0.71875q0.515625 0.296875 1.296875 0.546875q0.78125 0.234375 1.90625 0.484375q1.59375 0.390625 2.8125 0.78125q1.21875 0.375 2.03125 0.890625q0.8125 0.5 1.234375 1.234375q0.421875 0.734375 0.421875 1.796875q0 2.296875 -1.765625 3.640625q-1.765625 1.34375 -4.734375 1.34375zm18.052795 -1.109375q-0.203125 0.09375 -0.578125 0.25q-0.359375 0.15625 -0.84375 0.328125q-0.46875 0.15625 -1.078125 0.28125q-0.609375 0.125 -1.28125 0.125q-0.703125 0 -1.34375 -0.1875q-0.640625 -0.1875 -1.125 -0.578125q-0.46875 -0.40625 -0.765625 -1.015625q-0.28125 -0.609375 -0.28125 -1.421875l0 -11.921875l-2.3125 0l0 -1.734375l2.3125 0l0 -5.625l2.171875 0l0 5.625l3.84375 0l0 1.734375l-3.84375 0l0 11.328125q0.0625 0.921875 0.640625 1.359375q0.578125 0.421875 1.375 0.421875q0.921875 0 1.625 -0.296875q0.703125 -0.3125 0.90625 -0.4375l0.578125 1.765625zm10.874023 -13.953125q-2.203125 0.0625 -3.84375 1.21875q-1.625 1.140625 -2.296875 3.15625l0 10.375l-2.171875 0l0 -16.671875l2.046875 0l0 4.0q0.859375 -1.765625 2.265625 -2.921875q1.40625 -1.171875 3.046875 -1.171875q0.28125 0 0.53125 0q0.265625 0 0.421875 0.03125l0 1.984375zm7.3257446 15.0625q-1.28125 0 -2.34375 -0.390625q-1.046875 -0.40625 -1.796875 -1.109375q-0.75 -0.703125 -1.171875 -1.625q-0.40625 -0.9375 -0.40625 -1.953125q0 -1.15625 0.5 -2.09375q0.515625 -0.953125 1.4375 -1.625q0.9375 -0.671875 2.234375 -1.03125q1.296875 -0.375 2.859375 -0.375q1.25 0 2.5625 0.234375q1.3125 0.21875 2.328125 0.625l0 -1.5q0 -2.203125 -1.265625 -3.5q-1.25 -1.296875 -3.40625 -1.296875q-1.34375 0 -2.671875 0.515625q-1.328125 0.515625 -2.703125 1.46875l-0.765625 -1.4375q1.640625 -1.09375 3.171875 -1.625q1.53125 -0.546875 3.203125 -0.546875q3.03125 0 4.828125 1.765625q1.796875 1.75 1.796875 4.84375l0 7.53125q0 0.890625 0.765625 0.890625l0 1.921875q-0.265625 0.03125 -0.484375 0.046875q-0.21875 0.015625 -0.375 0.015625q-0.640625 0 -1.171875 -0.375q-0.53125 -0.390625 -0.59375 -1.15625l-0.0625 -1.3125q-1.09375 1.46875 -2.875 2.28125q-1.765625 0.8125 -3.59375 0.8125zm0.546875 -1.65625q1.4375 0 2.859375 -0.625q1.421875 -0.625 2.265625 -1.71875q0.21875 -0.28125 0.375 -0.609375q0.15625 -0.34375 0.15625 -0.625l0 -2.71875q-1.078125 -0.421875 -2.265625 -0.640625q-1.1875 -0.234375 -2.296875 -0.234375q-2.34375 0 -3.796875 0.953125q-1.453125 0.9375 -1.453125 2.609375q0 0.671875 0.25 1.3125q0.25 0.625 0.78125 1.140625q0.53125 0.515625 1.296875 0.84375q0.765625 0.3125 1.828125 0.3125zm11.489197 -7.046875q0 -1.75 0.609375 -3.3125q0.609375 -1.578125 1.703125 -2.734375q1.109375 -1.171875 2.640625 -1.84375q1.546875 -0.671875 3.390625 -0.671875q2.375 0 4.125 1.078125q1.765625 1.0625 2.671875 2.890625l-2.125 0.671875q-0.703125 -1.28125 -1.953125 -2.0q-1.234375 -0.734375 -2.78125 -0.734375q-1.28125 0 -2.390625 0.515625q-1.09375 0.515625 -1.90625 1.40625q-0.8125 0.875 -1.28125 2.09375q-0.46875 1.203125 -0.46875 2.640625q0 1.421875 0.484375 2.671875q0.484375 1.234375 1.3125 2.15625q0.828125 0.90625 1.921875 1.4375q1.109375 0.53125 2.359375 0.53125q0.8125 0 1.59375 -0.21875q0.78125 -0.234375 1.453125 -0.625q0.671875 -0.40625 1.140625 -0.921875q0.484375 -0.515625 0.6875 -1.09375l2.109375 0.640625q-0.359375 0.90625 -1.03125 1.65625q-0.671875 0.75 -1.578125 1.3125q-0.90625 0.5625 -2.015625 0.859375q-1.109375 0.296875 -2.296875 0.296875q-1.8125 0 -3.359375 -0.6875q-1.53125 -0.6875 -2.65625 -1.875q-1.109375 -1.203125 -1.734375 -2.765625q-0.625 -1.578125 -0.625 -3.375zm26.756287 7.59375q-0.203125 0.09375 -0.578125 0.25q-0.359375 0.15625 -0.84375 0.328125q-0.46875 0.15625 -1.078125 0.28125q-0.609375 0.125 -1.28125 0.125q-0.703125 0 -1.34375 -0.1875q-0.640625 -0.1875 -1.125 -0.578125q-0.46875 -0.40625 -0.765625 -1.015625q-0.28125 -0.609375 -0.28125 -1.421875l0 -11.921875l-2.3125 0l0 -1.734375l2.3125 0l0 -5.625l2.171875 0l0 5.625l3.84375 0l0 1.734375l-3.84375 0l0 11.328125q0.0625 0.921875 0.640625 1.359375q0.578125 0.421875 1.375 0.421875q0.921875 0 1.625 -0.296875q0.703125 -0.3125 0.90625 -0.4375l0.578125 1.765625zm2.5615234 0.796875l0 -16.671875l2.171875 0l0 16.671875l-2.171875 0zm0 -20.15625l0 -3.203125l2.171875 0l0 3.203125l-2.171875 0zm14.035522 20.46875q-1.8125 0 -3.34375 -0.6875q-1.515625 -0.6875 -2.625 -1.859375q-1.09375 -1.1875 -1.703125 -2.75q-0.609375 -1.578125 -0.609375 -3.296875q0 -1.765625 0.625 -3.328125q0.625 -1.578125 1.71875 -2.75q1.109375 -1.1875 2.625 -1.890625q1.53125 -0.703125 3.3125 -0.703125q1.796875 0 3.3125 0.703125q1.53125 0.703125 2.625 1.890625q1.109375 1.171875 1.734375 2.75q0.625 1.5625 0.625 3.328125q0 1.71875 -0.625 3.296875q-0.625 1.5625 -1.734375 2.75q-1.09375 1.171875 -2.625 1.859375q-1.515625 0.6875 -3.3125 0.6875zm-6.046875 -8.5625q0 1.40625 0.46875 2.609375q0.46875 1.1875 1.28125 2.109375q0.8125 0.90625 1.90625 1.421875q1.109375 0.515625 2.359375 0.515625q1.25 0 2.34375 -0.53125q1.109375 -0.53125 1.9375 -1.4375q0.84375 -0.921875 1.3125 -2.125q0.484375 -1.21875 0.484375 -2.625q0 -1.390625 -0.484375 -2.609375q-0.46875 -1.234375 -1.3125 -2.140625q-0.828125 -0.921875 -1.921875 -1.453125q-1.078125 -0.53125 -2.328125 -0.53125q-1.25 0 -2.359375 0.53125q-1.09375 0.53125 -1.90625 1.46875q-0.8125 0.921875 -1.296875 2.15625q-0.484375 1.234375 -0.484375 2.640625zm31.91504 8.25l-2.1875 0l0 -9.3125q0 -2.96875 -0.859375 -4.3125q-0.859375 -1.34375 -2.6875 -1.34375q-0.96875 0 -1.921875 0.359375q-0.953125 0.34375 -1.796875 0.984375q-0.828125 0.640625 -1.453125 1.515625q-0.625 0.875 -0.9375 1.90625l0 10.203125l-2.171875 0l0 -16.671875l1.96875 0l0 3.78125q0.515625 -0.90625 1.265625 -1.65625q0.765625 -0.75 1.6875 -1.296875q0.921875 -0.546875 1.953125 -0.828125q1.046875 -0.28125 2.171875 -0.28125q1.40625 0 2.34375 0.515625q0.953125 0.5 1.53125 1.4375q0.578125 0.921875 0.828125 2.265625q0.265625 1.34375 0.265625 2.96875l0 9.765625z" fill-rule="nonzero"></path></g></svg>

