<?xml version="1.0" standalone="yes"?>

<svg version="1.1" viewBox="0.0 0.0 960.0 540.0" fill="none" stroke="none" stroke-linecap="square" stroke-miterlimit="10" xmlns="http://www.w3.org/2000/svg" xmlns:xlink="http://www.w3.org/1999/xlink"><clipPath id="p.0"><path d="m0 0l960.0 0l0 540.0l-960.0 0l0 -540.0z" clip-rule="nonzero"></path></clipPath><g clip-path="url(#p.0)"><path fill="#000000" fill-opacity="0.0" d="m0 0l960.0 0l0 540.0l-960.0 0z" fill-rule="nonzero"></path><path fill="#000000" fill-opacity="0.0" d="m547.6063 353.0328l-215.21262 0" fill-rule="nonzero"></path><path stroke="#efefef" stroke-width="4.0" stroke-linejoin="round" stroke-linecap="butt" d="m523.6063 353.0328l-176.05264 0" fill-rule="evenodd"></path><path fill="#efefef" stroke="#efefef" stroke-width="4.0" stroke-linecap="butt" d="m523.6063 359.63974l18.152344 -6.6069336l-18.152344 -6.6069336z" fill-rule="evenodd"></path><path fill="#efefef" stroke="#efefef" stroke-width="4.0" stroke-linecap="butt" d="m334.3937 353.0328c0 -3.6340332 2.9459534 -6.5799866 6.5799866 -6.5799866c3.6340332 0 6.580017 2.9459534 6.580017 6.5799866c0 3.6340332 -2.945984 6.5799866 -6.580017 6.5799866c-3.6340332 0 -6.5799866 -2.9459534 -6.5799866 -6.5799866z" fill-rule="nonzero"></path><path fill="#000000" fill-opacity="0.0" d="m340.3937 148.3924l0 215.21259" fill-rule="nonzero"></path><path stroke="#efefef" stroke-width="4.0" stroke-linejoin="round" stroke-linecap="butt" d="m340.3937 172.3924l0 176.05261" fill-rule="evenodd"></path><path fill="#efefef" stroke="#efefef" stroke-width="4.0" stroke-linecap="butt" d="m347.00064 172.3924l-6.6069336 -18.152405l-6.6069336 18.152405z" fill-rule="evenodd"></path><path fill="#efefef" stroke="#efefef" stroke-width="4.0" stroke-linecap="butt" d="m340.3937 361.60498c-3.6340332 0 -6.580017 -2.9459534 -6.580017 -6.5799866c0 -3.6340332 2.945984 -6.580017 6.580017 -6.580017c3.6340332 0 6.5799866 2.945984 6.5799866 6.580017c0 3.6340332 -2.9459534 6.5799866 -6.5799866 6.5799866z" fill-rule="nonzero"></path><path fill="#efefef" d="m474.56168 184.34514l0 0c0 -13.254822 10.745178 -24.0 24.0 -24.0l0 0c6.365204 0 12.469696 2.5285645 16.97055 7.0294495c4.5009155 4.5008698 7.02948 10.605362 7.02948 16.97055l0 0c0 13.254837 -10.745178 24.0 -24.00003 24.0l0 0c-13.254822 0 -24.0 -10.745163 -24.0 -24.0z" fill-rule="nonzero"></path><path stroke="#cccccc" stroke-width="2.0" stroke-linejoin="round" stroke-linecap="butt" d="m474.56168 184.34514l0 0c0 -13.254822 10.745178 -24.0 24.0 -24.0l0 0c6.365204 0 12.469696 2.5285645 16.97055 7.0294495c4.5009155 4.5008698 7.02948 10.605362 7.02948 16.97055l0 0c0 13.254837 -10.745178 24.0 -24.00003 24.0l0 0c-13.254822 0 -24.0 -10.745163 -24.0 -24.0z" fill-rule="nonzero"></path><path fill="#efefef" d="m430.6063 200.5315l0 0c0 -8.836548 7.163452 -16.0 16.0 -16.0l0 0c4.243469 0 8.313141 1.6857147 11.313721 4.6862946c3.0005798 3.0005798 4.6862793 7.070236 4.6862793 11.313705l0 0c0 8.836563 -7.163452 16.0 -16.0 16.0l0 0c-8.836548 0 -16.0 -7.163437 -16.0 -16.0z" fill-rule="nonzero"></path><path stroke="#cccccc" stroke-width="2.0" stroke-linejoin="round" stroke-linecap="butt" d="m430.6063 200.5315l0 0c0 -8.836548 7.163452 -16.0 16.0 -16.0l0 0c4.243469 0 8.313141 1.6857147 11.313721 4.6862946c3.0005798 3.0005798 4.6862793 7.070236 4.6862793 11.313705l0 0c0 8.836563 -7.163452 16.0 -16.0 16.0l0 0c-8.836548 0 -16.0 -7.163437 -16.0 -16.0z" fill-rule="nonzero"></path><path fill="#efefef" d="m450.56168 238.25984l0 0c0 -8.836548 7.163452 -16.0 16.0 -16.0l0 0c4.243469 0 8.313141 1.6857147 11.313721 4.6862946c3.0005798 3.0005798 4.6862793 7.070236 4.6862793 11.313705l0 0c0 8.836563 -7.163452 16.0 -16.0 16.0l0 0c-8.836548 0 -16.0 -7.163437 -16.0 -16.0z" fill-rule="nonzero"></path><path stroke="#cccccc" stroke-width="2.0" stroke-linejoin="round" stroke-linecap="butt" d="m450.56168 238.25984l0 0c0 -8.836548 7.163452 -16.0 16.0 -16.0l0 0c4.243469 0 8.313141 1.6857147 11.313721 4.6862946c3.0005798 3.0005798 4.6862793 7.070236 4.6862793 11.313705l0 0c0 8.836563 -7.163452 16.0 -16.0 16.0l0 0c-8.836548 0 -16.0 -7.163437 -16.0 -16.0z" fill-rule="nonzero"></path><path fill="#efefef" d="m492.12598 228.3422l0 0c0 -6.523056 5.2879944 -11.81102 11.811035 -11.81102l0 0c3.1324768 0 6.1366577 1.2443695 8.351624 3.4593658c2.2150269 2.2149963 3.4594116 5.2191772 3.4594116 8.351654l0 0c0 6.523041 -5.2879944 11.81102 -11.811035 11.81102l0 0c-6.523041 0 -11.811035 -5.287979 -11.811035 -11.81102z" fill-rule="nonzero"></path><path stroke="#cccccc" stroke-width="2.0" stroke-linejoin="round" stroke-linecap="butt" d="m492.12598 228.3422l0 0c0 -6.523056 5.2879944 -11.81102 11.811035 -11.81102l0 0c3.1324768 0 6.1366577 1.2443695 8.351624 3.4593658c2.2150269 2.2149963 3.4594116 5.2191772 3.4594116 8.351654l0 0c0 6.523041 -5.2879944 11.81102 -11.811035 11.81102l0 0c-6.523041 0 -11.811035 -5.287979 -11.811035 -11.81102z" fill-rule="nonzero"></path><path fill="#efefef" d="m373.0 242.65224l32.0 0l0 31.999985l-32.0 0z" fill-rule="nonzero"></path><path stroke="#cccccc" stroke-width="2.0" stroke-linejoin="round" stroke-linecap="butt" d="m373.0 242.65224l32.0 0l0 31.999985l-32.0 0z" fill-rule="nonzero"></path><path fill="#efefef" d="m356.9987 283.64697l48.0 0l0 48.0l-48.0 0z" fill-rule="nonzero"></path><path stroke="#cccccc" stroke-width="2.0" stroke-linejoin="round" stroke-linecap="butt" d="m356.9987 283.64697l48.0 0l0 48.0l-48.0 0z" fill-rule="nonzero"></path><path fill="#efefef" d="m413.84778 268.78217l32.0 0l0 32.0l-32.0 0z" fill-rule="nonzero"></path><path stroke="#cccccc" stroke-width="2.0" stroke-linejoin="round" stroke-linecap="butt" d="m413.84778 268.78217l32.0 0l0 32.0l-32.0 0z" fill-rule="nonzero"></path><path fill="#efefef" d="m421.60367 310.63647l23.62204 0l0 23.62207l-23.62204 0z" fill-rule="nonzero"></path><path stroke="#cccccc" stroke-width="2.0" stroke-linejoin="round" stroke-linecap="butt" d="m421.60367 310.63647l23.62204 0l0 23.62207l-23.62204 0z" fill-rule="nonzero"></path><path fill="#000000" fill-opacity="0.0" d="m300.0 371.20734l317.98425 0l0 48.0l-317.98425 0z" fill-rule="nonzero"></path><path fill="#d9d9d9" d="m339.67188 408.54733l-9.828125 0q-2.546875 -3.90625 -4.234375 -6.21875q-1.6875 -2.3125 -4.203125 -5.34375l-0.984375 0l0 7.78125q0 0.65625 0.234375 1.109375q0.25 0.453125 0.9375 0.75q0.34375 0.15625 1.078125 0.3125q0.734375 0.140625 1.25 0.203125l0 1.40625l-13.671875 0l0 -1.40625q0.515625 -0.0625 1.375 -0.15625q0.859375 -0.09375 1.21875 -0.25q0.6875 -0.28125 0.921875 -0.71875q0.234375 -0.453125 0.234375 -1.140625l0 -18.078125q0 -0.65625 -0.203125 -1.078125q-0.1875 -0.4375 -0.953125 -0.765625q-0.578125 -0.234375 -1.359375 -0.390625q-0.78125 -0.171875 -1.234375 -0.25l0 -1.40625l14.375 0q4.828125 0 7.328125 1.515625q2.5 1.5 2.5 4.5625q0 2.6875 -1.546875 4.328125q-1.546875 1.625 -4.703125 2.546875q1.234375 1.59375 2.859375 3.6875q1.640625 2.09375 3.40625 4.28125q0.5625 0.703125 1.53125 1.734375q0.96875 1.015625 1.703125 1.25q0.421875 0.125 1.0625 0.21875q0.640625 0.09375 0.90625 0.109375l0 1.40625zm-12.296875 -19.0625q0 -2.5625 -1.4375 -3.75q-1.4375 -1.1875 -4.09375 -1.1875l-1.421875 0l0 10.734375l1.375 0q2.65625 0 4.109375 -1.390625q1.46875 -1.390625 1.46875 -4.40625zm31.85785 14.75q-0.625 1.03125 -1.53125 1.9375q-0.890625 0.90625 -2.03125 1.5625q-1.203125 0.6875 -2.453125 1.03125q-1.234375 0.359375 -2.84375 0.359375q-2.671875 0 -4.609375 -0.75q-1.9375 -0.765625 -3.203125 -2.046875q-1.265625 -1.28125 -1.890625 -3.015625q-0.625 -1.75 -0.625 -3.796875q0 -1.84375 0.671875 -3.53125q0.6875 -1.6875 1.9375 -3.015625q1.21875 -1.28125 3.09375 -2.078125q1.875 -0.796875 4.1875 -0.796875q2.515625 0 4.140625 0.625q1.640625 0.609375 2.703125 1.6875q1.03125 1.03125 1.5 2.4375q0.46875 1.40625 0.46875 2.9375l0 1.171875l-12.21875 0q0 3.703125 1.421875 5.640625q1.4375 1.921875 4.546875 1.921875q1.6875 0 3.046875 -0.921875q1.359375 -0.9375 2.3125 -2.359375l1.375 1.0zm-6.90625 -6.875q0 -1.078125 -0.109375 -2.21875q-0.109375 -1.140625 -0.375 -1.859375q-0.3125 -0.84375 -0.84375 -1.28125q-0.53125 -0.4375 -1.34375 -0.4375q-1.390625 0 -2.21875 1.40625q-0.828125 1.40625 -0.90625 4.46875l5.796875 -0.078125zm30.827759 2.390625q0 3.8125 -2.546875 6.546875q-2.546875 2.71875 -6.4375 2.71875q-1.734375 0 -2.828125 -0.359375q-1.078125 -0.34375 -1.78125 -0.84375l-0.15625 0l0 5.078125q0 0.625 0.28125 1.09375q0.28125 0.46875 0.796875 0.6875q0.484375 0.203125 1.375 0.359375q0.890625 0.171875 1.5 0.203125l0 1.328125l-13.046875 0l0 -1.328125q0.453125 -0.03125 1.140625 -0.140625q0.6875 -0.09375 1.015625 -0.203125q0.578125 -0.203125 0.78125 -0.6875q0.21875 -0.46875 0.21875 -1.078125l0 -18.484375q-0.046875 -0.59375 -0.28125 -1.046875q-0.21875 -0.453125 -0.71875 -0.796875q-0.359375 -0.234375 -0.953125 -0.390625q-0.59375 -0.15625 -1.171875 -0.203125l0 -1.328125l8.796875 -0.46875l0.265625 0.234375l0 2.0l0.15625 0.046875q1.1875 -1.21875 2.640625 -1.875q1.453125 -0.671875 2.890625 -0.671875q3.734375 0 5.890625 2.65625q2.171875 2.640625 2.171875 6.953125zm-6.484375 0.078125q0 -1.359375 -0.203125 -2.59375q-0.1875 -1.25 -0.703125 -2.21875q-0.484375 -0.96875 -1.296875 -1.546875q-0.796875 -0.578125 -1.953125 -0.578125q-1.171875 0 -1.875 0.40625q-0.703125 0.40625 -1.234375 1.046875l0 10.25q0.109375 0.359375 0.421875 0.9375q0.3125 0.5625 0.609375 0.90625q0.453125 0.484375 1.03125 0.71875q0.578125 0.234375 1.265625 0.234375q1.796875 0 2.859375 -1.921875q1.078125 -1.921875 1.078125 -5.640625zm27.035645 -5.890625q0 1.359375 -0.859375 2.40625q-0.84375 1.03125 -2.234375 1.03125q-1.3125 0 -2.234375 -0.65625q-0.90625 -0.671875 -0.90625 -1.96875q0 -0.640625 0.078125 -0.984375q0.09375 -0.359375 0.171875 -0.671875q-0.828125 0.046875 -1.75 0.59375q-0.921875 0.53125 -1.625 1.4375l0 9.921875q0 0.625 0.1875 1.046875q0.203125 0.40625 0.671875 0.640625q0.40625 0.203125 1.296875 0.34375q0.890625 0.125 1.296875 0.15625l0 1.3125l-12.09375 0l0 -1.3125q0.453125 -0.046875 0.90625 -0.109375q0.46875 -0.0625 0.796875 -0.171875q0.578125 -0.1875 0.796875 -0.609375q0.21875 -0.421875 0.21875 -1.078125l0 -10.515625q0 -0.65625 -0.3125 -1.171875q-0.3125 -0.515625 -0.75 -0.828125q-0.3125 -0.203125 -0.8125 -0.34375q-0.5 -0.15625 -1.09375 -0.203125l0 -1.328125l8.609375 -0.46875l0.28125 0.265625l0 2.625l0.0625 0q1.25 -1.4375 2.640625 -2.265625q1.40625 -0.828125 2.9375 -0.828125q1.671875 0 2.6875 1.046875q1.03125 1.03125 1.03125 2.6875zm20.833221 10.296875q-0.625 1.03125 -1.53125 1.9375q-0.890625 0.90625 -2.03125 1.5625q-1.203125 0.6875 -2.453125 1.03125q-1.234375 0.359375 -2.84375 0.359375q-2.671875 0 -4.609375 -0.75q-1.9375 -0.765625 -3.203125 -2.046875q-1.265625 -1.28125 -1.890625 -3.015625q-0.625 -1.75 -0.625 -3.796875q0 -1.84375 0.671875 -3.53125q0.6875 -1.6875 1.9375 -3.015625q1.21875 -1.28125 3.09375 -2.078125q1.875 -0.796875 4.1875 -0.796875q2.515625 0 4.140625 0.625q1.640625 0.609375 2.703125 1.6875q1.03125 1.03125 1.5 2.4375q0.46875 1.40625 0.46875 2.9375l0 1.171875l-12.21875 0q0 3.703125 1.421875 5.640625q1.4375 1.921875 4.546875 1.921875q1.6875 0 3.046875 -0.921875q1.359375 -0.9375 2.3125 -2.359375l1.375 1.0zm-6.90625 -6.875q0 -1.078125 -0.109375 -2.21875q-0.109375 -1.140625 -0.375 -1.859375q-0.3125 -0.84375 -0.84375 -1.28125q-0.53125 -0.4375 -1.34375 -0.4375q-1.390625 0 -2.21875 1.40625q-0.828125 1.40625 -0.90625 4.46875l5.796875 -0.078125zm17.187134 11.796875q-1.75 0 -3.421875 -0.515625q-1.671875 -0.515625 -2.59375 -1.09375l-0.53125 1.234375l-1.40625 0l-0.25 -6.734375l1.328125 0q0.265625 0.8125 0.890625 1.828125q0.640625 1.015625 1.453125 1.828125q0.859375 0.8125 1.9375 1.375q1.09375 0.5625 2.34375 0.5625q1.640625 0 2.4375 -0.640625q0.8125 -0.640625 0.8125 -1.96875q0 -0.734375 -0.359375 -1.203125q-0.359375 -0.46875 -0.984375 -0.8125q-0.703125 -0.359375 -1.546875 -0.609375q-0.84375 -0.25 -2.078125 -0.609375q-1.21875 -0.375 -2.09375 -0.734375q-0.875 -0.375 -1.828125 -1.171875q-0.8125 -0.703125 -1.296875 -1.6875q-0.484375 -1.0 -0.484375 -2.375q0 -2.546875 2.140625 -4.109375q2.140625 -1.578125 5.609375 -1.578125q1.640625 0 3.015625 0.34375q1.390625 0.328125 2.328125 0.71875l0.390625 -1.0625l1.359375 0l0.296875 6.15625l-1.28125 0q-0.640625 -1.875 -2.171875 -3.234375q-1.53125 -1.375 -3.296875 -1.375q-1.40625 0 -2.203125 0.578125q-0.78125 0.578125 -0.78125 1.609375q0 1.375 1.15625 2.0q1.171875 0.609375 3.265625 1.140625q3.234375 0.828125 4.734375 2.265625q1.5 1.4375 1.5 3.671875q0 2.953125 -2.328125 4.578125q-2.3125 1.625 -6.0625 1.625zm30.20047 -4.921875q-0.625 1.03125 -1.53125 1.9375q-0.890625 0.90625 -2.03125 1.5625q-1.203125 0.6875 -2.453125 1.03125q-1.234375 0.359375 -2.84375 0.359375q-2.671875 0 -4.609375 -0.75q-1.9375 -0.765625 -3.203125 -2.046875q-1.265625 -1.28125 -1.890625 -3.015625q-0.625 -1.75 -0.625 -3.796875q0 -1.84375 0.671875 -3.53125q0.6875 -1.6875 1.9375 -3.015625q1.21875 -1.28125 3.09375 -2.078125q1.875 -0.796875 4.1875 -0.796875q2.515625 0 4.140625 0.625q1.640625 0.609375 2.703125 1.6875q1.03125 1.03125 1.5 2.4375q0.46875 1.40625 0.46875 2.9375l0 1.171875l-12.21875 0q0 3.703125 1.421875 5.640625q1.4375 1.921875 4.546875 1.921875q1.6875 0 3.046875 -0.921875q1.359375 -0.9375 2.3125 -2.359375l1.375 1.0zm-6.90625 -6.875q0 -1.078125 -0.109375 -2.21875q-0.109375 -1.140625 -0.375 -1.859375q-0.3125 -0.84375 -0.84375 -1.28125q-0.53125 -0.4375 -1.34375 -0.4375q-1.390625 0 -2.21875 1.40625q-0.828125 1.40625 -0.90625 4.46875l5.796875 -0.078125zm32.67151 11.1875l-10.875 0l0 -1.3125q0.34375 -0.046875 0.828125 -0.09375q0.5 -0.0625 0.75 -0.1875q0.375 -0.1875 0.53125 -0.5625q0.171875 -0.390625 0.171875 -1.125l0 -8.46875q0 -1.84375 -0.6875 -2.765625q-0.671875 -0.9375 -1.984375 -0.9375q-0.71875 0 -1.34375 0.21875q-0.625 0.21875 -1.21875 0.640625q-0.53125 0.359375 -0.84375 0.734375q-0.3125 0.375 -0.53125 0.671875l0 9.703125q0 0.625 0.171875 1.0625q0.1875 0.421875 0.59375 0.640625q0.296875 0.15625 0.71875 0.28125q0.4375 0.125 0.859375 0.1875l0 1.3125l-10.984375 0l0 -1.3125q0.453125 -0.046875 0.90625 -0.109375q0.46875 -0.0625 0.796875 -0.171875q0.578125 -0.1875 0.796875 -0.609375q0.21875 -0.421875 0.21875 -1.078125l0 -10.515625q0 -0.5625 -0.296875 -1.109375q-0.28125 -0.546875 -0.765625 -0.890625q-0.3125 -0.203125 -0.8125 -0.34375q-0.5 -0.15625 -1.09375 -0.203125l0 -1.328125l8.609375 -0.46875l0.28125 0.265625l0 2.625l0.0625 0q0.515625 -0.453125 1.234375 -1.078125q0.71875 -0.640625 1.34375 -1.03125q0.65625 -0.4375 1.734375 -0.734375q1.09375 -0.3125 2.328125 -0.3125q2.9375 0 4.40625 1.671875q1.484375 1.671875 1.484375 4.4375l0 8.84375q0 0.671875 0.1875 1.078125q0.203125 0.390625 0.75 0.625q0.28125 0.125 0.703125 0.25q0.4375 0.125 0.96875 0.1875l0 1.3125zm15.347961 -0.828125q-1.15625 0.5 -2.46875 0.90625q-1.3125 0.40625 -3.21875 0.40625q-2.8125 0 -4.1875 -1.375q-1.359375 -1.375 -1.359375 -3.921875l0 -11.09375l-3.25 0l0 -1.9375l3.328125 0l0 -5.484375l5.875 0l0 5.484375l5.046875 0l0 1.9375l-5.015625 0l0 9.90625q0 2.109375 0.578125 3.0q0.59375 0.890625 2.109375 0.890625q0.484375 0 1.34375 -0.078125q0.875 -0.078125 1.21875 -0.15625l0 1.515625zm22.055237 0.453125q-0.796875 0.34375 -1.890625 0.625q-1.078125 0.296875 -2.28125 0.296875q-2.234375 0 -3.28125 -0.65625q-1.046875 -0.671875 -1.421875 -1.890625l-0.109375 0q-0.609375 0.609375 -1.1875 1.046875q-0.5625 0.421875 -1.21875 0.734375q-0.84375 0.40625 -1.640625 0.59375q-0.78125 0.1875 -2.1875 0.1875q-2.09375 0 -3.578125 -1.234375q-1.484375 -1.25 -1.484375 -3.28125q0 -1.171875 0.328125 -2.0q0.328125 -0.828125 0.921875 -1.453125q0.546875 -0.578125 1.25 -0.953125q0.71875 -0.390625 1.578125 -0.703125q1.625 -0.609375 3.890625 -1.25q2.28125 -0.640625 3.328125 -1.140625l0 -1.734375q0 -0.453125 -0.078125 -1.1875q-0.0625 -0.75 -0.296875 -1.25q-0.25 -0.578125 -0.796875 -0.96875q-0.546875 -0.40625 -1.421875 -0.40625q-0.796875 0 -1.34375 0.234375q-0.53125 0.21875 -0.84375 0.453125q0.046875 0.359375 0.296875 1.109375q0.25 0.734375 0.25 1.421875q0 0.296875 -0.15625 0.765625q-0.15625 0.453125 -0.46875 0.734375q-0.421875 0.359375 -0.9375 0.5625q-0.515625 0.1875 -1.578125 0.1875q-1.515625 0 -2.296875 -0.71875q-0.765625 -0.734375 -0.765625 -1.921875q0 -1.0 0.796875 -1.796875q0.8125 -0.8125 1.96875 -1.34375q1.125 -0.53125 2.609375 -0.828125q1.484375 -0.3125 2.75 -0.3125q1.75 0 3.203125 0.21875q1.46875 0.203125 2.65625 0.859375q1.109375 0.625 1.765625 1.828125q0.671875 1.203125 0.671875 3.140625q0 2.03125 -0.09375 4.84375q-0.078125 2.796875 -0.078125 3.671875q0 0.8125 0.25 1.296875q0.25 0.46875 0.75 0.703125q0.3125 0.140625 0.96875 0.171875q0.65625 0.015625 1.203125 0.015625l0 1.328125zm-8.984375 -9.421875q-1.015625 0.34375 -2.015625 0.796875q-0.984375 0.4375 -1.609375 0.921875q-0.671875 0.515625 -1.0625 1.296875q-0.375 0.78125 -0.375 1.84375q0 1.421875 0.640625 2.046875q0.640625 0.625 1.578125 0.625q1.0 0 1.640625 -0.40625q0.640625 -0.40625 1.125 -1.0l0.078125 -6.125zm24.002075 8.96875q-1.15625 0.5 -2.46875 0.90625q-1.3125 0.40625 -3.21875 0.40625q-2.8125 0 -4.1875 -1.375q-1.359375 -1.375 -1.359375 -3.921875l0 -11.09375l-3.25 0l0 -1.9375l3.328125 0l0 -5.484375l5.875 0l0 5.484375l5.046875 0l0 1.9375l-5.015625 0l0 9.90625q0 2.109375 0.578125 3.0q0.59375 0.890625 2.109375 0.890625q0.484375 0 1.34375 -0.078125q0.875 -0.078125 1.21875 -0.15625l0 1.515625zm12.820862 0.828125l-11.421875 0l0 -1.3125q0.46875 -0.046875 0.921875 -0.09375q0.453125 -0.0625 0.78125 -0.1875q0.578125 -0.21875 0.8125 -0.625q0.234375 -0.40625 0.234375 -1.0625l0 -10.515625q0 -0.640625 -0.296875 -1.109375q-0.28125 -0.484375 -0.71875 -0.78125q-0.328125 -0.21875 -0.984375 -0.40625q-0.65625 -0.203125 -1.203125 -0.25l0 -1.328125l8.859375 -0.46875l0.265625 0.265625l0 14.359375q0 0.625 0.265625 1.078125q0.28125 0.4375 0.78125 0.65625q0.359375 0.15625 0.796875 0.28125q0.4375 0.125 0.90625 0.1875l0 1.3125zm-2.640625 -24.640625q0 1.375 -1.0625 2.34375q-1.046875 0.953125 -2.5 0.953125q-1.453125 0 -2.515625 -0.953125q-1.0625 -0.96875 -1.0625 -2.34375q0 -1.375 1.0625 -2.34375q1.0625 -0.984375 2.515625 -0.984375q1.46875 0 2.515625 0.984375q1.046875 0.96875 1.046875 2.34375zm22.86792 8.84375q1.328125 1.25 2.03125 2.984375q0.703125 1.734375 0.703125 3.765625q0 2.0 -0.703125 3.78125q-0.6875 1.78125 -2.015625 3.046875q-1.4375 1.34375 -3.421875 2.078125q-1.96875 0.71875 -4.515625 0.71875q-2.203125 0 -4.0625 -0.625q-1.84375 -0.640625 -3.265625 -1.90625q-1.375 -1.203125 -2.171875 -2.984375q-0.796875 -1.78125 -0.796875 -3.984375q0 -2.171875 0.6875 -3.859375q0.703125 -1.6875 2.09375 -3.015625q1.34375 -1.265625 3.296875 -1.953125q1.96875 -0.703125 4.390625 -0.703125q2.515625 0 4.4375 0.703125q1.9375 0.6875 3.3125 1.953125zm-4.625 12.53125q0.390625 -1.015625 0.578125 -2.453125q0.1875 -1.453125 0.1875 -3.375q0 -1.265625 -0.1875 -2.890625q-0.171875 -1.625 -0.53125 -2.5625q-0.4375 -1.140625 -1.203125 -1.78125q-0.765625 -0.65625 -1.9375 -0.65625q-1.28125 0 -2.046875 0.703125q-0.765625 0.703125 -1.1875 1.828125q-0.375 1.03125 -0.53125 2.421875q-0.140625 1.375 -0.140625 2.875q0 1.96875 0.125 3.265625q0.125 1.28125 0.625 2.578125q0.40625 1.125 1.1875 1.78125q0.78125 0.640625 1.96875 0.640625q1.078125 0 1.859375 -0.59375q0.78125 -0.609375 1.234375 -1.78125zm33.746704 3.265625l-10.875 0l0 -1.3125q0.34375 -0.046875 0.828125 -0.09375q0.5 -0.0625 0.75 -0.1875q0.375 -0.1875 0.53125 -0.5625q0.171875 -0.390625 0.171875 -1.125l0 -8.46875q0 -1.84375 -0.6875 -2.765625q-0.671875 -0.9375 -1.984375 -0.9375q-0.71875 0 -1.34375 0.21875q-0.625 0.21875 -1.21875 0.640625q-0.53125 0.359375 -0.84375 0.734375q-0.3125 0.375 -0.53125 0.671875l0 9.703125q0 0.625 0.171875 1.0625q0.1875 0.421875 0.59375 0.640625q0.296875 0.15625 0.71875 0.28125q0.4375 0.125 0.859375 0.1875l0 1.3125l-10.984375 0l0 -1.3125q0.453125 -0.046875 0.90625 -0.109375q0.46875 -0.0625 0.796875 -0.171875q0.578125 -0.1875 0.796875 -0.609375q0.21875 -0.421875 0.21875 -1.078125l0 -10.515625q0 -0.5625 -0.296875 -1.109375q-0.28125 -0.546875 -0.765625 -0.890625q-0.3125 -0.203125 -0.8125 -0.34375q-0.5 -0.15625 -1.09375 -0.203125l0 -1.328125l8.609375 -0.46875l0.28125 0.265625l0 2.625l0.0625 0q0.515625 -0.453125 1.234375 -1.078125q0.71875 -0.640625 1.34375 -1.03125q0.65625 -0.4375 1.734375 -0.734375q1.09375 -0.3125 2.328125 -0.3125q2.9375 0 4.40625 1.671875q1.484375 1.671875 1.484375 4.4375l0 8.84375q0 0.671875 0.1875 1.078125q0.203125 0.390625 0.75 0.625q0.28125 0.125 0.703125 0.25q0.4375 0.125 0.96875 0.1875l0 1.3125z" fill-rule="nonzero"></path></g></svg>

