<?xml version="1.0" standalone="yes"?>

<svg version="1.1" viewBox="0.0 0.0 960.0 540.0" fill="none" stroke="none" stroke-linecap="square" stroke-miterlimit="10" xmlns="http://www.w3.org/2000/svg" xmlns:xlink="http://www.w3.org/1999/xlink"><clipPath id="p.0"><path d="m0 0l960.0 0l0 540.0l-960.0 0l0 -540.0z" clip-rule="nonzero"></path></clipPath><g clip-path="url(#p.0)"><path fill="#000000" fill-opacity="0.0" d="m0 0l960.0 0l0 540.0l-960.0 0z" fill-rule="nonzero"></path><path fill="#000000" fill-opacity="0.0" d="m587.6063 363.95172l-215.21262 0" fill-rule="nonzero"></path><path stroke="#cccccc" stroke-width="4.0" stroke-linejoin="round" stroke-linecap="butt" d="m563.6063 363.95172l-176.05264 0" fill-rule="evenodd"></path><path fill="#cccccc" stroke="#cccccc" stroke-width="4.0" stroke-linecap="butt" d="m563.6063 370.55865l18.152344 -6.6069336l-18.152344 -6.6069336z" fill-rule="evenodd"></path><path fill="#cccccc" stroke="#cccccc" stroke-width="4.0" stroke-linecap="butt" d="m374.3937 363.95172c0 -3.6340332 2.9459534 -6.5799866 6.5799866 -6.5799866c3.6340332 0 6.580017 2.9459534 6.580017 6.5799866c0 3.6340332 -2.945984 6.580017 -6.580017 6.580017c-3.6340332 0 -6.5799866 -2.945984 -6.5799866 -6.580017z" fill-rule="nonzero"></path><path fill="#000000" fill-opacity="0.0" d="m380.3937 159.31131l0 215.21259" fill-rule="nonzero"></path><path stroke="#cccccc" stroke-width="4.0" stroke-linejoin="round" stroke-linecap="butt" d="m380.3937 183.31131l0 176.05261" fill-rule="evenodd"></path><path fill="#cccccc" stroke="#cccccc" stroke-width="4.0" stroke-linecap="butt" d="m387.00064 183.31131l-6.6069336 -18.15239l-6.6069336 18.15239z" fill-rule="evenodd"></path><path fill="#cccccc" stroke="#cccccc" stroke-width="4.0" stroke-linecap="butt" d="m380.3937 372.5239c-3.6340332 0 -6.580017 -2.9459534 -6.580017 -6.5799866c0 -3.6340332 2.945984 -6.5799866 6.580017 -6.5799866c3.6340332 0 6.5799866 2.9459534 6.5799866 6.5799866c0 3.6340332 -2.9459534 6.5799866 -6.5799866 6.5799866z" fill-rule="nonzero"></path><path fill="#000000" fill-opacity="0.0" d="m386.01443 358.1331l47.326263 -82.621124l32.221954 31.924347l36.2507 -75.10843l30.206604 16.898926l45.312866 -80.743866" fill-rule="nonzero"></path><path stroke="#000000" stroke-width="4.0" stroke-linejoin="round" stroke-linecap="butt" d="m386.01443 358.1331l47.326233 -82.621124l32.221985 31.924316l36.2507 -75.1084l30.206604 16.898926l33.567383 -59.81436" fill-rule="evenodd"></path><path fill="#000000" stroke="#000000" stroke-width="4.0" stroke-linecap="butt" d="m571.349 192.64583l3.1220703 -19.063416l-14.645386 12.596619z" fill-rule="evenodd"></path><path fill="#efefef" d="m716.4974 329.97165l0 0c0 -3.687683 2.989441 -6.6771545 6.677185 -6.6771545l0 0c1.770874 0 3.4692383 0.7034912 4.7214355 1.9556885c1.2521973 1.2522278 1.9556885 2.950592 1.9556885 4.721466l0 0c0 3.6877136 -2.989441 6.677185 -6.677124 6.677185l0 0c-3.6877441 0 -6.677185 -2.9894714 -6.677185 -6.677185z" fill-rule="nonzero"></path><path stroke="#cccccc" stroke-width="2.0" stroke-linejoin="round" stroke-linecap="butt" d="m716.4974 329.97165l0 0c0 -3.687683 2.989441 -6.6771545 6.677185 -6.6771545l0 0c1.770874 0 3.4692383 0.7034912 4.7214355 1.9556885c1.2521973 1.2522278 1.9556885 2.950592 1.9556885 4.721466l0 0c0 3.6877136 -2.989441 6.677185 -6.677124 6.677185l0 0c-3.6877441 0 -6.677185 -2.9894714 -6.677185 -6.677185z" fill-rule="nonzero"></path><path fill="#efefef" d="m745.68506 321.29187l0 0c0 -3.687683 2.989441 -6.6771545 6.677124 -6.6771545l0 0c1.770935 0 3.4692993 0.7034607 4.7214966 1.9556885c1.2521973 1.2521973 1.9556885 2.9505615 1.9556885 4.721466l0 0c0 3.687683 -2.989441 6.6771545 -6.677185 6.6771545l0 0c-3.687683 0 -6.677124 -2.9894714 -6.677124 -6.6771545z" fill-rule="nonzero"></path><path stroke="#cccccc" stroke-width="2.0" stroke-linejoin="round" stroke-linecap="butt" d="m745.68506 321.29187l0 0c0 -3.687683 2.989441 -6.6771545 6.677124 -6.6771545l0 0c1.770935 0 3.4692993 0.7034607 4.7214966 1.9556885c1.2521973 1.2521973 1.9556885 2.9505615 1.9556885 4.721466l0 0c0 3.687683 -2.989441 6.6771545 -6.677185 6.6771545l0 0c-3.687683 0 -6.677124 -2.9894714 -6.677124 -6.6771545z" fill-rule="nonzero"></path><path fill="#efefef" d="m773.05774 324.61734l0 0c0 -3.6877136 2.989502 -6.677185 6.677185 -6.677185l0 0c1.770874 0 3.4692383 0.7034912 4.7214355 1.955719c1.2522583 1.2521973 1.9556885 2.9505615 1.9556885 4.721466l0 0c0 3.687683 -2.989441 6.6771545 -6.677124 6.6771545l0 0c-3.687683 0 -6.677185 -2.9894714 -6.677185 -6.6771545z" fill-rule="nonzero"></path><path stroke="#cccccc" stroke-width="2.0" stroke-linejoin="round" stroke-linecap="butt" d="m773.05774 324.61734l0 0c0 -3.6877136 2.989502 -6.677185 6.677185 -6.677185l0 0c1.770874 0 3.4692383 0.7034912 4.7214355 1.955719c1.2522583 1.2521973 1.9556885 2.9505615 1.9556885 4.721466l0 0c0 3.687683 -2.989441 6.6771545 -6.677124 6.6771545l0 0c-3.687683 0 -6.677185 -2.9894714 -6.677185 -6.6771545z" fill-rule="nonzero"></path><path fill="#efefef" d="m765.5381 287.6462l0 0c0 -3.6877136 2.989441 -6.677185 6.677124 -6.677185l0 0c1.770935 0 3.4692993 0.7034912 4.7214966 1.955719c1.2521973 1.2521973 1.9556885 2.9505615 1.9556885 4.721466l0 0c0 3.687683 -2.989502 6.6771545 -6.677185 6.6771545l0 0c-3.687683 0 -6.677124 -2.9894714 -6.677124 -6.6771545z" fill-rule="nonzero"></path><path stroke="#cccccc" stroke-width="2.0" stroke-linejoin="round" stroke-linecap="butt" d="m765.5381 287.6462l0 0c0 -3.6877136 2.989441 -6.677185 6.677124 -6.677185l0 0c1.770935 0 3.4692993 0.7034912 4.7214966 1.955719c1.2521973 1.2521973 1.9556885 2.9505615 1.9556885 4.721466l0 0c0 3.687683 -2.989502 6.6771545 -6.677185 6.6771545l0 0c-3.687683 0 -6.677124 -2.9894714 -6.677124 -6.6771545z" fill-rule="nonzero"></path><path fill="#efefef" d="m806.9974 310.3181l0 0c0 -3.687683 2.989441 -6.6771545 6.677185 -6.6771545l0 0c1.770874 0 3.4692383 0.7034912 4.7214355 1.9556885c1.2521973 1.2521973 1.9556885 2.9505615 1.9556885 4.721466l0 0c0 3.6877136 -2.989441 6.6771545 -6.677124 6.6771545l0 0c-3.6877441 0 -6.677185 -2.989441 -6.677185 -6.6771545z" fill-rule="nonzero"></path><path stroke="#cccccc" stroke-width="2.0" stroke-linejoin="round" stroke-linecap="butt" d="m806.9974 310.3181l0 0c0 -3.687683 2.989441 -6.6771545 6.677185 -6.6771545l0 0c1.770874 0 3.4692383 0.7034912 4.7214355 1.9556885c1.2521973 1.2521973 1.9556885 2.9505615 1.9556885 4.721466l0 0c0 3.6877136 -2.989441 6.6771545 -6.677124 6.6771545l0 0c-3.6877441 0 -6.677185 -2.989441 -6.677185 -6.6771545z" fill-rule="nonzero"></path><path fill="#efefef" d="m843.90814 298.88766l0 0c0 -3.687683 2.989441 -6.6771545 6.677185 -6.6771545l0 0c1.770874 0 3.4692383 0.7034912 4.7214355 1.9556885c1.2521973 1.2522278 1.9556885 2.950592 1.9556885 4.721466l0 0c0 3.6877136 -2.989441 6.677185 -6.677124 6.677185l0 0c-3.6877441 0 -6.677185 -2.9894714 -6.677185 -6.677185z" fill-rule="nonzero"></path><path stroke="#cccccc" stroke-width="2.0" stroke-linejoin="round" stroke-linecap="butt" d="m843.90814 298.88766l0 0c0 -3.687683 2.989441 -6.6771545 6.677185 -6.6771545l0 0c1.770874 0 3.4692383 0.7034912 4.7214355 1.9556885c1.2521973 1.2522278 1.9556885 2.950592 1.9556885 4.721466l0 0c0 3.6877136 -2.989441 6.677185 -6.677124 6.677185l0 0c-3.6877441 0 -6.677185 -2.9894714 -6.677185 -6.677185z" fill-rule="nonzero"></path><path fill="#efefef" d="m822.55383 298.88766l0 0c0 -3.687683 2.989441 -6.6771545 6.677124 -6.6771545l0 0c1.770935 0 3.4692993 0.7034912 4.7214966 1.9556885c1.2521973 1.2522278 1.9556885 2.950592 1.9556885 4.721466l0 0c0 3.6877136 -2.989502 6.677185 -6.677185 6.677185l0 0c-3.687683 0 -6.677124 -2.9894714 -6.677124 -6.677185z" fill-rule="nonzero"></path><path stroke="#cccccc" stroke-width="2.0" stroke-linejoin="round" stroke-linecap="butt" d="m822.55383 298.88766l0 0c0 -3.687683 2.989441 -6.6771545 6.677124 -6.6771545l0 0c1.770935 0 3.4692993 0.7034912 4.7214966 1.9556885c1.2521973 1.2522278 1.9556885 2.950592 1.9556885 4.721466l0 0c0 3.6877136 -2.989502 6.677185 -6.677185 6.677185l0 0c-3.687683 0 -6.677124 -2.9894714 -6.677124 -6.677185z" fill-rule="nonzero"></path><path fill="#efefef" d="m835.90814 274.6672l0 0c0 -3.6877136 2.989441 -6.677185 6.677185 -6.677185l0 0c1.770874 0 3.4692383 0.7034912 4.7214355 1.955719c1.2521973 1.2521973 1.9556885 2.9505615 1.9556885 4.721466l0 0c0 3.687683 -2.989441 6.6771545 -6.677124 6.6771545l0 0c-3.6877441 0 -6.677185 -2.9894714 -6.677185 -6.6771545z" fill-rule="nonzero"></path><path stroke="#cccccc" stroke-width="2.0" stroke-linejoin="round" stroke-linecap="butt" d="m835.90814 274.6672l0 0c0 -3.6877136 2.989441 -6.677185 6.677185 -6.677185l0 0c1.770874 0 3.4692383 0.7034912 4.7214355 1.955719c1.2521973 1.2521973 1.9556885 2.9505615 1.9556885 4.721466l0 0c0 3.687683 -2.989441 6.6771545 -6.677124 6.6771545l0 0c-3.6877441 0 -6.677185 -2.9894714 -6.677185 -6.6771545z" fill-rule="nonzero"></path><path fill="#efefef" d="m820.3517 261.31418l0 0c0 -3.687683 2.989502 -6.67717 6.677185 -6.67717l0 0c1.770874 0 3.4692383 0.7034912 4.7214966 1.9557037c1.2521973 1.2521973 1.9556885 2.9505615 1.9556885 4.721466l0 0c0 3.6877136 -2.989502 6.6771545 -6.677185 6.6771545l0 0c-3.687683 0 -6.677185 -2.989441 -6.677185 -6.6771545z" fill-rule="nonzero"></path><path stroke="#cccccc" stroke-width="2.0" stroke-linejoin="round" stroke-linecap="butt" d="m820.3517 261.31418l0 0c0 -3.687683 2.989502 -6.67717 6.677185 -6.67717l0 0c1.770874 0 3.4692383 0.7034912 4.7214966 1.9557037c1.2521973 1.2521973 1.9556885 2.9505615 1.9556885 4.721466l0 0c0 3.6877136 -2.989502 6.6771545 -6.677185 6.6771545l0 0c-3.687683 0 -6.677185 -2.989441 -6.677185 -6.6771545z" fill-rule="nonzero"></path><path fill="#efefef" d="m744.1837 348.61734l0 0c0 -3.6877136 2.989502 -6.677185 6.677185 -6.677185l0 0c1.770874 0 3.4692383 0.7034912 4.7214355 1.955719c1.2522583 1.2521973 1.9557495 2.9505615 1.9557495 4.721466l0 0c0 3.687683 -2.989502 6.6771545 -6.677185 6.6771545l0 0c-3.687683 0 -6.677185 -2.9894714 -6.677185 -6.6771545z" fill-rule="nonzero"></path><path stroke="#cccccc" stroke-width="2.0" stroke-linejoin="round" stroke-linecap="butt" d="m744.1837 348.61734l0 0c0 -3.6877136 2.989502 -6.677185 6.677185 -6.677185l0 0c1.770874 0 3.4692383 0.7034912 4.7214355 1.955719c1.2522583 1.2521973 1.9557495 2.9505615 1.9557495 4.721466l0 0c0 3.687683 -2.989502 6.6771545 -6.677185 6.6771545l0 0c-3.687683 0 -6.677185 -2.9894714 -6.677185 -6.6771545z" fill-rule="nonzero"></path><path fill="#efefef" d="m798.9974 285.53333l0 0c0 -3.687683 2.989441 -6.6771545 6.677185 -6.6771545l0 0c1.770874 0 3.4692383 0.7034912 4.7214355 1.9556885c1.2521973 1.2522278 1.9556885 2.950592 1.9556885 4.721466l0 0c0 3.6877136 -2.989441 6.677185 -6.677124 6.677185l0 0c-3.6877441 0 -6.677185 -2.9894714 -6.677185 -6.677185z" fill-rule="nonzero"></path><path stroke="#cccccc" stroke-width="2.0" stroke-linejoin="round" stroke-linecap="butt" d="m798.9974 285.53333l0 0c0 -3.687683 2.989441 -6.6771545 6.677185 -6.6771545l0 0c1.770874 0 3.4692383 0.7034912 4.7214355 1.9556885c1.2521973 1.2522278 1.9556885 2.950592 1.9556885 4.721466l0 0c0 3.6877136 -2.989441 6.677185 -6.677124 6.677185l0 0c-3.6877441 0 -6.677185 -2.9894714 -6.677185 -6.677185z" fill-rule="nonzero"></path><path fill="#efefef" d="m781.5381 303.6462l0 0c0 -3.6877136 2.989441 -6.677185 6.677124 -6.677185l0 0c1.770935 0 3.4692993 0.7034912 4.7214966 1.955719c1.2521973 1.2521973 1.9556885 2.9505615 1.9556885 4.721466l0 0c0 3.687683 -2.989502 6.6771545 -6.677185 6.6771545l0 0c-3.687683 0 -6.677124 -2.9894714 -6.677124 -6.6771545z" fill-rule="nonzero"></path><path stroke="#cccccc" stroke-width="2.0" stroke-linejoin="round" stroke-linecap="butt" d="m781.5381 303.6462l0 0c0 -3.6877136 2.989441 -6.677185 6.677124 -6.677185l0 0c1.770935 0 3.4692993 0.7034912 4.7214966 1.955719c1.2521973 1.2521973 1.9556885 2.9505615 1.9556885 4.721466l0 0c0 3.687683 -2.989502 6.6771545 -6.677185 6.6771545l0 0c-3.687683 0 -6.677124 -2.9894714 -6.677124 -6.6771545z" fill-rule="nonzero"></path><path fill="#000000" d="m860.02625 178.77481l0 0c0 -3.6876984 2.989441 -6.67717 6.677185 -6.67717l0 0c1.770874 0 3.4692383 0.7034912 4.7214355 1.9557037c1.2521973 1.2522125 1.9556885 2.9505768 1.9556885 4.721466l0 0c0 3.6876984 -2.989441 6.67717 -6.677124 6.67717l0 0c-3.6877441 0 -6.677185 -2.9894714 -6.677185 -6.67717z" fill-rule="nonzero"></path><path stroke="#cccccc" stroke-width="2.0" stroke-linejoin="round" stroke-linecap="butt" d="m860.02625 178.77481l0 0c0 -3.6876984 2.989441 -6.67717 6.677185 -6.67717l0 0c1.770874 0 3.4692383 0.7034912 4.7214355 1.9557037c1.2521973 1.2522125 1.9556885 2.9505768 1.9556885 4.721466l0 0c0 3.6876984 -2.989441 6.67717 -6.677124 6.67717l0 0c-3.6877441 0 -6.677185 -2.9894714 -6.677185 -6.67717z" fill-rule="nonzero"></path><path fill="#000000" fill-opacity="0.0" d="m912.8189 369.0328l-215.21259 0" fill-rule="nonzero"></path><path stroke="#cccccc" stroke-width="4.0" stroke-linejoin="round" stroke-linecap="butt" d="m888.8189 369.0328l-176.05261 0" fill-rule="evenodd"></path><path fill="#cccccc" stroke="#cccccc" stroke-width="4.0" stroke-linecap="butt" d="m888.8189 375.63974l18.152405 -6.6069336l-18.152405 -6.6069336z" fill-rule="evenodd"></path><path fill="#cccccc" stroke="#cccccc" stroke-width="4.0" stroke-linecap="butt" d="m699.6063 369.0328c0 -3.6340332 2.9459229 -6.5799866 6.579956 -6.5799866c3.6340332 0 6.580017 2.9459534 6.580017 6.5799866c0 3.6340332 -2.945984 6.5799866 -6.580017 6.5799866c-3.6340332 0 -6.579956 -2.9459534 -6.579956 -6.5799866z" fill-rule="nonzero"></path><path fill="#000000" fill-opacity="0.0" d="m705.6063 164.3924l0 215.21259" fill-rule="nonzero"></path><path stroke="#cccccc" stroke-width="4.0" stroke-linejoin="round" stroke-linecap="butt" d="m705.6063 188.3924l0 176.05261" fill-rule="evenodd"></path><path fill="#cccccc" stroke="#cccccc" stroke-width="4.0" stroke-linecap="butt" d="m712.21326 188.3924l-6.6069336 -18.152405l-6.6069336 18.152405z" fill-rule="evenodd"></path><path fill="#cccccc" stroke="#cccccc" stroke-width="4.0" stroke-linecap="butt" d="m705.6063 377.60498c-3.6340332 0 -6.580017 -2.9459534 -6.580017 -6.5799866c0 -3.6340332 2.945984 -6.580017 6.580017 -6.580017c3.6340332 0 6.579956 2.945984 6.579956 6.580017c0 3.6340332 -2.9459229 6.5799866 -6.579956 6.5799866z" fill-rule="nonzero"></path><path fill="#d9d9d9" d="m203.50131 206.80052l0 0c0 -13.254837 10.745163 -24.0 24.0 -24.0l0 0c6.3651886 0 12.469696 2.5285645 16.970566 7.029434c4.5008698 4.500885 7.029434 10.605377 7.029434 16.970566l0 0c0 13.254837 -10.745163 24.0 -24.0 24.0l0 0c-13.254837 0 -24.0 -10.745163 -24.0 -24.0z" fill-rule="nonzero"></path><path stroke="#cccccc" stroke-width="2.0" stroke-linejoin="round" stroke-linecap="butt" d="m203.50131 206.80052l0 0c0 -13.254837 10.745163 -24.0 24.0 -24.0l0 0c6.3651886 0 12.469696 2.5285645 16.970566 7.029434c4.5008698 4.500885 7.029434 10.605377 7.029434 16.970566l0 0c0 13.254837 -10.745163 24.0 -24.0 24.0l0 0c-13.254837 0 -24.0 -10.745163 -24.0 -24.0z" fill-rule="nonzero"></path><path fill="#d9d9d9" d="m159.54593 222.98688l0 0c0 -8.836563 7.163452 -16.0 16.0 -16.0l0 0c4.243469 0 8.313126 1.6857147 11.313705 4.6862946c3.000595 3.0005798 4.6862946 7.070236 4.6862946 11.313705l0 0c0 8.836548 -7.163437 16.0 -16.0 16.0l0 0c-8.836548 0 -16.0 -7.163452 -16.0 -16.0z" fill-rule="nonzero"></path><path stroke="#cccccc" stroke-width="2.0" stroke-linejoin="round" stroke-linecap="butt" d="m159.54593 222.98688l0 0c0 -8.836563 7.163452 -16.0 16.0 -16.0l0 0c4.243469 0 8.313126 1.6857147 11.313705 4.6862946c3.000595 3.0005798 4.6862946 7.070236 4.6862946 11.313705l0 0c0 8.836548 -7.163437 16.0 -16.0 16.0l0 0c-8.836548 0 -16.0 -7.163452 -16.0 -16.0z" fill-rule="nonzero"></path><path fill="#d9d9d9" d="m179.50131 260.7152l0 0c0 -8.836548 7.163437 -15.999985 16.0 -15.999985l0 0c4.243469 0 8.313126 1.6857147 11.313705 4.6862946c3.0005798 3.0005798 4.6862946 7.0702515 4.6862946 11.31369l0 0c0 8.836578 -7.163437 16.0 -16.0 16.0l0 0c-8.836563 0 -16.0 -7.1634216 -16.0 -16.0z" fill-rule="nonzero"></path><path stroke="#cccccc" stroke-width="2.0" stroke-linejoin="round" stroke-linecap="butt" d="m179.50131 260.7152l0 0c0 -8.836548 7.163437 -15.999985 16.0 -15.999985l0 0c4.243469 0 8.313126 1.6857147 11.313705 4.6862946c3.0005798 3.0005798 4.6862946 7.0702515 4.6862946 11.31369l0 0c0 8.836578 -7.163437 16.0 -16.0 16.0l0 0c-8.836563 0 -16.0 -7.1634216 -16.0 -16.0z" fill-rule="nonzero"></path><path fill="#000000" d="m221.06561 250.79755l0 0c0 -6.523041 5.287979 -11.81102 11.811035 -11.81102l0 0c3.1324768 0 6.1366577 1.2443695 8.351654 3.4593658c2.2149963 2.2149963 3.4593658 5.2191772 3.4593658 8.351654l0 0c0 6.523041 -5.287979 11.811035 -11.81102 11.811035l0 0c-6.523056 0 -11.811035 -5.2879944 -11.811035 -11.811035z" fill-rule="nonzero"></path><path stroke="#cccccc" stroke-width="2.0" stroke-linejoin="round" stroke-linecap="butt" d="m221.06561 250.79755l0 0c0 -6.523041 5.287979 -11.81102 11.811035 -11.81102l0 0c3.1324768 0 6.1366577 1.2443695 8.351654 3.4593658c2.2149963 2.2149963 3.4593658 5.2191772 3.4593658 8.351654l0 0c0 6.523041 -5.287979 11.811035 -11.81102 11.811035l0 0c-6.523056 0 -11.811035 -5.2879944 -11.811035 -11.811035z" fill-rule="nonzero"></path><path fill="#d9d9d9" d="m101.93964 265.1076l32.0 0l0 32.0l-32.0 0z" fill-rule="nonzero"></path><path stroke="#cccccc" stroke-width="2.0" stroke-linejoin="round" stroke-linecap="butt" d="m101.93964 265.1076l32.0 0l0 32.0l-32.0 0z" fill-rule="nonzero"></path><path fill="#d9d9d9" d="m85.938324 306.10236l48.0 0l0 48.0l-48.0 0z" fill-rule="nonzero"></path><path stroke="#cccccc" stroke-width="2.0" stroke-linejoin="round" stroke-linecap="butt" d="m85.938324 306.10236l48.0 0l0 48.0l-48.0 0z" fill-rule="nonzero"></path><path fill="#d9d9d9" d="m142.7874 291.23752l32.0 0l0 32.0l-32.0 0z" fill-rule="nonzero"></path><path stroke="#cccccc" stroke-width="2.0" stroke-linejoin="round" stroke-linecap="butt" d="m142.7874 291.23752l32.0 0l0 32.0l-32.0 0z" fill-rule="nonzero"></path><path fill="#d9d9d9" d="m150.5433 333.09186l23.622055 0l0 23.62204l-23.622055 0z" fill-rule="nonzero"></path><path stroke="#cccccc" stroke-width="2.0" stroke-linejoin="round" stroke-linecap="butt" d="m150.5433 333.09186l23.622055 0l0 23.62204l-23.622055 0z" fill-rule="nonzero"></path><path fill="#000000" fill-opacity="0.0" d="m275.6063 369.0328l-215.21259 0" fill-rule="nonzero"></path><path stroke="#cccccc" stroke-width="4.0" stroke-linejoin="round" stroke-linecap="butt" d="m251.6063 369.0328l-176.0526 0" fill-rule="evenodd"></path><path fill="#cccccc" stroke="#cccccc" stroke-width="4.0" stroke-linecap="butt" d="m251.6063 375.63974l18.152405 -6.6069336l-18.152405 -6.6069336z" fill-rule="evenodd"></path><path fill="#cccccc" stroke="#cccccc" stroke-width="4.0" stroke-linecap="butt" d="m62.3937 369.0328c0 -3.6340332 2.9459686 -6.5799866 6.580002 -6.5799866c3.6340332 0 6.580002 2.9459534 6.580002 6.5799866c0 3.6340332 -2.9459686 6.5799866 -6.580002 6.5799866c-3.6340332 0 -6.580002 -2.9459534 -6.580002 -6.5799866z" fill-rule="nonzero"></path><path fill="#000000" fill-opacity="0.0" d="m68.3937 164.3924l0 215.21259" fill-rule="nonzero"></path><path stroke="#cccccc" stroke-width="4.0" stroke-linejoin="round" stroke-linecap="butt" d="m68.3937 188.3924l0 176.05261" fill-rule="evenodd"></path><path fill="#cccccc" stroke="#cccccc" stroke-width="4.0" stroke-linecap="butt" d="m75.00063 188.3924l-6.6069336 -18.152405l-6.60693 18.152405z" fill-rule="evenodd"></path><path fill="#cccccc" stroke="#cccccc" stroke-width="4.0" stroke-linecap="butt" d="m68.3937 377.60498c-3.6340332 0 -6.579998 -2.9459534 -6.579998 -6.5799866c0 -3.6340332 2.9459648 -6.580017 6.579998 -6.580017c3.6340332 0 6.580002 2.945984 6.580002 6.580017c0 3.6340332 -2.9459686 6.5799866 -6.580002 6.5799866z" fill-rule="nonzero"></path></g></svg>

