<?xml version="1.0" standalone="yes"?>

<svg version="1.1" viewBox="0.0 0.0 960.0 540.0" fill="none" stroke="none" stroke-linecap="square" stroke-miterlimit="10" xmlns="http://www.w3.org/2000/svg" xmlns:xlink="http://www.w3.org/1999/xlink"><clipPath id="p.0"><path d="m0 0l960.0 0l0 540.0l-960.0 0l0 -540.0z" clip-rule="nonzero"></path></clipPath><g clip-path="url(#p.0)"><path fill="#000000" fill-opacity="0.0" d="m0 0l960.0 0l0 540.0l-960.0 0z" fill-rule="nonzero"></path><path fill="#2c2c2c" fill-opacity="0.5115" d="m43.913387 88.2176l383.0551 0l0 347.55905l-383.0551 0z" fill-rule="nonzero"></path><path stroke="#cccccc" stroke-width="8.0" stroke-linejoin="round" stroke-linecap="butt" d="m43.913387 88.2176l383.0551 0l0 347.55905l-383.0551 0z" fill-rule="nonzero"></path><path fill="#2c2c2c" fill-opacity="0.5115" d="m539.9372 85.999985l383.0551 0l0 347.55908l-383.0551 0z" fill-rule="nonzero"></path><path stroke="#cccccc" stroke-width="8.0" stroke-linejoin="round" stroke-linecap="butt" d="m539.9372 85.999985l383.0551 0l0 347.55908l-383.0551 0z" fill-rule="nonzero"></path><path fill="#000000" fill-opacity="0.0" d="m634.37213 447.83627c-93.04108 70.17032 -226.49234 64.31326 -312.29358 -13.70636l164.41751 -162.43701z" fill-rule="nonzero"></path><path fill="#000000" fill-opacity="0.0" d="m634.37213 447.83627c-93.04108 70.17032 -226.49234 64.31326 -312.29358 -13.70636" fill-rule="nonzero"></path><path stroke="#cccccc" stroke-width="8.0" stroke-linejoin="round" stroke-linecap="butt" d="m604.08246 467.29224l-0.39434814 0.21380615c-0.3928833 0.2116394 -0.7863159 0.42211914 -1.1801758 0.6314392c-1.5753784 0.83724976 -3.1583252 1.6560669 -4.748474 2.456421c-12.720947 6.4029846 -25.901306 11.62558 -39.36914 15.6753845c-26.935608 8.099518 -55.020905 11.507751 -82.879944 10.285065c-27.85904 -1.2227478 -55.49185 -7.0763855 -81.52246 -17.50058c-13.01532 -5.2121277 -25.630096 -11.566864 -37.672302 -19.056671c-3.0105896 -1.872467 -5.985321 -3.8158264 -8.921631 -5.830078c-1.4681702 -1.0071106 -2.9266663 -2.0319214 -4.3752747 -3.0744324c-0.7242737 -0.52127075 -1.4460754 -1.046936 -2.1653442 -1.5770569c-0.35964966 -0.26504517 -0.71865845 -0.53118896 -1.0770264 -0.7984314l-0.4281311 -0.3211975" fill-rule="evenodd"></path><path fill="#cccccc" stroke="#cccccc" stroke-width="8.0" stroke-linecap="butt" d="m608.86334 474.7353l15.66864 -20.5784l-25.230408 5.692322z" fill-rule="evenodd"></path><path fill="#cccccc" stroke="#cccccc" stroke-width="8.0" stroke-linecap="butt" d="m325.1624 436.67743c3.2359924 -3.9172974 9.034851 -4.469635 12.952148 -1.2336731c3.9172974 3.2359924 4.469635 9.034851 1.2336731 12.952148c-3.2359924 3.9172974 -9.034851 4.469635 -12.952148 1.2336731c-3.9172974 -3.2359924 -4.469635 -9.034851 -1.2336731 -12.952148z" fill-rule="nonzero"></path><path fill="#000000" fill-opacity="0.0" d="m337.8924 359.03806l-215.21262 0" fill-rule="nonzero"></path><path stroke="#cccccc" stroke-width="4.0" stroke-linejoin="round" stroke-linecap="butt" d="m313.8924 359.03806l-176.05261 0" fill-rule="evenodd"></path><path fill="#cccccc" stroke="#cccccc" stroke-width="4.0" stroke-linecap="butt" d="m313.8924 365.645l18.152374 -6.6069336l-18.152374 -6.6069336z" fill-rule="evenodd"></path><path fill="#cccccc" stroke="#cccccc" stroke-width="4.0" stroke-linecap="butt" d="m124.67978 359.03806c0 -3.6340332 2.9459686 -6.5799866 6.580002 -6.5799866c3.6340332 0 6.580002 2.9459534 6.580002 6.5799866c0 3.6340332 -2.9459686 6.580017 -6.580002 6.580017c-3.6340332 0 -6.580002 -2.945984 -6.580002 -6.580017z" fill-rule="nonzero"></path><path fill="#000000" fill-opacity="0.0" d="m130.6798 154.39764l0 215.21259" fill-rule="nonzero"></path><path stroke="#cccccc" stroke-width="4.0" stroke-linejoin="round" stroke-linecap="butt" d="m130.6798 178.39764l0 176.05261" fill-rule="evenodd"></path><path fill="#cccccc" stroke="#cccccc" stroke-width="4.0" stroke-linecap="butt" d="m137.28671 178.39764l-6.6069183 -18.15239l-6.6069336 18.15239z" fill-rule="evenodd"></path><path fill="#cccccc" stroke="#cccccc" stroke-width="4.0" stroke-linecap="butt" d="m130.6798 367.61023c-3.6340408 0 -6.580002 -2.9459534 -6.580002 -6.5799866c0 -3.6340332 2.945961 -6.580017 6.580002 -6.580017c3.6340332 0 6.580002 2.945984 6.580002 6.580017c0 3.6340332 -2.9459686 6.5799866 -6.580002 6.5799866z" fill-rule="nonzero"></path><path fill="#cccccc" d="m264.84778 190.35039l0 0c0 -13.254822 10.745148 -24.0 24.0 -24.0l0 0c6.3651733 0 12.469696 2.5285645 16.97055 7.0294495c4.500885 4.5008698 7.0294495 10.605362 7.0294495 16.97055l0 0c0 13.254837 -10.745178 24.0 -24.0 24.0l0 0c-13.254852 0 -24.0 -10.745163 -24.0 -24.0z" fill-rule="nonzero"></path><path stroke="#cccccc" stroke-width="2.0" stroke-linejoin="round" stroke-linecap="butt" d="m264.84778 190.35039l0 0c0 -13.254822 10.745148 -24.0 24.0 -24.0l0 0c6.3651733 0 12.469696 2.5285645 16.97055 7.0294495c4.500885 4.5008698 7.0294495 10.605362 7.0294495 16.97055l0 0c0 13.254837 -10.745178 24.0 -24.0 24.0l0 0c-13.254852 0 -24.0 -10.745163 -24.0 -24.0z" fill-rule="nonzero"></path><path fill="#cccccc" d="m220.8924 206.53674l0 0c0 -8.836548 7.163437 -16.0 16.0 -16.0l0 0c4.243454 0 8.313126 1.6857147 11.313705 4.6862946c3.0005798 3.0005798 4.6862946 7.070236 4.6862946 11.313705l0 0c0 8.836563 -7.163452 16.0 -16.0 16.0l0 0c-8.836563 0 -16.0 -7.163437 -16.0 -16.0z" fill-rule="nonzero"></path><path stroke="#cccccc" stroke-width="2.0" stroke-linejoin="round" stroke-linecap="butt" d="m220.8924 206.53674l0 0c0 -8.836548 7.163437 -16.0 16.0 -16.0l0 0c4.243454 0 8.313126 1.6857147 11.313705 4.6862946c3.0005798 3.0005798 4.6862946 7.070236 4.6862946 11.313705l0 0c0 8.836563 -7.163452 16.0 -16.0 16.0l0 0c-8.836563 0 -16.0 -7.163437 -16.0 -16.0z" fill-rule="nonzero"></path><path fill="#cccccc" d="m240.84776 244.26509l0 0c0 -8.836548 7.163452 -16.0 16.000015 -16.0l0 0c4.243469 0 8.31311 1.6857147 11.31369 4.6862946c3.0005798 3.0005798 4.68631 7.070236 4.68631 11.313705l0 0c0 8.836563 -7.163452 16.000015 -16.0 16.000015l0 0c-8.836563 0 -16.000015 -7.163452 -16.000015 -16.000015z" fill-rule="nonzero"></path><path stroke="#cccccc" stroke-width="2.0" stroke-linejoin="round" stroke-linecap="butt" d="m240.84776 244.26509l0 0c0 -8.836548 7.163452 -16.0 16.000015 -16.0l0 0c4.243469 0 8.31311 1.6857147 11.31369 4.6862946c3.0005798 3.0005798 4.68631 7.070236 4.68631 11.313705l0 0c0 8.836563 -7.163452 16.000015 -16.0 16.000015l0 0c-8.836563 0 -16.000015 -7.163452 -16.000015 -16.000015z" fill-rule="nonzero"></path><path fill="#cccccc" d="m282.41208 234.34744l0 0c0 -6.523056 5.287964 -11.81102 11.811005 -11.81102l0 0c3.1325073 0 6.1366577 1.2443695 8.351685 3.4593658c2.2149963 2.2149963 3.4593506 5.2191772 3.4593506 8.351654l0 0c0 6.523041 -5.287964 11.81102 -11.811035 11.81102l0 0c-6.523041 0 -11.811005 -5.287979 -11.811005 -11.81102z" fill-rule="nonzero"></path><path stroke="#cccccc" stroke-width="2.0" stroke-linejoin="round" stroke-linecap="butt" d="m282.41208 234.34744l0 0c0 -6.523056 5.287964 -11.81102 11.811005 -11.81102l0 0c3.1325073 0 6.1366577 1.2443695 8.351685 3.4593658c2.2149963 2.2149963 3.4593506 5.2191772 3.4593506 8.351654l0 0c0 6.523041 -5.287964 11.81102 -11.811035 11.81102l0 0c-6.523041 0 -11.811005 -5.287979 -11.811005 -11.81102z" fill-rule="nonzero"></path><path fill="#cccccc" d="m163.28609 248.65749l32.0 0l0 31.999985l-32.0 0z" fill-rule="nonzero"></path><path stroke="#cccccc" stroke-width="2.0" stroke-linejoin="round" stroke-linecap="butt" d="m163.28609 248.65749l32.0 0l0 31.999985l-32.0 0z" fill-rule="nonzero"></path><path fill="#cccccc" d="m147.28477 289.65222l48.0 0l0 48.0l-48.0 0z" fill-rule="nonzero"></path><path stroke="#cccccc" stroke-width="2.0" stroke-linejoin="round" stroke-linecap="butt" d="m147.28477 289.65222l48.0 0l0 48.0l-48.0 0z" fill-rule="nonzero"></path><path fill="#cccccc" d="m204.13387 274.7874l32.0 0l0 32.0l-32.0 0z" fill-rule="nonzero"></path><path stroke="#cccccc" stroke-width="2.0" stroke-linejoin="round" stroke-linecap="butt" d="m204.13387 274.7874l32.0 0l0 32.0l-32.0 0z" fill-rule="nonzero"></path><path fill="#cccccc" d="m211.88977 316.64172l23.62204 0l0 23.62207l-23.62204 0z" fill-rule="nonzero"></path><path stroke="#cccccc" stroke-width="2.0" stroke-linejoin="round" stroke-linecap="butt" d="m211.88977 316.64172l23.62204 0l0 23.62207l-23.62204 0z" fill-rule="nonzero"></path><path fill="#000000" fill-opacity="0.0" d="m839.56433 355.03806l-215.21265 0" fill-rule="nonzero"></path><path stroke="#cccccc" stroke-width="4.0" stroke-linejoin="round" stroke-linecap="butt" d="m815.56433 355.03806l-176.05267 0" fill-rule="evenodd"></path><path fill="#cccccc" stroke="#cccccc" stroke-width="4.0" stroke-linecap="butt" d="m815.56433 361.645l18.152344 -6.6069336l-18.152344 -6.6069336z" fill-rule="evenodd"></path><path fill="#cccccc" stroke="#cccccc" stroke-width="4.0" stroke-linecap="butt" d="m626.3517 355.03806c0 -3.6340332 2.945984 -6.5799866 6.580017 -6.5799866c3.6340332 0 6.580017 2.9459534 6.580017 6.5799866c0 3.6340332 -2.945984 6.580017 -6.580017 6.580017c-3.6340332 0 -6.580017 -2.945984 -6.580017 -6.580017z" fill-rule="nonzero"></path><path fill="#000000" fill-opacity="0.0" d="m632.3517 150.39764l0 215.21259" fill-rule="nonzero"></path><path stroke="#cccccc" stroke-width="4.0" stroke-linejoin="round" stroke-linecap="butt" d="m632.3517 174.39764l0 176.05261" fill-rule="evenodd"></path><path fill="#cccccc" stroke="#cccccc" stroke-width="4.0" stroke-linecap="butt" d="m638.9586 174.39764l-6.6069336 -18.15239l-6.6069336 18.15239z" fill-rule="evenodd"></path><path fill="#cccccc" stroke="#cccccc" stroke-width="4.0" stroke-linecap="butt" d="m632.3517 363.61023c-3.6340332 0 -6.579956 -2.9459534 -6.579956 -6.5799866c0 -3.6340332 2.9459229 -6.580017 6.579956 -6.580017c3.6340332 0 6.580017 2.945984 6.580017 6.580017c0 3.6340332 -2.945984 6.5799866 -6.580017 6.5799866z" fill-rule="nonzero"></path><path fill="#000000" fill-opacity="0.0" d="m631.01575 359.94934l47.326233 -82.62109l32.221985 31.924316l36.250732 -75.10841l30.206604 16.898926l45.312866 -80.743866" fill-rule="nonzero"></path><path stroke="#cccccc" stroke-width="4.0" stroke-linejoin="round" stroke-linecap="butt" d="m631.01575 359.94934l47.326233 -82.62109l32.221985 31.924316l36.250732 -75.10841l30.206543 16.898926l33.567444 -59.814377" fill-rule="evenodd"></path><path fill="#cccccc" stroke="#cccccc" stroke-width="4.0" stroke-linecap="butt" d="m816.35034 194.4621l3.1220093 -19.0634l-14.645325 12.596603z" fill-rule="evenodd"></path></g></svg>

