<?xml version="1.0" standalone="yes"?>

<svg version="1.1" viewBox="0.0 0.0 960.0 540.0" fill="none" stroke="none" stroke-linecap="square" stroke-miterlimit="10" xmlns="http://www.w3.org/2000/svg" xmlns:xlink="http://www.w3.org/1999/xlink"><clipPath id="p.0"><path d="m0 0l960.0 0l0 540.0l-960.0 0l0 -540.0z" clip-rule="nonzero"></path></clipPath><g clip-path="url(#p.0)"><path fill="#000000" fill-opacity="0.0" d="m0 0l960.0 0l0 540.0l-960.0 0z" fill-rule="nonzero"></path><path fill="#000000" fill-opacity="0.0" d="m445.3294 144.15738c4.2064514 0.66404724 19.482483 -2.436142 25.23883 3.984253c5.7563477 6.4203796 8.413391 24.353455 9.299225 34.538055c0.88583374 10.184601 -5.9772644 18.156174 -3.984253 26.56955c1.992981 8.413391 16.828064 18.818466 15.942261 23.910767c-0.88583374 5.0923004 -18.157501 2.2147827 -21.257233 6.643036c-3.0997314 4.4282684 3.3228455 12.398956 2.658783 19.926514c-0.664032 7.5275574 0.4418335 21.475067 -6.643036 25.238861c-7.0848694 3.7637634 -26.788696 0.664917 -35.86615 -2.656189c-9.077423 -3.3210754 -15.498688 -14.391937 -18.59842 -17.270325" fill-rule="nonzero"></path><path stroke="#cccccc" stroke-width="4.0" stroke-linejoin="round" stroke-linecap="butt" d="m445.3294 144.15738c4.2064514 0.66404724 19.482483 -2.436142 25.23883 3.984253c5.7563477 6.4203796 8.413391 24.353455 9.299225 34.538055c0.88583374 10.184601 -5.9772644 18.156174 -3.984253 26.56955c1.992981 8.413391 16.828064 18.818466 15.942261 23.910767c-0.88583374 5.0923004 -18.157501 2.2147827 -21.257233 6.643036c-3.0997314 4.4282684 3.3228455 12.398956 2.658783 19.926514c-0.664032 7.5275574 0.4418335 21.475067 -6.643036 25.238861c-7.0848694 3.7637634 -26.788696 0.664917 -35.86615 -2.656189c-9.077423 -3.3210754 -15.498688 -14.391937 -18.59842 -17.270325" fill-rule="nonzero"></path><path fill="#cccccc" d="m448.2011 181.2769l0 0c0 -5.0792847 4.117584 -9.196854 9.196869 -9.196854l0 0c2.439148 0 4.778412 0.9689636 6.5031433 2.693695c1.7247314 1.7247467 2.693695 4.0640106 2.693695 6.5031586l0 0c0 5.0792847 -4.117584 9.196854 -9.196838 9.196854l0 0c-5.0792847 0 -9.196869 -4.117569 -9.196869 -9.196854z" fill-rule="nonzero"></path><path stroke="#999999" stroke-width="2.0" stroke-linejoin="round" stroke-linecap="butt" d="m448.2011 181.2769l0 0c0 -5.0792847 4.117584 -9.196854 9.196869 -9.196854l0 0c2.439148 0 4.778412 0.9689636 6.5031433 2.693695c1.7247314 1.7247467 2.693695 4.0640106 2.693695 6.5031586l0 0c0 5.0792847 -4.117584 9.196854 -9.196838 9.196854l0 0c-5.0792847 0 -9.196869 -4.117569 -9.196869 -9.196854z" fill-rule="nonzero"></path><path fill="#000000" fill-opacity="0.0" d="m436.08923 247.82841c1.9925537 1.5498657 6.1986084 7.3066406 11.955383 9.29921c5.756775 1.9925537 18.821075 2.2134705 22.585297 2.6561584" fill-rule="nonzero"></path><path stroke="#cccccc" stroke-width="4.0" stroke-linejoin="round" stroke-linecap="butt" d="m436.08923 247.82841c1.9925537 1.5498657 6.1986084 7.3066406 11.955383 9.29921c5.756775 1.9925537 18.821075 2.2134705 22.585297 2.6561584" fill-rule="nonzero"></path><path fill="#000000" fill-opacity="0.0" d="m510.5994 315.7241l-17.543304 -35.55905" fill-rule="nonzero"></path><path stroke="#cccccc" stroke-width="2.0" stroke-linejoin="round" stroke-linecap="butt" d="m510.5994 315.7241l-17.543304 -35.55905" fill-rule="nonzero"></path><path fill="#000000" fill-opacity="0.0" d="m499.88452 254.49869l42.551147 -30.48819" fill-rule="nonzero"></path><path stroke="#cccccc" stroke-width="2.0" stroke-linejoin="round" stroke-linecap="butt" d="m499.88452 254.49869l42.551147 -30.48819" fill-rule="nonzero"></path><path fill="#000000" fill-opacity="0.0" d="m499.88385 259.81366l50.48822 -9.291351" fill-rule="nonzero"></path><path stroke="#cccccc" stroke-width="2.0" stroke-linejoin="round" stroke-linecap="butt" d="m499.88385 259.81366l50.48822 -9.291351" fill-rule="nonzero"></path><path fill="#000000" fill-opacity="0.0" d="m498.5558 265.12762l45.165344 11.968506" fill-rule="nonzero"></path><path stroke="#cccccc" stroke-width="2.0" stroke-linejoin="round" stroke-linecap="butt" d="m498.5558 265.12762l45.165344 11.968506" fill-rule="nonzero"></path><path fill="#000000" fill-opacity="0.0" d="m496.56104 271.49344l40.503906 28.15747" fill-rule="nonzero"></path><path stroke="#cccccc" stroke-width="2.0" stroke-linejoin="round" stroke-linecap="butt" d="m496.56104 271.49344l40.503906 28.15747" fill-rule="nonzero"></path><path fill="#2c2c2c" fill-opacity="0.5115" d="m35.913387 88.2176l383.0551 0l0 347.55908l-383.0551 0z" fill-rule="nonzero"></path><path stroke="#cccccc" stroke-width="8.0" stroke-linejoin="round" stroke-linecap="butt" d="m35.913387 88.2176l383.0551 0l0 347.55908l-383.0551 0z" fill-rule="nonzero"></path><path fill="#2c2c2c" fill-opacity="0.5115" d="m539.9372 85.999985l383.0551 0l0 347.55908l-383.0551 0z" fill-rule="nonzero"></path><path stroke="#cccccc" stroke-width="8.0" stroke-linejoin="round" stroke-linecap="butt" d="m539.9372 85.999985l383.0551 0l0 347.55908l-383.0551 0z" fill-rule="nonzero"></path><path fill="#000000" fill-opacity="0.0" d="m634.37213 447.83627c-93.04108 70.17032 -226.49234 64.31326 -312.29358 -13.70636l164.41751 -162.43701z" fill-rule="nonzero"></path><path fill="#000000" fill-opacity="0.0" d="m634.37213 447.83627c-93.04108 70.17032 -226.49234 64.31326 -312.29358 -13.70636" fill-rule="nonzero"></path><path stroke="#cccccc" stroke-width="8.0" stroke-linejoin="round" stroke-linecap="butt" d="m604.08246 467.2922l-0.39434814 0.21383667c-0.3928833 0.21160889 -0.7863159 0.4220581 -1.1801758 0.6313782c-1.5753784 0.8372803 -3.1583252 1.6560974 -4.748474 2.4564514c-12.720947 6.403015 -25.901306 11.62561 -39.36914 15.675415c-26.935547 8.099518 -55.020844 11.507751 -82.87991 10.285004c-27.85904 -1.2226868 -55.491882 -7.076355 -81.52246 -17.500519c-13.01535 -5.2121277 -25.630096 -11.566864 -37.672333 -19.056671c-3.0105286 -1.872467 -5.985321 -3.8158264 -8.921631 -5.830078c-1.4681396 -1.0071106 -2.9266663 -2.0319214 -4.375244 -3.0744324c-0.7242737 -0.52127075 -1.4460754 -1.046936 -2.1653442 -1.5770569c-0.35964966 -0.26504517 -0.71865845 -0.53118896 -1.0769958 -0.7984314l-0.42816162 -0.3211975" fill-rule="evenodd"></path><path fill="#cccccc" stroke="#cccccc" stroke-width="8.0" stroke-linecap="butt" d="m608.86334 474.73526l15.66864 -20.5784l-25.230408 5.692322z" fill-rule="evenodd"></path><path fill="#cccccc" stroke="#cccccc" stroke-width="8.0" stroke-linecap="butt" d="m325.16245 436.67743c3.235962 -3.9172974 9.034851 -4.469635 12.952148 -1.2336731c3.9172974 3.2359924 4.469635 9.034851 1.2336426 12.952148c-3.235962 3.9172974 -9.034821 4.469635 -12.952148 1.2336731c-3.9172974 -3.2359924 -4.4696045 -9.034851 -1.2336426 -12.952148z" fill-rule="nonzero"></path><path fill="#000000" fill-opacity="0.0" d="m337.8924 359.03806l-215.21262 0" fill-rule="nonzero"></path><path stroke="#cccccc" stroke-width="4.0" stroke-linejoin="round" stroke-linecap="butt" d="m313.8924 359.03806l-176.05261 0" fill-rule="evenodd"></path><path fill="#cccccc" stroke="#cccccc" stroke-width="4.0" stroke-linecap="butt" d="m313.8924 365.645l18.152374 -6.6069336l-18.152374 -6.6069336z" fill-rule="evenodd"></path><path fill="#cccccc" stroke="#cccccc" stroke-width="4.0" stroke-linecap="butt" d="m124.67978 359.03806c0 -3.6340332 2.9459686 -6.5799866 6.580002 -6.5799866c3.6340332 0 6.580002 2.9459534 6.580002 6.5799866c0 3.6340332 -2.9459686 6.580017 -6.580002 6.580017c-3.6340332 0 -6.580002 -2.945984 -6.580002 -6.580017z" fill-rule="nonzero"></path><path fill="#000000" fill-opacity="0.0" d="m130.6798 154.39764l0 215.21259" fill-rule="nonzero"></path><path stroke="#cccccc" stroke-width="4.0" stroke-linejoin="round" stroke-linecap="butt" d="m130.6798 178.39764l0 176.05261" fill-rule="evenodd"></path><path fill="#cccccc" stroke="#cccccc" stroke-width="4.0" stroke-linecap="butt" d="m137.28671 178.39764l-6.6069183 -18.15239l-6.6069336 18.15239z" fill-rule="evenodd"></path><path fill="#cccccc" stroke="#cccccc" stroke-width="4.0" stroke-linecap="butt" d="m130.6798 367.61023c-3.6340408 0 -6.580002 -2.9459534 -6.580002 -6.5799866c0 -3.6340332 2.945961 -6.580017 6.580002 -6.580017c3.6340332 0 6.580002 2.945984 6.580002 6.580017c0 3.6340332 -2.9459686 6.5799866 -6.580002 6.5799866z" fill-rule="nonzero"></path><path fill="#990000" d="m264.84778 190.35039l0 0c0 -13.254822 10.745148 -24.0 24.0 -24.0l0 0c6.3651733 0 12.469696 2.5285645 16.97055 7.0294495c4.500885 4.5008698 7.0294495 10.605362 7.0294495 16.97055l0 0c0 13.254837 -10.745178 24.0 -24.0 24.0l0 0c-13.254852 0 -24.0 -10.745163 -24.0 -24.0z" fill-rule="nonzero"></path><path stroke="#cccccc" stroke-width="2.0" stroke-linejoin="round" stroke-linecap="butt" d="m264.84778 190.35039l0 0c0 -13.254822 10.745148 -24.0 24.0 -24.0l0 0c6.3651733 0 12.469696 2.5285645 16.97055 7.0294495c4.500885 4.5008698 7.0294495 10.605362 7.0294495 16.97055l0 0c0 13.254837 -10.745178 24.0 -24.0 24.0l0 0c-13.254852 0 -24.0 -10.745163 -24.0 -24.0z" fill-rule="nonzero"></path><path fill="#990000" d="m220.8924 206.53674l0 0c0 -8.836548 7.163437 -16.0 16.0 -16.0l0 0c4.243454 0 8.313126 1.6857147 11.313705 4.6862946c3.0005798 3.0005798 4.6862946 7.070236 4.6862946 11.313705l0 0c0 8.836563 -7.163452 16.0 -16.0 16.0l0 0c-8.836563 0 -16.0 -7.163437 -16.0 -16.0z" fill-rule="nonzero"></path><path stroke="#cccccc" stroke-width="2.0" stroke-linejoin="round" stroke-linecap="butt" d="m220.8924 206.53674l0 0c0 -8.836548 7.163437 -16.0 16.0 -16.0l0 0c4.243454 0 8.313126 1.6857147 11.313705 4.6862946c3.0005798 3.0005798 4.6862946 7.070236 4.6862946 11.313705l0 0c0 8.836563 -7.163452 16.0 -16.0 16.0l0 0c-8.836563 0 -16.0 -7.163437 -16.0 -16.0z" fill-rule="nonzero"></path><path fill="#990000" d="m240.84776 244.26509l0 0c0 -8.836548 7.163452 -16.0 16.000015 -16.0l0 0c4.243469 0 8.31311 1.6857147 11.31369 4.6862946c3.0005798 3.0005798 4.68631 7.070236 4.68631 11.313705l0 0c0 8.836563 -7.163452 16.000015 -16.0 16.000015l0 0c-8.836563 0 -16.000015 -7.163452 -16.000015 -16.000015z" fill-rule="nonzero"></path><path stroke="#cccccc" stroke-width="2.0" stroke-linejoin="round" stroke-linecap="butt" d="m240.84776 244.26509l0 0c0 -8.836548 7.163452 -16.0 16.000015 -16.0l0 0c4.243469 0 8.31311 1.6857147 11.31369 4.6862946c3.0005798 3.0005798 4.68631 7.070236 4.68631 11.313705l0 0c0 8.836563 -7.163452 16.000015 -16.0 16.000015l0 0c-8.836563 0 -16.000015 -7.163452 -16.000015 -16.000015z" fill-rule="nonzero"></path><path fill="#990000" d="m282.41208 234.34744l0 0c0 -6.523056 5.287964 -11.81102 11.811005 -11.81102l0 0c3.1325073 0 6.1366577 1.2443695 8.351685 3.4593658c2.2149963 2.2149963 3.4593506 5.2191772 3.4593506 8.351654l0 0c0 6.523041 -5.287964 11.81102 -11.811035 11.81102l0 0c-6.523041 0 -11.811005 -5.287979 -11.811005 -11.81102z" fill-rule="nonzero"></path><path stroke="#cccccc" stroke-width="2.0" stroke-linejoin="round" stroke-linecap="butt" d="m282.41208 234.34744l0 0c0 -6.523056 5.287964 -11.81102 11.811005 -11.81102l0 0c3.1325073 0 6.1366577 1.2443695 8.351685 3.4593658c2.2149963 2.2149963 3.4593506 5.2191772 3.4593506 8.351654l0 0c0 6.523041 -5.287964 11.81102 -11.811035 11.81102l0 0c-6.523041 0 -11.811005 -5.287979 -11.811005 -11.81102z" fill-rule="nonzero"></path><path fill="#ff9900" d="m163.28609 248.65749l32.0 0l0 31.999985l-32.0 0z" fill-rule="nonzero"></path><path stroke="#cccccc" stroke-width="2.0" stroke-linejoin="round" stroke-linecap="butt" d="m163.28609 248.65749l32.0 0l0 31.999985l-32.0 0z" fill-rule="nonzero"></path><path fill="#ff9900" d="m147.28477 289.65222l48.0 0l0 48.0l-48.0 0z" fill-rule="nonzero"></path><path stroke="#cccccc" stroke-width="2.0" stroke-linejoin="round" stroke-linecap="butt" d="m147.28477 289.65222l48.0 0l0 48.0l-48.0 0z" fill-rule="nonzero"></path><path fill="#ff9900" d="m204.13387 274.7874l32.0 0l0 32.0l-32.0 0z" fill-rule="nonzero"></path><path stroke="#cccccc" stroke-width="2.0" stroke-linejoin="round" stroke-linecap="butt" d="m204.13387 274.7874l32.0 0l0 32.0l-32.0 0z" fill-rule="nonzero"></path><path fill="#ff9900" d="m211.88977 316.64172l23.62204 0l0 23.62207l-23.62204 0z" fill-rule="nonzero"></path><path stroke="#cccccc" stroke-width="2.0" stroke-linejoin="round" stroke-linecap="butt" d="m211.88977 316.64172l23.62204 0l0 23.62207l-23.62204 0z" fill-rule="nonzero"></path><path fill="#000000" fill-opacity="0.0" d="m133.92389 96.20998l220.7244 0l0 56.188965l-220.7244 0z" fill-rule="nonzero"></path><path fill="#cccccc" d="m189.14304 117.688095l-10.109375 0l0 25.921875l-2.8125 0l0 -25.921875l-10.109375 0l0 -2.484375l23.03125 0l0 2.484375zm4.3568573 25.921875l0 -28.40625l11.96875 0q1.84375 0 3.390625 0.78125q1.5625 0.78125 2.6875 2.046875q1.125 1.265625 1.734375 2.859375q0.625 1.59375 0.625 3.234375q0 1.5625 -0.46875 2.984375q-0.453125 1.421875 -1.296875 2.5625q-0.828125 1.140625 -2.0 1.921875q-1.15625 0.78125 -2.59375 1.0625l7.0 10.953125l-3.15625 0l-6.71875 -10.484375l-8.40625 0l0 10.484375l-2.765625 0zm2.765625 -12.953125l9.328125 0q1.234375 0 2.25 -0.546875q1.015625 -0.546875 1.734375 -1.453125q0.734375 -0.921875 1.125 -2.078125q0.40625 -1.171875 0.40625 -2.453125q0 -1.28125 -0.46875 -2.453125q-0.453125 -1.1875 -1.234375 -2.0625q-0.78125 -0.875 -1.84375 -1.390625q-1.0625 -0.53125 -2.21875 -0.53125l-9.078125 0l0 12.96875zm23.634354 12.953125l0 -28.40625l18.609375 0l0 2.484375l-15.84375 0l0 10.4375l13.40625 0l0 2.328125l-13.40625 0l0 13.15625l-2.765625 0zm31.561844 -3.5625q0.890625 0.609375 2.265625 1.046875q1.375 0.4375 3.0937347 0.4375q2.171875 0 3.46875 -0.78125q1.296875 -0.78125 1.96875 -2.296875q0.6875 -1.53125 0.890625 -3.75q0.203125 -2.21875 0.203125 -5.046875l0 -14.40625l2.796875 0l0 14.40625q0 3.234375 -0.3125 5.890625q-0.296875 2.65625 -1.25 4.546875q-0.953125 1.875 -2.796875 2.921875q-1.84375 1.03125 -4.96875 1.03125q-3.5937347 0 -6.1562347 -1.75l0.796875 -2.25zm40.799362 1.046875q-1.640625 1.28125 -3.578125 2.0q-1.9375 0.71875 -4.171875 0.71875q-2.96875 0 -5.4375 -1.234375q-2.453125 -1.25 -4.21875 -3.25q-1.75 -2.0 -2.71875 -4.59375q-0.953125 -2.609375 -0.953125 -5.328125q0 -2.84375 1.015625 -5.4375q1.03125 -2.59375 2.828125 -4.59375q1.796875 -2.0 4.234375 -3.171875q2.4375 -1.1875 5.28125 -1.1875q2.96875 0 5.421875 1.265625q2.46875 1.25 4.203125 3.296875q1.734375 2.03125 2.6875 4.609375q0.96875 2.578125 0.96875 5.265625q0 2.921875 -1.0625 5.5625q-1.0625 2.640625 -2.9375 4.640625l3.359375 3.953125l-2.75 0l-2.171875 -2.515625zm-7.75 0.203125q1.796875 0 3.3125 -0.578125q1.515625 -0.59375 2.796875 -1.59375l-3.546875 -4.234375l2.75 0l2.28125 2.71875q1.40625 -1.6875 2.15625 -3.8125q0.765625 -2.140625 0.765625 -4.390625q0 -2.3125 -0.78125 -4.453125q-0.78125 -2.140625 -2.1875 -3.78125q-1.390625 -1.640625 -3.3125 -2.640625q-1.921875 -1.0 -4.234375 -1.0q-2.40625 0 -4.375 1.015625q-1.953125 1.015625 -3.3125 2.703125q-1.359375 1.671875 -2.109375 3.8125q-0.734375 2.140625 -0.734375 4.34375q0 2.328125 0.765625 4.46875q0.765625 2.140625 2.15625 3.796875q1.40625 1.65625 3.328125 2.640625q1.921875 0.984375 4.28125 0.984375zm18.70871 2.3125l0 -28.40625l2.765625 0l0 25.921875l16.4375 0l0 2.484375l-19.203125 0z" fill-rule="nonzero"></path><path fill="#000000" fill-opacity="0.0" d="m629.6483 91.07087l220.72437 0l0 56.188972l-220.72437 0z" fill-rule="nonzero"></path><path fill="#cccccc" d="m651.95685 110.06461l10.15625 24.921883l10.078125 -24.921883l2.953125 0l-11.828125 28.406258l-2.453125 0l-11.828125 -28.406258l2.921875 0zm37.87683 0.203125l2.671875 0l4.0 10.078125l4.046875 -10.078125l2.640625 0l-4.96875 12.125l5.453125 12.843758l10.265625 -25.171883l3.046875 0l-12.0 28.406258l-2.484375 0l-5.953125 -14.046883l-6.0 14.046883l-2.484375 0l-11.953125 -28.406258l2.953125 0l10.328125 25.171883l5.390625 -12.843758l-4.953125 -12.125zm30.94934 -0.203125l9.328125 12.40625l9.3125 -12.40625l3.09375 0l-10.921875 14.40625l10.59375 14.000008l-3.078125 0l-9.0 -12.000008l-9.0 12.000008l-3.125 0l10.609375 -14.000008l-10.921875 -14.40625l3.109375 0zm35.76123 28.406258l0 -28.406258l9.609375 0q3.390625 0 5.953125 1.125q2.5625 1.125 4.265625 3.046875q1.703125 1.921875 2.53125 4.5q0.84375 2.578125 0.84375 5.5q0 3.234375 -0.96875 5.8593826q-0.953125 2.609375 -2.71875 4.46875q-1.75 1.859375 -4.28125 2.890625q-2.515625 1.015625 -5.625 1.015625l-9.609375 0zm20.40625 -14.234383q0 -2.5625 -0.71875 -4.703125q-0.71875 -2.140625 -2.109375 -3.703125q-1.375 -1.5625 -3.375 -2.421875q-2.0 -0.859375 -4.59375 -0.859375l-6.84375 0l0 23.437508l6.84375 0q2.640625 0 4.65625 -0.890625q2.015625 -0.90625 3.375 -2.484375q1.359375 -1.578125 2.0625 -3.71875q0.703125 -2.1406326 0.703125 -4.6562576zm8.313721 14.234383l0 -28.406258l18.609375 0l0 2.484375l-15.84375 0l0 10.4375l13.40625 0l0 2.328125l-13.40625 0l0 13.156258l-2.765625 0zm23.399963 0l0 -28.406258l11.96875 0q1.84375 0 3.390625 0.78125q1.5625 0.78125 2.6875 2.046875q1.125 1.265625 1.734375 2.859375q0.625 1.59375 0.625 3.234375q0 1.5625 -0.46875 2.984375q-0.453125 1.421875 -1.296875 2.5625q-0.828125 1.140625 -2.0 1.921875q-1.15625 0.78125 -2.59375 1.0625l7.0 10.953133l-3.15625 0l-6.71875 -10.484383l-8.40625 0l0 10.484383l-2.765625 0zm2.765625 -12.953133l9.328125 0q1.234375 0 2.25 -0.546875q1.015625 -0.546875 1.734375 -1.453125q0.734375 -0.921875 1.125 -2.078125q0.40625 -1.171875 0.40625 -2.453125q0 -1.28125 -0.46875 -2.453125q-0.453125 -1.1875 -1.234375 -2.0625q-0.78125 -0.875 -1.84375 -1.390625q-1.0625 -0.53125 -2.21875 -0.53125l-9.078125 0l0 12.96875z" fill-rule="nonzero"></path><path fill="#000000" fill-opacity="0.0" d="m631.01575 359.94934l47.326233 -82.62109l32.221985 31.924316l36.250732 -75.10841l30.206604 16.898926l45.312866 -80.743866" fill-rule="nonzero"></path><path stroke="#ff9900" stroke-width="4.0" stroke-linejoin="round" stroke-linecap="butt" d="m631.01575 359.94934l47.326233 -82.62109l32.221985 31.924316l36.250732 -75.10841l30.206543 16.898926l33.567444 -59.814377" fill-rule="evenodd"></path><path fill="#ff9900" stroke="#ff9900" stroke-width="4.0" stroke-linecap="butt" d="m816.35034 194.4621l3.1220093 -19.0634l-14.645325 12.596603z" fill-rule="evenodd"></path><path fill="#000000" fill-opacity="0.0" d="m839.56433 355.03806l-215.21265 0" fill-rule="nonzero"></path><path stroke="#cccccc" stroke-width="4.0" stroke-linejoin="round" stroke-linecap="butt" d="m815.56433 355.03806l-176.05267 0" fill-rule="evenodd"></path><path fill="#cccccc" stroke="#cccccc" stroke-width="4.0" stroke-linecap="butt" d="m815.56433 361.645l18.152344 -6.6069336l-18.152344 -6.6069336z" fill-rule="evenodd"></path><path fill="#cccccc" stroke="#cccccc" stroke-width="4.0" stroke-linecap="butt" d="m626.3517 355.03806c0 -3.6340332 2.945984 -6.5799866 6.580017 -6.5799866c3.6340332 0 6.580017 2.9459534 6.580017 6.5799866c0 3.6340332 -2.945984 6.580017 -6.580017 6.580017c-3.6340332 0 -6.580017 -2.945984 -6.580017 -6.580017z" fill-rule="nonzero"></path><path fill="#000000" fill-opacity="0.0" d="m632.3517 150.39764l0 215.21259" fill-rule="nonzero"></path><path stroke="#cccccc" stroke-width="4.0" stroke-linejoin="round" stroke-linecap="butt" d="m632.3517 174.39764l0 176.05261" fill-rule="evenodd"></path><path fill="#cccccc" stroke="#cccccc" stroke-width="4.0" stroke-linecap="butt" d="m638.9586 174.39764l-6.6069336 -18.15239l-6.6069336 18.15239z" fill-rule="evenodd"></path><path fill="#cccccc" stroke="#cccccc" stroke-width="4.0" stroke-linecap="butt" d="m632.3517 363.61023c-3.6340332 0 -6.579956 -2.9459534 -6.579956 -6.5799866c0 -3.6340332 2.9459229 -6.580017 6.579956 -6.580017c3.6340332 0 6.580017 2.945984 6.580017 6.580017c0 3.6340332 -2.945984 6.5799866 -6.580017 6.5799866z" fill-rule="nonzero"></path></g></svg>

