<?xml version="1.0" standalone="yes"?>

<svg version="1.1" viewBox="0.0 0.0 960.0 540.0" fill="none" stroke="none" stroke-linecap="square" stroke-miterlimit="10" xmlns="http://www.w3.org/2000/svg" xmlns:xlink="http://www.w3.org/1999/xlink"><clipPath id="p.0"><path d="m0 0l960.0 0l0 540.0l-960.0 0l0 -540.0z" clip-rule="nonzero"></path></clipPath><g clip-path="url(#p.0)"><path fill="#000000" fill-opacity="0.0" d="m0 0l960.0 0l0 540.0l-960.0 0z" fill-rule="nonzero"></path><path fill="#2c2c2c" fill-opacity="0.5115" d="m745.4131 8.0l201.57477 0l0 199.30708l-201.57477 0z" fill-rule="nonzero"></path><path stroke="#cccccc" stroke-width="8.0" stroke-linejoin="round" stroke-linecap="butt" d="m745.4131 8.0l201.57477 0l0 199.30708l-201.57477 0z" fill-rule="nonzero"></path><path fill="#2c2c2c" fill-opacity="0.5115" d="m251.9019 315.84402l201.57481 0l0 199.3071l-201.57481 0z" fill-rule="nonzero"></path><path stroke="#cccccc" stroke-width="8.0" stroke-linejoin="round" stroke-linecap="butt" d="m251.9019 315.84402l201.57481 0l0 199.3071l-201.57481 0z" fill-rule="nonzero"></path><path fill="#2c2c2c" fill-opacity="0.5115" d="m18.921259 83.03788l201.5748 0l0 199.3071l-201.5748 0z" fill-rule="nonzero"></path><path stroke="#cccccc" stroke-width="8.0" stroke-linejoin="round" stroke-linecap="butt" d="m18.921259 83.03788l201.5748 0l0 199.3071l-201.5748 0z" fill-rule="nonzero"></path><path fill="#2c2c2c" fill-opacity="0.5115" d="m521.61194 225.51605l201.57477 0l0 199.3071l-201.57477 0z" fill-rule="nonzero"></path><path stroke="#cccccc" stroke-width="8.0" stroke-linejoin="round" stroke-linecap="butt" d="m521.61194 225.51605l201.57477 0l0 199.3071l-201.57477 0z" fill-rule="nonzero"></path><path fill="#000000" fill-opacity="0.0" d="m57.331676 140.7593l0 116.72441" fill-rule="nonzero"></path><path stroke="#cccccc" stroke-width="4.0" stroke-linejoin="round" stroke-linecap="butt" d="m57.331676 164.7593l0 77.56441" fill-rule="evenodd"></path><path fill="#cccccc" stroke="#cccccc" stroke-width="4.0" stroke-linecap="butt" d="m63.938606 164.7593l-6.60693 -18.15239l-6.60693 18.15239z" fill-rule="evenodd"></path><path fill="#cccccc" stroke="#cccccc" stroke-width="4.0" stroke-linecap="butt" d="m57.331676 255.4837c-3.6340332 0 -6.579998 -2.9459686 -6.579998 -6.580002c0 -3.6340332 2.9459648 -6.580002 6.579998 -6.580002c3.6340332 0 6.580002 2.9459686 6.580002 6.580002c0 3.6340332 -2.9459686 6.580002 -6.580002 6.580002z" fill-rule="nonzero"></path><path fill="#000000" fill-opacity="0.0" d="m166.82642 248.85889l-116.72441 0" fill-rule="nonzero"></path><path stroke="#cccccc" stroke-width="4.0" stroke-linejoin="round" stroke-linecap="butt" d="m142.82642 248.85889l-77.56441 0" fill-rule="evenodd"></path><path fill="#cccccc" stroke="#cccccc" stroke-width="4.0" stroke-linecap="butt" d="m142.82642 255.4658l18.15239 -6.6069183l-18.15239 -6.6069336z" fill-rule="evenodd"></path><path fill="#cccccc" stroke="#cccccc" stroke-width="4.0" stroke-linecap="butt" d="m52.10201 248.85889c0 -3.6340332 2.9459648 -6.580002 6.579998 -6.580002c3.6340332 0 6.580002 2.9459686 6.580002 6.580002c0 3.6340332 -2.9459686 6.580002 -6.580002 6.580002c-3.6340332 0 -6.579998 -2.9459686 -6.579998 -6.580002z" fill-rule="nonzero"></path><path fill="#990000" d="m130.10439 160.26608l0 0c0 -7.192749 5.830887 -13.023636 13.023636 -13.023636l0 0c3.454071 0 6.766678 1.3721313 9.209091 3.8145447c2.442398 2.442398 3.8145294 5.755005 3.8145294 9.209091l0 0c0 7.192734 -5.830887 13.023621 -13.023621 13.023621l0 0c-7.192749 0 -13.023636 -5.830887 -13.023636 -13.023621z" fill-rule="nonzero"></path><path stroke="#cccccc" stroke-width="1.0" stroke-linejoin="round" stroke-linecap="butt" d="m130.10439 160.26608l0 0c0 -7.192749 5.830887 -13.023636 13.023636 -13.023636l0 0c3.454071 0 6.766678 1.3721313 9.209091 3.8145447c2.442398 2.442398 3.8145294 5.755005 3.8145294 9.209091l0 0c0 7.192734 -5.830887 13.023621 -13.023621 13.023621l0 0c-7.192749 0 -13.023636 -5.830887 -13.023636 -13.023621z" fill-rule="nonzero"></path><path fill="#990000" d="m106.26299 169.0383l0 0c0 -4.792267 3.8848953 -8.677155 8.677162 -8.677155l0 0c2.3013306 0 4.5084 0.9141846 6.135681 2.5414734c1.6272888 1.6272888 2.5414886 3.8343658 2.5414886 6.135681l0 0c0 4.792267 -3.884903 8.67717 -8.67717 8.67717l0 0c-4.792267 0 -8.677162 -3.884903 -8.677162 -8.67717z" fill-rule="nonzero"></path><path stroke="#cccccc" stroke-width="1.0" stroke-linejoin="round" stroke-linecap="butt" d="m106.26299 169.0383l0 0c0 -4.792267 3.8848953 -8.677155 8.677162 -8.677155l0 0c2.3013306 0 4.5084 0.9141846 6.135681 2.5414734c1.6272888 1.6272888 2.5414886 3.8343658 2.5414886 6.135681l0 0c0 4.792267 -3.884903 8.67717 -8.67717 8.67717l0 0c-4.792267 0 -8.677162 -3.884903 -8.677162 -8.67717z" fill-rule="nonzero"></path><path fill="#990000" d="m117.08679 189.50215l0 0c0 -4.792267 3.8848953 -8.67717 8.677162 -8.67717l0 0c2.301323 0 4.5084 0.9141998 6.135689 2.5414886c1.6272736 1.6272888 2.5414734 3.8343506 2.5414734 6.135681l0 0c0 4.792267 -3.884903 8.67717 -8.677162 8.67717l0 0c-4.792267 0 -8.677162 -3.884903 -8.677162 -8.67717z" fill-rule="nonzero"></path><path stroke="#cccccc" stroke-width="1.0" stroke-linejoin="round" stroke-linecap="butt" d="m117.08679 189.50215l0 0c0 -4.792267 3.8848953 -8.67717 8.677162 -8.67717l0 0c2.301323 0 4.5084 0.9141998 6.135689 2.5414886c1.6272736 1.6272888 2.5414734 3.8343506 2.5414734 6.135681l0 0c0 4.792267 -3.884903 8.67717 -8.677162 8.67717l0 0c-4.792267 0 -8.677162 -3.884903 -8.677162 -8.67717z" fill-rule="nonzero"></path><path fill="#990000" d="m139.63127 184.1272l0 0c0 -3.5398407 2.8696136 -6.4094543 6.4094543 -6.4094543l0 0c1.6998901 0 3.3301544 0.6752777 4.5321655 1.8772888c1.2019958 1.2019958 1.8772736 2.8322754 1.8772736 4.5321655l0 0c0 3.5398407 -2.8695984 6.409439 -6.409439 6.409439l0 0c-3.5398407 0 -6.4094543 -2.8695984 -6.4094543 -6.409439z" fill-rule="nonzero"></path><path stroke="#cccccc" stroke-width="1.0" stroke-linejoin="round" stroke-linecap="butt" d="m139.63127 184.1272l0 0c0 -3.5398407 2.8696136 -6.4094543 6.4094543 -6.4094543l0 0c1.6998901 0 3.3301544 0.6752777 4.5321655 1.8772888c1.2019958 1.2019958 1.8772736 2.8322754 1.8772736 4.5321655l0 0c0 3.5398407 -2.8695984 6.409439 -6.409439 6.409439l0 0c-3.5398407 0 -6.4094543 -2.8695984 -6.4094543 -6.409439z" fill-rule="nonzero"></path><path fill="#ff9900" d="m75.017334 191.88583l17.354332 0l0 17.354324l-17.354332 0z" fill-rule="nonzero"></path><path stroke="#cccccc" stroke-width="1.0" stroke-linejoin="round" stroke-linecap="butt" d="m75.017334 191.88583l17.354332 0l0 17.354324l-17.354332 0z" fill-rule="nonzero"></path><path fill="#ff9900" d="m66.33823 214.12138l26.047241 0l0 26.047256l-26.047241 0z" fill-rule="nonzero"></path><path stroke="#cccccc" stroke-width="1.0" stroke-linejoin="round" stroke-linecap="butt" d="m66.33823 214.12138l26.047241 0l0 26.047256l-26.047241 0z" fill-rule="nonzero"></path><path fill="#ff9900" d="m97.173164 206.05869l17.354332 0l0 17.354324l-17.354332 0z" fill-rule="nonzero"></path><path stroke="#cccccc" stroke-width="1.0" stroke-linejoin="round" stroke-linecap="butt" d="m97.173164 206.05869l17.354332 0l0 17.354324l-17.354332 0z" fill-rule="nonzero"></path><path fill="#ff9900" d="m101.379974 228.7605l12.818893 0l0 12.818893l-12.818893 0z" fill-rule="nonzero"></path><path stroke="#cccccc" stroke-width="1.0" stroke-linejoin="round" stroke-linecap="butt" d="m101.379974 228.7605l12.818893 0l0 12.818893l-12.818893 0z" fill-rule="nonzero"></path><path fill="#000000" fill-opacity="0.0" d="m700.92413 340.7677l-149.63385 0" fill-rule="nonzero"></path><path stroke="#cccccc" stroke-width="4.0" stroke-linejoin="round" stroke-linecap="butt" d="m676.92413 340.76767l-125.63385 0" fill-rule="evenodd"></path><path fill="#cccccc" stroke="#cccccc" stroke-width="4.0" stroke-linecap="butt" d="m676.92413 347.3746l18.152405 -6.6069336l-18.152405 -6.6069336z" fill-rule="evenodd"></path><path fill="#000000" fill-opacity="0.0" d="m552.16095 279.64413l0 120.5163" fill-rule="nonzero"></path><path stroke="#cccccc" stroke-width="4.0" stroke-linejoin="round" stroke-linecap="butt" d="m552.16095 279.64413l0 120.5163" fill-rule="nonzero"></path><path fill="#ff9900" d="m567.4639 312.8411l14.68158 0l0 27.42685l-14.68158 0z" fill-rule="nonzero"></path><path stroke="#cccccc" stroke-width="1.0" stroke-linejoin="round" stroke-linecap="butt" d="m567.4639 312.8411l14.68158 0l0 27.42685l-14.68158 0z" fill-rule="nonzero"></path><path fill="#ff9900" d="m589.5682 340.26794l14.681641 0l0 18.193054l-14.681641 0z" fill-rule="nonzero"></path><path stroke="#cccccc" stroke-width="1.0" stroke-linejoin="round" stroke-linecap="butt" d="m589.5682 340.26794l14.681641 0l0 18.193054l-14.681641 0z" fill-rule="nonzero"></path><path fill="#ff9900" d="m611.67126 371.95764l14.681641 0l0 -31.689697l-14.681641 0z" fill-rule="nonzero"></path><path stroke="#cccccc" stroke-width="1.0" stroke-linejoin="round" stroke-linecap="butt" d="m611.67126 371.95764l14.681641 0l0 -31.689697l-14.681641 0z" fill-rule="nonzero"></path><path fill="#ff9900" d="m633.7756 340.26794l14.68158 0l0 50.489685l-14.68158 0z" fill-rule="nonzero"></path><path stroke="#cccccc" stroke-width="1.0" stroke-linejoin="round" stroke-linecap="butt" d="m633.7756 340.26794l14.68158 0l0 50.489685l-14.68158 0z" fill-rule="nonzero"></path><path fill="#ff9900" d="m655.87866 325.58633l14.68158 0l0 14.68161l-14.68158 0z" fill-rule="nonzero"></path><path stroke="#cccccc" stroke-width="1.0" stroke-linejoin="round" stroke-linecap="butt" d="m655.87866 325.58633l14.68158 0l0 14.68161l-14.68158 0z" fill-rule="nonzero"></path><path fill="#000000" fill-opacity="0.0" d="m781.83307 46.791164l0 128.37794" fill-rule="nonzero"></path><path stroke="#cccccc" stroke-width="4.0" stroke-linejoin="round" stroke-linecap="butt" d="m781.83307 70.79116l0 89.21795" fill-rule="evenodd"></path><path fill="#cccccc" stroke="#cccccc" stroke-width="4.0" stroke-linecap="butt" d="m788.44 70.79116l-6.6069336 -18.152386l-6.6069336 18.152386z" fill-rule="evenodd"></path><path fill="#cccccc" stroke="#cccccc" stroke-width="4.0" stroke-linecap="butt" d="m781.83307 173.16911c-3.6340332 0 -6.579956 -2.9459686 -6.579956 -6.580002c0 -3.6340332 2.9459229 -6.580002 6.579956 -6.580002c3.6340332 0 6.580017 2.9459686 6.580017 6.580002c0 3.6340332 -2.945984 6.580002 -6.580017 6.580002z" fill-rule="nonzero"></path><path fill="#000000" fill-opacity="0.0" d="m902.5451 165.9688l-128.37793 0" fill-rule="nonzero"></path><path stroke="#cccccc" stroke-width="4.0" stroke-linejoin="round" stroke-linecap="butt" d="m878.5451 165.9688l-89.217896 0" fill-rule="evenodd"></path><path fill="#cccccc" stroke="#cccccc" stroke-width="4.0" stroke-linecap="butt" d="m878.5451 172.57571l18.152405 -6.6069183l-18.152405 -6.6069336z" fill-rule="evenodd"></path><path fill="#cccccc" stroke="#cccccc" stroke-width="4.0" stroke-linecap="butt" d="m776.1672 165.9688c0 -3.6340332 2.9459229 -6.580002 6.579956 -6.580002c3.6340332 0 6.580017 2.9459686 6.580017 6.580002c0 3.6340332 -2.945984 6.580002 -6.580017 6.580002c-3.6340332 0 -6.579956 -2.9459686 -6.579956 -6.580002z" fill-rule="nonzero"></path><path fill="#cccccc" d="m794.68256 143.57188l0 0c0 -1.7494507 1.4182129 -3.1676483 3.1676636 -3.1676483l0 0c0.8400879 0 1.645813 0.33372498 2.2398682 0.92778015c0.59399414 0.5940399 0.9277344 1.3997498 0.9277344 2.2398682l0 0c0 1.7494354 -1.4182129 3.167633 -3.1676025 3.167633l0 0c-1.7494507 0 -3.1676636 -1.4181976 -3.1676636 -3.167633z" fill-rule="nonzero"></path><path stroke="#cccccc" stroke-width="2.0" stroke-linejoin="round" stroke-linecap="butt" d="m794.68256 143.57188l0 0c0 -1.7494507 1.4182129 -3.1676483 3.1676636 -3.1676483l0 0c0.8400879 0 1.645813 0.33372498 2.2398682 0.92778015c0.59399414 0.5940399 0.9277344 1.3997498 0.9277344 2.2398682l0 0c0 1.7494354 -1.4182129 3.167633 -3.1676025 3.167633l0 0c-1.7494507 0 -3.1676636 -1.4181976 -3.1676636 -3.167633z" fill-rule="nonzero"></path><path fill="#cccccc" d="m808.5292 139.45418l0 0c0 -1.7494354 1.4182129 -3.167633 3.1676636 -3.167633l0 0c0.8400879 0 1.645813 0.33372498 2.2398682 0.92778015c0.5940552 0.5940399 0.9277344 1.3997498 0.9277344 2.239853l0 0c0 1.7494507 -1.4181519 3.1676483 -3.1676025 3.1676483l0 0c-1.7494507 0 -3.1676636 -1.4181976 -3.1676636 -3.1676483z" fill-rule="nonzero"></path><path stroke="#cccccc" stroke-width="2.0" stroke-linejoin="round" stroke-linecap="butt" d="m808.5292 139.45418l0 0c0 -1.7494354 1.4182129 -3.167633 3.1676636 -3.167633l0 0c0.8400879 0 1.645813 0.33372498 2.2398682 0.92778015c0.5940552 0.5940399 0.9277344 1.3997498 0.9277344 2.239853l0 0c0 1.7494507 -1.4181519 3.1676483 -3.1676025 3.1676483l0 0c-1.7494507 0 -3.1676636 -1.4181976 -3.1676636 -3.1676483z" fill-rule="nonzero"></path><path fill="#cccccc" d="m821.5148 141.03178l0 0c0 -1.7494507 1.4182129 -3.1676483 3.1676636 -3.1676483l0 0c0.8400879 0 1.645813 0.33374023 2.2398682 0.92778015c0.5940552 0.5940552 0.9277954 1.3997498 0.9277954 2.2398682l0 0c0 1.7494354 -1.4182129 3.1676483 -3.1676636 3.1676483l0 0c-1.7494507 0 -3.1676636 -1.4182129 -3.1676636 -3.1676483z" fill-rule="nonzero"></path><path stroke="#cccccc" stroke-width="2.0" stroke-linejoin="round" stroke-linecap="butt" d="m821.5148 141.03178l0 0c0 -1.7494507 1.4182129 -3.1676483 3.1676636 -3.1676483l0 0c0.8400879 0 1.645813 0.33374023 2.2398682 0.92778015c0.5940552 0.5940552 0.9277954 1.3997498 0.9277954 2.2398682l0 0c0 1.7494354 -1.4182129 3.1676483 -3.1676636 3.1676483l0 0c-1.7494507 0 -3.1676636 -1.4182129 -3.1676636 -3.1676483z" fill-rule="nonzero"></path><path fill="#cccccc" d="m817.94745 123.492676l0 0c0 -1.749443 1.4182129 -3.1676407 3.1676636 -3.1676407l0 0c0.8400879 0 1.645813 0.3337326 2.2398682 0.92778015c0.5940552 0.59404755 0.9277344 1.3997498 0.9277344 2.2398605l0 0c0 1.749443 -1.4181519 3.1676483 -3.1676025 3.1676483l0 0c-1.7494507 0 -3.1676636 -1.4182053 -3.1676636 -3.1676483z" fill-rule="nonzero"></path><path stroke="#cccccc" stroke-width="2.0" stroke-linejoin="round" stroke-linecap="butt" d="m817.94745 123.492676l0 0c0 -1.749443 1.4182129 -3.1676407 3.1676636 -3.1676407l0 0c0.8400879 0 1.645813 0.3337326 2.2398682 0.92778015c0.5940552 0.59404755 0.9277344 1.3997498 0.9277344 2.2398605l0 0c0 1.749443 -1.4181519 3.1676483 -3.1676025 3.1676483l0 0c-1.7494507 0 -3.1676636 -1.4182053 -3.1676636 -3.1676483z" fill-rule="nonzero"></path><path fill="#cccccc" d="m837.6157 134.24823l0 0c0 -1.7494354 1.4182129 -3.1676483 3.1676636 -3.1676483l0 0c0.8401489 0 1.645813 0.33374023 2.2398682 0.9277954c0.5940552 0.5940399 0.9277954 1.3997498 0.9277954 2.239853l0 0c0 1.7494507 -1.4182129 3.1676483 -3.1676636 3.1676483l0 0c-1.7494507 0 -3.1676636 -1.4181976 -3.1676636 -3.1676483z" fill-rule="nonzero"></path><path stroke="#cccccc" stroke-width="2.0" stroke-linejoin="round" stroke-linecap="butt" d="m837.6157 134.24823l0 0c0 -1.7494354 1.4182129 -3.1676483 3.1676636 -3.1676483l0 0c0.8401489 0 1.645813 0.33374023 2.2398682 0.9277954c0.5940552 0.5940399 0.9277954 1.3997498 0.9277954 2.239853l0 0c0 1.7494507 -1.4182129 3.1676483 -3.1676636 3.1676483l0 0c-1.7494507 0 -3.1676636 -1.4181976 -3.1676636 -3.1676483z" fill-rule="nonzero"></path><path fill="#cccccc" d="m855.1262 128.82564l0 0c0 -1.7494507 1.4182129 -3.167656 3.1676636 -3.167656l0 0c0.8400879 0 1.645813 0.33374023 2.2398682 0.9277878c0.59399414 0.59404755 0.9277344 1.3997498 0.9277344 2.2398682l0 0c0 1.7494354 -1.4182129 3.1676483 -3.1676025 3.1676483l0 0c-1.7494507 0 -3.1676636 -1.4182129 -3.1676636 -3.1676483z" fill-rule="nonzero"></path><path stroke="#cccccc" stroke-width="2.0" stroke-linejoin="round" stroke-linecap="butt" d="m855.1262 128.82564l0 0c0 -1.7494507 1.4182129 -3.167656 3.1676636 -3.167656l0 0c0.8400879 0 1.645813 0.33374023 2.2398682 0.9277878c0.59399414 0.59404755 0.9277344 1.3997498 0.9277344 2.2398682l0 0c0 1.7494354 -1.4182129 3.1676483 -3.1676025 3.1676483l0 0c-1.7494507 0 -3.1676636 -1.4182129 -3.1676636 -3.1676483z" fill-rule="nonzero"></path><path fill="#cccccc" d="m844.9957 128.82564l0 0c0 -1.7494507 1.4182129 -3.167656 3.1676636 -3.167656l0 0c0.8400879 0 1.645813 0.33374023 2.2398682 0.9277878c0.59399414 0.59404755 0.9277344 1.3997498 0.9277344 2.2398682l0 0c0 1.7494354 -1.4182129 3.1676483 -3.1676025 3.1676483l0 0c-1.7494507 0 -3.1676636 -1.4182129 -3.1676636 -3.1676483z" fill-rule="nonzero"></path><path stroke="#cccccc" stroke-width="2.0" stroke-linejoin="round" stroke-linecap="butt" d="m844.9957 128.82564l0 0c0 -1.7494507 1.4182129 -3.167656 3.1676636 -3.167656l0 0c0.8400879 0 1.645813 0.33374023 2.2398682 0.9277878c0.59399414 0.59404755 0.9277344 1.3997498 0.9277344 2.2398682l0 0c0 1.7494354 -1.4182129 3.1676483 -3.1676025 3.1676483l0 0c-1.7494507 0 -3.1676636 -1.4182129 -3.1676636 -3.1676483z" fill-rule="nonzero"></path><path fill="#cccccc" d="m851.331 117.33544l0 0c0 -1.749443 1.4182129 -3.1676483 3.1676636 -3.1676483l0 0c0.8400879 0 1.645813 0.3337326 2.2398682 0.92778015c0.5940552 0.59404755 0.9277954 1.3997574 0.9277954 2.2398682l0 0c0 1.749443 -1.4182129 3.1676483 -3.1676636 3.1676483l0 0c-1.7494507 0 -3.1676636 -1.4182053 -3.1676636 -3.1676483z" fill-rule="nonzero"></path><path stroke="#cccccc" stroke-width="2.0" stroke-linejoin="round" stroke-linecap="butt" d="m851.331 117.33544l0 0c0 -1.749443 1.4182129 -3.1676483 3.1676636 -3.1676483l0 0c0.8400879 0 1.645813 0.3337326 2.2398682 0.92778015c0.5940552 0.59404755 0.9277954 1.3997574 0.9277954 2.2398682l0 0c0 1.749443 -1.4182129 3.1676483 -3.1676636 3.1676483l0 0c-1.7494507 0 -3.1676636 -1.4182053 -3.1676636 -3.1676483z" fill-rule="nonzero"></path><path fill="#cccccc" d="m843.95105 111.00077l0 0c0 -1.749443 1.4182129 -3.1676483 3.1676636 -3.1676483l0 0c0.8400879 0 1.645813 0.3337326 2.2398682 0.92778015c0.59399414 0.59404755 0.9277344 1.3997498 0.9277344 2.2398682l0 0c0 1.749443 -1.4182129 3.1676483 -3.1676025 3.1676483l0 0c-1.7494507 0 -3.1676636 -1.4182053 -3.1676636 -3.1676483z" fill-rule="nonzero"></path><path stroke="#cccccc" stroke-width="2.0" stroke-linejoin="round" stroke-linecap="butt" d="m843.95105 111.00077l0 0c0 -1.749443 1.4182129 -3.1676483 3.1676636 -3.1676483l0 0c0.8400879 0 1.645813 0.3337326 2.2398682 0.92778015c0.59399414 0.59404755 0.9277344 1.3997498 0.9277344 2.2398682l0 0c0 1.749443 -1.4182129 3.1676483 -3.1676025 3.1676483l0 0c-1.7494507 0 -3.1676636 -1.4182053 -3.1676636 -3.1676483z" fill-rule="nonzero"></path><path fill="#cccccc" d="m807.81696 152.41739l0 0c0 -1.7494507 1.4182129 -3.1676483 3.1676636 -3.1676483l0 0c0.8400879 0 1.645813 0.33372498 2.2398682 0.92778015c0.5940552 0.5940399 0.9277344 1.3997498 0.9277344 2.2398682l0 0c0 1.7494354 -1.4181519 3.1676483 -3.1676025 3.1676483l0 0c-1.7494507 0 -3.1676636 -1.4182129 -3.1676636 -3.1676483z" fill-rule="nonzero"></path><path stroke="#cccccc" stroke-width="2.0" stroke-linejoin="round" stroke-linecap="butt" d="m807.81696 152.41739l0 0c0 -1.7494507 1.4182129 -3.1676483 3.1676636 -3.1676483l0 0c0.8400879 0 1.645813 0.33372498 2.2398682 0.92778015c0.5940552 0.5940399 0.9277344 1.3997498 0.9277344 2.2398682l0 0c0 1.7494354 -1.4181519 3.1676483 -3.1676025 3.1676483l0 0c-1.7494507 0 -3.1676636 -1.4182129 -3.1676636 -3.1676483z" fill-rule="nonzero"></path><path fill="#cccccc" d="m833.82056 122.49034l0 0c0 -1.749443 1.4182129 -3.1676483 3.1676636 -3.1676483l0 0c0.8400879 0 1.645813 0.3337326 2.2398682 0.92778015c0.59399414 0.59404755 0.9277344 1.3997498 0.9277344 2.2398682l0 0c0 1.749443 -1.4182129 3.1676407 -3.1676025 3.1676407l0 0c-1.7494507 0 -3.1676636 -1.4181976 -3.1676636 -3.1676407z" fill-rule="nonzero"></path><path stroke="#cccccc" stroke-width="2.0" stroke-linejoin="round" stroke-linecap="butt" d="m833.82056 122.49034l0 0c0 -1.749443 1.4182129 -3.1676483 3.1676636 -3.1676483l0 0c0.8400879 0 1.645813 0.3337326 2.2398682 0.92778015c0.59399414 0.59404755 0.9277344 1.3997498 0.9277344 2.2398682l0 0c0 1.749443 -1.4182129 3.1676407 -3.1676025 3.1676407l0 0c-1.7494507 0 -3.1676636 -1.4181976 -3.1676636 -3.1676407z" fill-rule="nonzero"></path><path fill="#cccccc" d="m825.53784 131.08308l0 0c0 -1.7494507 1.4182129 -3.1676483 3.1676636 -3.1676483l0 0c0.8400879 0 1.645813 0.33372498 2.2398682 0.92778015c0.5940552 0.5940552 0.9277954 1.3997498 0.9277954 2.2398682l0 0c0 1.7494354 -1.4182129 3.1676483 -3.1676636 3.1676483l0 0c-1.7494507 0 -3.1676636 -1.4182129 -3.1676636 -3.1676483z" fill-rule="nonzero"></path><path stroke="#cccccc" stroke-width="2.0" stroke-linejoin="round" stroke-linecap="butt" d="m825.53784 131.08308l0 0c0 -1.7494507 1.4182129 -3.1676483 3.1676636 -3.1676483l0 0c0.8400879 0 1.645813 0.33372498 2.2398682 0.92778015c0.5940552 0.5940552 0.9277954 1.3997498 0.9277954 2.2398682l0 0c0 1.7494354 -1.4182129 3.1676483 -3.1676636 3.1676483l0 0c-1.7494507 0 -3.1676636 -1.4182129 -3.1676636 -3.1676483z" fill-rule="nonzero"></path><path fill="#990000" d="m862.77264 71.84409l0 0c0 -1.7494507 1.4182129 -3.1676483 3.1676636 -3.1676483l0 0c0.8400879 0 1.645813 0.3337326 2.2398682 0.92778015c0.5940552 0.59404755 0.9277344 1.3997498 0.9277344 2.2398682l0 0c0 1.749443 -1.4181519 3.1676407 -3.1676025 3.1676407l0 0c-1.7494507 0 -3.1676636 -1.4181976 -3.1676636 -3.1676407z" fill-rule="nonzero"></path><path stroke="#cccccc" stroke-width="1.0" stroke-linejoin="round" stroke-linecap="butt" d="m862.77264 71.84409l0 0c0 -1.7494507 1.4182129 -3.1676483 3.1676636 -3.1676483l0 0c0.8400879 0 1.645813 0.3337326 2.2398682 0.92778015c0.5940552 0.59404755 0.9277344 1.3997498 0.9277344 2.2398682l0 0c0 1.749443 -1.4181519 3.1676407 -3.1676025 3.1676407l0 0c-1.7494507 0 -3.1676636 -1.4181976 -3.1676636 -3.1676407z" fill-rule="nonzero"></path><path fill="#000000" fill-opacity="0.0" d="m119.54855 280.3386c5.311905 14.7283325 10.140854 64.94968 31.871399 88.370056c21.73053 23.42041 82.09317 43.460205 98.51181 52.152252" fill-rule="nonzero"></path><path stroke="#cccccc" stroke-width="4.0" stroke-linejoin="round" stroke-linecap="butt" d="m123.27397 295.03372l0.43959045 2.0327148c1.539238 7.145355 3.319931 15.535706 5.6137085 24.197662c4.5875397 17.323944 11.227417 35.734344 22.092682 47.44455c10.865265 11.710236 31.388565 22.575256 51.247864 31.599243c4.9648285 2.256012 9.888168 4.396942 14.608704 6.407257c2.3602753 1.0051575 4.669861 1.9776306 6.9085846 2.9155579c1.1193542 0.46896362 2.2210083 0.92926025 3.302414 1.3806458l0.4710846 0.19656372" fill-rule="evenodd"></path><path fill="#cccccc" stroke="#cccccc" stroke-width="4.0" stroke-linecap="butt" d="m120.04004 282.27725c3.5225983 -0.8930359 7.102165 1.238678 7.9951935 4.761261c0.8930359 3.5226135 -1.2386627 7.102173 -4.761261 7.9952087c-3.5225983 0.8930054 -7.102165 -1.238678 -7.9951935 -4.761261c-0.89302826 -3.5226135 1.2386627 -7.102173 4.761261 -7.9952087z" fill-rule="nonzero"></path><path fill="#cccccc" stroke="#cccccc" stroke-width="4.0" stroke-linecap="butt" d="m225.30124 417.25687l19.276749 1.2520752l-13.962036 -13.350006z" fill-rule="evenodd"></path><path fill="#000000" fill-opacity="0.0" d="m462.06824 474.52756c11.348206 1.448822 46.60019 16.17804 68.08923 8.692902c21.489075 -7.4851074 50.704285 -44.66971 60.845154 -53.60367" fill-rule="nonzero"></path><path stroke="#cccccc" stroke-width="4.0" stroke-linejoin="round" stroke-linecap="butt" d="m476.77805 478.19458l1.7826843 0.4987793c1.413147 0.39266968 2.8736267 0.7938843 4.372345 1.1950073c2.9973755 0.8022156 6.1475525 1.6039124 9.376953 2.3358765c12.917664 2.9277344 27.102936 4.7387695 37.847443 0.9962158c10.744507 -3.7425232 23.420593 -14.909973 34.67816 -26.258514c2.814392 -2.8371582 5.5401 -5.6855774 8.124817 -8.432159l1.4625244 -1.5603027" fill-rule="evenodd"></path><path fill="#cccccc" stroke="#cccccc" stroke-width="4.0" stroke-linecap="butt" d="m464.00885 475.01132c0.8790283 -3.5260925 4.4501038 -5.671997 7.976227 -4.7929688c3.526123 0.8790283 5.671997 4.4501343 4.7929688 7.976227c-0.8790283 3.526123 -4.4501038 5.6720276 -7.976227 4.7929993c-3.526123 -0.87905884 -5.671997 -4.4501343 -4.7929688 -7.9762573z" fill-rule="nonzero"></path><path fill="#cccccc" stroke="#cccccc" stroke-width="4.0" stroke-linecap="butt" d="m579.19995 451.53366l7.7630615 -17.688873l-17.317017 8.560486z" fill-rule="evenodd"></path><path fill="#000000" fill-opacity="0.0" d="m739.5906 312.27914c8.45874 -3.8578491 35.353516 -12.538116 50.752747 -23.147125c15.399231 -10.609009 32.532898 -27.004639 41.642456 -40.506958c9.109558 -13.502319 10.845642 -33.7558 13.014709 -40.506958" fill-rule="nonzero"></path><path stroke="#cccccc" stroke-width="4.0" stroke-linejoin="round" stroke-linecap="butt" d="m753.6825 306.68964l1.6234131 -0.6324158c2.2596436 -0.8834839 4.631897 -1.8253479 7.0584106 -2.8199463c9.705872 -3.978424 20.279358 -8.800751 27.979004 -14.105255c15.399231 -10.609009 32.532898 -27.004639 41.642517 -40.506958c2.2773438 -3.3755798 4.093872 -7.173111 5.571594 -11.076111c0.73883057 -1.9515076 1.3929443 -3.9293823 1.9776001 -5.8940735l0.045898438 -0.15667725" fill-rule="evenodd"></path><path fill="#cccccc" stroke="#cccccc" stroke-width="4.0" stroke-linecap="butt" d="m741.44965 311.54175c-1.3399048 -3.3779907 0.31237793 -7.202606 3.6903687 -8.54248c3.3779907 -1.3398743 7.2025757 0.3123474 8.54248 3.6903687c1.3398438 3.3779907 -0.31237793 7.202606 -3.6903687 8.54248c-3.3779907 1.3398743 -7.2025757 -0.3123474 -8.54248 -3.6903687z" fill-rule="nonzero"></path><path fill="#cccccc" stroke="#cccccc" stroke-width="4.0" stroke-linecap="butt" d="m846.0173 232.99014l-2.3372192 -19.17546l-10.535339 16.19159z" fill-rule="evenodd"></path><path fill="#000000" fill-opacity="0.0" d="m67.002625 91.07087l137.5748 0l0 37.511803l-137.5748 0z" fill-rule="nonzero"></path><path fill="#cccccc" d="m90.283875 107.563995l-6.078125 0l0 15.546875l-1.671875 0l0 -15.546875l-6.078125 0l0 -1.5l13.828125 0l0 1.5zm2.610962 15.546875l0 -17.046875l7.1875 0q1.09375 0 2.03125 0.46875q0.9375 0.46875 1.609375 1.234375q0.671875 0.75 1.046875 1.71875q0.375 0.953125 0.375 1.9375q0 0.9375 -0.28125 1.796875q-0.28125 0.84375 -0.78125 1.53125q-0.5 0.671875 -1.203125 1.140625q-0.6875 0.46875 -1.5625 0.640625l4.203125 6.578125l-1.890625 0l-4.03125 -6.28125l-5.046875 0l0 6.28125l-1.65625 0zm1.65625 -7.78125l5.59375 0q0.75 0 1.359375 -0.3125q0.609375 -0.328125 1.03125 -0.875q0.4375 -0.5625 0.671875 -1.25q0.25 -0.703125 0.25 -1.46875q0 -0.765625 -0.28125 -1.46875q-0.265625 -0.71875 -0.734375 -1.234375q-0.46875 -0.53125 -1.109375 -0.84375q-0.640625 -0.3125 -1.328125 -0.3125l-5.453125 0l0 7.765625zm14.183701 7.78125l0 -17.046875l11.15625 0l0 1.5l-9.5 0l0 6.265625l8.046875 0l0 1.390625l-8.046875 0l0 7.890625l-1.65625 0zm18.933945 -2.140625q0.53125 0.359375 1.359375 0.625q0.828125 0.265625 1.859375 0.265625q1.296875 0 2.078125 -0.46875q0.78125 -0.46875 1.1875 -1.375q0.40625 -0.921875 0.53125 -2.25q0.125 -1.328125 0.125 -3.03125l0 -8.640625l1.671875 0l0 8.640625q0 1.9375 -0.1875 3.546875q-0.171875 1.59375 -0.75 2.71875q-0.578125 1.125 -1.6875 1.75q-1.09375 0.625 -2.96875 0.625q-2.15625 0 -3.6875 -1.0625l0.46875 -1.34375zm24.492096 0.625q-0.984375 0.765625 -2.15625 1.203125q-1.15625 0.4375 -2.5 0.4375q-1.78125 0 -3.265625 -0.75q-1.46875 -0.75 -2.53125 -1.9375q-1.046875 -1.203125 -1.625 -2.765625q-0.578125 -1.5625 -0.578125 -3.1875q0 -1.703125 0.609375 -3.265625q0.609375 -1.5625 1.6875 -2.765625q1.09375 -1.203125 2.546875 -1.90625q1.46875 -0.703125 3.171875 -0.703125q1.78125 0 3.25 0.765625q1.484375 0.75 2.515625 1.96875q1.046875 1.21875 1.625 2.765625q0.578125 1.546875 0.578125 3.15625q0 1.75 -0.640625 3.34375q-0.625 1.578125 -1.765625 2.78125l2.03125 2.375l-1.65625 0l-1.296875 -1.515625zm-4.65625 0.125q1.078125 0 1.984375 -0.34375q0.90625 -0.359375 1.6875 -0.953125l-2.140625 -2.546875l1.65625 0l1.359375 1.640625q0.84375 -1.015625 1.296875 -2.296875q0.46875 -1.28125 0.46875 -2.625q0 -1.390625 -0.46875 -2.671875q-0.46875 -1.296875 -1.3125 -2.28125q-0.84375 -0.984375 -2.0 -1.578125q-1.140625 -0.59375 -2.53125 -0.59375q-1.453125 0 -2.625 0.609375q-1.171875 0.609375 -2.0 1.625q-0.8125 1.0 -1.25 2.28125q-0.4375 1.28125 -0.4375 2.609375q0 1.390625 0.453125 2.671875q0.453125 1.28125 1.296875 2.28125q0.84375 1.0 1.984375 1.59375q1.15625 0.578125 2.578125 0.578125zm11.222076 1.390625l0 -17.046875l1.65625 0l0 15.5625l9.875 0l0 1.484375l-11.53125 0z" fill-rule="nonzero"></path><path fill="#000000" fill-opacity="0.0" d="m300.8609 327.93176l137.5748 0l0 37.51181l-137.5748 0z" fill-rule="nonzero"></path><path fill="#cccccc" d="m311.90778 342.9249l6.09375 14.953125l6.046875 -14.953125l1.765625 0l-7.09375 17.046875l-1.46875 0l-7.109375 -17.046875l1.765625 0zm22.716705 0.125l1.609375 0l2.40625 6.046875l2.421875 -6.046875l1.578125 0l-2.96875 7.28125l3.265625 7.703125l6.15625 -15.109375l1.828125 0l-7.203125 17.046875l-1.484375 0l-3.578125 -8.421875l-3.59375 8.421875l-1.484375 0l-7.1875 -17.046875l1.78125 0l6.1875 15.109375l3.25 -7.703125l-2.984375 -7.28125zm18.572662 -0.125l5.59375 7.453125l5.59375 -7.453125l1.859375 0l-6.5625 8.640625l6.359375 8.40625l-1.84375 0l-5.40625 -7.203125l-5.390625 7.203125l-1.875 0l6.359375 -8.40625l-6.546875 -8.640625l1.859375 0zm21.459808 17.046875l0 -17.046875l5.765625 0q2.03125 0 3.5625 0.671875q1.546875 0.671875 2.5625 1.828125q1.03125 1.15625 1.53125 2.703125q0.5 1.546875 0.5 3.296875q0 1.953125 -0.578125 3.53125q-0.578125 1.5625 -1.640625 2.6875q-1.046875 1.109375 -2.5625 1.71875q-1.5 0.609375 -3.375 0.609375l-5.765625 0zm12.25 -8.546875q0 -1.53125 -0.4375 -2.8125q-0.4375 -1.28125 -1.265625 -2.21875q-0.828125 -0.9375 -2.03125 -1.453125q-1.1875 -0.515625 -2.75 -0.515625l-4.109375 0l0 14.0625l4.109375 0q1.578125 0 2.78125 -0.53125q1.21875 -0.546875 2.03125 -1.5q0.828125 -0.953125 1.25 -2.234375q0.421875 -1.28125 0.421875 -2.796875zm4.981964 8.546875l0 -17.046875l11.15625 0l0 1.5l-9.5 0l0 6.265625l8.046875 0l0 1.390625l-8.046875 0l0 7.890625l-1.65625 0zm14.0399475 0l0 -17.046875l7.1875 0q1.09375 0 2.03125 0.46875q0.9375 0.46875 1.609375 1.234375q0.671875 0.75 1.046875 1.71875q0.375 0.953125 0.375 1.9375q0 0.9375 -0.28125 1.796875q-0.28125 0.84375 -0.78125 1.53125q-0.5 0.671875 -1.203125 1.140625q-0.6875 0.46875 -1.5625 0.640625l4.203125 6.578125l-1.890625 0l-4.03125 -6.28125l-5.046875 0l0 6.28125l-1.65625 0zm1.65625 -7.78125l5.59375 0q0.75 0 1.359375 -0.3125q0.609375 -0.328125 1.03125 -0.875q0.4375 -0.5625 0.671875 -1.25q0.25 -0.703125 0.25 -1.46875q0 -0.765625 -0.28125 -1.46875q-0.265625 -0.71875 -0.734375 -1.234375q-0.46875 -0.53125 -1.109375 -0.84375q-0.640625 -0.3125 -1.328125 -0.3125l-5.453125 0l0 7.765625z" fill-rule="nonzero"></path><path fill="#000000" fill-opacity="0.0" d="m577.2336 228.32677l137.57483 0l0 37.511826l-137.57483 0z" fill-rule="nonzero"></path><path fill="#cccccc" d="m588.38983 260.36676l0 -17.04686l7.1875 0q1.09375 0 2.03125 0.46875q0.9375 0.46875 1.609375 1.234375q0.671875 0.75 1.046875 1.71875q0.375 0.953125 0.375 1.9375q0 0.9375 -0.28125 1.796875q-0.28125 0.84375 -0.78125 1.53125q-0.5 0.671875 -1.203125 1.140625q-0.6875 0.46875 -1.5625 0.640625l4.203125 6.5781097l-1.890625 0l-4.03125 -6.2812347l-5.046875 0l0 6.2812347l-1.65625 0zm1.65625 -7.7812347l5.59375 0q0.75 0 1.359375 -0.3125q0.609375 -0.328125 1.03125 -0.875q0.4375 -0.5625 0.671875 -1.25q0.25 -0.703125 0.25 -1.46875q0 -0.765625 -0.28125 -1.46875q-0.265625 -0.71875 -0.734375 -1.234375q-0.46875 -0.53125 -1.109375 -0.84375q-0.640625 -0.3125 -1.328125 -0.3125l-5.453125 0l0 7.765625zm26.527466 5.3124847q-2.375 2.59375 -5.453125 2.59375q-1.734375 0 -3.1875 -0.75q-1.4375 -0.75 -2.515625 -1.96875q-1.0625 -1.21875 -1.671875 -2.7656097q-0.59375 -1.546875 -0.59375 -3.1875q0 -1.703125 0.578125 -3.265625q0.59375 -1.5625 1.640625 -2.75q1.046875 -1.1875 2.5 -1.890625q1.453125 -0.703125 3.15625 -0.703125q1.25 0 2.265625 0.28125q1.015625 0.265625 1.8125 0.765625q0.8125 0.484375 1.40625 1.171875q0.609375 0.6875 1.015625 1.5l-1.296875 0.859375q-0.84375 -1.578125 -2.1875 -2.3125q-1.34375 -0.75 -3.046875 -0.75q-1.40625 0 -2.546875 0.59375q-1.140625 0.59375 -1.953125 1.59375q-0.796875 1.0 -1.234375 2.28125q-0.421875 1.28125 -0.421875 2.65625q0 1.4375 0.484375 2.734375q0.5 1.296875 1.359375 2.2656097q0.859375 0.96875 2.015625 1.546875q1.171875 0.578125 2.546875 0.578125q1.453125 0 2.765625 -0.6875q1.328125 -0.6875 2.5625 -2.140625l0 -2.8593597l-3.765625 0l0 -1.296875l5.203125 0l0 8.374985l-1.4375 0l0 -2.46875zm17.109192 -13.07811l-6.078125 0l0 15.54686l-1.671875 0l0 -15.54686l-6.078125 0l0 -1.5l13.828125 0l0 1.5zm8.754944 15.54686l0 -17.04686l5.765625 0q2.03125 0 3.5625 0.671875q1.546875 0.671875 2.5625 1.828125q1.03125 1.15625 1.53125 2.703125q0.5 1.546875 0.5 3.296875q0 1.953125 -0.578125 3.53125q-0.578125 1.5624847 -1.640625 2.6874847q-1.046875 1.109375 -2.5625 1.71875q-1.5 0.609375 -3.375 0.609375l-5.765625 0zm12.25 -8.54686q0 -1.53125 -0.4375 -2.8125q-0.4375 -1.28125 -1.265625 -2.21875q-0.828125 -0.9375 -2.03125 -1.453125q-1.1875 -0.515625 -2.75 -0.515625l-4.109375 0l0 14.062485l4.109375 0q1.578125 0 2.78125 -0.53125q1.21875 -0.546875 2.03125 -1.5q0.828125 -0.95310974 1.25 -2.2343597q0.421875 -1.28125 0.421875 -2.796875zm16.435059 7.0624847l0 1.484375l-11.453125 0l0 -17.04686l11.234375 0l0 1.5l-9.578125 0l0 6.140625l8.359375 0l0 1.421875l-8.359375 0l0 6.4999847l9.796875 0zm3.25885 1.484375l0 -17.04686l11.15625 0l0 1.5l-9.5 0l0 6.265625l8.046875 0l0 1.390625l-8.046875 0l0 7.8906097l-1.65625 0z" fill-rule="nonzero"></path><path fill="#000000" fill-opacity="0.0" d="m795.4252 11.560368l137.57483 0l0 37.51181l-137.57483 0z" fill-rule="nonzero"></path><path fill="#cccccc" d="m805.09705 42.28787l11.59375 -14.234375l-11.40625 0l0 -1.5l13.34375 0l0 1.328125l-11.4375 14.234375l11.421875 0l0 1.484375l-13.515625 0l0 -1.3125zm27.913452 -0.171875l0 1.484375l-11.453125 0l0 -17.046875l11.234375 0l0 1.5l-9.578125 0l0 6.140625l8.359375 0l0 1.421875l-8.359375 0l0 6.5l9.796875 0zm3.25885 1.484375l0 -17.046875l11.15625 0l0 1.5l-9.5 0l0 6.265625l8.046875 0l0 1.390625l-8.046875 0l0 7.890625l-1.65625 0zm20.18396 0l0 -17.046875l1.65625 0l0 15.5625l9.875 0l0 1.484375l-11.53125 0zm13.988098 -17.046875l5.59375 7.453125l5.59375 -7.453125l1.859375 0l-6.5625 8.640625l6.359375 8.40625l-1.84375 0l-5.40625 -7.203125l-5.390625 7.203125l-1.875 0l6.359375 -8.40625l-6.546875 -8.640625l1.859375 0zm15.315796 17.046875l0 -17.046875l7.1875 0q1.09375 0 2.03125 0.46875q0.9375 0.46875 1.609375 1.234375q0.671875 0.75 1.046875 1.71875q0.375 0.953125 0.375 1.9375q0 0.9375 -0.28125 1.796875q-0.28125 0.84375 -0.78125 1.53125q-0.5 0.671875 -1.203125 1.140625q-0.6875 0.46875 -1.5625 0.640625l4.203125 6.578125l-1.890625 0l-4.03125 -6.28125l-5.046875 0l0 6.28125l-1.65625 0zm1.65625 -7.78125l5.59375 0q0.75 0 1.359375 -0.3125q0.609375 -0.328125 1.03125 -0.875q0.4375 -0.5625 0.671875 -1.25q0.25 -0.703125 0.25 -1.46875q0 -0.765625 -0.28125 -1.46875q-0.265625 -0.71875 -0.734375 -1.234375q-0.46875 -0.53125 -1.109375 -0.84375q-0.640625 -0.3125 -1.328125 -0.3125l-5.453125 0l0 7.765625z" fill-rule="nonzero"></path><path fill="#000000" fill-opacity="0.0" d="m66.3294 370.15738c4.2064743 0.664032 19.482498 -2.4361267 25.238846 3.984253c5.75634 6.4203796 8.4133835 24.353455 9.29921 34.538055c0.8858261 10.184601 -5.977257 18.156158 -3.984253 26.56955c1.9930038 8.413391 16.828087 18.81845 15.942261 23.910767c-0.8858261 5.092285 -18.157486 2.2147827 -21.257217 6.643036c-3.099739 4.428253 3.3228302 12.398956 2.6587906 19.926514c-0.6640396 7.5275574 0.44181824 21.475067 -6.6430435 25.238861c-7.0848694 3.7637634 -26.788715 0.664917 -35.866146 -2.656189c-9.077427 -3.3210754 -15.498684 -14.391937 -18.598423 -17.270325" fill-rule="nonzero"></path><path stroke="#cccccc" stroke-width="4.0" stroke-linejoin="round" stroke-linecap="butt" d="m66.3294 370.15738c4.2064743 0.664032 19.482498 -2.4361267 25.238846 3.984253c5.75634 6.4203796 8.4133835 24.353455 9.29921 34.538055c0.8858261 10.184601 -5.977257 18.156158 -3.984253 26.56955c1.9930038 8.413391 16.828087 18.81845 15.942261 23.910767c-0.8858261 5.092285 -18.157486 2.2147827 -21.257217 6.643036c-3.099739 4.428253 3.3228302 12.398956 2.6587906 19.926514c-0.6640396 7.5275574 0.44181824 21.475067 -6.6430435 25.238861c-7.0848694 3.7637634 -26.788715 0.664917 -35.866146 -2.656189c-9.077427 -3.3210754 -15.498684 -14.391937 -18.598423 -17.270325" fill-rule="nonzero"></path><path fill="#cccccc" d="m69.20112 407.27692l0 0c0 -5.0792847 4.117569 -9.196869 9.196846 -9.196869l0 0c2.4391556 0 4.778412 0.9689636 6.5031586 2.693695c1.7247391 1.724762 2.693695 4.0639954 2.693695 6.503174l0 0c0 5.079254 -4.117569 9.196838 -9.196854 9.196838l0 0c-5.079277 0 -9.196846 -4.117584 -9.196846 -9.196838z" fill-rule="nonzero"></path><path stroke="#999999" stroke-width="2.0" stroke-linejoin="round" stroke-linecap="butt" d="m69.20112 407.27692l0 0c0 -5.0792847 4.117569 -9.196869 9.196846 -9.196869l0 0c2.4391556 0 4.778412 0.9689636 6.5031586 2.693695c1.7247391 1.724762 2.693695 4.0639954 2.693695 6.503174l0 0c0 5.079254 -4.117569 9.196838 -9.196854 9.196838l0 0c-5.079277 0 -9.196846 -4.117584 -9.196846 -9.196838z" fill-rule="nonzero"></path><path fill="#000000" fill-opacity="0.0" d="m57.089237 473.8284c1.9925652 1.5498962 6.198601 7.306671 11.9553795 9.299225c5.7567825 1.9925537 18.82109 2.2134705 22.585304 2.6561584" fill-rule="nonzero"></path><path stroke="#cccccc" stroke-width="4.0" stroke-linejoin="round" stroke-linecap="butt" d="m57.089237 473.8284c1.9925652 1.5498962 6.198601 7.306671 11.9553795 9.299225c5.7567825 1.9925537 18.82109 2.2134705 22.585304 2.6561584" fill-rule="nonzero"></path><path fill="#000000" fill-opacity="0.0" d="m131.59941 541.72406l-17.543312 -35.55902" fill-rule="nonzero"></path><path stroke="#cccccc" stroke-width="2.0" stroke-linejoin="round" stroke-linecap="butt" d="m131.59941 541.72406l-17.543312 -35.55902" fill-rule="nonzero"></path><path fill="#000000" fill-opacity="0.0" d="m120.884514 480.4987l42.551186 -30.48819" fill-rule="nonzero"></path><path stroke="#cccccc" stroke-width="2.0" stroke-linejoin="round" stroke-linecap="butt" d="m120.884514 480.4987l42.551186 -30.48819" fill-rule="nonzero"></path><path fill="#000000" fill-opacity="0.0" d="m120.88386 485.81366l50.488197 -9.291351" fill-rule="nonzero"></path><path stroke="#cccccc" stroke-width="2.0" stroke-linejoin="round" stroke-linecap="butt" d="m120.88386 485.81366l50.488197 -9.291351" fill-rule="nonzero"></path><path fill="#000000" fill-opacity="0.0" d="m119.55577 491.12762l45.16536 11.968506" fill-rule="nonzero"></path><path stroke="#cccccc" stroke-width="2.0" stroke-linejoin="round" stroke-linecap="butt" d="m119.55577 491.12762l45.16536 11.968506" fill-rule="nonzero"></path><path fill="#000000" fill-opacity="0.0" d="m117.56102 497.49344l40.503937 28.157501" fill-rule="nonzero"></path><path stroke="#cccccc" stroke-width="2.0" stroke-linejoin="round" stroke-linecap="butt" d="m117.56102 497.49344l40.503937 28.157501" fill-rule="nonzero"></path><path fill="#000000" fill-opacity="0.0" d="m285.9231 494.5118l27.721466 -48.391968l18.874084 18.698395l21.233917 -43.9917l17.693573 9.897858l26.542114 -47.29242" fill-rule="nonzero"></path><path stroke="#ff9900" stroke-width="4.0" stroke-linejoin="round" stroke-linecap="butt" d="m285.9231 494.5118l27.721466 -48.391937l18.874084 18.698364l21.233887 -43.9917l17.693573 9.897858l14.79599 -26.363312" fill-rule="evenodd"></path><path fill="#ff9900" stroke="#ff9900" stroke-width="4.0" stroke-linecap="butt" d="m392.00366 407.59467l3.1226196 -19.063324l-14.645752 12.596161z" fill-rule="evenodd"></path><path fill="#000000" fill-opacity="0.0" d="m286.70572 371.7756l0 126.04724" fill-rule="nonzero"></path><path stroke="#cccccc" stroke-width="4.0" stroke-linejoin="round" stroke-linecap="butt" d="m286.70572 395.7756l0 86.88724" fill-rule="evenodd"></path><path fill="#cccccc" stroke="#cccccc" stroke-width="4.0" stroke-linecap="butt" d="m293.31265 395.7756l-6.6069336 -18.152405l-6.6069336 18.152405z" fill-rule="evenodd"></path><path fill="#cccccc" stroke="#cccccc" stroke-width="4.0" stroke-linecap="butt" d="m286.70572 495.82285c-3.6340332 0 -6.580017 -2.945984 -6.580017 -6.580017c0 -3.6340332 2.945984 -6.5799866 6.580017 -6.5799866c3.6340332 0 6.5799866 2.9459534 6.5799866 6.5799866c0 3.6340332 -2.9459534 6.580017 -6.5799866 6.580017z" fill-rule="nonzero"></path><path fill="#000000" fill-opacity="0.0" d="m404.43692 488.73608l-126.078735 0" fill-rule="nonzero"></path><path stroke="#cccccc" stroke-width="4.0" stroke-linejoin="round" stroke-linecap="butt" d="m380.43692 488.73608l-86.91873 0" fill-rule="evenodd"></path><path fill="#cccccc" stroke="#cccccc" stroke-width="4.0" stroke-linecap="butt" d="m380.43692 495.34302l18.152405 -6.6069336l-18.152405 -6.606903z" fill-rule="evenodd"></path><path fill="#cccccc" stroke="#cccccc" stroke-width="4.0" stroke-linecap="butt" d="m280.3582 488.73608c0 -3.6340332 2.9459534 -6.5799866 6.5799866 -6.5799866c3.6340332 0 6.580017 2.9459534 6.580017 6.5799866c0 3.6340332 -2.945984 6.580017 -6.580017 6.580017c-3.6340332 0 -6.5799866 -2.945984 -6.5799866 -6.580017z" fill-rule="nonzero"></path></g></svg>

