<?xml version="1.0" standalone="yes"?>

<svg version="1.1" viewBox="0.0 0.0 960.0 540.0" fill="none" stroke="none" stroke-linecap="square" stroke-miterlimit="10" xmlns="http://www.w3.org/2000/svg" xmlns:xlink="http://www.w3.org/1999/xlink"><clipPath id="p.0"><path d="m0 0l960.0 0l0 540.0l-960.0 0l0 -540.0z" clip-rule="nonzero"></path></clipPath><g clip-path="url(#p.0)"><path fill="#000000" fill-opacity="0.0" d="m0 0l960.0 0l0 540.0l-960.0 0z" fill-rule="nonzero"></path><path fill="#000000" fill-opacity="0.0" d="m676.19147 53.1861c-4.2540283 0.1986084 -19.098328 -4.5587463 -25.524475 1.1916466c-6.4260864 5.750389 -11.034485 23.284386 -13.032227 33.310707c-1.9977417 10.026314 3.949646 18.702934 1.0456543 26.847206c-2.9039917 8.144272 -18.791504 16.859512 -18.469604 22.018433c0.3218994 5.1589203 17.805603 4.1933746 20.40094 8.935104c2.595337 4.7417297 -4.663086 11.960037 -4.8287964 19.515274c-0.16571045 7.555237 -2.794983 21.297745 3.8344727 25.816162c6.6295166 4.518402 26.555054 3.59964 35.942383 1.294281c9.387268 -2.305359 16.984436 -12.605392 20.381348 -15.126465" fill-rule="nonzero"></path><path stroke="#cccccc" stroke-width="4.0" stroke-linejoin="round" stroke-linecap="butt" d="m676.19147 53.1861c-4.2540283 0.1986084 -19.098328 -4.5587463 -25.524475 1.1916466c-6.4260864 5.750389 -11.034485 23.284386 -13.032227 33.310707c-1.9977417 10.026314 3.949646 18.702934 1.0456543 26.847206c-2.9039917 8.144272 -18.791504 16.859512 -18.469604 22.018433c0.3218994 5.1589203 17.805603 4.1933746 20.40094 8.935104c2.595337 4.7417297 -4.663086 11.960037 -4.8287964 19.515274c-0.16571045 7.555237 -2.794983 21.297745 3.8344727 25.816162c6.6295166 4.518402 26.555054 3.59964 35.942383 1.294281c9.387268 -2.305359 16.984436 -12.605392 20.381348 -15.126465" fill-rule="nonzero"></path><path fill="#cccccc" d="m669.265 89.76788l0 0c0.55718994 -5.048805 -3.0839844 -9.593369 -8.1328125 -10.150566l0 0c-2.4244995 -0.26757812 -4.856018 0.43894196 -6.7596436 1.9641342c-1.9035645 1.5251923 -3.123352 3.7441177 -3.3909302 6.16864l0 0c-0.55718994 5.048805 3.0839844 9.593369 8.1328125 10.150566l0 0c5.048767 0.5571976 9.593384 -3.083969 10.150574 -8.132774z" fill-rule="nonzero"></path><path stroke="#4c4c4c" stroke-width="2.0" stroke-linejoin="round" stroke-linecap="butt" d="m669.265 89.76788l0 0c0.55718994 -5.048805 -3.0839844 -9.593369 -8.1328125 -10.150566l0 0c-2.4244995 -0.26757812 -4.856018 0.43894196 -6.7596436 1.9641342c-1.9035645 1.5251923 -3.123352 3.7441177 -3.3909302 6.16864l0 0c-0.55718994 5.048805 3.0839844 9.593369 8.1328125 10.150566l0 0c5.048767 0.5571976 9.593384 -3.083969 10.150574 -8.132774z" fill-rule="nonzero"></path><path fill="#000000" fill-opacity="0.0" d="m674.0035 157.24875c-2.1506348 1.321991 -6.9629517 6.5828247 -12.903748 7.9319153c-5.940857 1.3490906 -18.950989 0.13552856 -22.74115 0.16262817" fill-rule="nonzero"></path><path stroke="#cccccc" stroke-width="4.0" stroke-linejoin="round" stroke-linecap="butt" d="m674.0035 157.24875c-2.1506348 1.321991 -6.9629517 6.5828247 -12.903748 7.9319153c-5.940857 1.3490906 -18.950989 0.13552856 -22.74115 0.16262817" fill-rule="nonzero"></path><path fill="#2c2c2c" fill-opacity="0.5115" d="m396.9443 95.683754l101.165344 0l0 101.16535l-101.165344 0z" fill-rule="nonzero"></path><path stroke="#cccccc" stroke-width="4.0" stroke-linejoin="round" stroke-linecap="butt" d="m396.9443 95.683754l101.165344 0l0 101.16535l-101.165344 0z" fill-rule="nonzero"></path><path fill="#2c2c2c" fill-opacity="0.5115" d="m163.73909 271.79578l101.16536 0l0 101.165344l-101.16536 0z" fill-rule="nonzero"></path><path stroke="#cccccc" stroke-width="4.0" stroke-linejoin="round" stroke-linecap="butt" d="m163.73909 271.79578l101.16536 0l0 101.165344l-101.16536 0z" fill-rule="nonzero"></path><path fill="#2c2c2c" fill-opacity="0.5115" d="m46.81578 154.64713l101.16536 0l0 101.16536l-101.16536 0z" fill-rule="nonzero"></path><path stroke="#cccccc" stroke-width="4.0" stroke-linejoin="round" stroke-linecap="butt" d="m46.81578 154.64713l101.16536 0l0 101.16536l-101.16536 0z" fill-rule="nonzero"></path><path fill="#2c2c2c" fill-opacity="0.5115" d="m299.09534 218.84274l101.165375 0l0 101.165344l-101.165375 0z" fill-rule="nonzero"></path><path stroke="#cccccc" stroke-width="4.0" stroke-linejoin="round" stroke-linecap="butt" d="m299.09534 218.84274l101.165375 0l0 101.165344l-101.165375 0z" fill-rule="nonzero"></path><path fill="#000000" fill-opacity="0.0" d="m65.60616 185.89081l0 57.101593" fill-rule="nonzero"></path><path stroke="#cccccc" stroke-width="2.0" stroke-linejoin="round" stroke-linecap="butt" d="m65.60616 197.89081l0 37.52159" fill-rule="evenodd"></path><path fill="#cccccc" stroke="#cccccc" stroke-width="2.0" stroke-linecap="butt" d="m68.90962 197.89081l-3.3034592 -9.076187l-3.3034668 9.076187z" fill-rule="evenodd"></path><path fill="#cccccc" stroke="#cccccc" stroke-width="2.0" stroke-linecap="butt" d="m65.60616 241.99239c-1.8170204 0 -3.290001 -1.4729767 -3.290001 -3.2899933c0 -1.8170166 1.4729805 -3.2899933 3.290001 -3.2899933c1.8170166 0 3.290001 1.4729767 3.290001 3.2899933c0 1.8170166 -1.4729843 3.2899933 -3.290001 3.2899933z" fill-rule="nonzero"></path><path fill="#000000" fill-opacity="0.0" d="m119.17099 238.77313l-57.101585 0" fill-rule="nonzero"></path><path stroke="#cccccc" stroke-width="2.0" stroke-linejoin="round" stroke-linecap="butt" d="m107.17098 238.77313l-37.521576 0" fill-rule="evenodd"></path><path fill="#cccccc" stroke="#cccccc" stroke-width="2.0" stroke-linecap="butt" d="m107.17098 242.0766l9.076195 -3.3034668l-9.076195 -3.3034668z" fill-rule="evenodd"></path><path fill="#cccccc" stroke="#cccccc" stroke-width="2.0" stroke-linecap="butt" d="m63.069405 238.77313c0 -1.8170166 1.4729843 -3.2900085 3.290001 -3.2900085c1.8170166 0 3.290001 1.472992 3.290001 3.2900085c0 1.8170166 -1.4729843 3.2899933 -3.290001 3.2899933c-1.8170166 0 -3.290001 -1.4729767 -3.290001 -3.2899933z" fill-rule="nonzero"></path><path fill="#cccccc" d="m101.20657 195.43353l0 0c0 -3.518692 2.8524628 -6.371155 6.371155 -6.371155l0 0c1.6897354 0 3.3102646 0.6712494 4.505089 1.8660736c1.1948242 1.1948242 1.866066 2.8153534 1.866066 4.505081l0 0c0 3.518692 -2.8524628 6.371155 -6.371155 6.371155l0 0c-3.518692 0 -6.371155 -2.8524628 -6.371155 -6.371155z" fill-rule="nonzero"></path><path stroke="#cccccc" stroke-width="2.0" stroke-linejoin="round" stroke-linecap="butt" d="m101.20657 195.43353l0 0c0 -3.518692 2.8524628 -6.371155 6.371155 -6.371155l0 0c1.6897354 0 3.3102646 0.6712494 4.505089 1.8660736c1.1948242 1.1948242 1.866066 2.8153534 1.866066 4.505081l0 0c0 3.518692 -2.8524628 6.371155 -6.371155 6.371155l0 0c-3.518692 0 -6.371155 -2.8524628 -6.371155 -6.371155z" fill-rule="nonzero"></path><path fill="#cccccc" d="m89.54336 199.72491l0 0c0 -2.3443756 1.9004974 -4.244873 4.244873 -4.244873l0 0c1.1258087 0 2.2055054 0.44721985 3.0015717 1.2432861c0.7960739 0.7960663 1.2432938 1.8757782 1.2432938 3.001587l0 0c0 2.3443756 -1.9004898 4.244858 -4.2448654 4.244858l0 0c-2.3443756 0 -4.244873 -1.9004822 -4.244873 -4.244858z" fill-rule="nonzero"></path><path stroke="#cccccc" stroke-width="2.0" stroke-linejoin="round" stroke-linecap="butt" d="m89.54336 199.72491l0 0c0 -2.3443756 1.9004974 -4.244873 4.244873 -4.244873l0 0c1.1258087 0 2.2055054 0.44721985 3.0015717 1.2432861c0.7960739 0.7960663 1.2432938 1.8757782 1.2432938 3.001587l0 0c0 2.3443756 -1.9004898 4.244858 -4.2448654 4.244858l0 0c-2.3443756 0 -4.244873 -1.9004822 -4.244873 -4.244858z" fill-rule="nonzero"></path><path fill="#cccccc" d="m94.83836 209.73582l0 0c0 -2.3443756 1.9004898 -4.244873 4.2448654 -4.244873l0 0c1.1258163 0 2.205513 0.4472351 3.0015793 1.2433014c0.7960663 0.7960663 1.2432938 1.8757629 1.2432938 3.0015717l0 0c0 2.3443756 -1.9004898 4.244873 -4.244873 4.244873l0 0c-2.3443756 0 -4.2448654 -1.9004974 -4.2448654 -4.244873z" fill-rule="nonzero"></path><path stroke="#cccccc" stroke-width="2.0" stroke-linejoin="round" stroke-linecap="butt" d="m94.83836 209.73582l0 0c0 -2.3443756 1.9004898 -4.244873 4.2448654 -4.244873l0 0c1.1258163 0 2.205513 0.4472351 3.0015793 1.2433014c0.7960663 0.7960663 1.2432938 1.8757629 1.2432938 3.0015717l0 0c0 2.3443756 -1.9004898 4.244873 -4.244873 4.244873l0 0c-2.3443756 0 -4.2448654 -1.9004974 -4.2448654 -4.244873z" fill-rule="nonzero"></path><path fill="#cccccc" d="m105.86713 207.1064l0 0c0 -1.7316895 1.4038086 -3.1355133 3.135498 -3.1355133l0 0c0.83158875 0 1.6291199 0.33035278 2.2171402 0.9183655c0.5880203 0.58802795 0.9183655 1.3855591 0.9183655 2.2171478l0 0c0 1.7316895 -1.4038086 3.135498 -3.1355057 3.135498l0 0c-1.7316895 0 -3.135498 -1.4038086 -3.135498 -3.135498z" fill-rule="nonzero"></path><path stroke="#cccccc" stroke-width="2.0" stroke-linejoin="round" stroke-linecap="butt" d="m105.86713 207.1064l0 0c0 -1.7316895 1.4038086 -3.1355133 3.135498 -3.1355133l0 0c0.83158875 0 1.6291199 0.33035278 2.2171402 0.9183655c0.5880203 0.58802795 0.9183655 1.3855591 0.9183655 2.2171478l0 0c0 1.7316895 -1.4038086 3.135498 -3.1355057 3.135498l0 0c-1.7316895 0 -3.135498 -1.4038086 -3.135498 -3.135498z" fill-rule="nonzero"></path><path fill="#cccccc" d="m74.25799 210.90192l8.489738 0l0 8.489746l-8.489738 0z" fill-rule="nonzero"></path><path stroke="#cccccc" stroke-width="2.0" stroke-linejoin="round" stroke-linecap="butt" d="m74.25799 210.90192l8.489738 0l0 8.489746l-8.489738 0z" fill-rule="nonzero"></path><path fill="#cccccc" d="m70.01217 221.77956l12.74231 0l0 12.74231l-12.74231 0z" fill-rule="nonzero"></path><path stroke="#cccccc" stroke-width="2.0" stroke-linejoin="round" stroke-linecap="butt" d="m70.01217 221.77956l12.74231 0l0 12.74231l-12.74231 0z" fill-rule="nonzero"></path><path fill="#cccccc" d="m85.09662 217.83528l8.489738 0l0 8.489731l-8.489738 0z" fill-rule="nonzero"></path><path stroke="#cccccc" stroke-width="2.0" stroke-linejoin="round" stroke-linecap="butt" d="m85.09662 217.83528l8.489738 0l0 8.489731l-8.489738 0z" fill-rule="nonzero"></path><path fill="#cccccc" d="m87.15459 228.94101l6.2710037 0l0 6.270996l-6.2710037 0z" fill-rule="nonzero"></path><path stroke="#cccccc" stroke-width="2.0" stroke-linejoin="round" stroke-linecap="butt" d="m87.15459 228.94101l6.2710037 0l0 6.270996l-6.2710037 0z" fill-rule="nonzero"></path><path fill="#000000" fill-opacity="0.0" d="m180.47276 298.904l0 61.662323" fill-rule="nonzero"></path><path stroke="#cccccc" stroke-width="2.0" stroke-linejoin="round" stroke-linecap="butt" d="m180.47276 310.904l0 42.082306" fill-rule="evenodd"></path><path fill="#cccccc" stroke="#cccccc" stroke-width="2.0" stroke-linecap="butt" d="m183.77623 310.904l-3.3034668 -9.076202l-3.3034515 9.076202z" fill-rule="evenodd"></path><path fill="#cccccc" stroke="#cccccc" stroke-width="2.0" stroke-linecap="butt" d="m180.47276 359.5663c-1.8170166 0 -3.2899933 -1.472992 -3.2899933 -3.2900085c0 -1.8170166 1.4729767 -3.289978 3.2899933 -3.289978c1.8170166 0 3.2900085 1.4729614 3.2900085 3.289978c0 1.8170166 -1.472992 3.2900085 -3.2900085 3.2900085z" fill-rule="nonzero"></path><path fill="#000000" fill-opacity="0.0" d="m238.06688 356.12106l-61.67772 0" fill-rule="nonzero"></path><path stroke="#cccccc" stroke-width="2.0" stroke-linejoin="round" stroke-linecap="butt" d="m226.06686 356.12106l-42.097717 0" fill-rule="evenodd"></path><path fill="#cccccc" stroke="#cccccc" stroke-width="2.0" stroke-linecap="butt" d="m226.06686 359.42453l9.076202 -3.3034668l-9.076202 -3.3034668z" fill-rule="evenodd"></path><path fill="#cccccc" stroke="#cccccc" stroke-width="2.0" stroke-linecap="butt" d="m177.38914 356.12106c0 -1.8170166 1.472992 -3.2900085 3.2900085 -3.2900085c1.8170166 0 3.2899933 1.472992 3.2899933 3.2900085c0 1.8170166 -1.4729767 3.2900085 -3.2899933 3.2900085c-1.8170166 0 -3.2900085 -1.472992 -3.2900085 -3.2900085z" fill-rule="nonzero"></path><path fill="#000000" fill-opacity="0.0" d="m180.08992 358.94656l13.561325 -23.67337l9.2332 9.147247l10.387634 -21.520721l8.655701 4.842041l12.98439 -23.135468" fill-rule="nonzero"></path><path stroke="#cccccc" stroke-width="2.0" stroke-linejoin="round" stroke-linecap="butt" d="m180.08992 358.94656l13.561325 -23.67334l9.233215 9.147217l10.387619 -21.520721l8.655701 4.8420105l7.111328 -12.670868" fill-rule="evenodd"></path><path fill="#cccccc" stroke="#cccccc" stroke-width="2.0" stroke-linecap="butt" d="m231.91988 316.68765l1.5613251 -9.531647l-7.322876 6.298065z" fill-rule="evenodd"></path><path fill="#000000" fill-opacity="0.0" d="m384.44727 281.05237l-73.18622 0" fill-rule="nonzero"></path><path stroke="#cccccc" stroke-width="2.0" stroke-linejoin="round" stroke-linecap="butt" d="m372.44727 281.05237l-61.18622 0" fill-rule="evenodd"></path><path fill="#cccccc" stroke="#cccccc" stroke-width="2.0" stroke-linecap="butt" d="m372.44727 284.35583l9.076202 -3.3034668l-9.076202 -3.3034668z" fill-rule="evenodd"></path><path fill="#000000" fill-opacity="0.0" d="m311.6869 251.15672l0 58.944748" fill-rule="nonzero"></path><path stroke="#cccccc" stroke-width="2.0" stroke-linejoin="round" stroke-linecap="butt" d="m311.6869 251.15672l0 58.944748" fill-rule="nonzero"></path><path fill="#cccccc" d="m319.1716 267.39343l7.180786 0l0 13.41452l-7.180786 0z" fill-rule="nonzero"></path><path stroke="#cccccc" stroke-width="2.0" stroke-linejoin="round" stroke-linecap="butt" d="m319.1716 267.39343l7.180786 0l0 13.41452l-7.180786 0z" fill-rule="nonzero"></path><path fill="#cccccc" d="m329.98285 280.80795l7.180786 0l0 8.898254l-7.180786 0z" fill-rule="nonzero"></path><path stroke="#cccccc" stroke-width="2.0" stroke-linejoin="round" stroke-linecap="butt" d="m329.98285 280.80795l7.180786 0l0 8.898254l-7.180786 0z" fill-rule="nonzero"></path><path fill="#cccccc" d="m340.79352 296.30743l7.180786 0l0 -15.499481l-7.180786 0z" fill-rule="nonzero"></path><path stroke="#cccccc" stroke-width="2.0" stroke-linejoin="round" stroke-linecap="butt" d="m340.79352 296.30743l7.180786 0l0 -15.499481l-7.180786 0z" fill-rule="nonzero"></path><path fill="#cccccc" d="m351.60477 280.80795l7.180786 0l0 24.69458l-7.180786 0z" fill-rule="nonzero"></path><path stroke="#cccccc" stroke-width="2.0" stroke-linejoin="round" stroke-linecap="butt" d="m351.60477 280.80795l7.180786 0l0 24.69458l-7.180786 0z" fill-rule="nonzero"></path><path fill="#cccccc" d="m362.41544 273.62714l7.180786 0l0 7.1808167l-7.180786 0z" fill-rule="nonzero"></path><path stroke="#cccccc" stroke-width="2.0" stroke-linejoin="round" stroke-linecap="butt" d="m362.41544 273.62714l7.180786 0l0 7.1808167l-7.180786 0z" fill-rule="nonzero"></path><path fill="#000000" fill-opacity="0.0" d="m416.78064 120.35361l0 62.80249" fill-rule="nonzero"></path><path stroke="#cccccc" stroke-width="2.0" stroke-linejoin="round" stroke-linecap="butt" d="m416.78064 132.3536l0 43.222504" fill-rule="evenodd"></path><path fill="#cccccc" stroke="#cccccc" stroke-width="2.0" stroke-linecap="butt" d="m420.0841 132.3536l-3.3034668 -9.076187l-3.3034668 9.076187z" fill-rule="evenodd"></path><path fill="#cccccc" stroke="#cccccc" stroke-width="2.0" stroke-linecap="butt" d="m416.78064 182.15611c-1.8170166 0 -3.2900085 -1.472992 -3.2900085 -3.2900085c0 -1.8170166 1.472992 -3.2899933 3.2900085 -3.2899933c1.8170166 0 3.2900085 1.4729767 3.2900085 3.2899933c0 1.8170166 -1.472992 3.2900085 -3.2900085 3.2900085z" fill-rule="nonzero"></path><path fill="#000000" fill-opacity="0.0" d="m475.83298 178.6553l-62.80249 0" fill-rule="nonzero"></path><path stroke="#cccccc" stroke-width="2.0" stroke-linejoin="round" stroke-linecap="butt" d="m463.83298 178.6553l-43.222504 0" fill-rule="evenodd"></path><path fill="#cccccc" stroke="#cccccc" stroke-width="2.0" stroke-linecap="butt" d="m463.83298 181.95877l9.076172 -3.3034668l-9.076172 -3.3034668z" fill-rule="evenodd"></path><path fill="#cccccc" stroke="#cccccc" stroke-width="2.0" stroke-linecap="butt" d="m414.03046 178.6553c0 -1.8170166 1.472992 -3.2899933 3.2900085 -3.2899933c1.8170166 0 3.2900085 1.4729767 3.2900085 3.2899933c0 1.8170166 -1.472992 3.2900085 -3.2900085 3.2900085c-1.8170166 0 -3.2900085 -1.472992 -3.2900085 -3.2900085z" fill-rule="nonzero"></path><path fill="#cccccc" d="m423.0666 167.69873l0 0c0 -0.85583496 0.6937866 -1.5496216 1.5496216 -1.5496216l0 0c0.41098022 0 0.80514526 0.16326904 1.0957336 0.45387268c0.2906189 0.2906189 0.45388794 0.6847687 0.45388794 1.0957489l0 0c0 0.8558197 -0.6937866 1.5496063 -1.5496216 1.5496063l0 0c-0.85583496 0 -1.5496216 -0.6937866 -1.5496216 -1.5496063z" fill-rule="nonzero"></path><path stroke="#cccccc" stroke-width="2.0" stroke-linejoin="round" stroke-linecap="butt" d="m423.0666 167.69873l0 0c0 -0.85583496 0.6937866 -1.5496216 1.5496216 -1.5496216l0 0c0.41098022 0 0.80514526 0.16326904 1.0957336 0.45387268c0.2906189 0.2906189 0.45388794 0.6847687 0.45388794 1.0957489l0 0c0 0.8558197 -0.6937866 1.5496063 -1.5496216 1.5496063l0 0c-0.85583496 0 -1.5496216 -0.6937866 -1.5496216 -1.5496063z" fill-rule="nonzero"></path><path fill="#cccccc" d="m429.84036 165.68436l0 0c0 -0.85583496 0.6937866 -1.5496216 1.5496216 -1.5496216l0 0c0.41098022 0 0.80514526 0.16326904 1.0957336 0.45387268c0.2906189 0.2906189 0.45388794 0.6847687 0.45388794 1.0957489l0 0c0 0.8558197 -0.6937866 1.5496063 -1.5496216 1.5496063l0 0c-0.85583496 0 -1.5496216 -0.6937866 -1.5496216 -1.5496063z" fill-rule="nonzero"></path><path stroke="#cccccc" stroke-width="2.0" stroke-linejoin="round" stroke-linecap="butt" d="m429.84036 165.68436l0 0c0 -0.85583496 0.6937866 -1.5496216 1.5496216 -1.5496216l0 0c0.41098022 0 0.80514526 0.16326904 1.0957336 0.45387268c0.2906189 0.2906189 0.45388794 0.6847687 0.45388794 1.0957489l0 0c0 0.8558197 -0.6937866 1.5496063 -1.5496216 1.5496063l0 0c-0.85583496 0 -1.5496216 -0.6937866 -1.5496216 -1.5496063z" fill-rule="nonzero"></path><path fill="#cccccc" d="m436.19293 166.45612l0 0c0 -0.85583496 0.6937866 -1.5496063 1.5496216 -1.5496063l0 0c0.41098022 0 0.80511475 0.16325378 1.0957336 0.45385742c0.2906189 0.2906189 0.45388794 0.6847687 0.45388794 1.0957489l0 0c0 0.8558197 -0.6937866 1.5496063 -1.5496216 1.5496063l0 0c-0.85583496 0 -1.5496216 -0.6937866 -1.5496216 -1.5496063z" fill-rule="nonzero"></path><path stroke="#cccccc" stroke-width="2.0" stroke-linejoin="round" stroke-linecap="butt" d="m436.19293 166.45612l0 0c0 -0.85583496 0.6937866 -1.5496063 1.5496216 -1.5496063l0 0c0.41098022 0 0.80511475 0.16325378 1.0957336 0.45385742c0.2906189 0.2906189 0.45388794 0.6847687 0.45388794 1.0957489l0 0c0 0.8558197 -0.6937866 1.5496063 -1.5496216 1.5496063l0 0c-0.85583496 0 -1.5496216 -0.6937866 -1.5496216 -1.5496063z" fill-rule="nonzero"></path><path fill="#cccccc" d="m434.44778 157.87599l0 0c0 -0.85583496 0.6937866 -1.5496216 1.5496216 -1.5496216l0 0c0.41098022 0 0.80514526 0.16326904 1.0957336 0.45387268c0.2906189 0.29060364 0.45388794 0.6847534 0.45388794 1.0957489l0 0c0 0.8558197 -0.6937866 1.5496063 -1.5496216 1.5496063l0 0c-0.85583496 0 -1.5496216 -0.6937866 -1.5496216 -1.5496063z" fill-rule="nonzero"></path><path stroke="#cccccc" stroke-width="2.0" stroke-linejoin="round" stroke-linecap="butt" d="m434.44778 157.87599l0 0c0 -0.85583496 0.6937866 -1.5496216 1.5496216 -1.5496216l0 0c0.41098022 0 0.80514526 0.16326904 1.0957336 0.45387268c0.2906189 0.29060364 0.45388794 0.6847534 0.45388794 1.0957489l0 0c0 0.8558197 -0.6937866 1.5496063 -1.5496216 1.5496063l0 0c-0.85583496 0 -1.5496216 -0.6937866 -1.5496216 -1.5496063z" fill-rule="nonzero"></path><path fill="#cccccc" d="m444.06952 163.1376l0 0c0 -0.85583496 0.6937866 -1.5496063 1.5496216 -1.5496063l0 0c0.41098022 0 0.80514526 0.16325378 1.0957336 0.45385742c0.2906189 0.2906189 0.45388794 0.6847687 0.45388794 1.0957489l0 0c0 0.85583496 -0.6937866 1.5496063 -1.5496216 1.5496063l0 0c-0.85583496 0 -1.5496216 -0.69377136 -1.5496216 -1.5496063z" fill-rule="nonzero"></path><path stroke="#cccccc" stroke-width="2.0" stroke-linejoin="round" stroke-linecap="butt" d="m444.06952 163.1376l0 0c0 -0.85583496 0.6937866 -1.5496063 1.5496216 -1.5496063l0 0c0.41098022 0 0.80514526 0.16325378 1.0957336 0.45385742c0.2906189 0.2906189 0.45388794 0.6847687 0.45388794 1.0957489l0 0c0 0.85583496 -0.6937866 1.5496063 -1.5496216 1.5496063l0 0c-0.85583496 0 -1.5496216 -0.69377136 -1.5496216 -1.5496063z" fill-rule="nonzero"></path><path fill="#cccccc" d="m452.63565 160.48486l0 0c0 -0.8558197 0.6937866 -1.5496063 1.5496216 -1.5496063l0 0c0.41098022 0 0.80511475 0.16325378 1.0957336 0.45387268c0.29058838 0.29060364 0.45385742 0.6847534 0.45385742 1.0957336l0 0c0 0.85583496 -0.6937866 1.5496216 -1.5495911 1.5496216l0 0c-0.85583496 0 -1.5496216 -0.6937866 -1.5496216 -1.5496216z" fill-rule="nonzero"></path><path stroke="#cccccc" stroke-width="2.0" stroke-linejoin="round" stroke-linecap="butt" d="m452.63565 160.48486l0 0c0 -0.8558197 0.6937866 -1.5496063 1.5496216 -1.5496063l0 0c0.41098022 0 0.80511475 0.16325378 1.0957336 0.45387268c0.29058838 0.29060364 0.45385742 0.6847534 0.45385742 1.0957336l0 0c0 0.85583496 -0.6937866 1.5496216 -1.5495911 1.5496216l0 0c-0.85583496 0 -1.5496216 -0.6937866 -1.5496216 -1.5496216z" fill-rule="nonzero"></path><path fill="#cccccc" d="m447.6798 160.48486l0 0c0 -0.8558197 0.6937866 -1.5496063 1.5496216 -1.5496063l0 0c0.41098022 0 0.80511475 0.16325378 1.0957336 0.45387268c0.2906189 0.29060364 0.45385742 0.6847534 0.45385742 1.0957336l0 0c0 0.85583496 -0.6937866 1.5496216 -1.5495911 1.5496216l0 0c-0.85583496 0 -1.5496216 -0.6937866 -1.5496216 -1.5496216z" fill-rule="nonzero"></path><path stroke="#cccccc" stroke-width="2.0" stroke-linejoin="round" stroke-linecap="butt" d="m447.6798 160.48486l0 0c0 -0.8558197 0.6937866 -1.5496063 1.5496216 -1.5496063l0 0c0.41098022 0 0.80511475 0.16325378 1.0957336 0.45387268c0.2906189 0.29060364 0.45385742 0.6847534 0.45385742 1.0957336l0 0c0 0.85583496 -0.6937866 1.5496216 -1.5495911 1.5496216l0 0c-0.85583496 0 -1.5496216 -0.6937866 -1.5496216 -1.5496216z" fill-rule="nonzero"></path><path fill="#cccccc" d="m450.77902 154.86386l0 0c0 -0.8558197 0.6937866 -1.5496063 1.5496216 -1.5496063l0 0c0.41098022 0 0.80514526 0.16325378 1.0957336 0.45387268c0.2906189 0.29060364 0.45388794 0.6847534 0.45388794 1.0957336l0 0c0 0.85583496 -0.6937866 1.5496216 -1.5496216 1.5496216l0 0c-0.85583496 0 -1.5496216 -0.6937866 -1.5496216 -1.5496216z" fill-rule="nonzero"></path><path stroke="#cccccc" stroke-width="2.0" stroke-linejoin="round" stroke-linecap="butt" d="m450.77902 154.86386l0 0c0 -0.8558197 0.6937866 -1.5496063 1.5496216 -1.5496063l0 0c0.41098022 0 0.80514526 0.16325378 1.0957336 0.45387268c0.2906189 0.29060364 0.45388794 0.6847534 0.45388794 1.0957336l0 0c0 0.85583496 -0.6937866 1.5496216 -1.5496216 1.5496216l0 0c-0.85583496 0 -1.5496216 -0.6937866 -1.5496216 -1.5496216z" fill-rule="nonzero"></path><path fill="#cccccc" d="m447.16876 151.76494l0 0c0 -0.8558197 0.6937866 -1.5496063 1.5495911 -1.5496063l0 0c0.41098022 0 0.80514526 0.16325378 1.0957642 0.45387268c0.29058838 0.29060364 0.45385742 0.6847534 0.45385742 1.0957336l0 0c0 0.85583496 -0.6937866 1.5496216 -1.5496216 1.5496216l0 0c-0.85580444 0 -1.5495911 -0.6937866 -1.5495911 -1.5496216z" fill-rule="nonzero"></path><path stroke="#cccccc" stroke-width="2.0" stroke-linejoin="round" stroke-linecap="butt" d="m447.16876 151.76494l0 0c0 -0.8558197 0.6937866 -1.5496063 1.5495911 -1.5496063l0 0c0.41098022 0 0.80514526 0.16325378 1.0957642 0.45387268c0.29058838 0.29060364 0.45385742 0.6847534 0.45385742 1.0957336l0 0c0 0.85583496 -0.6937866 1.5496216 -1.5496216 1.5496216l0 0c-0.85580444 0 -1.5495911 -0.6937866 -1.5495911 -1.5496216z" fill-rule="nonzero"></path><path fill="#cccccc" d="m429.49194 172.02596l0 0c0 -0.85583496 0.6937866 -1.5496216 1.5496216 -1.5496216l0 0c0.41098022 0 0.80514526 0.16326904 1.0957336 0.45387268c0.2906189 0.29060364 0.45388794 0.6847687 0.45388794 1.0957489l0 0c0 0.8558197 -0.6937866 1.5496063 -1.5496216 1.5496063l0 0c-0.85583496 0 -1.5496216 -0.6937866 -1.5496216 -1.5496063z" fill-rule="nonzero"></path><path stroke="#cccccc" stroke-width="2.0" stroke-linejoin="round" stroke-linecap="butt" d="m429.49194 172.02596l0 0c0 -0.85583496 0.6937866 -1.5496216 1.5496216 -1.5496216l0 0c0.41098022 0 0.80514526 0.16326904 1.0957336 0.45387268c0.2906189 0.29060364 0.45388794 0.6847687 0.45388794 1.0957489l0 0c0 0.8558197 -0.6937866 1.5496063 -1.5496216 1.5496063l0 0c-0.85583496 0 -1.5496216 -0.6937866 -1.5496216 -1.5496063z" fill-rule="nonzero"></path><path fill="#cccccc" d="m442.21292 157.38564l0 0c0 -0.8558197 0.6937866 -1.5496063 1.5495911 -1.5496063l0 0c0.41101074 0 0.80514526 0.16325378 1.0957642 0.45387268c0.29058838 0.29060364 0.45385742 0.6847534 0.45385742 1.0957336l0 0c0 0.85583496 -0.6937866 1.5496216 -1.5496216 1.5496216l0 0c-0.85580444 0 -1.5495911 -0.6937866 -1.5495911 -1.5496216z" fill-rule="nonzero"></path><path stroke="#cccccc" stroke-width="2.0" stroke-linejoin="round" stroke-linecap="butt" d="m442.21292 157.38564l0 0c0 -0.8558197 0.6937866 -1.5496063 1.5495911 -1.5496063l0 0c0.41101074 0 0.80514526 0.16325378 1.0957642 0.45387268c0.29058838 0.29060364 0.45385742 0.6847534 0.45385742 1.0957336l0 0c0 0.85583496 -0.6937866 1.5496216 -1.5496216 1.5496216l0 0c-0.85580444 0 -1.5495911 -0.6937866 -1.5495911 -1.5496216z" fill-rule="nonzero"></path><path fill="#cccccc" d="m438.161 161.5892l0 0c0 -0.8558197 0.6937866 -1.5496063 1.5496216 -1.5496063l0 0c0.41098022 0 0.80511475 0.16326904 1.0957336 0.45387268c0.2906189 0.29060364 0.45388794 0.6847534 0.45388794 1.0957336l0 0c0 0.85583496 -0.6937866 1.5496216 -1.5496216 1.5496216l0 0c-0.85583496 0 -1.5496216 -0.6937866 -1.5496216 -1.5496216z" fill-rule="nonzero"></path><path stroke="#cccccc" stroke-width="2.0" stroke-linejoin="round" stroke-linecap="butt" d="m438.161 161.5892l0 0c0 -0.8558197 0.6937866 -1.5496063 1.5496216 -1.5496063l0 0c0.41098022 0 0.80511475 0.16326904 1.0957336 0.45387268c0.2906189 0.29060364 0.45388794 0.6847534 0.45388794 1.0957336l0 0c0 0.85583496 -0.6937866 1.5496216 -1.5496216 1.5496216l0 0c-0.85583496 0 -1.5496216 -0.6937866 -1.5496216 -1.5496216z" fill-rule="nonzero"></path><path fill="#cccccc" d="m456.37628 132.6095l0 0c0 -0.85583496 0.6937866 -1.5496063 1.5496216 -1.5496063l0 0c0.41098022 0 0.80511475 0.16325378 1.0957336 0.45385742c0.2906189 0.2906189 0.45385742 0.6847687 0.45385742 1.0957489l0 0c0 0.8558197 -0.6937866 1.5496063 -1.5495911 1.5496063l0 0c-0.85583496 0 -1.5496216 -0.6937866 -1.5496216 -1.5496063z" fill-rule="nonzero"></path><path stroke="#cccccc" stroke-width="2.0" stroke-linejoin="round" stroke-linecap="butt" d="m456.37628 132.6095l0 0c0 -0.85583496 0.6937866 -1.5496063 1.5496216 -1.5496063l0 0c0.41098022 0 0.80511475 0.16325378 1.0957336 0.45385742c0.2906189 0.2906189 0.45385742 0.6847687 0.45385742 1.0957489l0 0c0 0.8558197 -0.6937866 1.5496063 -1.5495911 1.5496063l0 0c-0.85583496 0 -1.5496216 -0.6937866 -1.5496216 -1.5496063z" fill-rule="nonzero"></path><path fill="#000000" fill-opacity="0.0" d="m96.04267 254.173c2.5985794 7.2051086 4.960907 31.773376 15.591484 43.23065c10.630577 11.457245 40.15999 21.260712 48.191986 25.512848" fill-rule="nonzero"></path><path stroke="#cccccc" stroke-width="4.0" stroke-linejoin="round" stroke-linecap="butt" d="m99.52905 268.92667l0.13387299 0.58117676c0.11906433 0.5088501 0.24127197 1.0225525 0.36688995 1.5402222c0.25122833 1.0352783 0.51607513 2.0863342 0.79660034 3.1457214c2.2442245 8.4748535 5.4924545 17.481232 10.807739 23.20987c5.3152924 5.728607 15.355286 11.043793 25.07045 15.4583435l1.1064148 0.49765015" fill-rule="evenodd"></path><path fill="#cccccc" stroke="#cccccc" stroke-width="4.0" stroke-linecap="butt" d="m96.50262 256.1194c3.5366287 -0.8357239 7.081131 1.3537903 7.916855 4.890442c0.8357315 3.536621 -1.3537827 7.0811157 -4.8904114 7.9168396c-3.5366287 0.8357239 -7.081131 -1.3537903 -7.916855 -4.8904114c-0.8357315 -3.536621 1.3537827 -7.0811157 4.8904114 -7.91687z" fill-rule="nonzero"></path><path fill="#cccccc" stroke="#cccccc" stroke-width="4.0" stroke-linecap="butt" d="m135.1801 319.42014l19.282043 1.1678467l-14.020233 -13.288879z" fill-rule="evenodd"></path><path fill="#000000" fill-opacity="0.0" d="m263.6033 349.17026c5.551544 0.70877075 22.796814 7.9143066 33.309265 4.252594c10.512451 -3.6617432 24.804535 -21.852448 29.765442 -26.22293" fill-rule="nonzero"></path><path stroke="#cccccc" stroke-width="4.0" stroke-linejoin="round" stroke-linecap="butt" d="m278.29443 352.9114l0.103149414 0.02407837c6.319336 1.432251 13.258759 2.3182068 18.514984 0.48736572c2.6281128 -0.9154358 5.492462 -2.738922 8.388153 -5.0274963c1.447876 -1.1443176 2.9035645 -2.4049072 4.3414917 -3.7263794l0.29431152 -0.27243042" fill-rule="evenodd"></path><path fill="#cccccc" stroke="#cccccc" stroke-width="4.0" stroke-linecap="butt" d="m265.54144 349.66382c0.89682007 -3.521637 4.478668 -5.649475 8.000305 -4.7526855c3.521637 0.89682007 5.649475 4.478668 4.7526855 8.000305c-0.89678955 3.521637 -4.4786377 5.649475 -8.000305 4.7526855c-3.521637 -0.89678955 -5.649475 -4.4786377 -4.7526855 -8.000305z" fill-rule="nonzero"></path><path fill="#cccccc" stroke="#cccccc" stroke-width="4.0" stroke-linecap="butt" d="m314.67056 349.00528l7.9283752 -17.615387l-17.396423 8.397888z" fill-rule="evenodd"></path><path fill="#000000" fill-opacity="0.0" d="m399.36722 269.7953c4.6065063 -2.3623047 19.25299 -7.6776123 27.63916 -14.17395c8.386139 -6.496338 17.716888 -16.536072 22.677795 -24.804108c4.9609375 -8.268036 5.906372 -20.67009 7.0876465 -24.804108" fill-rule="nonzero"></path><path stroke="#cccccc" stroke-width="4.0" stroke-linejoin="round" stroke-linecap="butt" d="m413.1994 263.59076l0.5703125 -0.26953125c0.6715088 -0.32025146 1.3464355 -0.6481323 2.0207214 -0.9831848c1.3486633 -0.67019653 2.6950073 -1.3692017 4.0071716 -2.093567c2.6243896 -1.448761 5.112213 -2.999054 7.20874 -4.623123c8.386169 -6.496353 17.716919 -16.536087 22.677826 -24.804123c0.3100586 -0.5167389 0.60443115 -1.0496521 0.8841553 -1.5956726l0.010650635 -0.0211792" fill-rule="evenodd"></path><path fill="#cccccc" stroke="#cccccc" stroke-width="4.0" stroke-linecap="butt" d="m401.19205 268.97675c-1.4873047 -3.3157349 -0.005065918 -7.2093506 3.310669 -8.696655c3.3157349 -1.4873047 7.209381 -0.005065918 8.696686 3.310669c1.4873047 3.3157349 0.0050354004 7.209381 -3.3106995 8.696686c-3.3157349 1.4873047 -7.209381 0.005065918 -8.696655 -3.3106995z" fill-rule="nonzero"></path><path fill="#cccccc" stroke="#cccccc" stroke-width="4.0" stroke-linecap="butt" d="m456.96216 230.9052l-1.6992188 -19.242493l-11.067139 15.832855z" fill-rule="evenodd"></path><path fill="#000000" fill-opacity="0.0" d="m446.4443 312.70215l0 0c5.3748474 3.6265259 6.6146545 11.186584 2.7691956 16.885895l0 0c-1.8466492 2.736908 -4.642975 4.6698914 -7.7738647 5.3737183c-3.13089 0.7038574 -6.3398438 0.12088013 -8.920929 -1.620636l0 0c-5.374817 -3.6265259 -6.6146545 -11.186584 -2.7691956 -16.885895l0 0c3.8454285 -5.69928 11.319946 -7.379608 16.694794 -3.7530823z" fill-rule="nonzero"></path><path stroke="#cccccc" stroke-width="8.0" stroke-linejoin="round" stroke-linecap="butt" d="m446.4443 312.70215l0 0c5.3748474 3.6265259 6.6146545 11.186584 2.7691956 16.885895l0 0c-1.8466492 2.736908 -4.642975 4.6698914 -7.7738647 5.3737183c-3.13089 0.7038574 -6.3398438 0.12088013 -8.920929 -1.620636l0 0c-5.374817 -3.6265259 -6.6146545 -11.186584 -2.7691956 -16.885895l0 0c3.8454285 -5.69928 11.319946 -7.379608 16.694794 -3.7530823z" fill-rule="nonzero"></path><path fill="#cccccc" d="m482.95273 345.43945l-6.410553 9.501038l-29.792389 -22.866852l3.846344 -5.7006226z" fill-rule="nonzero"></path><path stroke="#cccccc" stroke-width="2.0" stroke-linejoin="round" stroke-linecap="butt" d="m482.95273 345.43945l-6.410553 9.501038l-29.792389 -22.866852l3.846344 -5.7006226z" fill-rule="nonzero"></path><path fill="#000000" fill-opacity="0.0" d="m70.33719 161.58324l67.30708 0l0 18.362198l-67.30708 0z" fill-rule="nonzero"></path><path fill="#cccccc" d="m82.58719 174.23073l0 5.3125l-1.0625 0l0 -5.3125l-1.90625 0l0 -0.984375l4.875 0l0 0.984375l-1.90625 0zm8.274811 1.0625q0 1.5625 -1.359375 1.96875l1.65625 2.28125l-1.359375 0l-1.5 -2.109375l-1.390625 0l0 2.109375l-1.0625 0l0 -6.296875l2.34375 0q1.4375 0 2.046875 0.5q0.625 0.484375 0.625 1.546875zm-2.625 1.171875q0.890625 0 1.21875 -0.28125q0.328125 -0.28125 0.328125 -0.890625q0 -0.625 -0.34375 -0.84375q-0.328125 -0.234375 -1.1875 -0.234375l-1.34375 0l0 2.25l1.328125 0zm5.4627533 -2.21875l0 1.71875l2.78125 0l0 0.984375l-2.78125 0l0 2.59375l-1.0625 0l0 -6.296875l4.1875 0l0 1.0l-3.125 0zm7.330719 -0.046875l0 -0.953125l3.0625 0l0 4.15625q0 1.09375 -0.5625 1.640625q-0.546875 0.546875 -1.421875 0.546875q-1.109375 0 -1.875 -0.765625l0.59375 -0.84375q0.625 0.59375 1.203125 0.59375q0.421875 0 0.703125 -0.28125q0.296875 -0.28125 0.296875 -0.84375l0 -3.25l-2.0 0zm7.983551 5.390625l-0.140625 0.015625q-1.40625 0 -2.359375 -0.921875q-0.953125 -0.9375 -0.953125 -2.328125q0 -1.390625 0.953125 -2.3125q0.953125 -0.9375 2.359375 -0.9375q1.40625 0 2.359375 0.9375q0.953125 0.921875 0.953125 2.3125q0 1.046875 -0.578125 1.859375q-0.5625 0.8125 -1.5 1.171875q0.296875 0.40625 0.765625 0.40625q0.34375 0 0.671875 -0.1875q0.328125 -0.171875 0.5 -0.453125l0.609375 0.828125q-0.78125 0.828125 -1.796875 0.828125q-0.578125 0 -1.109375 -0.328125q-0.53125 -0.3125 -0.734375 -0.890625zm1.4375 -4.84375q-0.640625 -0.671875 -1.578125 -0.671875q-0.9375 0 -1.578125 0.671875q-0.640625 0.65625 -0.640625 1.609375q0 0.953125 0.640625 1.625q0.640625 0.65625 1.578125 0.65625q0.9375 0 1.578125 -0.65625q0.640625 -0.671875 0.640625 -1.625q0 -0.953125 -0.640625 -1.609375zm3.3512573 4.796875l0 -6.296875l1.0625 0l0 5.28125l2.875 0l0 1.015625l-3.9375 0z" fill-rule="nonzero"></path><path fill="#000000" fill-opacity="0.0" d="m184.74065 277.4556l67.30708 0l0 18.362183l-67.30708 0z" fill-rule="nonzero"></path><path fill="#cccccc" d="m197.49065 295.4156l-1.1875 0l-2.53125 -6.296875l1.1875 0l1.9375 4.703125l1.921875 -4.703125l1.1875 0l-2.515625 6.296875zm5.6078186 -1.765625l1.40625 -4.53125l0.953125 0l1.40625 4.53125l1.59375 -4.53125l1.140625 0l-2.203125 6.296875l-1.046875 0l-1.328125 -4.3125l-0.0625 0l-1.328125 4.3125l-1.0625 0l-2.1875 -6.296875l1.140625 0l1.578125 4.53125zm11.541504 1.765625l-1.546875 -2.359375l-0.046875 0l-1.546875 2.359375l-1.3125 0l2.15625 -3.234375l-2.015625 -3.0625l1.328125 0l1.390625 2.125l0.046875 0l1.40625 -2.125l1.3125 0l-2.0 3.0625l2.15625 3.234375l-1.328125 0zm7.27124 -6.296875q1.6875 0 2.59375 0.828125q0.921875 0.828125 0.921875 2.296875q0 1.46875 -0.890625 2.328125q-0.875 0.84375 -2.6875 0.84375l-2.09375 0l0 -6.296875l2.15625 0zm2.4375 3.140625q0 -2.15625 -2.46875 -2.15625l-1.0625 0l0 4.3125l1.171875 0q1.140625 0 1.75 -0.546875q0.609375 -0.546875 0.609375 -1.609375zm3.7633514 -2.140625l0 1.71875l2.78125 0l0 0.984375l-2.78125 0l0 2.59375l-1.0625 0l0 -6.296875l4.1875 0l0 1.0l-3.125 0zm9.587311 1.046875q0 1.5625 -1.359375 1.96875l1.65625 2.28125l-1.359375 0l-1.5 -2.109375l-1.390625 0l0 2.109375l-1.0625 0l0 -6.296875l2.34375 0q1.4375 0 2.046875 0.5q0.625 0.484375 0.625 1.546875zm-2.625 1.171875q0.890625 0 1.21875 -0.28125q0.328125 -0.28125 0.328125 -0.890625q0 -0.625 -0.34375 -0.84375q-0.328125 -0.234375 -1.1875 -0.234375l-1.34375 0l0 2.25l1.328125 0z" fill-rule="nonzero"></path><path fill="#000000" fill-opacity="0.0" d="m319.94217 228.72884l67.3071 0l0 18.362213l-67.3071 0z" fill-rule="nonzero"></path><path fill="#cccccc" d="m334.8328 242.43884q0 1.5625 -1.359375 1.96875l1.65625 2.28125l-1.359375 0l-1.5 -2.109375l-1.390625 0l0 2.109375l-1.0625 0l0 -6.296875l2.34375 0q1.4375 0 2.046875 0.5q0.625 0.484375 0.625 1.546875zm-2.625 1.171875q0.890625 0 1.21875 -0.28125q0.328125 -0.28125 0.328125 -0.890625q0 -0.625 -0.34375 -0.84375q-0.328125 -0.234375 -1.1875 -0.234375l-1.34375 0l0 2.25l1.328125 0zm8.759644 0.015625l1.0625 0l0 2.15625q-0.890625 0.984375 -2.546875 0.984375q-1.40625 0 -2.34375 -0.921875q-0.9375 -0.921875 -0.9375 -2.328125q0 -1.40625 0.953125 -2.328125q0.96875 -0.9375 2.328125 -0.9375q1.359375 0 2.25 0.78125l-0.5625 0.8125q-0.375 -0.3125 -0.75 -0.4375q-0.375 -0.125 -0.859375 -0.125q-0.953125 0 -1.609375 0.625q-0.640625 0.609375 -0.640625 1.625q0 1.0 0.625 1.609375q0.625 0.609375 1.515625 0.609375q0.90625 0 1.515625 -0.390625l0 -1.734375zm5.076996 -2.25l0 5.3125l-1.0625 0l0 -5.3125l-1.90625 0l0 -0.984375l4.875 0l0 0.984375l-1.90625 0zm7.971344 -0.984375q1.6875 0 2.59375 0.828125q0.921875 0.828125 0.921875 2.296875q0 1.46875 -0.890625 2.328125q-0.875 0.84375 -2.6875 0.84375l-2.09375 0l0 -6.296875l2.15625 0zm2.4375 3.140625q0 -2.15625 -2.46875 -2.15625l-1.0625 0l0 4.3125l1.171875 0q1.140625 0 1.75 -0.546875q0.609375 -0.546875 0.609375 -1.609375zm7.1227417 -3.140625l0 1.0l-3.359375 0l0 1.671875l3.015625 0l0 0.9375l-3.015625 0l0 1.6875l3.46875 0l0 1.0l-4.53125 0l0 -6.296875l4.421875 0zm2.741211 1.0l0 1.71875l2.78125 0l0 0.984375l-2.78125 0l0 2.59375l-1.0625 0l0 -6.296875l4.1875 0l0 1.0l-3.125 0z" fill-rule="nonzero"></path><path fill="#000000" fill-opacity="0.0" d="m418.85434 101.161896l67.30707 0l0 18.362206l-67.30707 0z" fill-rule="nonzero"></path><path fill="#cccccc" d="m431.9481 113.809395l-3.546875 0l0 -0.984375l5.015625 0l0 0.828125l-3.65625 4.453125l0 0.03125l3.703125 0l0 0.984375l-5.1875 0l0 -0.8125l3.671875 -4.484375l0 -0.015625zm7.4996033 -0.984375l0 1.0l-3.359375 0l0 1.671875l3.015625 0l0 0.9375l-3.015625 0l0 1.6875l3.46875 0l0 1.0l-4.53125 0l0 -6.296875l4.421875 0zm2.741211 1.0l0 1.71875l2.78125 0l0 0.984375l-2.78125 0l0 2.59375l-1.0625 0l0 -6.296875l4.1875 0l0 1.0l-3.125 0zm7.127594 5.296875l0 -6.296875l1.0625 0l0 5.28125l2.875 0l0 1.015625l-3.9375 0zm8.998474 0l-1.546875 -2.359375l-0.046875 0l-1.546875 2.359375l-1.3125 0l2.15625 -3.234375l-2.015625 -3.0625l1.328125 0l1.390625 2.125l0.046875 0l1.40625 -2.125l1.3125 0l-2.0 3.0625l2.15625 3.234375l-1.328125 0zm7.574707 -4.25q0 1.5625 -1.359375 1.96875l1.65625 2.28125l-1.359375 0l-1.5 -2.109375l-1.390625 0l0 2.109375l-1.0625 0l0 -6.296875l2.34375 0q1.4375 0 2.046875 0.5q0.625 0.484375 0.625 1.546875zm-2.625 1.171875q0.890625 0 1.21875 -0.28125q0.328125 -0.28125 0.328125 -0.890625q0 -0.625 -0.34375 -0.84375q-0.328125 -0.234375 -1.1875 -0.234375l-1.34375 0l0 2.25l1.328125 0z" fill-rule="nonzero"></path><path fill="#000000" fill-opacity="0.0" d="m55.55042 290.46848c2.4763527 0.39089966 11.469349 -1.4341736 14.858105 2.34552c3.3887634 3.779663 4.952965 14.336884 5.474449 20.33255c0.5214844 5.9956665 -3.5188065 10.688538 -2.3455276 15.64151c1.1732788 4.952942 9.9066925 11.0784 9.385208 14.076263c-0.521492 2.9978333 -10.689308 1.303833 -12.51413 3.910736c-1.8248138 2.6069336 1.9561539 7.299286 1.5652313 11.730743c-0.39091492 4.431488 0.26010132 12.6423645 -3.910759 14.858124c-4.1708565 2.2157288 -15.770515 0.39141846 -21.114395 -1.5636902c-5.3438835 -1.9551392 -9.124077 -8.472534 -10.9488945 -10.167053" fill-rule="nonzero"></path><path stroke="#cccccc" stroke-width="4.0" stroke-linejoin="round" stroke-linecap="butt" d="m55.55042 290.46848c2.4763527 0.39089966 11.469349 -1.4341736 14.858105 2.34552c3.3887634 3.779663 4.952965 14.336884 5.474449 20.33255c0.5214844 5.9956665 -3.5188065 10.688538 -2.3455276 15.64151c1.1732788 4.952942 9.9066925 11.0784 9.385208 14.076263c-0.521492 2.9978333 -10.689308 1.303833 -12.51413 3.910736c-1.8248138 2.6069336 1.9561539 7.299286 1.5652313 11.730743c-0.39091492 4.431488 0.26010132 12.6423645 -3.910759 14.858124c-4.1708565 2.2157288 -15.770515 0.39141846 -21.114395 -1.5636902c-5.3438835 -1.9551392 -9.124077 -8.472534 -10.9488945 -10.167053" fill-rule="nonzero"></path><path fill="#cccccc" d="m57.241 312.32074l0 0c0 -2.9901733 2.4240112 -5.4141846 5.4141846 -5.4141846l0 0c1.4359322 0 2.8130531 0.57040405 3.8284035 1.5857544c1.015358 1.0153809 1.5857849 2.3924866 1.5857849 3.8284302l0 0c0 2.9901733 -2.4240189 5.4141846 -5.4141884 5.4141846l0 0c-2.9901733 0 -5.4141846 -2.4240112 -5.4141846 -5.4141846z" fill-rule="nonzero"></path><path stroke="#4c4c4c" stroke-width="2.0" stroke-linejoin="round" stroke-linecap="butt" d="m57.241 312.32074l0 0c0 -2.9901733 2.4240112 -5.4141846 5.4141846 -5.4141846l0 0c1.4359322 0 2.8130531 0.57040405 3.8284035 1.5857544c1.015358 1.0153809 1.5857849 2.3924866 1.5857849 3.8284302l0 0c0 2.9901733 -2.4240189 5.4141846 -5.4141884 5.4141846l0 0c-2.9901733 0 -5.4141846 -2.4240112 -5.4141846 -5.4141846z" fill-rule="nonzero"></path><path fill="#000000" fill-opacity="0.0" d="m50.110737 351.4996c1.1730232 0.91241455 3.6491165 4.301422 7.0381317 5.474457c3.389019 1.1730042 11.079975 1.3030701 13.295971 1.5636597" fill-rule="nonzero"></path><path stroke="#cccccc" stroke-width="4.0" stroke-linejoin="round" stroke-linecap="butt" d="m50.110737 351.4996c1.1730232 0.91241455 3.6491165 4.301422 7.0381317 5.474457c3.389019 1.1730042 11.079975 1.3030701 13.295971 1.5636597" fill-rule="nonzero"></path><path fill="#000000" fill-opacity="0.0" d="m93.97488 391.4698l-10.327744 -20.933624" fill-rule="nonzero"></path><path stroke="#cccccc" stroke-width="2.0" stroke-linejoin="round" stroke-linecap="butt" d="m93.97488 391.4698l-10.327744 -20.933624" fill-rule="nonzero"></path><path fill="#000000" fill-opacity="0.0" d="m87.667015 355.4264l25.049881 -17.948395" fill-rule="nonzero"></path><path stroke="#cccccc" stroke-width="2.0" stroke-linejoin="round" stroke-linecap="butt" d="m87.667015 355.4264l25.049881 -17.948395" fill-rule="nonzero"></path><path fill="#000000" fill-opacity="0.0" d="m87.66663 358.5553l29.722397 -5.4697876" fill-rule="nonzero"></path><path stroke="#cccccc" stroke-width="2.0" stroke-linejoin="round" stroke-linecap="butt" d="m87.66663 358.5553l29.722397 -5.4697876" fill-rule="nonzero"></path><path fill="#000000" fill-opacity="0.0" d="m86.88479 361.68365l26.588844 7.0458374" fill-rule="nonzero"></path><path stroke="#cccccc" stroke-width="2.0" stroke-linejoin="round" stroke-linecap="butt" d="m86.88479 361.68365l26.588844 7.0458374" fill-rule="nonzero"></path><path fill="#000000" fill-opacity="0.0" d="m85.71048 365.4312l23.844666 16.576294" fill-rule="nonzero"></path><path stroke="#cccccc" stroke-width="2.0" stroke-linejoin="round" stroke-linecap="butt" d="m85.71048 365.4312l23.844666 16.576294" fill-rule="nonzero"></path><path fill="#000000" fill-opacity="0.0" d="m693.8714 175.58347c0.94073486 3.2384338 4.560547 13.721161 5.644226 19.430618c1.0836182 5.709442 4.859314 11.302643 0.857666 14.826065c-4.001648 3.5234222 -15.618713 3.6584778 -24.867615 6.3144226c-9.248901 2.6559448 -21.905579 4.0004425 -30.625793 9.621231c-8.720154 5.6207733 -15.426941 14.835617 -21.69513 24.103455c-6.2681885 9.267838 -9.899597 18.858627 -15.914001 31.503525c-6.0144043 12.644897 -13.556763 30.456818 -20.172424 44.365875c-6.6157227 13.909058 -16.268066 32.57376 -19.521667 39.0885" fill-rule="nonzero"></path><path stroke="#cccccc" stroke-width="4.0" stroke-linejoin="round" stroke-linecap="butt" d="m693.8714 175.58347c0.94073486 3.2384338 4.560547 13.721161 5.644226 19.430618c1.0836182 5.709442 4.859314 11.302643 0.857666 14.826065c-4.001648 3.5234222 -15.618713 3.6584778 -24.867615 6.3144226c-9.248901 2.6559448 -21.905579 4.0004425 -30.625793 9.621231c-8.720154 5.6207733 -15.426941 14.835617 -21.69513 24.103455c-6.2681885 9.267838 -9.899597 18.858627 -15.914001 31.503525c-6.0144043 12.644897 -13.556763 30.456818 -20.172424 44.365875c-6.6157227 13.909058 -16.268066 32.57376 -19.521667 39.0885" fill-rule="nonzero"></path><path fill="#000000" fill-opacity="0.0" d="m569.05597 363.6817c4.510559 3.2304382 19.89679 19.61792 27.063477 19.38269c7.166687 -0.23522949 9.232483 -9.795746 15.9366455 -20.794037c6.7041626 -10.998291 16.323425 -33.013824 24.288391 -45.19571c7.964966 -12.181885 16.211304 -21.207214 23.501587 -27.89563c7.290283 -6.688385 17.70752 -15.222321 20.240051 -12.234802c2.5325317 2.9874878 -3.0165405 15.464355 -5.044922 30.15982c-2.0283203 14.695496 -3.925415 39.223114 -7.125183 58.01306c-3.199829 18.789948 -9.548584 41.430176 -12.073669 54.726654c-2.5250854 13.296448 -14.372498 20.764923 -3.0769043 25.052155c11.295593 4.2872314 54.516235 2.9033813 70.850464 0.67123413c16.334167 -2.2321472 22.628967 -11.720154 27.154785 -14.064209" fill-rule="nonzero"></path><path stroke="#cccccc" stroke-width="4.0" stroke-linejoin="round" stroke-linecap="butt" d="m569.05597 363.6817c4.510559 3.2304382 19.89679 19.61792 27.063477 19.38269c7.166687 -0.23522949 9.232483 -9.795746 15.9366455 -20.794037c6.7041626 -10.998291 16.323425 -33.013824 24.288391 -45.19571c7.964966 -12.181885 16.211304 -21.207214 23.501587 -27.89563c7.290283 -6.688385 17.70752 -15.222321 20.240051 -12.234802c2.5325317 2.9874878 -3.0165405 15.464355 -5.044922 30.15982c-2.0283203 14.695496 -3.925415 39.223114 -7.125183 58.01306c-3.199829 18.789948 -9.548584 41.430176 -12.073669 54.726654c-2.5250854 13.296448 -14.372498 20.764923 -3.0769043 25.052155c11.295593 4.2872314 54.516235 2.9033813 70.850464 0.67123413c16.334167 -2.2321472 22.628967 -11.720154 27.154785 -14.064209" fill-rule="nonzero"></path><path fill="#b7b7b7" d="m742.8256 258.36826c-0.9946289 -1.6066895 -2.371399 -7.421631 -5.9675293 -9.639999c-3.5961304 -2.2183838 -11.232727 -5.9356537 -15.609375 -3.670288c-4.376587 2.2653656 -11.5078125 11.569962 -10.650513 17.262497c0.8572998 5.6925354 10.911987 11.736023 15.7942505 16.89267c4.882202 5.1566467 11.249268 11.706024 13.4991455 14.047241" fill-rule="nonzero"></path><path stroke="#cccccc" stroke-width="4.0" stroke-linejoin="round" stroke-linecap="butt" d="m742.8256 258.36826c-0.9946289 -1.6066895 -2.371399 -7.421631 -5.9675293 -9.639999c-3.5961304 -2.2183838 -11.232727 -5.9356537 -15.609375 -3.670288c-4.376587 2.2653656 -11.5078125 11.569962 -10.650513 17.262497c0.8572998 5.6925354 10.911987 11.736023 15.7942505 16.89267c4.882202 5.1566467 11.249268 11.706024 13.4991455 14.047241" fill-rule="nonzero"></path><path fill="#b7b7b7" d="m737.5659 258.36826c0.9945679 -1.6066895 2.371399 -7.421631 5.9675293 -9.639999c3.5961304 -2.2183838 11.232666 -5.9356537 15.609314 -3.670288c4.376648 2.2653656 11.5078125 11.569962 10.650574 17.262497c-0.8572998 5.6925354 -10.912048 11.736023 -15.7942505 16.89267c-4.882263 5.1566467 -11.249329 11.706024 -13.499207 14.047241" fill-rule="nonzero"></path><path stroke="#cccccc" stroke-width="4.0" stroke-linejoin="round" stroke-linecap="butt" d="m737.5659 258.36826c0.9945679 -1.6066895 2.371399 -7.421631 5.9675293 -9.639999c3.5961304 -2.2183838 11.232666 -5.9356537 15.609314 -3.670288c4.376648 2.2653656 11.5078125 11.569962 10.650574 17.262497c-0.8572998 5.6925354 -10.912048 11.736023 -15.7942505 16.89267c-4.882263 5.1566467 -11.249329 11.706024 -13.499207 14.047241" fill-rule="nonzero"></path><path fill="#b7b7b7" d="m724.86487 79.35074l14.171082 -0.6071243l-7.854065 9.036293l12.427124 2.571762l-8.460144 2.3443222l13.653992 10.505058l-15.609253 -4.5597534l1.0576782 5.6643524l-6.2574463 -2.047905l2.4846802 10.433105l-9.608826 -10.4965515l-2.9417114 5.594612l-5.5216675 -7.834198l-5.100708 3.6879349l-2.7752075 -5.875305l-5.9971313 1.5590515l-1.1344604 -4.9448547l-11.200195 0.5915909l3.8648071 -5.7817l-8.787781 -7.644539l8.444031 -0.020439148l-5.7124023 -10.707771l11.989502 5.6515884l-3.187561 -10.958885l11.659546 7.5522385l2.8920288 -8.65683l7.282898 12.563873l8.663269 -5.1219482z" fill-rule="nonzero"></path><path stroke="#cccccc" stroke-width="2.0" stroke-linejoin="round" stroke-linecap="butt" d="m724.86487 79.35074l14.171082 -0.6071243l-7.854065 9.036293l12.427124 2.571762l-8.460144 2.3443222l13.653992 10.505058l-15.609253 -4.5597534l1.0576782 5.6643524l-6.2574463 -2.047905l2.4846802 10.433105l-9.608826 -10.4965515l-2.9417114 5.594612l-5.5216675 -7.834198l-5.100708 3.6879349l-2.7752075 -5.875305l-5.9971313 1.5590515l-1.1344604 -4.9448547l-11.200195 0.5915909l3.8648071 -5.7817l-8.787781 -7.644539l8.444031 -0.020439148l-5.7124023 -10.707771l11.989502 5.6515884l-3.187561 -10.958885l11.659546 7.5522385l2.8920288 -8.65683l7.282898 12.563873l8.663269 -5.1219482z" fill-rule="nonzero"></path><path fill="#000000" fill-opacity="0.0" d="m759.38165 233.2185l188.59839 0l0 48.0l-188.59839 0z" fill-rule="nonzero"></path><path fill="#d9d9d9" d="m812.3918 262.40726l-0.421875 6.53125l-18.40625 0l0 -1.109375q0.46875 -0.03125 1.25 -0.125q0.78125 -0.109375 1.015625 -0.21875q0.5 -0.234375 0.6875 -0.609375q0.203125 -0.375 0.203125 -0.953125l0 -15.9375q0 -0.515625 -0.171875 -0.90625q-0.171875 -0.40625 -0.71875 -0.65625q-0.421875 -0.203125 -1.140625 -0.359375q-0.703125 -0.15625 -1.125 -0.1875l0 -1.109375l17.15625 0l0 5.34375l-1.171875 0q-0.3125 -1.1875 -1.359375 -2.515625q-1.03125 -1.34375 -1.96875 -1.46875q-0.484375 -0.0625 -1.15625 -0.09375q-0.671875 -0.03125 -1.53125 -0.03125l-3.484375 0l0 8.8125l2.5 0q1.203125 0 1.75 -0.21875q0.5625 -0.234375 0.984375 -0.765625q0.34375 -0.453125 0.578125 -1.203125q0.25 -0.765625 0.328125 -1.4375l1.171875 0l0 8.671875l-1.171875 0q-0.0625 -0.75 -0.34375 -1.578125q-0.265625 -0.84375 -0.5625 -1.21875q-0.484375 -0.609375 -1.109375 -0.796875q-0.609375 -0.1875 -1.625 -0.1875l-2.5 0l0 6.65625q0 1.0 0.140625 1.578125q0.140625 0.578125 0.546875 0.875q0.40625 0.296875 1.109375 0.390625q0.703125 0.078125 2.0 0.078125q0.515625 0 1.359375 0q0.84375 0 1.421875 -0.0625q0.59375 -0.0625 1.21875 -0.21875q0.640625 -0.171875 0.90625 -0.453125q0.71875 -0.75 1.5 -2.265625q0.796875 -1.53125 1.015625 -2.25l1.125 0zm28.25 6.53125l-7.515625 0l0 -1.03125q0.359375 -0.03125 0.71875 -0.0625q0.375 -0.03125 0.65625 -0.125q0.4375 -0.140625 0.640625 -0.484375q0.21875 -0.359375 0.21875 -0.921875l0 -7.953125q0 -1.625 -0.75 -2.5q-0.734375 -0.890625 -1.84375 -0.890625q-0.765625 0 -1.4375 0.234375q-0.671875 0.234375 -1.234375 0.65625q-0.453125 0.34375 -0.765625 0.75q-0.296875 0.390625 -0.453125 0.65625l0 8.890625q0 0.546875 0.1875 0.90625q0.1875 0.34375 0.640625 0.53125q0.359375 0.140625 0.640625 0.21875q0.296875 0.0625 0.765625 0.09375l0 1.03125l-7.359375 0l0 -1.03125q0.359375 -0.03125 0.6875 -0.0625q0.34375 -0.03125 0.625 -0.125q0.4375 -0.140625 0.640625 -0.484375q0.21875 -0.359375 0.21875 -0.921875l0 -7.953125q0 -1.625 -0.75 -2.5q-0.734375 -0.890625 -1.84375 -0.890625q-0.765625 0 -1.4375 0.25q-0.671875 0.234375 -1.234375 0.65625q-0.453125 0.34375 -0.765625 0.78125q-0.3125 0.421875 -0.46875 0.640625l0 8.828125q0 0.53125 0.21875 0.890625q0.21875 0.359375 0.65625 0.546875q0.328125 0.15625 0.671875 0.234375q0.34375 0.078125 0.765625 0.109375l0 1.03125l-7.484375 0l0 -1.03125q0.359375 -0.03125 0.734375 -0.0625q0.390625 -0.03125 0.671875 -0.125q0.4375 -0.140625 0.640625 -0.484375q0.21875 -0.359375 0.21875 -0.921875l0 -9.578125q0 -0.5 -0.234375 -0.890625q-0.21875 -0.40625 -0.625 -0.6875q-0.296875 -0.1875 -0.734375 -0.296875q-0.4375 -0.125 -0.90625 -0.15625l0 -1.015625l5.15625 -0.34375l0.21875 0.21875l0 2.203125l0.109375 0q0.390625 -0.390625 0.953125 -0.921875q0.5625 -0.53125 1.046875 -0.859375q0.546875 -0.375 1.359375 -0.625q0.828125 -0.25 1.78125 -0.25q1.5 0 2.578125 0.8125q1.078125 0.796875 1.546875 1.9375q0.5625 -0.546875 0.984375 -0.953125q0.4375 -0.421875 1.140625 -0.890625q0.59375 -0.40625 1.390625 -0.65625q0.8125 -0.25 1.796875 -0.25q1.953125 0 3.09375 1.28125q1.140625 1.28125 1.140625 3.9375l0 7.828125q0 0.546875 0.1875 0.90625q0.1875 0.34375 0.640625 0.53125q0.359375 0.140625 0.703125 0.21875q0.359375 0.0625 0.796875 0.09375l0 1.03125zm16.8125 -7.859375q0 1.625 -0.515625 3.203125q-0.515625 1.5625 -1.46875 2.65625q-1.078125 1.25 -2.5 1.859375q-1.421875 0.609375 -3.1875 0.609375q-1.46875 0 -2.796875 -0.546875q-1.328125 -0.5625 -2.359375 -1.625q-1.015625 -1.046875 -1.625 -2.546875q-0.59375 -1.515625 -0.59375 -3.390625q0 -3.609375 2.09375 -5.90625q2.109375 -2.296875 5.515625 -2.296875q3.234375 0 5.328125 2.1875q2.109375 2.171875 2.109375 5.796875zm-3.234375 0.03125q0 -1.171875 -0.234375 -2.46875q-0.234375 -1.3125 -0.703125 -2.21875q-0.5 -0.96875 -1.3125 -1.546875q-0.8125 -0.59375 -1.984375 -0.59375q-1.203125 0 -2.0625 0.59375q-0.84375 0.59375 -1.375 1.625q-0.5 0.953125 -0.703125 2.171875q-0.203125 1.21875 -0.203125 2.359375q0 1.5 0.234375 2.78125q0.25 1.265625 0.78125 2.265625q0.53125 1.0 1.328125 1.578125q0.8125 0.5625 2.0 0.5625q1.953125 0 3.09375 -1.890625q1.140625 -1.890625 1.140625 -5.21875zm14.984375 7.15625q-1.015625 0.421875 -1.921875 0.703125q-0.90625 0.296875 -2.21875 0.296875q-1.9375 0 -2.734375 -0.96875q-0.78125 -0.984375 -0.78125 -2.765625l0 -10.4375l-2.78125 0l0 -1.5l2.84375 0l0 -4.796875l2.84375 0l0 4.796875l4.421875 0l0 1.5l-4.390625 0l0 8.609375q0 0.96875 0.0625 1.625q0.078125 0.640625 0.34375 1.125q0.25 0.453125 0.75 0.6875q0.5 0.234375 1.34375 0.234375q0.390625 0 1.140625 -0.0625q0.765625 -0.078125 1.078125 -0.1875l0 1.140625zm9.015625 0.671875l-7.453125 0l0 -1.03125q0.359375 -0.03125 0.734375 -0.0625q0.390625 -0.03125 0.671875 -0.125q0.4375 -0.140625 0.640625 -0.484375q0.21875 -0.359375 0.21875 -0.921875l0 -9.515625q0 -0.5 -0.234375 -0.90625q-0.21875 -0.421875 -0.625 -0.703125q-0.296875 -0.1875 -0.859375 -0.3125q-0.5625 -0.140625 -1.03125 -0.171875l0 -1.015625l5.4375 -0.34375l0.21875 0.21875l0 12.5625q0 0.546875 0.203125 0.90625q0.21875 0.359375 0.671875 0.53125q0.34375 0.140625 0.671875 0.234375q0.328125 0.078125 0.734375 0.109375l0 1.03125zm-1.96875 -21.671875q0 0.890625 -0.59375 1.5625q-0.578125 0.65625 -1.4375 0.65625q-0.796875 0 -1.390625 -0.625q-0.578125 -0.640625 -0.578125 -1.453125q0 -0.859375 0.578125 -1.5q0.59375 -0.640625 1.390625 -0.640625q0.890625 0 1.453125 0.609375q0.578125 0.59375 0.578125 1.390625zm18.875 13.8125q0 1.625 -0.515625 3.203125q-0.515625 1.5625 -1.46875 2.65625q-1.078125 1.25 -2.5 1.859375q-1.421875 0.609375 -3.1875 0.609375q-1.46875 0 -2.796875 -0.546875q-1.328125 -0.5625 -2.359375 -1.625q-1.015625 -1.046875 -1.625 -2.546875q-0.59375 -1.515625 -0.59375 -3.390625q0 -3.609375 2.09375 -5.90625q2.109375 -2.296875 5.515625 -2.296875q3.234375 0 5.328125 2.1875q2.109375 2.171875 2.109375 5.796875zm-3.234375 0.03125q0 -1.171875 -0.234375 -2.46875q-0.234375 -1.3125 -0.703125 -2.21875q-0.5 -0.96875 -1.3125 -1.546875q-0.8125 -0.59375 -1.984375 -0.59375q-1.203125 0 -2.0625 0.59375q-0.84375 0.59375 -1.375 1.625q-0.5 0.953125 -0.703125 2.171875q-0.203125 1.21875 -0.203125 2.359375q0 1.5 0.234375 2.78125q0.25 1.265625 0.78125 2.265625q0.53125 1.0 1.328125 1.578125q0.8125 0.5625 2.0 0.5625q1.953125 0 3.09375 -1.890625q1.140625 -1.890625 1.140625 -5.21875zm22.484375 7.828125l-7.546875 0l0 -1.03125q0.359375 -0.03125 0.78125 -0.0625q0.4375 -0.03125 0.71875 -0.125q0.4375 -0.140625 0.640625 -0.484375q0.21875 -0.359375 0.21875 -0.921875l0 -7.921875q0 -1.640625 -0.78125 -2.53125q-0.765625 -0.890625 -1.875 -0.890625q-0.828125 0 -1.515625 0.265625q-0.6875 0.25 -1.21875 0.625q-0.515625 0.359375 -0.828125 0.78125q-0.296875 0.40625 -0.4375 0.65625l0 8.859375q0 0.53125 0.21875 0.875q0.21875 0.34375 0.65625 0.53125q0.328125 0.15625 0.703125 0.234375q0.390625 0.078125 0.796875 0.109375l0 1.03125l-7.546875 0l0 -1.03125q0.359375 -0.03125 0.734375 -0.0625q0.390625 -0.03125 0.671875 -0.125q0.4375 -0.140625 0.640625 -0.484375q0.21875 -0.359375 0.21875 -0.921875l0 -9.515625q0 -0.53125 -0.234375 -0.96875q-0.21875 -0.453125 -0.625 -0.734375q-0.296875 -0.1875 -0.703125 -0.265625q-0.40625 -0.09375 -0.875 -0.125l0 -1.015625l5.125 -0.34375l0.21875 0.21875l0 2.171875l0.078125 0q0.375 -0.375 0.9375 -0.890625q0.5625 -0.53125 1.0625 -0.859375q0.578125 -0.375 1.375 -0.625q0.796875 -0.25 1.796875 -0.25q2.21875 0 3.28125 1.390625q1.078125 1.375 1.078125 3.671875l0 8.015625q0 0.546875 0.1875 0.890625q0.1875 0.328125 0.640625 0.515625q0.375 0.15625 0.640625 0.21875q0.28125 0.0625 0.765625 0.09375l0 1.03125z" fill-rule="nonzero"></path><path fill="#000000" fill-opacity="0.0" d="m753.2993 49.509842l188.59839 0l0 48.0l-188.59839 0z" fill-rule="nonzero"></path><path fill="#d9d9d9" d="m797.0829 69.07359l-1.078125 0q-0.140625 -0.5625 -0.515625 -1.328125q-0.359375 -0.78125 -0.8125 -1.46875q-0.46875 -0.71875 -1.03125 -1.25q-0.546875 -0.546875 -1.0625 -0.625q-0.484375 -0.0625 -1.21875 -0.09375q-0.734375 -0.03125 -1.359375 -0.03125l-0.90625 0l0 17.734375q0 0.515625 0.21875 0.953125q0.21875 0.421875 0.765625 0.65625q0.28125 0.109375 1.171875 0.296875q0.90625 0.1875 1.40625 0.203125l0 1.109375l-10.46875 0l0 -1.109375q0.4375 -0.03125 1.328125 -0.125q0.90625 -0.09375 1.25 -0.234375q0.515625 -0.203125 0.75 -0.578125q0.25 -0.390625 0.25 -1.03125l0 -17.875l-0.90625 0q-0.484375 0 -1.203125 0.03125q-0.71875 0.015625 -1.375 0.09375q-0.515625 0.0625 -1.078125 0.625q-0.546875 0.546875 -1.015625 1.25q-0.46875 0.703125 -0.828125 1.5q-0.359375 0.78125 -0.5 1.296875l-1.09375 0l0 -6.015625l19.3125 0l0 6.015625zm15.96875 15.875q-0.734375 0.265625 -1.296875 0.421875q-0.546875 0.171875 -1.25 0.171875q-1.21875 0 -1.953125 -0.5625q-0.71875 -0.578125 -0.921875 -1.671875l-0.09375 0q-1.015625 1.125 -2.1875 1.71875q-1.15625 0.59375 -2.796875 0.59375q-1.734375 0 -2.859375 -1.0625q-1.109375 -1.0625 -1.109375 -2.78125q0 -0.890625 0.25 -1.59375q0.25 -0.703125 0.75 -1.265625q0.390625 -0.46875 1.03125 -0.828125q0.640625 -0.375 1.203125 -0.59375q0.703125 -0.265625 2.84375 -0.984375q2.15625 -0.71875 2.90625 -1.125l0 -1.546875q0 -0.203125 -0.09375 -0.78125q-0.078125 -0.578125 -0.359375 -1.09375q-0.3125 -0.578125 -0.890625 -1.0q-0.5625 -0.4375 -1.609375 -0.4375q-0.71875 0 -1.34375 0.25q-0.609375 0.234375 -0.859375 0.5q0 0.3125 0.140625 0.921875q0.15625 0.609375 0.15625 1.125q0 0.546875 -0.5 1.0q-0.484375 0.453125 -1.359375 0.453125q-0.78125 0 -1.15625 -0.546875q-0.359375 -0.5625 -0.359375 -1.25q0 -0.71875 0.5 -1.375q0.515625 -0.65625 1.328125 -1.171875q0.703125 -0.4375 1.703125 -0.734375q1.0 -0.3125 1.953125 -0.3125q1.3125 0 2.28125 0.1875q0.984375 0.171875 1.78125 0.765625q0.796875 0.578125 1.203125 1.578125q0.421875 0.984375 0.421875 2.546875q0 2.234375 -0.046875 3.96875q-0.046875 1.71875 -0.046875 3.765625q0 0.609375 0.203125 0.96875q0.21875 0.359375 0.65625 0.609375q0.234375 0.140625 0.734375 0.15625q0.515625 0.015625 1.046875 0.015625l0 1.0zm-5.453125 -8.25q-1.328125 0.390625 -2.328125 0.765625q-1.0 0.375 -1.859375 0.9375q-0.78125 0.53125 -1.234375 1.265625q-0.453125 0.71875 -0.453125 1.71875q0 1.296875 0.671875 1.90625q0.6875 0.609375 1.734375 0.609375q1.109375 0 1.953125 -0.53125q0.84375 -0.546875 1.421875 -1.28125l0.09375 -5.390625zm23.3125 8.53125l-4.65625 0q-1.21875 -1.765625 -2.609375 -3.78125q-1.390625 -2.015625 -2.890625 -3.921875l-1.28125 1.203125l0 3.65625q0 0.5625 0.203125 0.9375q0.203125 0.359375 0.65625 0.53125q0.375 0.15625 0.71875 0.234375q0.34375 0.078125 0.796875 0.109375l0 1.03125l-7.5625 0l0 -1.03125q0.359375 -0.03125 0.75 -0.0625q0.390625 -0.046875 0.65625 -0.125q0.4375 -0.140625 0.65625 -0.484375q0.21875 -0.359375 0.21875 -0.921875l0 -17.90625q0 -0.578125 -0.25 -1.078125q-0.234375 -0.515625 -0.625 -0.78125q-0.328125 -0.25 -1.03125 -0.328125q-0.6875 -0.078125 -1.109375 -0.109375l0 -1.0l5.703125 -0.359375l0.21875 0.234375l0 16.296875q1.21875 -1.21875 2.625 -2.609375q1.421875 -1.40625 2.390625 -2.5q0.125 -0.140625 0.265625 -0.359375q0.15625 -0.234375 0.15625 -0.375q0 -0.421875 -0.6875 -0.625q-0.671875 -0.203125 -1.296875 -0.28125l0 -1.0l6.78125 0l0 0.96875q-1.3125 0.390625 -2.328125 0.984375q-1.0 0.578125 -1.53125 1.046875q-0.375 0.3125 -1.0625 1.015625q-0.6875 0.703125 -1.921875 1.84375q1.28125 1.578125 2.875 3.78125q1.609375 2.203125 2.34375 3.1875q0.6875 0.921875 1.234375 1.203125q0.546875 0.28125 1.59375 0.34375l0 1.03125zm14.5 -3.625q-0.96875 1.84375 -2.59375 2.9375q-1.625 1.09375 -3.734375 1.09375q-1.859375 0 -3.265625 -0.65625q-1.390625 -0.65625 -2.296875 -1.78125q-0.90625 -1.125 -1.359375 -2.625q-0.4375 -1.5 -0.4375 -3.171875q0 -1.5 0.46875 -2.9375q0.484375 -1.453125 1.40625 -2.609375q0.890625 -1.109375 2.203125 -1.78125q1.328125 -0.6875 2.96875 -0.6875q1.6875 0 2.890625 0.53125q1.203125 0.53125 1.953125 1.453125q0.71875 0.875 1.0625 2.0625q0.359375 1.1875 0.359375 2.578125l0 1.03125l-10.203125 0q0 1.515625 0.28125 2.75q0.296875 1.234375 0.921875 2.171875q0.609375 0.90625 1.59375 1.4375q0.984375 0.515625 2.34375 0.515625q1.390625 0 2.390625 -0.640625q1.015625 -0.65625 1.953125 -2.34375l1.09375 0.671875zm-3.453125 -5.875q0 -0.875 -0.15625 -1.875q-0.140625 -1.0 -0.46875 -1.671875q-0.359375 -0.71875 -0.984375 -1.171875q-0.625 -0.453125 -1.609375 -0.453125q-1.640625 0 -2.734375 1.375q-1.078125 1.359375 -1.171875 3.796875l7.125 0zm19.828125 9.21875q-0.734375 0.265625 -1.296875 0.421875q-0.546875 0.171875 -1.25 0.171875q-1.21875 0 -1.953125 -0.5625q-0.71875 -0.578125 -0.921875 -1.671875l-0.09375 0q-1.015625 1.125 -2.1875 1.71875q-1.15625 0.59375 -2.796875 0.59375q-1.734375 0 -2.859375 -1.0625q-1.109375 -1.0625 -1.109375 -2.78125q0 -0.890625 0.25 -1.59375q0.25 -0.703125 0.75 -1.265625q0.390625 -0.46875 1.03125 -0.828125q0.640625 -0.375 1.203125 -0.59375q0.703125 -0.265625 2.84375 -0.984375q2.15625 -0.71875 2.90625 -1.125l0 -1.546875q0 -0.203125 -0.09375 -0.78125q-0.078125 -0.578125 -0.359375 -1.09375q-0.3125 -0.578125 -0.890625 -1.0q-0.5625 -0.4375 -1.609375 -0.4375q-0.71875 0 -1.34375 0.25q-0.609375 0.234375 -0.859375 0.5q0 0.3125 0.140625 0.921875q0.15625 0.609375 0.15625 1.125q0 0.546875 -0.5 1.0q-0.484375 0.453125 -1.359375 0.453125q-0.78125 0 -1.15625 -0.546875q-0.359375 -0.5625 -0.359375 -1.25q0 -0.71875 0.5 -1.375q0.515625 -0.65625 1.328125 -1.171875q0.703125 -0.4375 1.703125 -0.734375q1.0 -0.3125 1.953125 -0.3125q1.3125 0 2.28125 0.1875q0.984375 0.171875 1.78125 0.765625q0.796875 0.578125 1.203125 1.578125q0.421875 0.984375 0.421875 2.546875q0 2.234375 -0.046875 3.96875q-0.046875 1.71875 -0.046875 3.765625q0 0.609375 0.203125 0.96875q0.21875 0.359375 0.65625 0.609375q0.234375 0.140625 0.734375 0.15625q0.515625 0.015625 1.046875 0.015625l0 1.0zm-5.453125 -8.25q-1.328125 0.390625 -2.328125 0.765625q-1.0 0.375 -1.859375 0.9375q-0.78125 0.53125 -1.234375 1.265625q-0.453125 0.71875 -0.453125 1.71875q0 1.296875 0.671875 1.90625q0.6875 0.609375 1.734375 0.609375q1.109375 0 1.953125 -0.53125q0.84375 -0.546875 1.421875 -1.28125l0.09375 -5.390625zm29.9375 -5.875q-0.65625 0.0625 -1.421875 0.546875q-0.75 0.484375 -1.09375 1.453125q-0.78125 2.296875 -1.484375 4.359375q-0.6875 2.046875 -1.546875 4.609375q-0.28125 0.8125 -0.578125 1.75q-0.28125 0.9375 -0.515625 1.796875l-1.34375 0l-4.140625 -11.34375l-4.171875 11.34375l-1.28125 0q-1.171875 -3.46875 -2.296875 -6.875q-1.109375 -3.421875 -1.96875 -5.953125q-0.25 -0.734375 -0.953125 -1.15625q-0.703125 -0.421875 -1.359375 -0.5l0 -1.03125l6.875 0l0 1.09375q-0.515625 0.015625 -1.125 0.171875q-0.59375 0.15625 -0.59375 0.515625q0 0.0625 0.046875 0.265625q0.0625 0.203125 0.140625 0.4375q0.5 1.640625 1.125 3.671875q0.640625 2.015625 1.640625 5.25l3.9375 -11.09375l1.5 0l4.015625 10.9375q0.671875 -2.09375 1.328125 -4.046875q0.671875 -1.96875 1.171875 -3.6875q0.109375 -0.40625 0.203125 -0.734375q0.109375 -0.34375 0.109375 -0.671875q0 -0.28125 -0.25 -0.5q-0.25 -0.21875 -0.609375 -0.359375q-0.3125 -0.125 -0.6875 -0.1875q-0.359375 -0.0625 -0.53125 -0.0625l0 -1.0l5.859375 0l0 1.0zm15.234375 14.125q-0.734375 0.265625 -1.296875 0.421875q-0.546875 0.171875 -1.25 0.171875q-1.21875 0 -1.953125 -0.5625q-0.71875 -0.578125 -0.921875 -1.671875l-0.09375 0q-1.015625 1.125 -2.1875 1.71875q-1.15625 0.59375 -2.796875 0.59375q-1.734375 0 -2.859375 -1.0625q-1.109375 -1.0625 -1.109375 -2.78125q0 -0.890625 0.25 -1.59375q0.25 -0.703125 0.75 -1.265625q0.390625 -0.46875 1.03125 -0.828125q0.640625 -0.375 1.203125 -0.59375q0.703125 -0.265625 2.84375 -0.984375q2.15625 -0.71875 2.90625 -1.125l0 -1.546875q0 -0.203125 -0.09375 -0.78125q-0.078125 -0.578125 -0.359375 -1.09375q-0.3125 -0.578125 -0.890625 -1.0q-0.5625 -0.4375 -1.609375 -0.4375q-0.71875 0 -1.34375 0.25q-0.609375 0.234375 -0.859375 0.5q0 0.3125 0.140625 0.921875q0.15625 0.609375 0.15625 1.125q0 0.546875 -0.5 1.0q-0.484375 0.453125 -1.359375 0.453125q-0.78125 0 -1.15625 -0.546875q-0.359375 -0.5625 -0.359375 -1.25q0 -0.71875 0.5 -1.375q0.515625 -0.65625 1.328125 -1.171875q0.703125 -0.4375 1.703125 -0.734375q1.0 -0.3125 1.953125 -0.3125q1.3125 0 2.28125 0.1875q0.984375 0.171875 1.78125 0.765625q0.796875 0.578125 1.203125 1.578125q0.421875 0.984375 0.421875 2.546875q0 2.234375 -0.046875 3.96875q-0.046875 1.71875 -0.046875 3.765625q0 0.609375 0.203125 0.96875q0.21875 0.359375 0.65625 0.609375q0.234375 0.140625 0.734375 0.15625q0.515625 0.015625 1.046875 0.015625l0 1.0zm-5.453125 -8.25q-1.328125 0.390625 -2.328125 0.765625q-1.0 0.375 -1.859375 0.9375q-0.78125 0.53125 -1.234375 1.265625q-0.453125 0.71875 -0.453125 1.71875q0 1.296875 0.671875 1.90625q0.6875 0.609375 1.734375 0.609375q1.109375 0 1.953125 -0.53125q0.84375 -0.546875 1.421875 -1.28125l0.09375 -5.390625zm5.8125 13.5625q0 -0.78125 0.421875 -1.28125q0.4375 -0.484375 1.078125 -0.484375q0.5 0 0.859375 0.1875q0.359375 0.1875 0.640625 0.484375q0.234375 0.234375 0.5 0.640625q0.265625 0.40625 0.421875 0.671875q0.78125 -0.421875 1.859375 -2.203125q1.09375 -1.78125 1.578125 -3.125q-1.484375 -3.703125 -2.6875 -6.625q-1.203125 -2.921875 -2.515625 -6.046875q-0.296875 -0.71875 -1.0 -1.109375q-0.703125 -0.40625 -1.40625 -0.515625l0 -1.03125l7.03125 0l0 1.09375q-0.46875 0.015625 -1.125 0.203125q-0.65625 0.171875 -0.65625 0.40625q0 0.09375 0.0625 0.3125q0.078125 0.21875 0.171875 0.453125q0.59375 1.546875 1.8125 4.46875q1.21875 2.90625 1.890625 4.65625q0.703125 -1.671875 1.453125 -3.453125q0.765625 -1.796875 1.703125 -4.234375q0.109375 -0.296875 0.3125 -0.8125q0.203125 -0.53125 0.203125 -0.90625q0 -0.40625 -0.71875 -0.75q-0.703125 -0.359375 -1.34375 -0.4375l0 -1.0l5.71875 0l0 0.96875q-0.46875 0.078125 -1.234375 0.546875q-0.765625 0.453125 -1.140625 1.296875q-1.859375 4.3125 -3.3125 7.859375q-1.4375 3.546875 -2.1875 5.21875q-0.984375 2.1875 -1.765625 3.40625q-0.765625 1.234375 -1.5 1.9375q-0.71875 0.65625 -1.3125 0.875q-0.578125 0.234375 -1.203125 0.234375q-1.21875 0 -1.921875 -0.578125q-0.6875 -0.578125 -0.6875 -1.328125z" fill-rule="nonzero"></path><path fill="#000000" fill-opacity="0.0" d="m396.81366 451.13647l221.82678 0l0 48.0l-221.82678 0z" fill-rule="nonzero"></path><path fill="#d9d9d9" d="m431.87546 486.85648l-9.984375 0l0 -1.109375q0.421875 -0.03125 1.21875 -0.09375q0.796875 -0.0625 1.125 -0.1875q0.515625 -0.203125 0.75 -0.546875q0.234375 -0.359375 0.234375 -0.984375l0 -16.0625q0 -0.546875 -0.171875 -0.90625q-0.171875 -0.375 -0.8125 -0.625q-0.46875 -0.1875 -1.1875 -0.34375q-0.703125 -0.171875 -1.15625 -0.203125l0 -1.109375l9.984375 0l0 1.109375q-0.484375 0.015625 -1.15625 0.125q-0.671875 0.09375 -1.171875 0.25q-0.59375 0.1875 -0.796875 0.609375q-0.203125 0.421875 -0.203125 0.9375l0 16.046875q0 0.515625 0.21875 0.921875q0.234375 0.390625 0.78125 0.625q0.328125 0.125 1.0625 0.28125q0.75 0.140625 1.265625 0.15625l0 1.109375zm19.390625 0l-7.546875 0l0 -1.03125q0.359375 -0.03125 0.78125 -0.0625q0.4375 -0.03125 0.71875 -0.125q0.4375 -0.140625 0.640625 -0.484375q0.21875 -0.359375 0.21875 -0.921875l0 -7.921875q0 -1.640625 -0.78125 -2.53125q-0.765625 -0.890625 -1.875 -0.890625q-0.828125 0 -1.515625 0.265625q-0.6875 0.25 -1.21875 0.625q-0.515625 0.359375 -0.828125 0.78125q-0.296875 0.40625 -0.4375 0.65625l0 8.859375q0 0.53125 0.21875 0.875q0.21875 0.34375 0.65625 0.53125q0.328125 0.15625 0.703125 0.234375q0.390625 0.078125 0.796875 0.109375l0 1.03125l-7.546875 0l0 -1.03125q0.359375 -0.03125 0.734375 -0.0625q0.390625 -0.03125 0.671875 -0.125q0.4375 -0.140625 0.640625 -0.484375q0.21875 -0.359375 0.21875 -0.921875l0 -9.515625q0 -0.53125 -0.234375 -0.96875q-0.21875 -0.453125 -0.625 -0.734375q-0.296875 -0.1875 -0.703125 -0.265625q-0.40625 -0.09375 -0.875 -0.125l0 -1.015625l5.125 -0.34375l0.21875 0.21875l0 2.171875l0.078125 0q0.375 -0.375 0.9375 -0.890625q0.5625 -0.53125 1.0625 -0.859375q0.578125 -0.375 1.375 -0.625q0.796875 -0.25 1.796875 -0.25q2.21875 0 3.28125 1.390625q1.078125 1.375 1.078125 3.671875l0 8.015625q0 0.546875 0.1875 0.890625q0.1875 0.328125 0.640625 0.515625q0.375 0.15625 0.640625 0.21875q0.28125 0.0625 0.765625 0.09375l0 1.03125zm11.40625 -0.671875q-1.015625 0.421875 -1.921875 0.703125q-0.90625 0.296875 -2.21875 0.296875q-1.9375 0 -2.734375 -0.96875q-0.78125 -0.984375 -0.78125 -2.765625l0 -10.4375l-2.78125 0l0 -1.5l2.84375 0l0 -4.796875l2.84375 0l0 4.796875l4.421875 0l0 1.5l-4.390625 0l0 8.609375q0 0.96875 0.0625 1.625q0.078125 0.640625 0.34375 1.125q0.25 0.453125 0.75 0.6875q0.5 0.234375 1.34375 0.234375q0.390625 0 1.140625 -0.0625q0.765625 -0.078125 1.078125 -0.1875l0 1.140625zm15.21875 -2.953125q-0.96875 1.84375 -2.59375 2.9375q-1.625 1.09375 -3.734375 1.09375q-1.859375 0 -3.265625 -0.65625q-1.390625 -0.65625 -2.296875 -1.78125q-0.90625 -1.125 -1.359375 -2.625q-0.4375 -1.5 -0.4375 -3.171875q0 -1.5 0.46875 -2.9375q0.484375 -1.453125 1.40625 -2.609375q0.890625 -1.109375 2.203125 -1.78125q1.328125 -0.6875 2.96875 -0.6875q1.6875 0 2.890625 0.53125q1.203125 0.53125 1.953125 1.453125q0.71875 0.875 1.0625 2.0625q0.359375 1.1875 0.359375 2.578125l0 1.03125l-10.203125 0q0 1.515625 0.28125 2.75q0.296875 1.234375 0.921875 2.171875q0.609375 0.90625 1.59375 1.4375q0.984375 0.515625 2.34375 0.515625q1.390625 0 2.390625 -0.640625q1.015625 -0.65625 1.953125 -2.34375l1.09375 0.671875zm-3.453125 -5.875q0 -0.875 -0.15625 -1.875q-0.140625 -1.0 -0.46875 -1.671875q-0.359375 -0.71875 -0.984375 -1.171875q-0.625 -0.453125 -1.609375 -0.453125q-1.640625 0 -2.734375 1.375q-1.078125 1.359375 -1.171875 3.796875l7.125 0zm17.03125 -3.921875q0 0.796875 -0.390625 1.421875q-0.390625 0.609375 -1.203125 0.609375q-0.875 0 -1.34375 -0.453125q-0.453125 -0.453125 -0.453125 -1.0q0 -0.34375 0.046875 -0.625q0.0625 -0.28125 0.109375 -0.5625q-0.734375 0 -1.71875 0.59375q-0.984375 0.59375 -1.671875 1.6875l0 8.96875q0 0.546875 0.203125 0.890625q0.21875 0.34375 0.671875 0.515625q0.390625 0.15625 1.0 0.234375q0.625 0.078125 1.078125 0.109375l0 1.03125l-8.125 0l0 -1.03125q0.359375 -0.03125 0.734375 -0.0625q0.390625 -0.03125 0.671875 -0.125q0.4375 -0.140625 0.640625 -0.484375q0.21875 -0.359375 0.21875 -0.921875l0 -9.515625q0 -0.484375 -0.234375 -0.953125q-0.21875 -0.46875 -0.625 -0.75q-0.296875 -0.1875 -0.703125 -0.265625q-0.40625 -0.09375 -0.875 -0.125l0 -1.015625l5.125 -0.34375l0.21875 0.21875l0 2.171875l0.078125 0q0.96875 -1.265625 2.15625 -1.921875q1.1875 -0.65625 2.171875 -0.65625q0.984375 0 1.59375 0.640625q0.625 0.640625 0.625 1.71875zm15.90625 13.140625q-0.734375 0.265625 -1.296875 0.421875q-0.546875 0.171875 -1.25 0.171875q-1.21875 0 -1.953125 -0.5625q-0.71875 -0.578125 -0.921875 -1.671875l-0.09375 0q-1.015625 1.125 -2.1875 1.71875q-1.15625 0.59375 -2.796875 0.59375q-1.734375 0 -2.859375 -1.0625q-1.109375 -1.0625 -1.109375 -2.78125q0 -0.890625 0.25 -1.59375q0.25 -0.703125 0.75 -1.265625q0.390625 -0.46875 1.03125 -0.828125q0.640625 -0.375 1.203125 -0.59375q0.703125 -0.265625 2.84375 -0.984375q2.15625 -0.71875 2.90625 -1.125l0 -1.546875q0 -0.203125 -0.09375 -0.78125q-0.078125 -0.578125 -0.359375 -1.09375q-0.3125 -0.578125 -0.890625 -1.0q-0.5625 -0.4375 -1.609375 -0.4375q-0.71875 0 -1.34375 0.25q-0.609375 0.234375 -0.859375 0.5q0 0.3125 0.140625 0.921875q0.15625 0.609375 0.15625 1.125q0 0.546875 -0.5 1.0q-0.484375 0.453125 -1.359375 0.453125q-0.78125 0 -1.15625 -0.546875q-0.359375 -0.5625 -0.359375 -1.25q0 -0.71875 0.5 -1.375q0.515625 -0.65625 1.328125 -1.171875q0.703125 -0.4375 1.703125 -0.734375q1.0 -0.3125 1.953125 -0.3125q1.3125 0 2.28125 0.1875q0.984375 0.171875 1.78125 0.765625q0.796875 0.578125 1.203125 1.578125q0.421875 0.984375 0.421875 2.546875q0 2.234375 -0.046875 3.96875q-0.046875 1.71875 -0.046875 3.765625q0 0.609375 0.203125 0.96875q0.21875 0.359375 0.65625 0.609375q0.234375 0.140625 0.734375 0.15625q0.515625 0.015625 1.046875 0.015625l0 1.0zm-5.453125 -8.25q-1.328125 0.390625 -2.328125 0.765625q-1.0 0.375 -1.859375 0.9375q-0.78125 0.53125 -1.234375 1.265625q-0.453125 0.71875 -0.453125 1.71875q0 1.296875 0.671875 1.90625q0.6875 0.609375 1.734375 0.609375q1.109375 0 1.953125 -0.53125q0.84375 -0.546875 1.421875 -1.28125l0.09375 -5.390625zm14.1094055 8.9375q-3.34375 0 -5.2344055 -2.21875q-1.890625 -2.21875 -1.890625 -5.953125q0 -1.625 0.5 -3.03125q0.515625 -1.421875 1.484375 -2.578125q0.921875 -1.109375 2.3125305 -1.78125q1.390625 -0.6875 3.03125 -0.6875q2.265625 0 3.6875 1.09375q1.421875 1.078125 1.421875 2.953125q0 0.78125 -0.375 1.390625q-0.375 0.59375 -1.234375 0.59375q-0.921875 0 -1.4375 -0.46875q-0.5 -0.46875 -0.5 -1.046875q0 -0.703125 0.1875 -1.4375q0.1875 -0.75 0.21875 -1.09375q-0.28125 -0.484375 -0.84375 -0.640625q-0.546875 -0.171875 -1.1875 -0.171875q-0.75 0 -1.4375 0.328125q-0.671875 0.3125 -1.3125 1.171875q-0.578125 0.78125 -0.9375 2.109375q-0.359375 1.328125 -0.359375 3.171875q0 2.90625 1.28125 4.75q1.296875 1.828125 3.390625 1.828125q1.515625 0 2.53125 -0.734375q1.03125 -0.734375 1.90625 -2.203125l1.0 0.65625q-1.03125 1.84375 -2.71875 2.921875q-1.6875 1.078125 -3.484375 1.078125zm16.921875 -1.078125q-1.015625 0.421875 -1.921875 0.703125q-0.90625 0.296875 -2.21875 0.296875q-1.9375 0 -2.734375 -0.96875q-0.78125 -0.984375 -0.78125 -2.765625l0 -10.4375l-2.78125 0l0 -1.5l2.84375 0l0 -4.796875l2.84375 0l0 4.796875l4.421875 0l0 1.5l-4.390625 0l0 8.609375q0 0.96875 0.0625 1.625q0.078125 0.640625 0.34375 1.125q0.25 0.453125 0.75 0.6875q0.5 0.234375 1.34375 0.234375q0.390625 0 1.140625 -0.0625q0.765625 -0.078125 1.078125 -0.1875l0 1.140625zm9.015625 0.671875l-7.453125 0l0 -1.03125q0.359375 -0.03125 0.734375 -0.0625q0.390625 -0.03125 0.671875 -0.125q0.4375 -0.140625 0.640625 -0.484375q0.21875 -0.359375 0.21875 -0.921875l0 -9.515625q0 -0.5 -0.234375 -0.90625q-0.21875 -0.421875 -0.625 -0.703125q-0.296875 -0.1875 -0.859375 -0.3125q-0.5625 -0.140625 -1.03125 -0.171875l0 -1.015625l5.4375 -0.34375l0.21875 0.21875l0 12.5625q0 0.546875 0.203125 0.90625q0.21875 0.359375 0.671875 0.53125q0.34375 0.140625 0.671875 0.234375q0.328125 0.078125 0.734375 0.109375l0 1.03125zm-1.96875 -21.671875q0 0.890625 -0.59375 1.5625q-0.578125 0.65625 -1.4375 0.65625q-0.796875 0 -1.390625 -0.625q-0.578125 -0.640625 -0.578125 -1.453125q0 -0.859375 0.578125 -1.5q0.59375 -0.640625 1.390625 -0.640625q0.890625 0 1.453125 0.609375q0.578125 0.59375 0.578125 1.390625zm19.078125 7.21875q-0.703125 0.125 -1.34375 0.515625q-0.625 0.375 -1.078125 1.34375q-0.921875 2.09375 -1.90625 4.375q-0.984375 2.265625 -2.046875 4.765625q-0.3125 0.71875 -0.671875 1.703125q-0.34375 0.984375 -0.640625 1.890625l-1.21875 0q-1.484375 -3.671875 -2.734375 -6.6875q-1.25 -3.03125 -2.59375 -6.203125q-0.3125 -0.71875 -1.015625 -1.109375q-0.6875 -0.40625 -1.390625 -0.515625l0 -1.03125l7.125 0l0 1.09375q-0.46875 0.015625 -1.171875 0.203125q-0.703125 0.171875 -0.703125 0.484375q0 0.046875 0.078125 0.25q0.078125 0.1875 0.15625 0.4375q0.640625 1.59375 1.8125 4.453125q1.171875 2.859375 1.90625 4.609375q0.5625 -1.34375 1.40625 -3.34375q0.859375 -2.0 1.84375 -4.46875q0.15625 -0.421875 0.296875 -0.78125q0.140625 -0.375 0.140625 -0.75q0 -0.265625 -0.265625 -0.46875q-0.25 -0.21875 -0.609375 -0.375q-0.359375 -0.15625 -0.703125 -0.234375q-0.34375 -0.078125 -0.5625 -0.109375l0 -1.0l5.890625 0l0 0.953125zm8.15625 14.453125l-7.453125 0l0 -1.03125q0.359375 -0.03125 0.734375 -0.0625q0.390625 -0.03125 0.671875 -0.125q0.4375 -0.140625 0.640625 -0.484375q0.21875 -0.359375 0.21875 -0.921875l0 -9.515625q0 -0.5 -0.234375 -0.90625q-0.21875 -0.421875 -0.625 -0.703125q-0.296875 -0.1875 -0.859375 -0.3125q-0.5625 -0.140625 -1.03125 -0.171875l0 -1.015625l5.4375 -0.34375l0.21875 0.21875l0 12.5625q0 0.546875 0.203125 0.90625q0.21875 0.359375 0.671875 0.53125q0.34375 0.140625 0.671875 0.234375q0.328125 0.078125 0.734375 0.109375l0 1.03125zm-1.96875 -21.671875q0 0.890625 -0.59375 1.5625q-0.578125 0.65625 -1.4375 0.65625q-0.796875 0 -1.390625 -0.625q-0.578125 -0.640625 -0.578125 -1.453125q0 -0.859375 0.578125 -1.5q0.59375 -0.640625 1.390625 -0.640625q0.890625 0 1.453125 0.609375q0.578125 0.59375 0.578125 1.390625zm13.375 21.0q-1.015625 0.421875 -1.921875 0.703125q-0.90625 0.296875 -2.21875 0.296875q-1.9375 0 -2.734375 -0.96875q-0.78125 -0.984375 -0.78125 -2.765625l0 -10.4375l-2.78125 0l0 -1.5l2.84375 0l0 -4.796875l2.84375 0l0 4.796875l4.421875 0l0 1.5l-4.390625 0l0 8.609375q0 0.96875 0.0625 1.625q0.078125 0.640625 0.34375 1.125q0.25 0.453125 0.75 0.6875q0.5 0.234375 1.34375 0.234375q0.390625 0 1.140625 -0.0625q0.765625 -0.078125 1.078125 -0.1875l0 1.140625zm0.359375 5.703125q0 -0.78125 0.421875 -1.28125q0.4375 -0.484375 1.078125 -0.484375q0.5 0 0.859375 0.1875q0.359375 0.1875 0.640625 0.484375q0.234375 0.234375 0.5 0.640625q0.265625 0.40625 0.421875 0.671875q0.78125 -0.421875 1.859375 -2.203125q1.09375 -1.78125 1.578125 -3.125q-1.484375 -3.703125 -2.6875 -6.625q-1.203125 -2.921875 -2.515625 -6.046875q-0.296875 -0.71875 -1.0 -1.109375q-0.703125 -0.40625 -1.40625 -0.515625l0 -1.03125l7.03125 0l0 1.09375q-0.46875 0.015625 -1.125 0.203125q-0.65625 0.171875 -0.65625 0.40625q0 0.09375 0.0625 0.3125q0.078125 0.21875 0.171875 0.453125q0.59375 1.546875 1.8125 4.46875q1.21875 2.90625 1.890625 4.65625q0.703125 -1.671875 1.453125 -3.453125q0.765625 -1.796875 1.703125 -4.234375q0.109375 -0.296875 0.3125 -0.8125q0.203125 -0.53125 0.203125 -0.90625q0 -0.40625 -0.71875 -0.75q-0.703125 -0.359375 -1.34375 -0.4375l0 -1.0l5.71875 0l0 0.96875q-0.46875 0.078125 -1.234375 0.546875q-0.765625 0.453125 -1.140625 1.296875q-1.859375 4.3125 -3.3125 7.859375q-1.4375 3.546875 -2.1875 5.21875q-0.984375 2.1875 -1.765625 3.40625q-0.765625 1.234375 -1.5 1.9375q-0.71875 0.65625 -1.3125 0.875q-0.578125 0.234375 -1.203125 0.234375q-1.21875 0 -1.921875 -0.578125q-0.6875 -0.578125 -0.6875 -1.328125z" fill-rule="nonzero"></path><path fill="#000000" fill-opacity="0.0" d="m572.1167 366.71167c-1.1470337 1.795105 -2.0228271 8.136566 -6.882324 10.770569c-4.859497 2.6340027 -18.21405 2.9648743 -22.274658 5.033478c-4.060547 2.0686035 -4.7592773 6.1623535 -2.088623 7.3781433c2.6706543 1.2157898 16.934631 -2.6898499 18.112732 -0.08340454c1.1780396 2.6064453 -8.470947 11.7769165 -11.044434 15.722076c-2.5734253 3.9451904 -4.883606 6.1508484 -4.39624 7.948944c0.48736572 1.7981262 3.9902344 5.2168884 7.3205566 2.8397217c3.3303223 -2.3771667 11.661743 -17.181427 12.661438 -17.102722c0.9996948 0.07873535 -5.5526733 14.645813 -6.663208 17.574951" fill-rule="nonzero"></path><path stroke="#cccccc" stroke-width="4.0" stroke-linejoin="round" stroke-linecap="butt" d="m572.1167 366.71167c-1.1470337 1.795105 -2.0228271 8.136566 -6.882324 10.770569c-4.859497 2.6340027 -18.21405 2.9648743 -22.274658 5.033478c-4.060547 2.0686035 -4.7592773 6.1623535 -2.088623 7.3781433c2.6706543 1.2157898 16.934631 -2.6898499 18.112732 -0.08340454c1.1780396 2.6064453 -8.470947 11.7769165 -11.044434 15.722076c-2.5734253 3.9451904 -4.883606 6.1508484 -4.39624 7.948944c0.48736572 1.7981262 3.9902344 5.2168884 7.3205566 2.8397217c3.3303223 -2.3771667 11.661743 -17.181427 12.661438 -17.102722c0.9996948 0.07873535 -5.5526733 14.645813 -6.663208 17.574951" fill-rule="nonzero"></path><path fill="#000000" fill-opacity="0.0" d="m575.7697 410.2283c-0.14050293 1.1878357 -1.6946411 5.639038 -0.8432007 7.127014c0.8514404 1.4879761 4.295105 3.543335 5.9519653 1.8008728c1.6567993 -1.7424622 3.274231 -8.625336 3.9889526 -12.255646c0.71466064 -3.63031 0.10882568 -6.750458 0.29919434 -9.526184c0.19036865 -2.7757263 -0.27130127 -4.3528748 0.84295654 -7.128174c1.1142578 -2.775299 4.8687134 -7.9363403 5.8424683 -9.523621" fill-rule="nonzero"></path><path stroke="#cccccc" stroke-width="4.0" stroke-linejoin="round" stroke-linecap="butt" d="m575.7697 410.2283c-0.14050293 1.1878357 -1.6946411 5.639038 -0.8432007 7.127014c0.8514404 1.4879761 4.295105 3.543335 5.9519653 1.8008728c1.6567993 -1.7424622 3.274231 -8.625336 3.9889526 -12.255646c0.71466064 -3.63031 0.10882568 -6.750458 0.29919434 -9.526184c0.19036865 -2.7757263 -0.27130127 -4.3528748 0.84295654 -7.128174c1.1142578 -2.775299 4.8687134 -7.9363403 5.8424683 -9.523621" fill-rule="nonzero"></path><path fill="#000000" fill-opacity="0.0" d="m565.1127 399.92358c-0.97332764 1.7326355 -4.1620483 7.074646 -5.840027 10.3958435c-1.6779785 3.321167 -3.5211792 6.817566 -4.227783 9.53125c-0.70666504 2.7136536 -0.8305054 5.5467224 -0.011962891 6.7507324c0.8185425 1.2039795 3.3931274 1.8124695 4.923279 0.47320557c1.5300903 -1.3392334 2.4187622 -4.8419495 4.2573853 -8.508667c1.8386841 -3.6667175 5.645447 -11.242981 6.774536 -13.491577" fill-rule="nonzero"></path><path stroke="#cccccc" stroke-width="4.0" stroke-linejoin="round" stroke-linecap="butt" d="m565.1127 399.92358c-0.97332764 1.7326355 -4.1620483 7.074646 -5.840027 10.3958435c-1.6779785 3.321167 -3.5211792 6.817566 -4.227783 9.53125c-0.70666504 2.7136536 -0.8305054 5.5467224 -0.011962891 6.7507324c0.8185425 1.2039795 3.3931274 1.8124695 4.923279 0.47320557c1.5300903 -1.3392334 2.4187622 -4.8419495 4.2573853 -8.508667c1.8386841 -3.6667175 5.645447 -11.242981 6.774536 -13.491577" fill-rule="nonzero"></path><path fill="#000000" fill-opacity="0.0" d="m570.2061 404.77966c-0.44293213 1.6187134 -1.9622803 6.6477966 -2.6577148 9.712219c-0.69537354 3.0644531 -1.4902344 6.3062134 -1.5148315 8.674408c-0.024536133 2.368164 0.4520874 4.71521 1.3674927 5.5346985c0.9154053 0.8194885 3.1461792 0.79226685 4.124939 -0.61776733c0.9788208 -1.4100342 0.991333 -4.462036 1.7477417 -7.8424683c0.7564087 -3.3804016 2.3256226 -10.366699 2.7907104 -12.440033" fill-rule="nonzero"></path><path stroke="#cccccc" stroke-width="4.0" stroke-linejoin="round" stroke-linecap="butt" d="m570.2061 404.77966c-0.44293213 1.6187134 -1.9622803 6.6477966 -2.6577148 9.712219c-0.69537354 3.0644531 -1.4902344 6.3062134 -1.5148315 8.674408c-0.024536133 2.368164 0.4520874 4.71521 1.3674927 5.5346985c0.9154053 0.8194885 3.1461792 0.79226685 4.124939 -0.61776733c0.9788208 -1.4100342 0.991333 -4.462036 1.7477417 -7.8424683c0.7564087 -3.3804016 2.3256226 -10.366699 2.7907104 -12.440033" fill-rule="nonzero"></path></g></svg>

